<svg width="60" height="69" viewBox="0 0 60 69" fill="none" xmlns="http://www.w3.org/2000/svg">
<path d="M27.1716 32.2951C28.7337 33.8572 31.2664 33.8572 32.8285 32.2951L58.2841 6.83902C59.8462 5.27691 59.8462 2.74425 58.284 1.18217C56.7219 -0.379921 54.1893 -0.3799 52.6272 1.18221L30 23.8098L7.37236 1.18258C5.81025 -0.379503 3.27759 -0.379484 1.7155 1.18263C0.153418 2.74474 0.153439 5.2774 1.71555 6.83948L27.1716 32.2951ZM27.1716 67.2951C28.7337 68.8572 31.2664 68.8572 32.8285 67.2951L58.2841 41.839C59.8462 40.2769 59.8462 37.7442 58.284 36.1822C56.7219 34.6201 54.1893 34.6201 52.6272 36.1822L30 58.8098L7.37236 36.1826C5.81025 34.6205 3.27759 34.6205 1.7155 36.1826C0.153418 37.7447 0.153439 40.2774 1.71555 41.8395L27.1716 67.2951ZM26 29L26 29.4667L34 29.4666L34 29L26 29ZM26 64L26 64.4667L34 64.4666L34 64L26 64Z" fill="black"/>
</svg>
