<svg width="31" height="42" viewBox="0 0 31 42" fill="none" xmlns="http://www.w3.org/2000/svg">
<path d="M19.6253 29.4283C20.5592 28.945 21.4409 28.2914 22.2715 27.4734L22.4699 29.1484L22.5158 29.5364L22.9034 29.5856C23.7595 29.6944 24.7554 29.7477 25.8881 29.7477C27.3506 29.7477 28.692 29.6587 29.9107 29.4788L30.2757 29.425L30.3319 29.0603C30.4432 28.337 30.5 27.6613 30.5 27.0343C30.5 26.3732 30.4434 25.7126 30.3305 25.0527L30.2549 24.6107L29.8073 24.6379L26.875 24.8165V11.3294C26.875 7.68922 25.8364 4.92162 23.6636 3.14417C21.5317 1.36511 18.7212 0.5 15.2836 0.5C11.3509 0.5 7.88969 2.02019 4.91884 5.02249L4.91876 5.02257C1.92338 8.05105 0.5 13.4613 0.5 21.0791C0.5 28.7623 1.90352 34.1773 4.86676 37.1377L4.86903 37.1399C7.82423 40.0549 11.6354 41.5 16.2575 41.5C18.596 41.5 20.7945 41.2865 22.8515 40.8572C24.9488 40.427 27.3434 39.6419 30.0318 38.5095L30.2843 38.4032L30.3305 38.1331C30.4103 37.667 30.4459 36.9636 30.4459 36.0461C30.4459 35.1287 30.4103 34.4252 30.3305 33.9592L30.2212 33.3204L29.6311 33.5881C27.0188 34.7733 24.708 35.5853 22.6957 36.0323L22.6957 36.0322L22.6858 36.0346C20.7055 36.5168 18.6713 36.7582 16.5821 36.7582C14.1928 36.7582 12.2078 36.2963 10.6042 35.399L10.6012 35.3973C9.07207 34.5554 7.81941 33.03 6.87421 30.7472C5.97021 28.4417 5.50373 25.2293 5.50373 21.0791C5.50373 15.6693 6.35316 11.6969 7.98399 9.09137C9.59034 6.52497 11.9805 5.24177 15.2295 5.24177C17.6037 5.24177 19.2461 5.85338 20.2706 6.97604L20.2706 6.97607L20.2754 6.98119C21.3208 8.09501 21.8713 9.64644 21.8713 11.6983V12.7899C19.5399 12.6073 17.3619 12.5158 15.3377 12.5158C14.6073 12.5158 13.0845 12.5512 10.7777 12.6214L10.4398 12.6317L10.3235 12.9491C9.77591 14.4425 9.37137 15.8194 9.11283 17.0786L9.1127 17.0786L9.11062 17.09C8.88736 18.3224 8.77799 19.7767 8.77799 21.448C8.77799 24.2491 9.36658 26.4688 10.6191 28.032L10.619 28.0321L10.6278 28.0425C11.9301 29.5801 13.7584 30.3274 16.041 30.3274C17.2461 30.3274 18.4407 30.0239 19.6201 29.4309L19.6201 29.4309L19.6253 29.4283ZM14.2436 24.4454C13.777 23.7182 13.5112 22.6001 13.5112 21.0264C13.5112 19.6085 13.6751 18.2051 14.0032 16.8153C14.4842 16.7941 15.0906 16.7833 15.8246 16.7833C17.6635 16.7833 19.6788 16.89 21.8713 17.1044V22.8689C19.9947 24.6507 18.2155 25.4802 16.528 25.4802C15.3854 25.4802 14.6684 25.1075 14.2436 24.4454Z" fill="white" stroke="white"/>
</svg>
