<svg width="40" height="41" viewBox="0 0 40 41" fill="none" xmlns="http://www.w3.org/2000/svg">
<path d="M16.0656 41H24.0984C24.0984 41 23.9344 37.0278 23.9344 34.4827C23.9344 31.9375 23.9344 27.0173 23.9344 27.0173C23.9344 27.0173 27.8512 29.121 30.0595 30.3936C32.2678 31.6661 35.7143 34.1262 35.7143 34.1262L40 27.0173C40 27.0173 36.5536 24.5831 34.3452 23.3105C32.1369 22.0379 27.541 20.1694 27.541 20.1694C27.541 20.1694 31.89 18.4661 34.0984 17.1935C36.3067 15.921 39.7531 13.652 39.7531 13.652L35.7143 6.51734C35.7143 6.51734 32.7001 8.81209 30.4918 10.0847C28.2835 11.3573 23.9344 13.652 23.9344 13.652C23.9344 13.652 23.9344 10.15 23.9344 7.60484C23.9344 5.05966 24.0984 1.26131e-06 24.0984 1.26131e-06L16.0656 0C16.0656 0 16.2295 5.05966 16.2295 7.60484C16.2295 10.15 16.2295 13.652 16.2295 13.652C16.2295 13.652 12.2316 11.3573 10 10.0847C7.76843 8.81209 4.28571 6.51734 4.28571 6.51734L0.327869 13.652C0.327869 13.652 3.69332 15.921 5.90164 17.1935C8.10996 18.4661 12.623 20.1694 12.623 20.1694C12.623 20.1694 7.55957 22.0379 5.35125 23.3105C3.14292 24.5831 0 27.0173 0 27.0173L3.98126 34.1262C3.98126 34.1262 7.46398 31.6661 9.69555 30.3936C11.9271 29.121 16.2295 27.0173 16.2295 27.0173C16.2295 27.0173 16.0656 31.9375 16.0656 34.4827C16.0656 37.0278 16.0656 41 16.0656 41Z" fill="white"/>
</svg>
