<svg width="364" height="105" viewBox="0 0 364 105" fill="none" xmlns="http://www.w3.org/2000/svg">
<path d="M149.387 43.861H138.332V56.6H129.689V24.6387H138.332V35.947H149.387V24.6387H158.029V56.6H149.387V43.861Z" fill="white"/>
<path d="M4.0405 47.9861C4.8262 47.1441 5.3593 45.0951 5.696 41.8401C6.0327 38.5851 6.2011 33.0571 6.2572 25.2842H31.061V49.3041H34.372V65.1591H26.46L27.049 57.2461H7.3515L7.9407 65.1591H0V49.3041H0.0560989C1.9361 49.2761 3.2549 48.8271 4.0405 47.9861ZM22.475 49.3041V33.1974H14.0857C14.0296 37.2661 13.8893 40.5491 13.6648 43.0751C13.4403 45.6001 12.9914 47.6771 12.4021 49.3041H22.475Z" fill="white"/>
<path d="M97.982 33.1974H88.695C88.611 39.5111 88.134 44.3941 87.292 47.8451C86.45 51.2971 85.019 53.7661 82.971 55.2811C80.923 56.7971 77.976 57.5831 74.076 57.6111L73.543 49.6971C75.788 49.5291 77.331 48.9961 78.201 48.0701C79.043 47.1721 79.604 45.1511 79.884 42.0651C80.165 38.9781 80.333 33.3658 80.361 25.2842H106.597V57.2461H97.954V33.1974H97.982Z" fill="white"/>
<path d="M97.8701 25.3682H106.512V34.3199H113.583C117.736 34.3199 120.935 35.2739 123.208 37.2099C125.452 39.1459 126.575 42.0089 126.575 45.8249C126.575 49.3889 125.536 52.1669 123.46 54.2429C121.384 56.2919 118.129 57.3299 113.724 57.3299H97.8701V25.3682ZM113.078 50.3149C114.649 50.3149 115.856 49.9499 116.726 49.1639C117.596 48.4059 118.017 47.2839 118.017 45.8249C118.017 44.2529 117.596 43.1309 116.726 42.4579C115.856 41.7559 114.593 41.4189 112.966 41.4189H106.54V50.3149H113.078Z" fill="white"/>
<path d="M53.396 56.6561C51.376 57.5831 49.468 58.0311 47.616 58.0311C44.923 58.0311 42.762 57.2181 41.163 55.5621C39.563 53.9061 38.75 51.5211 38.75 48.4061C38.75 45.0111 39.647 42.0931 41.443 39.6231C43.884 39.2871 47.027 39.1181 50.871 39.1181C53.396 39.1181 55.809 39.1741 58.138 39.3151V38.1641C58.138 36.1161 57.802 34.6281 57.1 33.7306C56.427 32.8326 55.136 32.3837 53.256 32.3837C51.853 32.3837 50.085 32.5801 47.981 32.9168C45.877 33.2816 43.884 33.8148 41.948 34.5441L40.405 27.8097C45.596 25.8454 50.254 24.8633 54.407 24.8633C57.1 24.8633 59.317 25.1719 61.057 25.8174C62.796 26.4628 64.143 27.6413 65.097 29.3531C66.051 31.0648 66.528 33.45 66.528 36.5371V49.7531L69.923 49.3611C70.007 50.9881 70.064 52.2791 70.064 53.2051C70.064 54.1031 70.007 55.3661 69.923 56.9931C68.212 57.2461 66.304 57.3861 64.199 57.3861C62.403 57.3861 60.832 57.3021 59.513 57.1341L58.559 53.2891C57.128 54.6081 55.389 55.7301 53.396 56.6561ZM50.506 51.2971C51.657 51.2971 52.947 51.1001 54.322 50.6791C55.725 50.2871 56.988 49.6971 58.138 48.9681V44.4221C55.922 44.2821 53.873 44.2251 52.05 44.2251C50.478 44.2251 48.963 44.2821 47.56 44.4221C47.055 45.2361 46.802 46.3301 46.802 47.7051C46.774 50.0901 48.009 51.2971 50.506 51.2971Z" fill="white"/>
<path d="M170.179 40.8025C170.179 36.2285 173.882 32.5524 178.428 32.5524C181.907 32.5524 184.882 34.7135 186.088 37.7435L191.139 30.2795C188.108 26.6315 183.535 24.2744 178.4 24.2744C169.281 24.2744 161.873 31.6826 161.873 40.8025C161.873 48.1545 166.671 54.3845 173.321 56.5165L178.372 49.0525C173.854 49.0525 170.179 45.3765 170.179 40.8025Z" fill="white"/>
<path d="M222.986 85.5597V66.3377L209.602 85.5597H201.998V53.5977H210.387V72.9037L223.771 53.5977H231.375V85.5597H222.986Z" fill="white"/>
<path d="M238.839 76.2987C239.625 75.4577 240.158 73.4087 240.495 70.1537C240.832 66.8987 241 61.3707 241.056 53.5977H265.86V77.6177H269.171V93.4727H261.259L261.848 85.5597H242.178L242.768 93.4727H234.799V77.6177H234.855C236.735 77.5897 238.054 77.1407 238.839 76.2987ZM257.274 77.6177V61.5107H248.885C248.828 65.5797 248.688 68.8627 248.464 71.3887C248.239 73.9137 247.79 75.9907 247.201 77.6177H257.274Z" fill="white"/>
<path d="M280.675 72.8197H265.888V85.5597H257.246V53.5977H265.888V64.9057H280.675V53.5977H289.318V85.5597H280.675V72.8197Z" fill="white"/>
<path d="M326.384 69.6774C326.384 78.7974 318.976 86.2054 309.857 86.2054C300.738 86.2054 293.33 78.7974 293.33 69.6774C293.33 60.5574 300.738 53.1494 309.857 53.1494C318.976 53.1494 326.384 60.5574 326.384 69.6774ZM318.134 69.6774C318.134 65.1034 314.431 61.4274 309.885 61.4274C305.311 61.4274 301.636 65.1314 301.636 69.6774C301.636 74.2514 305.339 77.9274 309.885 77.9274C314.431 77.9274 318.134 74.2514 318.134 69.6774Z" fill="white"/>
<path d="M192.738 67.4317C194.787 65.5797 195.797 63.4467 195.797 61.0617C195.797 58.7327 194.899 56.8807 193.131 55.5617C191.42 54.2987 188.838 53.6257 185.387 53.5977L180.982 60.0797H183.759C185.106 60.0797 186.116 60.3327 186.846 60.8377C187.547 61.3427 187.912 62.0717 187.912 63.0827C187.912 64.1207 187.407 65.1867 186.425 66.2527H185.78H177.923V64.5977L169.87 76.4677V85.5307H185.527C189.989 85.5307 193.243 84.6337 195.348 82.8657C197.424 81.0977 198.462 78.7407 198.462 75.8497C198.462 73.8017 197.985 72.0897 197.003 70.6587C196.021 69.2557 194.59 68.1617 192.738 67.4317ZM188.754 78.1227C188.052 78.7407 186.958 79.0767 185.471 79.0767H177.923V72.2587H185.331C188.305 72.2587 189.82 73.3527 189.82 75.5697C189.82 76.6357 189.455 77.4777 188.754 78.1227Z" fill="white"/>
<path d="M237.361 8.4695C236.842 8.4695 236.374 8.3736 235.955 8.1819C235.536 7.9866 235.204 7.7042 234.959 7.3349C234.717 6.9656 234.596 6.5128 234.596 5.9766C234.596 5.515 234.685 5.135 234.863 4.8367C235.04 4.5384 235.28 4.3022 235.582 4.1282C235.884 3.9542 236.221 3.8228 236.594 3.7341C236.967 3.6453 237.347 3.5778 237.734 3.5317C238.224 3.4748 238.622 3.4287 238.927 3.3932C239.232 3.3541 239.454 3.292 239.593 3.2067C239.731 3.1215 239.801 2.983 239.801 2.7912V2.754C239.801 2.2888 239.669 1.9283 239.406 1.6726C239.147 1.417 238.76 1.2891 238.245 1.2891C237.709 1.2891 237.286 1.4081 236.977 1.646C236.672 1.8804 236.461 2.1414 236.343 2.429L234.847 2.0881C235.024 1.591 235.283 1.1897 235.624 0.8843C235.969 0.5753 236.365 0.351597 236.812 0.213097C237.26 0.0710966 237.73 0 238.224 0C238.551 0 238.897 0.0390951 239.263 0.117195C239.632 0.191795 239.976 0.3303 240.296 0.5327C240.619 0.7351 240.884 1.0246 241.09 1.401C241.296 1.7738 241.399 2.2586 241.399 2.8552V8.2884H239.843V7.1698H239.779C239.676 7.3758 239.522 7.5782 239.316 7.777C239.11 7.9759 238.845 8.141 238.522 8.2724C238.199 8.4038 237.812 8.4695 237.361 8.4695ZM237.707 7.1911C238.147 7.1911 238.524 7.1041 238.836 6.9301C239.152 6.7561 239.392 6.5288 239.555 6.2483C239.722 5.9642 239.806 5.6606 239.806 5.3374V4.2827C239.749 4.3395 239.639 4.3928 239.476 4.4425C239.316 4.4887 239.133 4.5295 238.927 4.565C238.721 4.597 238.52 4.6272 238.325 4.6556C238.13 4.6804 237.966 4.7018 237.835 4.7195C237.526 4.7586 237.244 4.8243 236.988 4.9166C236.736 5.0089 236.533 5.1421 236.381 5.3161C236.232 5.4866 236.157 5.7138 236.157 5.9979C236.157 6.3921 236.303 6.6904 236.594 6.8928C236.885 7.0917 237.256 7.1911 237.707 7.1911ZM248.751 0.106598V1.4809H245.091V8.2884H243.52V0.106598H248.751ZM253.579 8.4535C252.773 8.4535 252.079 8.2813 251.497 7.9368C250.918 7.5888 250.47 7.1005 250.154 6.472C249.842 5.8399 249.686 5.0995 249.686 4.2508C249.686 3.4127 249.842 2.6741 250.154 2.0348C250.47 1.3956 250.911 0.896702 251.475 0.538002C252.044 0.179402 252.708 0 253.468 0C253.929 0 254.377 0.0763955 254.81 0.229095C255.243 0.381795 255.632 0.621496 255.976 0.948196C256.321 1.2749 256.593 1.6993 256.791 2.2213C256.99 2.7397 257.09 3.3701 257.09 4.1123V4.6769H250.586V3.4837H255.529C255.529 3.0647 255.444 2.6936 255.273 2.3704C255.103 2.0437 254.863 1.7863 254.554 1.5981C254.249 1.4098 253.89 1.3157 253.478 1.3157C253.031 1.3157 252.64 1.4258 252.306 1.646C251.976 1.8626 251.72 2.1467 251.539 2.4983C251.362 2.8463 251.273 3.2245 251.273 3.6329V4.565C251.273 5.1119 251.369 5.5771 251.561 5.9606C251.756 6.3442 252.028 6.6371 252.376 6.8395C252.724 7.0384 253.13 7.1378 253.595 7.1378C253.897 7.1378 254.172 7.0952 254.421 7.01C254.67 6.9212 254.884 6.7898 255.066 6.6158C255.247 6.4418 255.385 6.227 255.481 5.9713L256.988 6.2429C256.868 6.6868 256.651 7.0757 256.339 7.4095C256.03 7.7397 255.641 7.9972 255.172 8.1819C254.707 8.363 254.176 8.4535 253.579 8.4535ZM264.402 3.5103V4.89H259.97V3.5103H264.402ZM260.418 0.106598V8.2884H258.857V0.106598H260.418ZM265.515 0.106598V8.2884H263.96V0.106598H265.515ZM266.631 1.4809V0.106598H273.535V1.4809H270.866V8.2884H269.31V1.4809H266.631ZM278.285 8.4535C277.493 8.4535 276.811 8.2742 276.239 7.9155C275.671 7.5533 275.234 7.0544 274.929 6.4187C274.623 5.7831 274.471 5.0551 274.471 4.2348C274.471 3.4038 274.627 2.6705 274.939 2.0348C275.252 1.3956 275.692 0.896702 276.26 0.538002C276.829 0.179402 277.498 0 278.269 0C278.89 0 279.444 0.115498 279.931 0.346298C280.417 0.573598 280.809 0.893199 281.108 1.3051C281.41 1.717 281.589 2.1982 281.646 2.7486H280.096C280.01 2.3651 279.815 2.0348 279.51 1.7579C279.208 1.4809 278.803 1.3424 278.295 1.3424C277.851 1.3424 277.463 1.4596 277.129 1.6939C276.798 1.9248 276.541 2.255 276.356 2.6847C276.172 3.1108 276.079 3.6151 276.079 4.1975C276.079 4.7941 276.17 5.309 276.351 5.7422C276.532 6.1755 276.788 6.5111 277.118 6.749C277.452 6.9869 277.844 7.1059 278.295 7.1059C278.597 7.1059 278.871 7.0508 279.116 6.9407C279.364 6.8271 279.572 6.6655 279.739 6.456C279.909 6.2465 280.028 5.9944 280.096 5.6996H281.646C281.589 6.2287 281.417 6.701 281.129 7.1165C280.841 7.532 280.456 7.8587 279.973 8.0966C279.494 8.3346 278.931 8.4535 278.285 8.4535ZM282.73 1.4809V0.106598H289.633V1.4809H286.964V8.2884H285.409V1.4809H282.73ZM291.318 8.2884V0.106598H294.711C295.634 0.106598 296.366 0.3037 296.905 0.6978C297.445 1.0885 297.715 1.6194 297.715 2.2905C297.715 2.7699 297.562 3.1499 297.257 3.4304C296.952 3.711 296.547 3.8992 296.043 3.9951C296.408 4.0377 296.744 4.1478 297.049 4.3253C297.355 4.4993 297.6 4.7337 297.784 5.0285C297.973 5.3232 298.067 5.6748 298.067 6.0831C298.067 6.5164 297.955 6.8999 297.731 7.2337C297.507 7.564 297.182 7.8232 296.756 8.0114C296.334 8.1961 295.824 8.2884 295.228 8.2884H291.318ZM292.815 6.9567H295.228C295.622 6.9567 295.931 6.8626 296.154 6.6744C296.378 6.4862 296.49 6.2305 296.49 5.9074C296.49 5.5274 296.378 5.2291 296.154 5.0125C295.931 4.7923 295.622 4.6822 295.228 4.6822H292.815V6.9567ZM292.815 3.5157H294.727C295.025 3.5157 295.281 3.4731 295.494 3.3878C295.71 3.3026 295.876 3.1819 295.989 3.0256C296.106 2.8658 296.165 2.6776 296.165 2.461C296.165 2.1449 296.035 1.8981 295.776 1.7206C295.517 1.543 295.162 1.4542 294.711 1.4542H292.815V3.5157ZM303.26 8.4535C302.493 8.4535 301.824 8.2777 301.252 7.9262C300.68 7.5746 300.236 7.0828 299.92 6.4507C299.604 5.8186 299.446 5.0799 299.446 4.2348C299.446 3.3861 299.604 2.6439 299.92 2.0082C300.236 1.3726 300.68 0.878997 301.252 0.527397C301.824 0.175797 302.493 0 303.26 0C304.027 0 304.697 0.175797 305.268 0.527397C305.84 0.878997 306.284 1.3726 306.6 2.0082C306.916 2.6439 307.074 3.3861 307.074 4.2348C307.074 5.0799 306.916 5.8186 306.6 6.4507C306.284 7.0828 305.84 7.5746 305.268 7.9262C304.697 8.2777 304.027 8.4535 303.26 8.4535ZM303.266 7.1165C303.763 7.1165 304.175 6.9851 304.501 6.7223C304.828 6.4596 305.07 6.1098 305.226 5.673C305.386 5.2362 305.465 4.755 305.465 4.2295C305.465 3.7074 305.386 3.228 305.226 2.7912C305.07 2.3509 304.828 1.9976 304.501 1.7312C304.175 1.4649 303.763 1.3317 303.266 1.3317C302.765 1.3317 302.349 1.4649 302.019 1.7312C301.692 1.9976 301.449 2.3509 301.289 2.7912C301.133 3.228 301.055 3.7074 301.055 4.2295C301.055 4.755 301.133 5.2362 301.289 5.673C301.449 6.1098 301.692 6.4596 302.019 6.7223C302.349 6.9851 302.765 7.1165 303.266 7.1165ZM226.241 27.6481V23.9088H226.907C227.078 23.7525 227.222 23.5661 227.339 23.3495C227.459 23.1329 227.561 22.8754 227.642 22.5771C227.728 22.2788 227.799 21.9308 227.855 21.5331C227.912 21.1318 227.962 20.6737 228.005 20.1588L228.26 17.1066H233.821V23.9088H235.078V27.6481H233.523V25.2884H227.818V27.6481H226.241ZM228.612 23.9088H232.266V18.4702H229.688L229.517 20.1588C229.436 21.0182 229.333 21.7639 229.208 22.396C229.084 23.0246 228.885 23.5288 228.612 23.9088ZM238.196 23.0565L241.802 17.1066H243.517V25.2884H241.956V19.3331L238.366 25.2884H236.635V17.1066H238.196V23.0565ZM245.174 23.1258H246.804C246.825 23.4596 246.976 23.717 247.257 23.8981C247.541 24.0792 247.908 24.1698 248.359 24.1698C248.817 24.1698 249.208 24.0721 249.531 23.8768C249.854 23.678 250.016 23.3708 250.016 22.9553C250.016 22.7067 249.954 22.4901 249.829 22.3054C249.709 22.1172 249.536 21.9716 249.313 21.8687C249.093 21.7657 248.831 21.7142 248.53 21.7142H247.198V20.4624H248.53C248.981 20.4624 249.318 20.3594 249.542 20.1535C249.765 19.9475 249.877 19.69 249.877 19.3811C249.877 19.0473 249.757 18.7792 249.515 18.5768C249.277 18.3708 248.945 18.2678 248.519 18.2678C248.086 18.2678 247.725 18.3655 247.438 18.5608C247.15 18.7525 246.999 19.0011 246.985 19.3065H245.376C245.387 18.8484 245.525 18.4471 245.792 18.1027C246.062 17.7547 246.424 17.4848 246.878 17.293C247.336 17.0977 247.857 17 248.439 17C249.046 17 249.572 17.0977 250.016 17.293C250.46 17.4883 250.802 17.7582 251.044 18.1027C251.289 18.4471 251.411 18.8431 251.411 19.2905C251.411 19.7415 251.276 20.1108 251.007 20.3985C250.74 20.6826 250.392 20.8868 249.963 21.0111V21.0963C250.279 21.1176 250.559 21.2135 250.804 21.3839C251.049 21.5544 251.241 21.7799 251.379 22.0604C251.518 22.341 251.587 22.6588 251.587 23.0139C251.587 23.5146 251.449 23.9478 251.172 24.3136C250.898 24.6794 250.518 24.9617 250.032 25.1606C249.549 25.3559 248.997 25.4535 248.375 25.4535C247.771 25.4535 247.23 25.3594 246.751 25.1712C246.275 24.9795 245.896 24.7096 245.616 24.3616C245.339 24.0135 245.192 23.6016 245.174 23.1258ZM255.613 25.4695C255.094 25.4695 254.626 25.3736 254.207 25.1819C253.788 24.9866 253.456 24.7042 253.21 24.3349C252.969 23.9656 252.848 23.5128 252.848 22.9766C252.848 22.515 252.937 22.135 253.115 21.8367C253.292 21.5384 253.532 21.3022 253.834 21.1282C254.136 20.9542 254.473 20.8228 254.846 20.7341C255.219 20.6453 255.599 20.5778 255.986 20.5317C256.476 20.4748 256.873 20.4287 257.179 20.3932C257.484 20.3541 257.706 20.292 257.845 20.2067C257.983 20.1215 258.052 19.983 258.052 19.7912V19.754C258.052 19.2888 257.921 18.9283 257.658 18.6726C257.399 18.417 257.012 18.2891 256.497 18.2891C255.961 18.2891 255.538 18.4081 255.229 18.646C254.924 18.8804 254.713 19.1414 254.595 19.429L253.099 19.0881C253.276 18.591 253.535 18.1897 253.876 17.8843C254.221 17.5753 254.617 17.3516 255.064 17.2131C255.512 17.0711 255.982 17 256.476 17C256.802 17 257.149 17.0391 257.514 17.1172C257.884 17.1918 258.228 17.3303 258.548 17.5327C258.871 17.7351 259.136 18.0246 259.342 18.401C259.547 18.7738 259.65 19.2586 259.65 19.8552V25.2884H258.095V24.1698H258.031C257.928 24.3758 257.774 24.5782 257.568 24.777C257.362 24.9759 257.097 25.141 256.774 25.2724C256.451 25.4038 256.064 25.4695 255.613 25.4695ZM255.959 24.1911C256.399 24.1911 256.776 24.1041 257.088 23.9301C257.404 23.7561 257.644 23.5288 257.807 23.2483C257.974 22.9642 258.058 22.6606 258.058 22.3374V21.2827C258.001 21.3395 257.891 21.3928 257.728 21.4425C257.568 21.4887 257.385 21.5295 257.179 21.565C256.973 21.597 256.772 21.6272 256.577 21.6556C256.382 21.6804 256.218 21.7018 256.087 21.7195C255.778 21.7586 255.496 21.8243 255.24 21.9166C254.988 22.0089 254.785 22.1421 254.633 22.3161C254.484 22.4866 254.409 22.7138 254.409 22.9979C254.409 23.3921 254.555 23.6904 254.846 23.8928C255.137 24.0917 255.508 24.1911 255.959 24.1911ZM263.333 23.0565L266.939 17.1066H268.654V25.2884H267.093V19.3331L263.503 25.2884H261.772V17.1066H263.333V23.0565ZM266.257 14.3367H267.567C267.567 14.9368 267.354 15.4251 266.928 15.8015C266.506 16.1744 265.934 16.3608 265.213 16.3608C264.496 16.3608 263.926 16.1744 263.503 15.8015C263.08 15.4251 262.869 14.9368 262.869 14.3367H264.174C264.174 14.603 264.252 14.8392 264.409 15.0451C264.565 15.2476 264.833 15.3488 265.213 15.3488C265.586 15.3488 265.852 15.2476 266.012 15.0451C266.175 14.8427 266.257 14.6066 266.257 14.3367ZM276.34 20.5103V21.89H271.909V20.5103H276.34ZM272.356 17.1066V25.2884H270.795V17.1066H272.356ZM277.454 17.1066V25.2884H275.898V17.1066H277.454ZM284.405 19.9883V21.3679H279.568V19.9883H284.405ZM288.088 23.0565L291.695 17.1066H293.41V25.2884H291.849V19.3331L288.259 25.2884H286.528V17.1066H288.088V23.0565ZM301.096 20.5103V21.89H296.664V20.5103H301.096ZM297.112 17.1066V25.2884H295.551V17.1066H297.112ZM302.21 17.1066V25.2884H300.654V17.1066H302.21ZM305.901 23.0565L309.507 17.1066H311.222V25.2884H309.662V19.3331L306.071 25.2884H304.34V17.1066H305.901V23.0565ZM320.038 17.1066V23.9834H321.237V27.9251H319.665V25.2884H313.364V17.1066H314.924V23.9141H318.483V17.1066H320.038ZM324.563 23.0565L328.169 17.1066H329.884V25.2884H328.324V19.3331L324.733 25.2884H323.002V17.1066H324.563V23.0565ZM334.407 25.4695C333.888 25.4695 333.42 25.3736 333.001 25.1819C332.581 24.9866 332.249 24.7042 332.004 24.3349C331.763 23.9656 331.642 23.5128 331.642 22.9766C331.642 22.515 331.731 22.135 331.909 21.8367C332.086 21.5384 332.326 21.3022 332.628 21.1282C332.93 20.9542 333.267 20.8228 333.64 20.7341C334.013 20.6453 334.393 20.5778 334.78 20.5317C335.27 20.4748 335.667 20.4287 335.973 20.3932C336.278 20.3541 336.5 20.292 336.639 20.2067C336.777 20.1215 336.846 19.983 336.846 19.7912V19.754C336.846 19.2888 336.715 18.9283 336.452 18.6726C336.193 18.417 335.806 18.2891 335.291 18.2891C334.755 18.2891 334.332 18.4081 334.023 18.646C333.718 18.8804 333.507 19.1414 333.389 19.429L331.893 19.0881C332.07 18.591 332.329 18.1897 332.67 17.8843C333.015 17.5753 333.411 17.3516 333.858 17.2131C334.306 17.0711 334.776 17 335.27 17C335.596 17 335.943 17.0391 336.308 17.1172C336.678 17.1918 337.022 17.3303 337.342 17.5327C337.665 17.7351 337.93 18.0246 338.135 18.401C338.341 18.7738 338.444 19.2586 338.444 19.8552V25.2884H336.889V24.1698H336.825C336.722 24.3758 336.568 24.5782 336.362 24.777C336.156 24.9759 335.891 25.141 335.568 25.2724C335.245 25.4038 334.858 25.4695 334.407 25.4695ZM334.753 24.1911C335.193 24.1911 335.57 24.1041 335.882 23.9301C336.198 23.7561 336.438 23.5288 336.601 23.2483C336.768 22.9642 336.852 22.6606 336.852 22.3374V21.2827C336.795 21.3395 336.685 21.3928 336.521 21.4425C336.362 21.4887 336.179 21.5295 335.973 21.565C335.767 21.597 335.566 21.6272 335.371 21.6556C335.176 21.6804 335.012 21.7018 334.881 21.7195C334.572 21.7586 334.29 21.8243 334.034 21.9166C333.782 22.0089 333.579 22.1421 333.427 22.3161C333.278 22.4866 333.203 22.7138 333.203 22.9979C333.203 23.3921 333.349 23.6904 333.64 23.8928C333.931 24.0917 334.302 24.1911 334.753 24.1911ZM339.551 18.4809V17.1066H346.454V18.4809H343.786V25.2884H342.23V18.4809H339.551ZM349.7 23.0565L353.306 17.1066H355.021V25.2884H353.46V19.3331L349.87 25.2884H348.139V17.1066H349.7V23.0565ZM357.162 25.2884V17.1066H360.556C361.479 17.1066 362.21 17.3037 362.75 17.6978C363.29 18.0885 363.56 18.6194 363.56 19.2905C363.56 19.7699 363.407 20.1499 363.102 20.4304C362.796 20.711 362.392 20.8992 361.887 20.9951C362.253 21.0377 362.589 21.1478 362.894 21.3253C363.199 21.4993 363.444 21.7337 363.629 22.0285C363.817 22.3232 363.911 22.6748 363.911 23.0831C363.911 23.5164 363.8 23.8999 363.576 24.2337C363.352 24.564 363.027 24.8232 362.601 25.0114C362.178 25.1961 361.669 25.2884 361.072 25.2884H357.162ZM358.659 23.9567H361.072C361.466 23.9567 361.775 23.8626 361.999 23.6744C362.223 23.4862 362.335 23.2305 362.335 22.9074C362.335 22.5274 362.223 22.2291 361.999 22.0125C361.775 21.7923 361.466 21.6822 361.072 21.6822H358.659V23.9567ZM358.659 20.5157H360.572C360.87 20.5157 361.126 20.4731 361.339 20.3878C361.555 20.3026 361.72 20.1819 361.834 20.0256C361.951 19.8658 362.01 19.6776 362.01 19.461C362.01 19.1449 361.88 18.8981 361.621 18.7206C361.362 18.543 361.007 18.4542 360.556 18.4542H358.659V20.5157Z" fill="white"/>
<path d="M208.844 17.1465C211.882 17.1465 214.344 14.684 214.344 11.6465C214.344 8.60888 211.882 6.14648 208.844 6.14648C205.807 6.14648 203.345 8.60888 203.345 11.6465C203.345 14.684 205.807 17.1465 208.844 17.1465Z" fill="white"/>
<path d="M150.032 104.473C153.07 104.473 155.532 102.01 155.532 98.9727C155.532 95.9347 153.07 93.4727 150.032 93.4727C146.995 93.4727 144.533 95.9347 144.533 98.9727C144.533 102.01 146.995 104.473 150.032 104.473Z" fill="white"/>
</svg>
