<svg width="1105" height="238" viewBox="0 0 1105 238" fill="none" xmlns="http://www.w3.org/2000/svg">
<g clip-path="url(#clip0_853_78)">
<path d="M25.6841 104.092V81.2628H77.0695L106.594 166.91H109.423L144.452 29.6279H198.838V52.1144H164.306L130.444 184.567H87.2368L58.2093 104.263L25.6841 104.092Z" fill="white" stroke="white" stroke-miterlimit="10"/>
<path d="M49.328 1.88408L73.3318 32.6081L103.028 70.6963C103.542 71.3471 103.92 72.0493 104.743 72.4089C105.821 72.7659 106.928 73.0295 108.052 73.1968L126.157 77.4953L182.515 90.8708C195.048 93.8507 207.548 97.019 220.115 99.7934L220.715 99.9304C220.929 99.9671 221.148 99.9389 221.345 99.8495C221.542 99.76 221.708 99.6136 221.821 99.429C221.934 99.2444 221.988 99.0302 221.978 98.8143C221.967 98.5983 221.892 98.3905 221.761 98.2178L195.957 73.2824L158.237 36.667L153.916 32.2999C153.488 31.7974 152.956 31.3941 152.356 31.1182C148.635 29.594 144.469 28.7205 140.611 27.556L88.6771 11.7658C76.1094 7.92957 63.576 3.78506 50.9568 0.274234L50.3395 0.0858465C50.0749 0.0404103 49.8028 0.0950796 49.5763 0.23919C49.3498 0.383301 49.1851 0.60653 49.1145 0.865318C49.0438 1.12411 49.0722 1.39989 49.1941 1.63891C49.316 1.87793 49.5226 2.06303 49.7737 2.1581L81.3388 11.7487L134.765 28.0012L150.333 32.728C150.798 32.9176 151.28 33.061 151.773 33.1562C152.407 33.1562 151.653 33.0191 151.687 33.0534C152.562 33.9782 153.522 34.8516 154.431 35.7251L189.459 69.8572L208.782 88.6958L215.64 95.3064C216.872 96.6564 218.183 97.9317 219.567 99.1255C219.738 99.2625 219.91 99.468 220.081 99.6222L221.11 97.9096L189.802 90.4084L132.776 76.8788L111.892 71.9294L106.337 70.6107C105.943 70.508 105.548 70.3881 105.154 70.3195C104.76 70.251 105.514 70.8847 105.291 70.3195C104.452 68.9275 103.451 67.6398 102.308 66.4833L96.3069 58.7938L79.1613 36.7869C69.8684 24.7987 60.8327 12.6735 51.2483 0.976406C51.0768 0.770894 50.9225 0.548247 50.7511 0.325609C49.9109 -0.719076 48.4021 0.805144 49.328 1.88408Z" fill="white"/>
<path d="M49.0707 0.582089L35.2171 32.6591L10.716 89.3804L2.14321 109.024C1.35452 110.856 -0.531507 113.477 0.274337 115.463C6.12099 130.192 12.5163 144.732 18.6201 159.357L36.9659 203.2L37.3089 204.005C37.381 204.224 37.5178 204.417 37.7013 204.557C37.8849 204.698 38.1066 204.78 38.3376 204.792L76.0579 206.899L136.188 210.324L149.904 211.095C150.092 211.092 150.275 211.041 150.437 210.946C150.599 210.851 150.733 210.716 150.826 210.553C150.92 210.391 150.969 210.207 150.97 210.02C150.97 209.832 150.922 209.648 150.83 209.485L133.787 182.529L106.783 139.714L100.765 129.798V130.877L118.476 97.7721L146.732 44.9213L153.265 32.6933C153.899 31.4774 152.064 30.3984 151.413 31.6144L133.701 64.7361L105.445 117.587L98.8787 129.798C98.7855 129.962 98.7366 130.148 98.7366 130.337C98.7366 130.526 98.7855 130.712 98.8787 130.877L115.921 157.833L142.943 200.648L149.15 210.478L150.076 208.868L112.355 206.762L52.1912 203.44L38.4747 202.669L39.5206 203.457L23.9524 166.259L3.48057 117.33C3.12457 116.235 2.68314 115.17 2.16035 114.145C2.46897 114.145 1.69743 115.566 2.31467 114.333C2.62329 113.751 2.84618 113.117 3.10336 112.518L10.3045 95.854L34.4284 39.989C39.8578 27.4299 45.2873 14.8709 50.7167 2.31181L50.9739 1.71241C51.5054 0.462213 49.6708 -0.633859 49.1222 0.633465L49.0707 0.582089Z" fill="white"/>
<path d="M219.875 98.3201L195.871 135.997L157.757 195.938L149.098 209.536C148.361 210.701 150.213 211.78 150.95 210.615L174.954 172.938L213.051 113.083L221.727 99.4676C222.464 98.303 220.613 97.2412 219.875 98.3886V98.3201Z" fill="white"/>
<path d="M0.78862 115.446L34.1711 120.858L87.3225 129.421L99.4959 131.391C100.833 131.613 101.416 129.541 100.062 129.336L66.6792 123.924L13.5278 115.361L1.35441 113.391C-8.79951e-05 113.169 -0.583029 115.224 0.78862 115.446Z" fill="white"/>
<path d="M103.782 70.7818L97.1641 83.9859L81.3901 115.515L62.2042 153.774L45.693 186.759L40.2406 197.651C39.2742 199.351 38.3986 201.1 37.6174 202.892L37.4974 203.114C36.8973 204.347 38.7318 205.426 39.3491 204.193L45.9673 190.972L61.7412 159.46L80.9272 121.235L97.4384 88.2502L102.891 77.3581C103.857 75.6588 104.733 73.9095 105.514 72.1176L105.634 71.8949C106.251 70.6619 104.399 69.5829 103.782 70.816V70.7818Z" fill="white"/>
<path d="M297.425 132.966H280.193V185.081H245.765V52.731H280.193V106.507H294.236L337.94 52.731H376.809L324.172 114.385L356.749 155.932H380.067V185.046H340.323L297.425 132.966Z" fill="white"/>
<path d="M381.953 118.94C381.771 108.838 383.474 98.7906 386.976 89.3119C390.033 81.0585 394.885 73.5854 401.182 67.4313C407.48 61.2773 415.066 56.5957 423.394 53.7241C432.631 50.5251 442.354 48.9547 452.13 49.083C462.288 48.9159 472.39 50.6228 481.929 54.118C490.234 57.1896 497.778 62.0147 504.046 68.2641C510.188 74.5322 514.871 82.0752 517.763 90.3566C520.939 99.5478 522.505 109.217 522.392 118.94C522.566 129.041 520.863 139.087 517.369 148.568C514.306 156.818 509.452 164.288 503.155 170.441C496.859 176.594 489.276 181.278 480.951 184.156C471.707 187.349 461.978 188.913 452.198 188.78C442.041 188.942 431.941 187.241 422.399 183.762C414.092 180.686 406.547 175.855 400.281 169.599C394.162 163.329 389.507 155.784 386.651 147.506C383.449 138.325 381.86 128.661 381.953 118.94ZM417.444 118.94C417.388 124.409 418.192 129.853 419.827 135.073C421.279 139.786 423.605 144.184 426.686 148.037C429.62 151.67 433.335 154.597 437.556 156.6C442.114 158.705 447.092 159.747 452.112 159.648C462.4 159.648 470.744 156.383 477.145 149.852C483.546 143.322 486.769 133.006 486.815 118.906C486.815 106.723 483.815 96.8873 477.814 89.3976C471.813 81.9078 463.24 78.1629 452.095 78.1629C447.429 78.1285 442.791 78.8871 438.379 80.4064C434.17 81.8888 430.394 84.3895 427.388 87.685C424.11 91.368 421.629 95.6886 420.102 100.375C418.188 106.374 417.279 112.646 417.41 118.94H417.444Z" fill="white"/>
<path d="M519.649 52.7311H564.673L568.651 68.6069H569.697C578.841 55.5569 593.701 49.0262 614.276 49.0148C621.905 48.934 629.485 50.2337 636.651 52.851C643.373 55.3596 649.378 59.4757 654.139 64.8392C659.294 70.8551 663.126 77.886 665.387 85.476C668.238 95.181 669.58 105.266 669.364 115.378C669.515 125.777 667.992 136.133 664.855 146.051C662.15 154.579 657.708 162.457 651.807 169.188C646.132 175.562 639.062 180.543 631.147 183.745C622.296 187.224 612.847 188.929 603.337 188.763C597.931 188.768 592.533 188.373 587.185 187.581C582.596 186.992 578.125 185.698 573.932 183.745V237.983H539.504V81.8453H519.649V52.7311ZM603.868 78.129C597.389 78.0699 591.021 79.8069 585.471 83.1469C579.866 86.5522 575.747 91.9377 573.932 98.2349V153.261C577.144 155.539 580.802 157.114 584.665 157.885C589.304 159.032 594.066 159.607 598.844 159.597C603.535 159.634 608.19 158.779 612.561 157.08C616.876 155.342 620.697 152.572 623.688 149.014C627.087 144.89 629.608 140.118 631.095 134.987C632.997 128.371 633.893 121.507 633.753 114.625C633.753 102.979 630.924 93.982 625.266 87.6339C622.616 84.583 619.324 82.155 615.624 80.5236C611.925 78.8923 607.911 78.0979 603.868 78.1975V78.129Z" fill="white"/>
<path d="M808.089 171.055C805.382 173.466 802.401 175.552 799.208 177.271C795.164 179.488 790.943 181.367 786.589 182.889C781.373 184.749 776.011 186.17 770.558 187.136C764.439 188.209 758.236 188.736 752.023 188.711C741.714 188.878 731.454 187.267 721.693 183.95C713.259 181.111 705.572 176.416 699.197 170.212C692.823 164.008 687.925 156.453 684.864 148.106C681.467 138.739 679.811 128.832 679.978 118.872C679.731 108.448 681.585 98.081 685.43 88.3874C688.835 80.0787 694.034 72.6229 700.655 66.5517C707.216 60.666 714.928 56.2048 723.305 53.4503C739.109 48.2784 756.058 47.6846 772.187 51.7377C779.287 53.4829 785.982 56.5825 791.904 60.8659C798.098 65.4132 803.137 71.3497 806.615 78.1974C810.41 85.4246 812.307 94.5927 812.307 105.702C812.232 113.972 811.342 122.215 809.65 130.312H714.32C714.322 135.295 715.553 140.2 717.904 144.595C720.017 148.398 722.987 151.658 726.579 154.117C730.363 156.668 734.582 158.507 739.027 159.546C743.929 160.716 748.955 161.291 753.995 161.258C764.591 161.258 773.29 160.02 780.091 157.542C786.082 155.517 791.679 152.475 796.636 148.551L808.089 171.055ZM750.875 76.6047C746.478 76.5788 742.103 77.2138 737.895 78.4885C733.943 79.6929 730.226 81.5637 726.905 84.0202C723.627 86.4494 720.88 89.5204 718.829 93.0456C716.673 96.7482 715.4 100.897 715.109 105.171H780.262C780.262 96.3681 777.833 89.4092 772.975 84.2942C768.123 79.1736 760.768 76.6047 750.875 76.6047Z" fill="white"/>
<path d="M921.456 132.966H865.03V185.081H830.602V52.731H865.03V102.396H921.456V52.731H955.885V185.012H921.456V132.966Z" fill="white"/>
<path d="M1019.77 99.896C1021.9 99.5363 1024.31 99.228 1027.06 98.954C1029.8 98.68 1032.53 98.5259 1035.27 98.4403L1043.21 98.1662C1045.76 98.1662 1047.94 98.0292 1049.71 98.0292C1058.19 97.8814 1066.65 98.9073 1074.86 101.078C1081.11 102.711 1086.95 105.627 1092 109.641C1096.28 113.152 1099.65 117.648 1101.81 122.742C1103.96 127.896 1105.04 133.43 1104.98 139.012C1104.98 155.065 1099.68 167.053 1089.09 174.976C1078.49 182.9 1061.1 186.885 1036.91 186.93C1026.84 186.93 1017.27 186.753 1008.18 186.399C999.092 186.045 991.456 185.606 985.272 185.081V52.731H1019.77V99.896ZM1019.77 156.275C1023.17 156.879 1026.61 157.269 1030.06 157.439C1034.31 157.696 1037.65 157.833 1040.12 157.833C1059.7 157.833 1069.49 151.913 1069.49 140.074C1069.58 137.498 1068.94 134.95 1067.65 132.717C1066.36 130.484 1064.48 128.655 1062.2 127.435C1057.35 124.58 1050.24 123.147 1040.89 123.136C1039.47 123.136 1037.79 123.136 1035.85 123.273L1030.02 123.53C1028.08 123.615 1026.18 123.787 1024.33 124.044C1022.77 124.254 1021.22 124.557 1019.7 124.951L1019.77 156.275Z" fill="white"/>
</g>
<defs>
<clipPath id="clip0_853_78">
<rect width="1105" height="238" fill="white"/>
</clipPath>
</defs>
</svg>
