<svg width="398" height="436" viewBox="0 0 398 436" fill="none" xmlns="http://www.w3.org/2000/svg">
<path d="M120.953 349.668V323.623H60V298.744L113.964 214H148.906V301.076H166.376V323.623H148.906V349.668H120.953ZM83.4881 301.076H120.953V244.127H119.206L83.4881 301.076Z" fill="white"/>
<path d="M198.718 304.186V276.586H260.835V304.186H198.718Z" fill="white"/>
<path d="M389.847 239.462H327.147L324.041 282.417H325.788C327.212 279.307 328.83 276.456 330.641 273.865C332.453 271.144 334.588 268.876 337.047 267.062C339.506 265.118 342.353 263.628 345.588 262.592C348.824 261.555 352.512 261.037 356.653 261.037C362.218 261.037 367.459 262.008 372.377 263.952C377.424 265.896 381.824 268.746 385.577 272.504C389.459 276.132 392.5 280.668 394.7 286.11C396.9 291.423 398 297.448 398 304.186C398 311.054 396.835 317.403 394.506 323.234C392.176 329.065 388.747 334.118 384.218 338.394C379.818 342.67 374.318 346.039 367.718 348.501C361.118 350.834 353.612 352 345.2 352C338.6 352 332.712 351.287 327.536 349.862C322.359 348.437 317.765 346.558 313.753 344.225C309.871 341.763 306.441 338.977 303.465 335.868C300.618 332.628 298.159 329.324 296.089 325.955L317.247 309.239C318.8 311.831 320.418 314.293 322.1 316.625C323.912 318.958 325.918 321.031 328.118 322.845C330.447 324.53 332.971 325.89 335.688 326.927C338.535 327.834 341.771 328.287 345.394 328.287C352.641 328.287 358.077 326.344 361.7 322.456C365.453 318.439 367.33 313.127 367.33 306.518V304.963C367.33 298.614 365.453 293.625 361.7 289.997C357.947 286.369 352.771 284.555 346.171 284.555C340.736 284.555 336.206 285.656 332.583 287.859C329.089 289.932 326.436 292.006 324.624 294.079L300.747 290.775L305.794 214H389.847V239.462Z" fill="white"/>
<path d="M82.6009 423.758C75.877 423.758 70.7506 422.102 67.2218 418.79C63.7406 415.477 62 410.821 62 404.82C62 398.867 63.6929 394.283 67.0787 391.066C70.4645 387.85 75.2809 386.242 81.528 386.242C86.3921 386.242 90.9462 387.226 95.1904 389.194C95.2857 391.882 95.3334 394.043 95.3334 395.675C95.3334 398.555 95.2381 401.075 95.0473 403.236L92.043 403.308C89.754 403.308 87.775 403.212 86.1059 403.02L87.2504 395.243C85.3906 394.715 83.5785 394.451 81.8141 394.451C78.4283 394.451 75.9009 395.291 74.2318 396.971C72.5627 398.651 71.7282 401.268 71.7282 404.82C71.7282 408.324 72.682 410.965 74.5895 412.741C76.5446 414.517 79.692 415.405 84.0315 415.405C85.4622 415.405 87.1074 415.285 88.9672 415.045C90.827 414.757 92.5914 414.397 94.2605 413.965C94.8804 415.981 95.3334 418.262 95.6196 420.806C92.043 422.774 87.7035 423.758 82.6009 423.758Z" fill="white"/>
<path d="M124.633 423.758C118.338 423.758 113.522 422.126 110.184 418.862C106.846 415.549 105.177 410.893 105.177 404.892C105.177 401.148 105.892 397.883 107.323 395.099C108.753 392.266 110.78 390.082 113.403 388.546C116.026 387.01 119.078 386.242 122.559 386.242C125.849 386.242 128.758 386.938 131.286 388.33C133.813 389.674 135.768 391.642 137.151 394.235C138.582 396.827 139.297 399.875 139.297 403.38C139.297 404.628 139.13 405.924 138.796 407.268C135.22 407.844 131.524 408.228 127.709 408.42C123.894 408.564 119.388 408.636 114.19 408.636C114.619 410.941 115.668 412.669 117.337 413.821C119.054 414.973 121.629 415.549 125.062 415.549C128.925 415.549 132.645 415.069 136.221 414.109C136.937 416.029 137.413 418.262 137.652 420.806C136.126 421.718 134.195 422.438 131.858 422.966C129.569 423.494 127.161 423.758 124.633 423.758ZM114.118 402.156C119.554 402.156 124.872 401.94 130.07 401.508C129.497 396.515 126.803 394.019 121.987 394.019C119.793 394.019 118.005 394.691 116.622 396.035C115.286 397.379 114.452 399.419 114.118 402.156Z" fill="white"/>
<path d="M171.887 408.636H158.94V422.75H149.498V387.322H158.94V399.851H171.887V387.322H181.401V422.75H171.887V408.636Z" fill="white"/>
<path d="M203.404 395.675H191.816L191.459 387.322H224.935L225.221 395.675H213.276V422.75H203.404V395.675Z" fill="white"/>
<path d="M241.002 410.077C239.142 409.165 237.711 407.82 236.71 406.044C235.708 404.268 235.208 402.084 235.208 399.491C235.208 395.843 236.352 392.914 238.641 390.706C240.978 388.45 244.745 387.322 249.943 387.322H269.328V396.179L265.036 395.459L265.322 399.779V422.75H255.737V411.661H250.301L243.935 422.75H233.348L241.002 410.077ZM243.648 399.635C243.648 401.075 244.006 402.156 244.721 402.876C245.484 403.548 246.7 403.884 248.369 403.884H255.737V395.243H248.441C246.772 395.243 245.556 395.603 244.793 396.323C244.03 397.043 243.648 398.147 243.648 399.635Z" fill="white"/>
<path d="M294.408 423.83C288.208 423.83 283.678 421.934 280.817 418.142C277.955 414.349 276.525 408.612 276.525 400.931C276.525 395.939 276.93 391.834 277.741 388.618C278.551 385.353 280.173 382.641 282.605 380.481C285.037 378.273 288.613 376.688 293.335 375.728C296.148 375.152 299.796 374.648 304.279 374.216L306.067 374L306.854 382.929C301.704 383.313 297.817 383.817 295.194 384.441C293.001 384.873 291.284 385.425 290.044 386.098C288.852 386.77 287.922 387.778 287.254 389.122C286.634 390.466 286.205 392.386 285.967 394.883C287.874 393.827 289.83 393.034 291.832 392.506C293.883 391.978 296.22 391.714 298.842 391.714C303.087 391.714 306.401 393.01 308.785 395.603C311.17 398.147 312.362 401.532 312.362 405.756C312.362 411.325 310.86 415.741 307.855 419.006C304.899 422.222 300.416 423.83 294.408 423.83ZM285.752 401.508C285.752 406.548 286.444 410.197 287.827 412.453C289.21 414.661 291.499 415.765 294.694 415.765C297.316 415.765 299.319 414.973 300.702 413.389C302.133 411.757 302.848 409.573 302.848 406.836C302.848 401.988 300.058 399.563 294.479 399.563C291.809 399.563 288.9 400.187 285.752 401.436V401.508Z" fill="white"/>
<path d="M342.162 386.242C344.737 386.242 347.003 386.938 348.958 388.33C350.961 389.674 352.51 391.666 353.607 394.307C354.704 396.899 355.252 399.995 355.252 403.596C355.252 407.148 354.537 410.341 353.106 413.173C351.724 415.957 349.792 418.142 347.312 419.726C344.833 421.262 342.067 422.03 339.015 422.03C336.821 422.03 334.222 421.67 331.218 420.95V428.727L339.373 427.791C339.468 429.615 339.516 430.983 339.516 431.895C339.516 432.808 339.468 434.176 339.373 436H315.481C315.386 434.176 315.338 432.808 315.338 431.895C315.338 430.983 315.386 429.615 315.481 427.791L321.704 428.655V383.001C323.373 382.857 325.019 382.785 326.64 382.785C328.357 382.785 330.074 382.857 331.79 383.001L330.86 390.418C334.675 387.634 338.443 386.242 342.162 386.242ZM331.218 413.101C333.602 413.677 335.486 413.965 336.869 413.965C339.826 413.965 342.091 413.053 343.664 411.229C345.286 409.405 346.096 406.884 346.096 403.668C346.096 400.643 345.548 398.363 344.451 396.827C343.402 395.243 341.709 394.451 339.373 394.451C336.559 394.451 333.841 395.123 331.218 396.467V413.101Z" fill="white"/>
<path d="M369.674 410.077C367.814 409.165 366.383 407.82 365.382 406.044C364.38 404.268 363.88 402.084 363.88 399.491C363.88 395.843 365.024 392.914 367.313 390.706C369.65 388.45 373.417 387.322 378.615 387.322H398V396.179L393.708 395.459L393.994 399.779V422.75H384.409V411.661H378.973L372.607 422.75H362.02L369.674 410.077ZM372.32 399.635C372.32 401.075 372.678 402.156 373.393 402.876C374.156 403.548 375.372 403.884 377.041 403.884H384.409V395.243H377.113C375.444 395.243 374.228 395.603 373.465 396.323C372.702 397.043 372.32 398.147 372.32 399.635Z" fill="white"/>
<line y1="3" x2="229" y2="3" stroke="white" stroke-width="6"/>
<path d="M229 136L246.321 106L211.679 106L229 136ZM226 -1.31134e-07L226 109L232 109L232 1.31134e-07L226 -1.31134e-07Z" fill="white"/>
</svg>
