<svg width="483" height="486" viewBox="0 0 483 486" fill="none" xmlns="http://www.w3.org/2000/svg">
<path d="M0.0297689 199.607C-0.545764 151.586 7.22394 112.966 23.3389 83.7482C39.7416 54.5304 61.0363 33.2679 87.2231 19.9607C113.698 6.65357 141.611 0 170.963 0C200.315 0 226.934 6.65357 250.819 19.9607C274.991 32.9786 303.048 52.9393 334.99 79.8428C356.573 98.0678 373.551 111.086 385.925 118.896C398.587 126.418 412.687 130.179 428.227 130.179C453.262 130.179 472.974 121.211 487.363 103.275C501.751 85.3393 508.514 59.0143 507.65 24.3H600.887C602.038 72.3214 594.412 110.941 578.009 140.159C561.607 169.377 540.168 190.639 513.693 203.946C487.219 217.254 459.306 223.907 429.953 223.907C400.601 223.907 373.839 217.688 349.666 205.248C325.494 192.52 297.581 172.125 265.926 144.064C245.207 125.839 228.373 112.966 215.423 105.445C202.474 97.6339 188.229 93.7286 172.69 93.7286C149.381 93.7286 130.1 101.829 114.849 118.029C99.5971 134.229 92.4029 161.421 93.2662 199.607H0.0297689ZM0.0297689 461.7C-0.545764 413.679 7.22394 375.059 23.3389 345.841C39.7416 316.623 61.0363 295.361 87.2231 282.054C113.698 268.746 141.611 262.093 170.963 262.093C200.315 262.093 226.934 268.746 250.819 282.054C274.991 295.071 303.048 315.032 334.99 341.936C356.573 360.161 373.551 373.179 385.925 380.989C398.587 388.511 412.687 392.271 428.227 392.271C453.262 392.271 472.974 383.304 487.363 365.368C501.751 347.432 508.514 321.107 507.65 286.393H600.887C602.038 334.414 594.412 373.034 578.009 402.252C561.607 431.47 540.168 452.732 513.693 466.039C487.219 479.346 459.306 486 429.953 486C400.601 486 373.839 479.78 349.666 467.341C325.494 454.613 297.581 434.218 265.926 406.157C245.207 387.932 228.373 375.059 215.423 367.538C202.474 359.727 188.229 355.821 172.69 355.821C149.381 355.821 130.1 363.921 114.849 380.121C99.5971 396.321 92.4029 423.514 93.2662 461.7H0.0297689Z" fill="white"/>
</svg>
