<svg xmlns="http://www.w3.org/2000/svg">
<defs>
<font id="BakemonoTextTrial-Regular" horiz-adv-x="580" >
  <font-face 
    font-family="Bakemono Text Trial"
    font-weight="400"
    font-stretch="normal"
    units-per-em="1000"
    panose-1="0 0 0 0 0 0 0 0 0 0"
    ascent="800"
    descent="-200"
    x-height="478"
    cap-height="650"
    bbox="-46 -230 1318 1006"
    underline-thickness="60"
    underline-position="-240"
    unicode-range="U+000D-F8FF"
  />
<missing-glyph horiz-adv-x="1378" 
d="M59 40h95v31h-38l41 78h-93v-31h36zM75 170v29h33v11h-33v26h38v11h-50v-77h12zM64 462h486q4 56 44.5 94t96.5 38t96.5 -38t44.5 -94h486v-193h-1254v193zM116 392v-86h39v86h28v35h-96v-35h29zM132 178q9 -9 22 -9q14 0 23 8.5t9 22.5v47h-12v-47q0 -8 -6 -14t-14 -6
t-13.5 5.5t-5.5 14.5v47h-12v-47q0 -13 9 -22zM244 40v30h-45v10h38v30h-38v9h44v30h-79v-109h80zM229 306v35h8l15 -35h41l-21 46q14 12 14 32q0 18 -13.5 30.5t-32.5 12.5h-50v-121h39zM248 170v11h-35v66h-12v-77h47zM229 394h10q3 0 5.5 -3t2.5 -7t-2.5 -7.5t-5.5 -3.5
h-10v21zM274 118v-78h35v78h26v31h-87v-31h26zM307 170v11h-36v66h-12v-77h48zM337 306v121h-38v-121h38zM359 40l5 17h31l4 -17h38l-37 109h-40l-37 -109h36zM371 170h8l32 77h-14l-22 -57l-22 57h-14zM385 306l5 19h34l5 -19h42l-41 121h-45l-41 -121h41zM379 112h1l7 -26
h-15zM406 386h1l8 -29h-17zM471 170v11h-38v23h33v10h-33v22h38v11h-50v-77h50zM478 40v34h37v29h-37v16h44v30h-79v-109h35zM560 306v33h-43v88h-39v-121h82zM496 170v28h18l13 -28h14l-15 31q12 7 12 21q0 11 -7 18t-18 7h-29v-77h12zM496 236h17q5 0 9 -4t4 -10t-4 -10
t-9 -4h-17v28zM543 53.5q17 -16.5 42 -16.5t42 16.5t17 41.5q0 24 -17 40.5t-42 16.5t-42 -16.5t-17 -40.5q0 -25 17 -41.5zM573 169q11 0 18.5 6t7.5 17q0 13 -23 22q-9 3 -12.5 5.5t-3.5 7.5t4 8t10 3q11 0 20 -7v13q-10 5 -20 5q-12 0 -19 -6t-7 -16q0 -9 5 -13.5
t17 -9.5q17 -5 17 -12q0 -12 -14 -12q-13 0 -26 9v-13q12 -7 26 -7zM568 113q7 7 17 7t17 -7t7 -18t-7 -18.5t-17 -7.5t-17 7.5t-7 18.5t7 18zM596 367l167 166h-171q-29 -35 -29 -81q0 -49 33 -85zM691 325q48 0 85 32h-170q37 -32 85 -32zM776 547q-38 33 -85 33

<glyph glyph-name=".notdef" horiz-adv-x="1378" 
d="M59 40h95v31h-38l41 78h-93v-31h36zM75 170v29h33v11h-33v26h38v11h-50v-77h12zM64 462h486q4 56 44.5 94t96.5 38t96.5 -38t44.5 -94h486v-193h-1254v193zM116 392v-86h39v86h28v35h-96v-35h29zM132 178q9 -9 22 -9q14 0 23 8.5t9 22.5v47h-12v-47q0 -8 -6 -14t-14 -6
t-13.5 5.5t-5.5 14.5v47h-12v-47q0 -13 9 -22zM244 40v30h-45v10h38v30h-38v9h44v30h-79v-109h80zM229 306v35h8l15 -35h41l-21 46q14 12 14 32q0 18 -13.5 30.5t-32.5 12.5h-50v-121h39zM248 170v11h-35v66h-12v-77h47zM229 394h10q3 0 5.5 -3t2.5 -7t-2.5 -7.5t-5.5 -3.5
h-10v21zM274 118v-78h35v78h26v31h-87v-31h26zM307 170v11h-36v66h-12v-77h48zM337 306v121h-38v-121h38zM359 40l5 17h31l4 -17h38l-37 109h-40l-37 -109h36zM371 170h8l32 77h-14l-22 -57l-22 57h-14zM385 306l5 19h34l5 -19h42l-41 121h-45l-41 -121h41zM379 112h1l7 -26
h-15zM406 386h1l8 -29h-17zM471 170v11h-38v23h33v10h-33v22h38v11h-50v-77h50zM478 40v34h37v29h-37v16h44v30h-79v-109h35zM560 306v33h-43v88h-39v-121h82zM496 170v28h18l13 -28h14l-15 31q12 7 12 21q0 11 -7 18t-18 7h-29v-77h12zM496 236h17q5 0 9 -4t4 -10t-4 -10
t-9 -4h-17v28zM543 53.5q17 -16.5 42 -16.5t42 16.5t17 41.5q0 24 -17 40.5t-42 16.5t-42 -16.5t-17 -40.5q0 -25 17 -41.5zM573 169q11 0 18.5 6t7.5 17q0 13 -23 22q-9 3 -12.5 5.5t-3.5 7.5t4 8t10 3q11 0 20 -7v13q-10 5 -20 5q-12 0 -19 -6t-7 -16q0 -9 5 -13.5
t17 -9.5q17 -5 17 -12q0 -12 -14 -12q-13 0 -26 9v-13q12 -7 26 -7zM568 113q7 7 17 7t17 -7t7 -18t-7 -18.5t-17 -7.5t-17 7.5t-7 18.5t7 18zM596 367l167 166h-171q-29 -35 -29 -81q0 -49 33 -85zM691 325q48 0 85 32h-170q37 -32 85 -32zM776 547q-38 33 -85 33
q-49 0 -85 -33h170zM623 170v77h-12v-77h12zM789 371q29 35 29 81q0 48 -32 85l-166 -166h169zM647.5 180.5q11.5 -11.5 28.5 -11.5t28.5 11.5t11.5 28.5t-11.5 28.5t-28.5 11.5t-28.5 -11.5t-11.5 -28.5t11.5 -28.5zM656 229q8 8 20 8q11 0 19 -8t8 -20q0 -13 -8 -21
t-19 -8q-12 0 -20 8t-8 21q0 12 8 20zM687 40l-1 53l34 -53h36v109h-35v-58l-33 58h-36v-109h35zM740 170v52l49 -54h6v79h-12v-54l-49 55h-6v-78h12zM788 118v-78h35v78h25v31h-86v-31h26zM1287 201l-13 -11l8 -7l25 24l-25 24l-8 -7l13 -11h-458v-12h458zM861.5 321
q18.5 -18 46.5 -18t47 18t19 46q0 27 -19 45t-47 18t-46.5 -18t-18.5 -45q0 -28 18.5 -46zM858.5 96.5q7.5 -7.5 24.5 -13.5q3 -1 10 -3t7 -6q0 -6 -9 -6q-13 0 -38 16v-37q16 -10 38 -10q19 0 31.5 10t12.5 27q0 27 -36 35q-3 1 -7 2t-5.5 2.5t-1.5 3.5q0 4 11 4
q7 0 16.5 -3t15.5 -8v34q-18 8 -32 8q-21 0 -33 -9t-12 -25q0 -14 7.5 -21.5zM889 387q8 8 19 8q12 0 19.5 -8t7.5 -20q0 -13 -7.5 -21t-19.5 -8q-11 0 -19 8t-8 21q0 12 8 20zM945 42q5 -5 13 -5q7 0 12 5t5 12t-5 11.5t-12 4.5q-8 0 -13 -4.5t-5 -11.5t5 -12zM998 53.5
q17 -16.5 41 -16.5q12 0 26 7l1 35q-10 -10 -25 -10q-11 0 -18 7.5t-7 18.5t7.5 18t17.5 7t22 -7v33q-10 6 -23 6q-25 0 -42 -16.5t-17 -40.5q0 -25 17 -41.5zM1021 306l-1 59l38 -59h40v121h-39v-64l-37 64h-40v-121h39zM1086 53.5q17 -16.5 43 -16.5q25 0 42 16.5t17 41.5
q0 24 -17 40.5t-42 16.5t-42.5 -16.5t-17.5 -40.5q0 -25 17 -41.5zM1111.5 113q7.5 7 17.5 7t17 -7.5t7 -17.5q0 -11 -7 -18.5t-17 -7.5q-11 0 -18 7.5t-7 18.5t7.5 18zM1192 306v33h-43v88h-39v-121h82zM1214 354v-48h39v48l41 73h-45l-16 -36l-15 36h-46zM1230 40v43
l14 -27h25l14 27v-43h34v109h-35l-26 -50l-26 50h-35v-109h35z" />
    <glyph glyph-name=".null" horiz-adv-x="0" 
 />
    <glyph glyph-name="nonmarkingreturn" unicode="&#xd;" 
 />
    <glyph glyph-name="space" unicode=" " horiz-adv-x="270" 
 />
    <glyph glyph-name="exclam" unicode="!" horiz-adv-x="340" 
d="M119 650h100l-13 -446h-74zM123 83q17 15 47 15q29 0 46 -15t17 -40q0 -26 -17 -41t-46 -15q-30 0 -47 15t-17 41q0 25 17 40z" />
    <glyph glyph-name="quotedbl" unicode="&#x22;" horiz-adv-x="470" 
d="M102 700h97l3 -41l-32 -223h-66zM394 700l3 -41l-32 -223h-66l-2 264h97z" />
    <glyph glyph-name="numbersign" unicode="#" horiz-adv-x="560" 
d="M156 233h-72v51h80l17 115h-97v51h104l18 114h55l-18 -114h112l17 114h56l-18 -114h67v-51h-74l-17 -115h91v-51h-99l-19 -127h-55l19 127h-112l-19 -127h-55zM330 284l18 115h-112l-17 -115h111z" />
    <glyph glyph-name="dollar" unicode="$" horiz-adv-x="540" 
d="M239 63q-102 5 -189 35l17 75q104 -34 206 -34q59 0 87.5 16t28.5 48q0 22 -12.5 35.5t-39.5 22.5t-79 19q-107 21 -151.5 57.5t-44.5 98.5t45.5 95t131.5 36l-5 141h77l-5 -143q88 -8 155 -33l-21 -75q-36 14 -85.5 23.5t-98.5 9.5q-56 0 -81 -12t-25 -42
q0 -21 11.5 -34t38 -23t76.5 -21q107 -24 155 -57.5t48 -97.5q0 -63 -44.5 -98.5t-128.5 -41.5l5 -143h-77z" />
    <glyph glyph-name="percent" unicode="%" horiz-adv-x="650" 
d="M63 105l470 480q28 -17 44 -47l-466 -477zM91 628q36 36 97 36t97 -36t36 -97q0 -63 -36 -100t-97 -37t-97 37t-36 100q0 61 36 97zM140 478.5q17 -18.5 48 -18.5t48 18.5t17 52.5q0 32 -17 50.5t-48 18.5t-48 -18t-17 -51q0 -34 17 -52.5zM366 221q36 36 97 36t97 -36
t36 -98q0 -63 -36 -100t-97 -37t-97 37t-36 100q0 62 36 98zM415 71.5q17 -18.5 48 -18.5q30 0 47.5 18.5t17.5 51.5q0 32 -17.5 50t-47.5 18q-31 0 -48 -18t-17 -50q0 -33 17 -51.5z" />
    <glyph glyph-name="ampersand" unicode="&#x26;" horiz-adv-x="600" 
d="M532 -14l-98 109q-106 -109 -246 -109q-77 0 -123.5 43.5t-46.5 134.5q0 50 7 88.5t24 88.5q69 3 121 3h38l-15 17q-38 42 -59 81.5t-21 84.5q0 58 43 97.5t128 39.5q51 0 96 -9.5t96 -30.5l-17 -72q-49 19 -88.5 27.5t-79.5 8.5q-48 0 -70.5 -18.5t-22.5 -48.5
q0 -24 15 -50.5t43 -57.5l172 -190q25 76 41 183h77q-11 -74 -24 -133t-36 -114l104 -115q-26 -36 -58 -58zM203 67q100 0 179 85l-110 122q-14 0 -21 1l-71 1q-20 0 -62 -2q-7 -28 -9.5 -51t-2.5 -57q0 -99 97 -99z" />
    <glyph glyph-name="quotesingle" unicode="'" horiz-adv-x="320" 
d="M114 700h102l3 -41l-34 -223h-69z" />
    <glyph glyph-name="parenleft" unicode="(" horiz-adv-x="460" 
d="M161 26q-54 112 -54 238q0 125 54 237t169 202l45 -49q-90 -81 -135 -177.5t-45 -212.5q0 -117 45 -213.5t135 -177.5l-45 -49q-115 90 -169 202z" />
    <glyph glyph-name="parenright" unicode=")" horiz-adv-x="460" 
d="M220 50.5q45 96.5 45 213.5q0 116 -45 212.5t-135 177.5l45 49q115 -90 169 -202t54 -237q0 -126 -54 -238t-169 -202l-45 49q90 81 135 177.5z" />
    <glyph glyph-name="asterisk" unicode="*" horiz-adv-x="395" 
d="M185 529l-64 -54l-28 46l80 30l-80 28l28 44l64 -51l-14 83h54l-13 -83l63 51l28 -44l-80 -29l80 -29l-28 -46l-63 53l12 -82h-52z" />
    <glyph glyph-name="plus" unicode="+" horiz-adv-x="450" 
d="M60 290l129 -2l-2 120h76l-2 -120l130 2v-76l-130 2l2 -119h-76l2 119l-129 -2v76z" />
    <glyph glyph-name="comma" unicode="," horiz-adv-x="310" 
d="M140 -86.5q20 35.5 26 75.5l-78 13q-1 6 -1 18q0 35 17 55.5t49 20.5q35 0 52 -22.5t17 -59.5q0 -52 -24.5 -103.5t-63.5 -89.5l-43 29q29 28 49 63.5z" />
    <glyph glyph-name="hyphen" unicode="-" horiz-adv-x="450" 
d="M75 290h301v-76h-301v76z" />
    <glyph glyph-name="period" unicode="." horiz-adv-x="310" 
d="M108 2q-17 15 -17 41q0 25 17 40t47 15q29 0 46 -15t17 -40q0 -26 -17 -41t-46 -15q-30 0 -47 15z" />
    <glyph glyph-name="slash" unicode="/" horiz-adv-x="610" 
d="M35 -156l471 856l70 -34l-471 -857z" />
    <glyph glyph-name="zero" unicode="0" horiz-adv-x="1378" 
d="M59 40h95v31h-38l41 78h-93v-31h36zM75 170v29h33v11h-33v26h38v11h-50v-77h12zM64 462h486q4 56 44.5 94t96.5 38t96.5 -38t44.5 -94h486v-193h-1254v193zM116 392v-86h39v86h28v35h-96v-35h29zM132 178q9 -9 22 -9q14 0 23 8.5t9 22.5v47h-12v-47q0 -8 -6 -14t-14 -6
t-13.5 5.5t-5.5 14.5v47h-12v-47q0 -13 9 -22zM244 40v30h-45v10h38v30h-38v9h44v30h-79v-109h80zM229 306v35h8l15 -35h41l-21 46q14 12 14 32q0 18 -13.5 30.5t-32.5 12.5h-50v-121h39zM248 170v11h-35v66h-12v-77h47zM229 394h10q3 0 5.5 -3t2.5 -7t-2.5 -7.5t-5.5 -3.5
h-10v21zM274 118v-78h35v78h26v31h-87v-31h26zM307 170v11h-36v66h-12v-77h48zM337 306v121h-38v-121h38zM359 40l5 17h31l4 -17h38l-37 109h-40l-37 -109h36zM371 170h8l32 77h-14l-22 -57l-22 57h-14zM385 306l5 19h34l5 -19h42l-41 121h-45l-41 -121h41zM379 112h1l7 -26
h-15zM406 386h1l8 -29h-17zM471 170v11h-38v23h33v10h-33v22h38v11h-50v-77h50zM478 40v34h37v29h-37v16h44v30h-79v-109h35zM560 306v33h-43v88h-39v-121h82zM496 170v28h18l13 -28h14l-15 31q12 7 12 21q0 11 -7 18t-18 7h-29v-77h12zM496 236h17q5 0 9 -4t4 -10t-4 -10
t-9 -4h-17v28zM543 53.5q17 -16.5 42 -16.5t42 16.5t17 41.5q0 24 -17 40.5t-42 16.5t-42 -16.5t-17 -40.5q0 -25 17 -41.5zM573 169q11 0 18.5 6t7.5 17q0 13 -23 22q-9 3 -12.5 5.5t-3.5 7.5t4 8t10 3q11 0 20 -7v13q-10 5 -20 5q-12 0 -19 -6t-7 -16q0 -9 5 -13.5
t17 -9.5q17 -5 17 -12q0 -12 -14 -12q-13 0 -26 9v-13q12 -7 26 -7zM568 113q7 7 17 7t17 -7t7 -18t-7 -18.5t-17 -7.5t-17 7.5t-7 18.5t7 18zM596 367l167 166h-171q-29 -35 -29 -81q0 -49 33 -85zM691 325q48 0 85 32h-170q37 -32 85 -32zM776 547q-38 33 -85 33
q-49 0 -85 -33h170zM623 170v77h-12v-77h12zM789 371q29 35 29 81q0 48 -32 85l-166 -166h169zM647.5 180.5q11.5 -11.5 28.5 -11.5t28.5 11.5t11.5 28.5t-11.5 28.5t-28.5 11.5t-28.5 -11.5t-11.5 -28.5t11.5 -28.5zM656 229q8 8 20 8q11 0 19 -8t8 -20q0 -13 -8 -21
t-19 -8q-12 0 -20 8t-8 21q0 12 8 20zM687 40l-1 53l34 -53h36v109h-35v-58l-33 58h-36v-109h35zM740 170v52l49 -54h6v79h-12v-54l-49 55h-6v-78h12zM788 118v-78h35v78h25v31h-86v-31h26zM1287 201l-13 -11l8 -7l25 24l-25 24l-8 -7l13 -11h-458v-12h458zM861.5 321
q18.5 -18 46.5 -18t47 18t19 46q0 27 -19 45t-47 18t-46.5 -18t-18.5 -45q0 -28 18.5 -46zM858.5 96.5q7.5 -7.5 24.5 -13.5q3 -1 10 -3t7 -6q0 -6 -9 -6q-13 0 -38 16v-37q16 -10 38 -10q19 0 31.5 10t12.5 27q0 27 -36 35q-3 1 -7 2t-5.5 2.5t-1.5 3.5q0 4 11 4
q7 0 16.5 -3t15.5 -8v34q-18 8 -32 8q-21 0 -33 -9t-12 -25q0 -14 7.5 -21.5zM889 387q8 8 19 8q12 0 19.5 -8t7.5 -20q0 -13 -7.5 -21t-19.5 -8q-11 0 -19 8t-8 21q0 12 8 20zM945 42q5 -5 13 -5q7 0 12 5t5 12t-5 11.5t-12 4.5q-8 0 -13 -4.5t-5 -11.5t5 -12zM998 53.5
q17 -16.5 41 -16.5q12 0 26 7l1 35q-10 -10 -25 -10q-11 0 -18 7.5t-7 18.5t7.5 18t17.5 7t22 -7v33q-10 6 -23 6q-25 0 -42 -16.5t-17 -40.5q0 -25 17 -41.5zM1021 306l-1 59l38 -59h40v121h-39v-64l-37 64h-40v-121h39zM1086 53.5q17 -16.5 43 -16.5q25 0 42 16.5t17 41.5
q0 24 -17 40.5t-42 16.5t-42.5 -16.5t-17.5 -40.5q0 -25 17 -41.5zM1111.5 113q7.5 7 17.5 7t17 -7.5t7 -17.5q0 -11 -7 -18.5t-17 -7.5q-11 0 -18 7.5t-7 18.5t7.5 18zM1192 306v33h-43v88h-39v-121h82zM1214 354v-48h39v48l41 73h-45l-16 -36l-15 36h-46zM1230 40v43
l14 -27h25l14 27v-43h34v109h-35l-26 -50l-26 50h-35v-109h35z" />
    <glyph glyph-name="one" unicode="1" horiz-adv-x="1378" 
d="M59 40h95v31h-38l41 78h-93v-31h36zM75 170v29h33v11h-33v26h38v11h-50v-77h12zM64 462h486q4 56 44.5 94t96.5 38t96.5 -38t44.5 -94h486v-193h-1254v193zM116 392v-86h39v86h28v35h-96v-35h29zM132 178q9 -9 22 -9q14 0 23 8.5t9 22.5v47h-12v-47q0 -8 -6 -14t-14 -6
t-13.5 5.5t-5.5 14.5v47h-12v-47q0 -13 9 -22zM244 40v30h-45v10h38v30h-38v9h44v30h-79v-109h80zM229 306v35h8l15 -35h41l-21 46q14 12 14 32q0 18 -13.5 30.5t-32.5 12.5h-50v-121h39zM248 170v11h-35v66h-12v-77h47zM229 394h10q3 0 5.5 -3t2.5 -7t-2.5 -7.5t-5.5 -3.5
h-10v21zM274 118v-78h35v78h26v31h-87v-31h26zM307 170v11h-36v66h-12v-77h48zM337 306v121h-38v-121h38zM359 40l5 17h31l4 -17h38l-37 109h-40l-37 -109h36zM371 170h8l32 77h-14l-22 -57l-22 57h-14zM385 306l5 19h34l5 -19h42l-41 121h-45l-41 -121h41zM379 112h1l7 -26
h-15zM406 386h1l8 -29h-17zM471 170v11h-38v23h33v10h-33v22h38v11h-50v-77h50zM478 40v34h37v29h-37v16h44v30h-79v-109h35zM560 306v33h-43v88h-39v-121h82zM496 170v28h18l13 -28h14l-15 31q12 7 12 21q0 11 -7 18t-18 7h-29v-77h12zM496 236h17q5 0 9 -4t4 -10t-4 -10
t-9 -4h-17v28zM543 53.5q17 -16.5 42 -16.5t42 16.5t17 41.5q0 24 -17 40.5t-42 16.5t-42 -16.5t-17 -40.5q0 -25 17 -41.5zM573 169q11 0 18.5 6t7.5 17q0 13 -23 22q-9 3 -12.5 5.5t-3.5 7.5t4 8t10 3q11 0 20 -7v13q-10 5 -20 5q-12 0 -19 -6t-7 -16q0 -9 5 -13.5
t17 -9.5q17 -5 17 -12q0 -12 -14 -12q-13 0 -26 9v-13q12 -7 26 -7zM568 113q7 7 17 7t17 -7t7 -18t-7 -18.5t-17 -7.5t-17 7.5t-7 18.5t7 18zM596 367l167 166h-171q-29 -35 -29 -81q0 -49 33 -85zM691 325q48 0 85 32h-170q37 -32 85 -32zM776 547q-38 33 -85 33
q-49 0 -85 -33h170zM623 170v77h-12v-77h12zM789 371q29 35 29 81q0 48 -32 85l-166 -166h169zM647.5 180.5q11.5 -11.5 28.5 -11.5t28.5 11.5t11.5 28.5t-11.5 28.5t-28.5 11.5t-28.5 -11.5t-11.5 -28.5t11.5 -28.5zM656 229q8 8 20 8q11 0 19 -8t8 -20q0 -13 -8 -21
t-19 -8q-12 0 -20 8t-8 21q0 12 8 20zM687 40l-1 53l34 -53h36v109h-35v-58l-33 58h-36v-109h35zM740 170v52l49 -54h6v79h-12v-54l-49 55h-6v-78h12zM788 118v-78h35v78h25v31h-86v-31h26zM1287 201l-13 -11l8 -7l25 24l-25 24l-8 -7l13 -11h-458v-12h458zM861.5 321
q18.5 -18 46.5 -18t47 18t19 46q0 27 -19 45t-47 18t-46.5 -18t-18.5 -45q0 -28 18.5 -46zM858.5 96.5q7.5 -7.5 24.5 -13.5q3 -1 10 -3t7 -6q0 -6 -9 -6q-13 0 -38 16v-37q16 -10 38 -10q19 0 31.5 10t12.5 27q0 27 -36 35q-3 1 -7 2t-5.5 2.5t-1.5 3.5q0 4 11 4
q7 0 16.5 -3t15.5 -8v34q-18 8 -32 8q-21 0 -33 -9t-12 -25q0 -14 7.5 -21.5zM889 387q8 8 19 8q12 0 19.5 -8t7.5 -20q0 -13 -7.5 -21t-19.5 -8q-11 0 -19 8t-8 21q0 12 8 20zM945 42q5 -5 13 -5q7 0 12 5t5 12t-5 11.5t-12 4.5q-8 0 -13 -4.5t-5 -11.5t5 -12zM998 53.5
q17 -16.5 41 -16.5q12 0 26 7l1 35q-10 -10 -25 -10q-11 0 -18 7.5t-7 18.5t7.5 18t17.5 7t22 -7v33q-10 6 -23 6q-25 0 -42 -16.5t-17 -40.5q0 -25 17 -41.5zM1021 306l-1 59l38 -59h40v121h-39v-64l-37 64h-40v-121h39zM1086 53.5q17 -16.5 43 -16.5q25 0 42 16.5t17 41.5
q0 24 -17 40.5t-42 16.5t-42.5 -16.5t-17.5 -40.5q0 -25 17 -41.5zM1111.5 113q7.5 7 17.5 7t17 -7.5t7 -17.5q0 -11 -7 -18.5t-17 -7.5q-11 0 -18 7.5t-7 18.5t7.5 18zM1192 306v33h-43v88h-39v-121h82zM1214 354v-48h39v48l41 73h-45l-16 -36l-15 36h-46zM1230 40v43
l14 -27h25l14 27v-43h34v109h-35l-26 -50l-26 50h-35v-109h35z" />
    <glyph glyph-name="two" unicode="2" horiz-adv-x="1378" 
d="M59 40h95v31h-38l41 78h-93v-31h36zM75 170v29h33v11h-33v26h38v11h-50v-77h12zM64 462h486q4 56 44.5 94t96.5 38t96.5 -38t44.5 -94h486v-193h-1254v193zM116 392v-86h39v86h28v35h-96v-35h29zM132 178q9 -9 22 -9q14 0 23 8.5t9 22.5v47h-12v-47q0 -8 -6 -14t-14 -6
t-13.5 5.5t-5.5 14.5v47h-12v-47q0 -13 9 -22zM244 40v30h-45v10h38v30h-38v9h44v30h-79v-109h80zM229 306v35h8l15 -35h41l-21 46q14 12 14 32q0 18 -13.5 30.5t-32.5 12.5h-50v-121h39zM248 170v11h-35v66h-12v-77h47zM229 394h10q3 0 5.5 -3t2.5 -7t-2.5 -7.5t-5.5 -3.5
h-10v21zM274 118v-78h35v78h26v31h-87v-31h26zM307 170v11h-36v66h-12v-77h48zM337 306v121h-38v-121h38zM359 40l5 17h31l4 -17h38l-37 109h-40l-37 -109h36zM371 170h8l32 77h-14l-22 -57l-22 57h-14zM385 306l5 19h34l5 -19h42l-41 121h-45l-41 -121h41zM379 112h1l7 -26
h-15zM406 386h1l8 -29h-17zM471 170v11h-38v23h33v10h-33v22h38v11h-50v-77h50zM478 40v34h37v29h-37v16h44v30h-79v-109h35zM560 306v33h-43v88h-39v-121h82zM496 170v28h18l13 -28h14l-15 31q12 7 12 21q0 11 -7 18t-18 7h-29v-77h12zM496 236h17q5 0 9 -4t4 -10t-4 -10
t-9 -4h-17v28zM543 53.5q17 -16.5 42 -16.5t42 16.5t17 41.5q0 24 -17 40.5t-42 16.5t-42 -16.5t-17 -40.5q0 -25 17 -41.5zM573 169q11 0 18.5 6t7.5 17q0 13 -23 22q-9 3 -12.5 5.5t-3.5 7.5t4 8t10 3q11 0 20 -7v13q-10 5 -20 5q-12 0 -19 -6t-7 -16q0 -9 5 -13.5
t17 -9.5q17 -5 17 -12q0 -12 -14 -12q-13 0 -26 9v-13q12 -7 26 -7zM568 113q7 7 17 7t17 -7t7 -18t-7 -18.5t-17 -7.5t-17 7.5t-7 18.5t7 18zM596 367l167 166h-171q-29 -35 -29 -81q0 -49 33 -85zM691 325q48 0 85 32h-170q37 -32 85 -32zM776 547q-38 33 -85 33
q-49 0 -85 -33h170zM623 170v77h-12v-77h12zM789 371q29 35 29 81q0 48 -32 85l-166 -166h169zM647.5 180.5q11.5 -11.5 28.5 -11.5t28.5 11.5t11.5 28.5t-11.5 28.5t-28.5 11.5t-28.5 -11.5t-11.5 -28.5t11.5 -28.5zM656 229q8 8 20 8q11 0 19 -8t8 -20q0 -13 -8 -21
t-19 -8q-12 0 -20 8t-8 21q0 12 8 20zM687 40l-1 53l34 -53h36v109h-35v-58l-33 58h-36v-109h35zM740 170v52l49 -54h6v79h-12v-54l-49 55h-6v-78h12zM788 118v-78h35v78h25v31h-86v-31h26zM1287 201l-13 -11l8 -7l25 24l-25 24l-8 -7l13 -11h-458v-12h458zM861.5 321
q18.5 -18 46.5 -18t47 18t19 46q0 27 -19 45t-47 18t-46.5 -18t-18.5 -45q0 -28 18.5 -46zM858.5 96.5q7.5 -7.5 24.5 -13.5q3 -1 10 -3t7 -6q0 -6 -9 -6q-13 0 -38 16v-37q16 -10 38 -10q19 0 31.5 10t12.5 27q0 27 -36 35q-3 1 -7 2t-5.5 2.5t-1.5 3.5q0 4 11 4
q7 0 16.5 -3t15.5 -8v34q-18 8 -32 8q-21 0 -33 -9t-12 -25q0 -14 7.5 -21.5zM889 387q8 8 19 8q12 0 19.5 -8t7.5 -20q0 -13 -7.5 -21t-19.5 -8q-11 0 -19 8t-8 21q0 12 8 20zM945 42q5 -5 13 -5q7 0 12 5t5 12t-5 11.5t-12 4.5q-8 0 -13 -4.5t-5 -11.5t5 -12zM998 53.5
q17 -16.5 41 -16.5q12 0 26 7l1 35q-10 -10 -25 -10q-11 0 -18 7.5t-7 18.5t7.5 18t17.5 7t22 -7v33q-10 6 -23 6q-25 0 -42 -16.5t-17 -40.5q0 -25 17 -41.5zM1021 306l-1 59l38 -59h40v121h-39v-64l-37 64h-40v-121h39zM1086 53.5q17 -16.5 43 -16.5q25 0 42 16.5t17 41.5
q0 24 -17 40.5t-42 16.5t-42.5 -16.5t-17.5 -40.5q0 -25 17 -41.5zM1111.5 113q7.5 7 17.5 7t17 -7.5t7 -17.5q0 -11 -7 -18.5t-17 -7.5q-11 0 -18 7.5t-7 18.5t7.5 18zM1192 306v33h-43v88h-39v-121h82zM1214 354v-48h39v48l41 73h-45l-16 -36l-15 36h-46zM1230 40v43
l14 -27h25l14 27v-43h34v109h-35l-26 -50l-26 50h-35v-109h35z" />
    <glyph glyph-name="three" unicode="3" horiz-adv-x="1378" 
d="M59 40h95v31h-38l41 78h-93v-31h36zM75 170v29h33v11h-33v26h38v11h-50v-77h12zM64 462h486q4 56 44.5 94t96.5 38t96.5 -38t44.5 -94h486v-193h-1254v193zM116 392v-86h39v86h28v35h-96v-35h29zM132 178q9 -9 22 -9q14 0 23 8.5t9 22.5v47h-12v-47q0 -8 -6 -14t-14 -6
t-13.5 5.5t-5.5 14.5v47h-12v-47q0 -13 9 -22zM244 40v30h-45v10h38v30h-38v9h44v30h-79v-109h80zM229 306v35h8l15 -35h41l-21 46q14 12 14 32q0 18 -13.5 30.5t-32.5 12.5h-50v-121h39zM248 170v11h-35v66h-12v-77h47zM229 394h10q3 0 5.5 -3t2.5 -7t-2.5 -7.5t-5.5 -3.5
h-10v21zM274 118v-78h35v78h26v31h-87v-31h26zM307 170v11h-36v66h-12v-77h48zM337 306v121h-38v-121h38zM359 40l5 17h31l4 -17h38l-37 109h-40l-37 -109h36zM371 170h8l32 77h-14l-22 -57l-22 57h-14zM385 306l5 19h34l5 -19h42l-41 121h-45l-41 -121h41zM379 112h1l7 -26
h-15zM406 386h1l8 -29h-17zM471 170v11h-38v23h33v10h-33v22h38v11h-50v-77h50zM478 40v34h37v29h-37v16h44v30h-79v-109h35zM560 306v33h-43v88h-39v-121h82zM496 170v28h18l13 -28h14l-15 31q12 7 12 21q0 11 -7 18t-18 7h-29v-77h12zM496 236h17q5 0 9 -4t4 -10t-4 -10
t-9 -4h-17v28zM543 53.5q17 -16.5 42 -16.5t42 16.5t17 41.5q0 24 -17 40.5t-42 16.5t-42 -16.5t-17 -40.5q0 -25 17 -41.5zM573 169q11 0 18.5 6t7.5 17q0 13 -23 22q-9 3 -12.5 5.5t-3.5 7.5t4 8t10 3q11 0 20 -7v13q-10 5 -20 5q-12 0 -19 -6t-7 -16q0 -9 5 -13.5
t17 -9.5q17 -5 17 -12q0 -12 -14 -12q-13 0 -26 9v-13q12 -7 26 -7zM568 113q7 7 17 7t17 -7t7 -18t-7 -18.5t-17 -7.5t-17 7.5t-7 18.5t7 18zM596 367l167 166h-171q-29 -35 -29 -81q0 -49 33 -85zM691 325q48 0 85 32h-170q37 -32 85 -32zM776 547q-38 33 -85 33
q-49 0 -85 -33h170zM623 170v77h-12v-77h12zM789 371q29 35 29 81q0 48 -32 85l-166 -166h169zM647.5 180.5q11.5 -11.5 28.5 -11.5t28.5 11.5t11.5 28.5t-11.5 28.5t-28.5 11.5t-28.5 -11.5t-11.5 -28.5t11.5 -28.5zM656 229q8 8 20 8q11 0 19 -8t8 -20q0 -13 -8 -21
t-19 -8q-12 0 -20 8t-8 21q0 12 8 20zM687 40l-1 53l34 -53h36v109h-35v-58l-33 58h-36v-109h35zM740 170v52l49 -54h6v79h-12v-54l-49 55h-6v-78h12zM788 118v-78h35v78h25v31h-86v-31h26zM1287 201l-13 -11l8 -7l25 24l-25 24l-8 -7l13 -11h-458v-12h458zM861.5 321
q18.5 -18 46.5 -18t47 18t19 46q0 27 -19 45t-47 18t-46.5 -18t-18.5 -45q0 -28 18.5 -46zM858.5 96.5q7.5 -7.5 24.5 -13.5q3 -1 10 -3t7 -6q0 -6 -9 -6q-13 0 -38 16v-37q16 -10 38 -10q19 0 31.5 10t12.5 27q0 27 -36 35q-3 1 -7 2t-5.5 2.5t-1.5 3.5q0 4 11 4
q7 0 16.5 -3t15.5 -8v34q-18 8 -32 8q-21 0 -33 -9t-12 -25q0 -14 7.5 -21.5zM889 387q8 8 19 8q12 0 19.5 -8t7.5 -20q0 -13 -7.5 -21t-19.5 -8q-11 0 -19 8t-8 21q0 12 8 20zM945 42q5 -5 13 -5q7 0 12 5t5 12t-5 11.5t-12 4.5q-8 0 -13 -4.5t-5 -11.5t5 -12zM998 53.5
q17 -16.5 41 -16.5q12 0 26 7l1 35q-10 -10 -25 -10q-11 0 -18 7.5t-7 18.5t7.5 18t17.5 7t22 -7v33q-10 6 -23 6q-25 0 -42 -16.5t-17 -40.5q0 -25 17 -41.5zM1021 306l-1 59l38 -59h40v121h-39v-64l-37 64h-40v-121h39zM1086 53.5q17 -16.5 43 -16.5q25 0 42 16.5t17 41.5
q0 24 -17 40.5t-42 16.5t-42.5 -16.5t-17.5 -40.5q0 -25 17 -41.5zM1111.5 113q7.5 7 17.5 7t17 -7.5t7 -17.5q0 -11 -7 -18.5t-17 -7.5q-11 0 -18 7.5t-7 18.5t7.5 18zM1192 306v33h-43v88h-39v-121h82zM1214 354v-48h39v48l41 73h-45l-16 -36l-15 36h-46zM1230 40v43
l14 -27h25l14 27v-43h34v109h-35l-26 -50l-26 50h-35v-109h35z" />
    <glyph glyph-name="four" unicode="4" horiz-adv-x="1378" 
d="M59 40h95v31h-38l41 78h-93v-31h36zM75 170v29h33v11h-33v26h38v11h-50v-77h12zM64 462h486q4 56 44.5 94t96.5 38t96.5 -38t44.5 -94h486v-193h-1254v193zM116 392v-86h39v86h28v35h-96v-35h29zM132 178q9 -9 22 -9q14 0 23 8.5t9 22.5v47h-12v-47q0 -8 -6 -14t-14 -6
t-13.5 5.5t-5.5 14.5v47h-12v-47q0 -13 9 -22zM244 40v30h-45v10h38v30h-38v9h44v30h-79v-109h80zM229 306v35h8l15 -35h41l-21 46q14 12 14 32q0 18 -13.5 30.5t-32.5 12.5h-50v-121h39zM248 170v11h-35v66h-12v-77h47zM229 394h10q3 0 5.5 -3t2.5 -7t-2.5 -7.5t-5.5 -3.5
h-10v21zM274 118v-78h35v78h26v31h-87v-31h26zM307 170v11h-36v66h-12v-77h48zM337 306v121h-38v-121h38zM359 40l5 17h31l4 -17h38l-37 109h-40l-37 -109h36zM371 170h8l32 77h-14l-22 -57l-22 57h-14zM385 306l5 19h34l5 -19h42l-41 121h-45l-41 -121h41zM379 112h1l7 -26
h-15zM406 386h1l8 -29h-17zM471 170v11h-38v23h33v10h-33v22h38v11h-50v-77h50zM478 40v34h37v29h-37v16h44v30h-79v-109h35zM560 306v33h-43v88h-39v-121h82zM496 170v28h18l13 -28h14l-15 31q12 7 12 21q0 11 -7 18t-18 7h-29v-77h12zM496 236h17q5 0 9 -4t4 -10t-4 -10
t-9 -4h-17v28zM543 53.5q17 -16.5 42 -16.5t42 16.5t17 41.5q0 24 -17 40.5t-42 16.5t-42 -16.5t-17 -40.5q0 -25 17 -41.5zM573 169q11 0 18.5 6t7.5 17q0 13 -23 22q-9 3 -12.5 5.5t-3.5 7.5t4 8t10 3q11 0 20 -7v13q-10 5 -20 5q-12 0 -19 -6t-7 -16q0 -9 5 -13.5
t17 -9.5q17 -5 17 -12q0 -12 -14 -12q-13 0 -26 9v-13q12 -7 26 -7zM568 113q7 7 17 7t17 -7t7 -18t-7 -18.5t-17 -7.5t-17 7.5t-7 18.5t7 18zM596 367l167 166h-171q-29 -35 -29 -81q0 -49 33 -85zM691 325q48 0 85 32h-170q37 -32 85 -32zM776 547q-38 33 -85 33
q-49 0 -85 -33h170zM623 170v77h-12v-77h12zM789 371q29 35 29 81q0 48 -32 85l-166 -166h169zM647.5 180.5q11.5 -11.5 28.5 -11.5t28.5 11.5t11.5 28.5t-11.5 28.5t-28.5 11.5t-28.5 -11.5t-11.5 -28.5t11.5 -28.5zM656 229q8 8 20 8q11 0 19 -8t8 -20q0 -13 -8 -21
t-19 -8q-12 0 -20 8t-8 21q0 12 8 20zM687 40l-1 53l34 -53h36v109h-35v-58l-33 58h-36v-109h35zM740 170v52l49 -54h6v79h-12v-54l-49 55h-6v-78h12zM788 118v-78h35v78h25v31h-86v-31h26zM1287 201l-13 -11l8 -7l25 24l-25 24l-8 -7l13 -11h-458v-12h458zM861.5 321
q18.5 -18 46.5 -18t47 18t19 46q0 27 -19 45t-47 18t-46.5 -18t-18.5 -45q0 -28 18.5 -46zM858.5 96.5q7.5 -7.5 24.5 -13.5q3 -1 10 -3t7 -6q0 -6 -9 -6q-13 0 -38 16v-37q16 -10 38 -10q19 0 31.5 10t12.5 27q0 27 -36 35q-3 1 -7 2t-5.5 2.5t-1.5 3.5q0 4 11 4
q7 0 16.5 -3t15.5 -8v34q-18 8 -32 8q-21 0 -33 -9t-12 -25q0 -14 7.5 -21.5zM889 387q8 8 19 8q12 0 19.5 -8t7.5 -20q0 -13 -7.5 -21t-19.5 -8q-11 0 -19 8t-8 21q0 12 8 20zM945 42q5 -5 13 -5q7 0 12 5t5 12t-5 11.5t-12 4.5q-8 0 -13 -4.5t-5 -11.5t5 -12zM998 53.5
q17 -16.5 41 -16.5q12 0 26 7l1 35q-10 -10 -25 -10q-11 0 -18 7.5t-7 18.5t7.5 18t17.5 7t22 -7v33q-10 6 -23 6q-25 0 -42 -16.5t-17 -40.5q0 -25 17 -41.5zM1021 306l-1 59l38 -59h40v121h-39v-64l-37 64h-40v-121h39zM1086 53.5q17 -16.5 43 -16.5q25 0 42 16.5t17 41.5
q0 24 -17 40.5t-42 16.5t-42.5 -16.5t-17.5 -40.5q0 -25 17 -41.5zM1111.5 113q7.5 7 17.5 7t17 -7.5t7 -17.5q0 -11 -7 -18.5t-17 -7.5q-11 0 -18 7.5t-7 18.5t7.5 18zM1192 306v33h-43v88h-39v-121h82zM1214 354v-48h39v48l41 73h-45l-16 -36l-15 36h-46zM1230 40v43
l14 -27h25l14 27v-43h34v109h-35l-26 -50l-26 50h-35v-109h35z" />
    <glyph glyph-name="five" unicode="5" horiz-adv-x="1378" 
d="M59 40h95v31h-38l41 78h-93v-31h36zM75 170v29h33v11h-33v26h38v11h-50v-77h12zM64 462h486q4 56 44.5 94t96.5 38t96.5 -38t44.5 -94h486v-193h-1254v193zM116 392v-86h39v86h28v35h-96v-35h29zM132 178q9 -9 22 -9q14 0 23 8.5t9 22.5v47h-12v-47q0 -8 -6 -14t-14 -6
t-13.5 5.5t-5.5 14.5v47h-12v-47q0 -13 9 -22zM244 40v30h-45v10h38v30h-38v9h44v30h-79v-109h80zM229 306v35h8l15 -35h41l-21 46q14 12 14 32q0 18 -13.5 30.5t-32.5 12.5h-50v-121h39zM248 170v11h-35v66h-12v-77h47zM229 394h10q3 0 5.5 -3t2.5 -7t-2.5 -7.5t-5.5 -3.5
h-10v21zM274 118v-78h35v78h26v31h-87v-31h26zM307 170v11h-36v66h-12v-77h48zM337 306v121h-38v-121h38zM359 40l5 17h31l4 -17h38l-37 109h-40l-37 -109h36zM371 170h8l32 77h-14l-22 -57l-22 57h-14zM385 306l5 19h34l5 -19h42l-41 121h-45l-41 -121h41zM379 112h1l7 -26
h-15zM406 386h1l8 -29h-17zM471 170v11h-38v23h33v10h-33v22h38v11h-50v-77h50zM478 40v34h37v29h-37v16h44v30h-79v-109h35zM560 306v33h-43v88h-39v-121h82zM496 170v28h18l13 -28h14l-15 31q12 7 12 21q0 11 -7 18t-18 7h-29v-77h12zM496 236h17q5 0 9 -4t4 -10t-4 -10
t-9 -4h-17v28zM543 53.5q17 -16.5 42 -16.5t42 16.5t17 41.5q0 24 -17 40.5t-42 16.5t-42 -16.5t-17 -40.5q0 -25 17 -41.5zM573 169q11 0 18.5 6t7.5 17q0 13 -23 22q-9 3 -12.5 5.5t-3.5 7.5t4 8t10 3q11 0 20 -7v13q-10 5 -20 5q-12 0 -19 -6t-7 -16q0 -9 5 -13.5
t17 -9.5q17 -5 17 -12q0 -12 -14 -12q-13 0 -26 9v-13q12 -7 26 -7zM568 113q7 7 17 7t17 -7t7 -18t-7 -18.5t-17 -7.5t-17 7.5t-7 18.5t7 18zM596 367l167 166h-171q-29 -35 -29 -81q0 -49 33 -85zM691 325q48 0 85 32h-170q37 -32 85 -32zM776 547q-38 33 -85 33
q-49 0 -85 -33h170zM623 170v77h-12v-77h12zM789 371q29 35 29 81q0 48 -32 85l-166 -166h169zM647.5 180.5q11.5 -11.5 28.5 -11.5t28.5 11.5t11.5 28.5t-11.5 28.5t-28.5 11.5t-28.5 -11.5t-11.5 -28.5t11.5 -28.5zM656 229q8 8 20 8q11 0 19 -8t8 -20q0 -13 -8 -21
t-19 -8q-12 0 -20 8t-8 21q0 12 8 20zM687 40l-1 53l34 -53h36v109h-35v-58l-33 58h-36v-109h35zM740 170v52l49 -54h6v79h-12v-54l-49 55h-6v-78h12zM788 118v-78h35v78h25v31h-86v-31h26zM1287 201l-13 -11l8 -7l25 24l-25 24l-8 -7l13 -11h-458v-12h458zM861.5 321
q18.5 -18 46.5 -18t47 18t19 46q0 27 -19 45t-47 18t-46.5 -18t-18.5 -45q0 -28 18.5 -46zM858.5 96.5q7.5 -7.5 24.5 -13.5q3 -1 10 -3t7 -6q0 -6 -9 -6q-13 0 -38 16v-37q16 -10 38 -10q19 0 31.5 10t12.5 27q0 27 -36 35q-3 1 -7 2t-5.5 2.5t-1.5 3.5q0 4 11 4
q7 0 16.5 -3t15.5 -8v34q-18 8 -32 8q-21 0 -33 -9t-12 -25q0 -14 7.5 -21.5zM889 387q8 8 19 8q12 0 19.5 -8t7.5 -20q0 -13 -7.5 -21t-19.5 -8q-11 0 -19 8t-8 21q0 12 8 20zM945 42q5 -5 13 -5q7 0 12 5t5 12t-5 11.5t-12 4.5q-8 0 -13 -4.5t-5 -11.5t5 -12zM998 53.5
q17 -16.5 41 -16.5q12 0 26 7l1 35q-10 -10 -25 -10q-11 0 -18 7.5t-7 18.5t7.5 18t17.5 7t22 -7v33q-10 6 -23 6q-25 0 -42 -16.5t-17 -40.5q0 -25 17 -41.5zM1021 306l-1 59l38 -59h40v121h-39v-64l-37 64h-40v-121h39zM1086 53.5q17 -16.5 43 -16.5q25 0 42 16.5t17 41.5
q0 24 -17 40.5t-42 16.5t-42.5 -16.5t-17.5 -40.5q0 -25 17 -41.5zM1111.5 113q7.5 7 17.5 7t17 -7.5t7 -17.5q0 -11 -7 -18.5t-17 -7.5q-11 0 -18 7.5t-7 18.5t7.5 18zM1192 306v33h-43v88h-39v-121h82zM1214 354v-48h39v48l41 73h-45l-16 -36l-15 36h-46zM1230 40v43
l14 -27h25l14 27v-43h34v109h-35l-26 -50l-26 50h-35v-109h35z" />
    <glyph glyph-name="six" unicode="6" horiz-adv-x="1378" 
d="M59 40h95v31h-38l41 78h-93v-31h36zM75 170v29h33v11h-33v26h38v11h-50v-77h12zM64 462h486q4 56 44.5 94t96.5 38t96.5 -38t44.5 -94h486v-193h-1254v193zM116 392v-86h39v86h28v35h-96v-35h29zM132 178q9 -9 22 -9q14 0 23 8.5t9 22.5v47h-12v-47q0 -8 -6 -14t-14 -6
t-13.5 5.5t-5.5 14.5v47h-12v-47q0 -13 9 -22zM244 40v30h-45v10h38v30h-38v9h44v30h-79v-109h80zM229 306v35h8l15 -35h41l-21 46q14 12 14 32q0 18 -13.5 30.5t-32.5 12.5h-50v-121h39zM248 170v11h-35v66h-12v-77h47zM229 394h10q3 0 5.5 -3t2.5 -7t-2.5 -7.5t-5.5 -3.5
h-10v21zM274 118v-78h35v78h26v31h-87v-31h26zM307 170v11h-36v66h-12v-77h48zM337 306v121h-38v-121h38zM359 40l5 17h31l4 -17h38l-37 109h-40l-37 -109h36zM371 170h8l32 77h-14l-22 -57l-22 57h-14zM385 306l5 19h34l5 -19h42l-41 121h-45l-41 -121h41zM379 112h1l7 -26
h-15zM406 386h1l8 -29h-17zM471 170v11h-38v23h33v10h-33v22h38v11h-50v-77h50zM478 40v34h37v29h-37v16h44v30h-79v-109h35zM560 306v33h-43v88h-39v-121h82zM496 170v28h18l13 -28h14l-15 31q12 7 12 21q0 11 -7 18t-18 7h-29v-77h12zM496 236h17q5 0 9 -4t4 -10t-4 -10
t-9 -4h-17v28zM543 53.5q17 -16.5 42 -16.5t42 16.5t17 41.5q0 24 -17 40.5t-42 16.5t-42 -16.5t-17 -40.5q0 -25 17 -41.5zM573 169q11 0 18.5 6t7.5 17q0 13 -23 22q-9 3 -12.5 5.5t-3.5 7.5t4 8t10 3q11 0 20 -7v13q-10 5 -20 5q-12 0 -19 -6t-7 -16q0 -9 5 -13.5
t17 -9.5q17 -5 17 -12q0 -12 -14 -12q-13 0 -26 9v-13q12 -7 26 -7zM568 113q7 7 17 7t17 -7t7 -18t-7 -18.5t-17 -7.5t-17 7.5t-7 18.5t7 18zM596 367l167 166h-171q-29 -35 -29 -81q0 -49 33 -85zM691 325q48 0 85 32h-170q37 -32 85 -32zM776 547q-38 33 -85 33
q-49 0 -85 -33h170zM623 170v77h-12v-77h12zM789 371q29 35 29 81q0 48 -32 85l-166 -166h169zM647.5 180.5q11.5 -11.5 28.5 -11.5t28.5 11.5t11.5 28.5t-11.5 28.5t-28.5 11.5t-28.5 -11.5t-11.5 -28.5t11.5 -28.5zM656 229q8 8 20 8q11 0 19 -8t8 -20q0 -13 -8 -21
t-19 -8q-12 0 -20 8t-8 21q0 12 8 20zM687 40l-1 53l34 -53h36v109h-35v-58l-33 58h-36v-109h35zM740 170v52l49 -54h6v79h-12v-54l-49 55h-6v-78h12zM788 118v-78h35v78h25v31h-86v-31h26zM1287 201l-13 -11l8 -7l25 24l-25 24l-8 -7l13 -11h-458v-12h458zM861.5 321
q18.5 -18 46.5 -18t47 18t19 46q0 27 -19 45t-47 18t-46.5 -18t-18.5 -45q0 -28 18.5 -46zM858.5 96.5q7.5 -7.5 24.5 -13.5q3 -1 10 -3t7 -6q0 -6 -9 -6q-13 0 -38 16v-37q16 -10 38 -10q19 0 31.5 10t12.5 27q0 27 -36 35q-3 1 -7 2t-5.5 2.5t-1.5 3.5q0 4 11 4
q7 0 16.5 -3t15.5 -8v34q-18 8 -32 8q-21 0 -33 -9t-12 -25q0 -14 7.5 -21.5zM889 387q8 8 19 8q12 0 19.5 -8t7.5 -20q0 -13 -7.5 -21t-19.5 -8q-11 0 -19 8t-8 21q0 12 8 20zM945 42q5 -5 13 -5q7 0 12 5t5 12t-5 11.5t-12 4.5q-8 0 -13 -4.5t-5 -11.5t5 -12zM998 53.5
q17 -16.5 41 -16.5q12 0 26 7l1 35q-10 -10 -25 -10q-11 0 -18 7.5t-7 18.5t7.5 18t17.5 7t22 -7v33q-10 6 -23 6q-25 0 -42 -16.5t-17 -40.5q0 -25 17 -41.5zM1021 306l-1 59l38 -59h40v121h-39v-64l-37 64h-40v-121h39zM1086 53.5q17 -16.5 43 -16.5q25 0 42 16.5t17 41.5
q0 24 -17 40.5t-42 16.5t-42.5 -16.5t-17.5 -40.5q0 -25 17 -41.5zM1111.5 113q7.5 7 17.5 7t17 -7.5t7 -17.5q0 -11 -7 -18.5t-17 -7.5q-11 0 -18 7.5t-7 18.5t7.5 18zM1192 306v33h-43v88h-39v-121h82zM1214 354v-48h39v48l41 73h-45l-16 -36l-15 36h-46zM1230 40v43
l14 -27h25l14 27v-43h34v109h-35l-26 -50l-26 50h-35v-109h35z" />
    <glyph glyph-name="seven" unicode="7" horiz-adv-x="1378" 
d="M59 40h95v31h-38l41 78h-93v-31h36zM75 170v29h33v11h-33v26h38v11h-50v-77h12zM64 462h486q4 56 44.5 94t96.5 38t96.5 -38t44.5 -94h486v-193h-1254v193zM116 392v-86h39v86h28v35h-96v-35h29zM132 178q9 -9 22 -9q14 0 23 8.5t9 22.5v47h-12v-47q0 -8 -6 -14t-14 -6
t-13.5 5.5t-5.5 14.5v47h-12v-47q0 -13 9 -22zM244 40v30h-45v10h38v30h-38v9h44v30h-79v-109h80zM229 306v35h8l15 -35h41l-21 46q14 12 14 32q0 18 -13.5 30.5t-32.5 12.5h-50v-121h39zM248 170v11h-35v66h-12v-77h47zM229 394h10q3 0 5.5 -3t2.5 -7t-2.5 -7.5t-5.5 -3.5
h-10v21zM274 118v-78h35v78h26v31h-87v-31h26zM307 170v11h-36v66h-12v-77h48zM337 306v121h-38v-121h38zM359 40l5 17h31l4 -17h38l-37 109h-40l-37 -109h36zM371 170h8l32 77h-14l-22 -57l-22 57h-14zM385 306l5 19h34l5 -19h42l-41 121h-45l-41 -121h41zM379 112h1l7 -26
h-15zM406 386h1l8 -29h-17zM471 170v11h-38v23h33v10h-33v22h38v11h-50v-77h50zM478 40v34h37v29h-37v16h44v30h-79v-109h35zM560 306v33h-43v88h-39v-121h82zM496 170v28h18l13 -28h14l-15 31q12 7 12 21q0 11 -7 18t-18 7h-29v-77h12zM496 236h17q5 0 9 -4t4 -10t-4 -10
t-9 -4h-17v28zM543 53.5q17 -16.5 42 -16.5t42 16.5t17 41.5q0 24 -17 40.5t-42 16.5t-42 -16.5t-17 -40.5q0 -25 17 -41.5zM573 169q11 0 18.5 6t7.5 17q0 13 -23 22q-9 3 -12.5 5.5t-3.5 7.5t4 8t10 3q11 0 20 -7v13q-10 5 -20 5q-12 0 -19 -6t-7 -16q0 -9 5 -13.5
t17 -9.5q17 -5 17 -12q0 -12 -14 -12q-13 0 -26 9v-13q12 -7 26 -7zM568 113q7 7 17 7t17 -7t7 -18t-7 -18.5t-17 -7.5t-17 7.5t-7 18.5t7 18zM596 367l167 166h-171q-29 -35 -29 -81q0 -49 33 -85zM691 325q48 0 85 32h-170q37 -32 85 -32zM776 547q-38 33 -85 33
q-49 0 -85 -33h170zM623 170v77h-12v-77h12zM789 371q29 35 29 81q0 48 -32 85l-166 -166h169zM647.5 180.5q11.5 -11.5 28.5 -11.5t28.5 11.5t11.5 28.5t-11.5 28.5t-28.5 11.5t-28.5 -11.5t-11.5 -28.5t11.5 -28.5zM656 229q8 8 20 8q11 0 19 -8t8 -20q0 -13 -8 -21
t-19 -8q-12 0 -20 8t-8 21q0 12 8 20zM687 40l-1 53l34 -53h36v109h-35v-58l-33 58h-36v-109h35zM740 170v52l49 -54h6v79h-12v-54l-49 55h-6v-78h12zM788 118v-78h35v78h25v31h-86v-31h26zM1287 201l-13 -11l8 -7l25 24l-25 24l-8 -7l13 -11h-458v-12h458zM861.5 321
q18.5 -18 46.5 -18t47 18t19 46q0 27 -19 45t-47 18t-46.5 -18t-18.5 -45q0 -28 18.5 -46zM858.5 96.5q7.5 -7.5 24.5 -13.5q3 -1 10 -3t7 -6q0 -6 -9 -6q-13 0 -38 16v-37q16 -10 38 -10q19 0 31.5 10t12.5 27q0 27 -36 35q-3 1 -7 2t-5.5 2.5t-1.5 3.5q0 4 11 4
q7 0 16.5 -3t15.5 -8v34q-18 8 -32 8q-21 0 -33 -9t-12 -25q0 -14 7.5 -21.5zM889 387q8 8 19 8q12 0 19.5 -8t7.5 -20q0 -13 -7.5 -21t-19.5 -8q-11 0 -19 8t-8 21q0 12 8 20zM945 42q5 -5 13 -5q7 0 12 5t5 12t-5 11.5t-12 4.5q-8 0 -13 -4.5t-5 -11.5t5 -12zM998 53.5
q17 -16.5 41 -16.5q12 0 26 7l1 35q-10 -10 -25 -10q-11 0 -18 7.5t-7 18.5t7.5 18t17.5 7t22 -7v33q-10 6 -23 6q-25 0 -42 -16.5t-17 -40.5q0 -25 17 -41.5zM1021 306l-1 59l38 -59h40v121h-39v-64l-37 64h-40v-121h39zM1086 53.5q17 -16.5 43 -16.5q25 0 42 16.5t17 41.5
q0 24 -17 40.5t-42 16.5t-42.5 -16.5t-17.5 -40.5q0 -25 17 -41.5zM1111.5 113q7.5 7 17.5 7t17 -7.5t7 -17.5q0 -11 -7 -18.5t-17 -7.5q-11 0 -18 7.5t-7 18.5t7.5 18zM1192 306v33h-43v88h-39v-121h82zM1214 354v-48h39v48l41 73h-45l-16 -36l-15 36h-46zM1230 40v43
l14 -27h25l14 27v-43h34v109h-35l-26 -50l-26 50h-35v-109h35z" />
    <glyph glyph-name="eight" unicode="8" horiz-adv-x="1378" 
d="M59 40h95v31h-38l41 78h-93v-31h36zM75 170v29h33v11h-33v26h38v11h-50v-77h12zM64 462h486q4 56 44.5 94t96.5 38t96.5 -38t44.5 -94h486v-193h-1254v193zM116 392v-86h39v86h28v35h-96v-35h29zM132 178q9 -9 22 -9q14 0 23 8.5t9 22.5v47h-12v-47q0 -8 -6 -14t-14 -6
t-13.5 5.5t-5.5 14.5v47h-12v-47q0 -13 9 -22zM244 40v30h-45v10h38v30h-38v9h44v30h-79v-109h80zM229 306v35h8l15 -35h41l-21 46q14 12 14 32q0 18 -13.5 30.5t-32.5 12.5h-50v-121h39zM248 170v11h-35v66h-12v-77h47zM229 394h10q3 0 5.5 -3t2.5 -7t-2.5 -7.5t-5.5 -3.5
h-10v21zM274 118v-78h35v78h26v31h-87v-31h26zM307 170v11h-36v66h-12v-77h48zM337 306v121h-38v-121h38zM359 40l5 17h31l4 -17h38l-37 109h-40l-37 -109h36zM371 170h8l32 77h-14l-22 -57l-22 57h-14zM385 306l5 19h34l5 -19h42l-41 121h-45l-41 -121h41zM379 112h1l7 -26
h-15zM406 386h1l8 -29h-17zM471 170v11h-38v23h33v10h-33v22h38v11h-50v-77h50zM478 40v34h37v29h-37v16h44v30h-79v-109h35zM560 306v33h-43v88h-39v-121h82zM496 170v28h18l13 -28h14l-15 31q12 7 12 21q0 11 -7 18t-18 7h-29v-77h12zM496 236h17q5 0 9 -4t4 -10t-4 -10
t-9 -4h-17v28zM543 53.5q17 -16.5 42 -16.5t42 16.5t17 41.5q0 24 -17 40.5t-42 16.5t-42 -16.5t-17 -40.5q0 -25 17 -41.5zM573 169q11 0 18.5 6t7.5 17q0 13 -23 22q-9 3 -12.5 5.5t-3.5 7.5t4 8t10 3q11 0 20 -7v13q-10 5 -20 5q-12 0 -19 -6t-7 -16q0 -9 5 -13.5
t17 -9.5q17 -5 17 -12q0 -12 -14 -12q-13 0 -26 9v-13q12 -7 26 -7zM568 113q7 7 17 7t17 -7t7 -18t-7 -18.5t-17 -7.5t-17 7.5t-7 18.5t7 18zM596 367l167 166h-171q-29 -35 -29 -81q0 -49 33 -85zM691 325q48 0 85 32h-170q37 -32 85 -32zM776 547q-38 33 -85 33
q-49 0 -85 -33h170zM623 170v77h-12v-77h12zM789 371q29 35 29 81q0 48 -32 85l-166 -166h169zM647.5 180.5q11.5 -11.5 28.5 -11.5t28.5 11.5t11.5 28.5t-11.5 28.5t-28.5 11.5t-28.5 -11.5t-11.5 -28.5t11.5 -28.5zM656 229q8 8 20 8q11 0 19 -8t8 -20q0 -13 -8 -21
t-19 -8q-12 0 -20 8t-8 21q0 12 8 20zM687 40l-1 53l34 -53h36v109h-35v-58l-33 58h-36v-109h35zM740 170v52l49 -54h6v79h-12v-54l-49 55h-6v-78h12zM788 118v-78h35v78h25v31h-86v-31h26zM1287 201l-13 -11l8 -7l25 24l-25 24l-8 -7l13 -11h-458v-12h458zM861.5 321
q18.5 -18 46.5 -18t47 18t19 46q0 27 -19 45t-47 18t-46.5 -18t-18.5 -45q0 -28 18.5 -46zM858.5 96.5q7.5 -7.5 24.5 -13.5q3 -1 10 -3t7 -6q0 -6 -9 -6q-13 0 -38 16v-37q16 -10 38 -10q19 0 31.5 10t12.5 27q0 27 -36 35q-3 1 -7 2t-5.5 2.5t-1.5 3.5q0 4 11 4
q7 0 16.5 -3t15.5 -8v34q-18 8 -32 8q-21 0 -33 -9t-12 -25q0 -14 7.5 -21.5zM889 387q8 8 19 8q12 0 19.5 -8t7.5 -20q0 -13 -7.5 -21t-19.5 -8q-11 0 -19 8t-8 21q0 12 8 20zM945 42q5 -5 13 -5q7 0 12 5t5 12t-5 11.5t-12 4.5q-8 0 -13 -4.5t-5 -11.5t5 -12zM998 53.5
q17 -16.5 41 -16.5q12 0 26 7l1 35q-10 -10 -25 -10q-11 0 -18 7.5t-7 18.5t7.5 18t17.5 7t22 -7v33q-10 6 -23 6q-25 0 -42 -16.5t-17 -40.5q0 -25 17 -41.5zM1021 306l-1 59l38 -59h40v121h-39v-64l-37 64h-40v-121h39zM1086 53.5q17 -16.5 43 -16.5q25 0 42 16.5t17 41.5
q0 24 -17 40.5t-42 16.5t-42.5 -16.5t-17.5 -40.5q0 -25 17 -41.5zM1111.5 113q7.5 7 17.5 7t17 -7.5t7 -17.5q0 -11 -7 -18.5t-17 -7.5q-11 0 -18 7.5t-7 18.5t7.5 18zM1192 306v33h-43v88h-39v-121h82zM1214 354v-48h39v48l41 73h-45l-16 -36l-15 36h-46zM1230 40v43
l14 -27h25l14 27v-43h34v109h-35l-26 -50l-26 50h-35v-109h35z" />
    <glyph glyph-name="nine" unicode="9" horiz-adv-x="1378" 
d="M59 40h95v31h-38l41 78h-93v-31h36zM75 170v29h33v11h-33v26h38v11h-50v-77h12zM64 462h486q4 56 44.5 94t96.5 38t96.5 -38t44.5 -94h486v-193h-1254v193zM116 392v-86h39v86h28v35h-96v-35h29zM132 178q9 -9 22 -9q14 0 23 8.5t9 22.5v47h-12v-47q0 -8 -6 -14t-14 -6
t-13.5 5.5t-5.5 14.5v47h-12v-47q0 -13 9 -22zM244 40v30h-45v10h38v30h-38v9h44v30h-79v-109h80zM229 306v35h8l15 -35h41l-21 46q14 12 14 32q0 18 -13.5 30.5t-32.5 12.5h-50v-121h39zM248 170v11h-35v66h-12v-77h47zM229 394h10q3 0 5.5 -3t2.5 -7t-2.5 -7.5t-5.5 -3.5
h-10v21zM274 118v-78h35v78h26v31h-87v-31h26zM307 170v11h-36v66h-12v-77h48zM337 306v121h-38v-121h38zM359 40l5 17h31l4 -17h38l-37 109h-40l-37 -109h36zM371 170h8l32 77h-14l-22 -57l-22 57h-14zM385 306l5 19h34l5 -19h42l-41 121h-45l-41 -121h41zM379 112h1l7 -26
h-15zM406 386h1l8 -29h-17zM471 170v11h-38v23h33v10h-33v22h38v11h-50v-77h50zM478 40v34h37v29h-37v16h44v30h-79v-109h35zM560 306v33h-43v88h-39v-121h82zM496 170v28h18l13 -28h14l-15 31q12 7 12 21q0 11 -7 18t-18 7h-29v-77h12zM496 236h17q5 0 9 -4t4 -10t-4 -10
t-9 -4h-17v28zM543 53.5q17 -16.5 42 -16.5t42 16.5t17 41.5q0 24 -17 40.5t-42 16.5t-42 -16.5t-17 -40.5q0 -25 17 -41.5zM573 169q11 0 18.5 6t7.5 17q0 13 -23 22q-9 3 -12.5 5.5t-3.5 7.5t4 8t10 3q11 0 20 -7v13q-10 5 -20 5q-12 0 -19 -6t-7 -16q0 -9 5 -13.5
t17 -9.5q17 -5 17 -12q0 -12 -14 -12q-13 0 -26 9v-13q12 -7 26 -7zM568 113q7 7 17 7t17 -7t7 -18t-7 -18.5t-17 -7.5t-17 7.5t-7 18.5t7 18zM596 367l167 166h-171q-29 -35 -29 -81q0 -49 33 -85zM691 325q48 0 85 32h-170q37 -32 85 -32zM776 547q-38 33 -85 33
q-49 0 -85 -33h170zM623 170v77h-12v-77h12zM789 371q29 35 29 81q0 48 -32 85l-166 -166h169zM647.5 180.5q11.5 -11.5 28.5 -11.5t28.5 11.5t11.5 28.5t-11.5 28.5t-28.5 11.5t-28.5 -11.5t-11.5 -28.5t11.5 -28.5zM656 229q8 8 20 8q11 0 19 -8t8 -20q0 -13 -8 -21
t-19 -8q-12 0 -20 8t-8 21q0 12 8 20zM687 40l-1 53l34 -53h36v109h-35v-58l-33 58h-36v-109h35zM740 170v52l49 -54h6v79h-12v-54l-49 55h-6v-78h12zM788 118v-78h35v78h25v31h-86v-31h26zM1287 201l-13 -11l8 -7l25 24l-25 24l-8 -7l13 -11h-458v-12h458zM861.5 321
q18.5 -18 46.5 -18t47 18t19 46q0 27 -19 45t-47 18t-46.5 -18t-18.5 -45q0 -28 18.5 -46zM858.5 96.5q7.5 -7.5 24.5 -13.5q3 -1 10 -3t7 -6q0 -6 -9 -6q-13 0 -38 16v-37q16 -10 38 -10q19 0 31.5 10t12.5 27q0 27 -36 35q-3 1 -7 2t-5.5 2.5t-1.5 3.5q0 4 11 4
q7 0 16.5 -3t15.5 -8v34q-18 8 -32 8q-21 0 -33 -9t-12 -25q0 -14 7.5 -21.5zM889 387q8 8 19 8q12 0 19.5 -8t7.5 -20q0 -13 -7.5 -21t-19.5 -8q-11 0 -19 8t-8 21q0 12 8 20zM945 42q5 -5 13 -5q7 0 12 5t5 12t-5 11.5t-12 4.5q-8 0 -13 -4.5t-5 -11.5t5 -12zM998 53.5
q17 -16.5 41 -16.5q12 0 26 7l1 35q-10 -10 -25 -10q-11 0 -18 7.5t-7 18.5t7.5 18t17.5 7t22 -7v33q-10 6 -23 6q-25 0 -42 -16.5t-17 -40.5q0 -25 17 -41.5zM1021 306l-1 59l38 -59h40v121h-39v-64l-37 64h-40v-121h39zM1086 53.5q17 -16.5 43 -16.5q25 0 42 16.5t17 41.5
q0 24 -17 40.5t-42 16.5t-42.5 -16.5t-17.5 -40.5q0 -25 17 -41.5zM1111.5 113q7.5 7 17.5 7t17 -7.5t7 -17.5q0 -11 -7 -18.5t-17 -7.5q-11 0 -18 7.5t-7 18.5t7.5 18zM1192 306v33h-43v88h-39v-121h82zM1214 354v-48h39v48l41 73h-45l-16 -36l-15 36h-46zM1230 40v43
l14 -27h25l14 27v-43h34v109h-35l-26 -50l-26 50h-35v-109h35z" />
    <glyph glyph-name="colon" unicode=":" horiz-adv-x="310" 
d="M108 2q-17 15 -17 41q0 25 17 40t47 15q29 0 46 -15t17 -40q0 -26 -17 -41t-46 -15q-30 0 -47 15zM108 394q-17 15 -17 41q0 25 17 40t47 15q29 0 46 -15t17 -40q0 -26 -17 -41t-46 -15q-30 0 -47 15z" />
    <glyph glyph-name="semicolon" unicode=";" horiz-adv-x="310" 
d="M112 398q-17 15 -17 41q0 25 17 40t47 15q29 0 46 -15t17 -40q0 -26 -17 -41t-46 -15q-30 0 -47 15zM144 -86.5q20 35.5 26 75.5l-78 13q-1 6 -1 18q0 35 17 55.5t49 20.5q35 0 52 -22.5t17 -59.5q0 -52 -24.5 -103.5t-63.5 -89.5l-43 29q29 28 49 63.5z" />
    <glyph glyph-name="less" unicode="&#x3c;" horiz-adv-x="540" 
d="M66 198v86l368 200l40 -68l-340 -175l340 -175l-40 -69z" />
    <glyph glyph-name="equal" unicode="=" horiz-adv-x="450" 
d="M75 186h301v-74h-301v74zM75 377h301v-74h-301v74z" />
    <glyph glyph-name="greater" unicode="&#x3e;" horiz-adv-x="540" 
d="M66 66l340 175l-340 175l40 68l368 -200v-86l-368 -201z" />
    <glyph glyph-name="question" unicode="?" horiz-adv-x="400" 
d="M228 364q42 41 42 91q0 113 -228 120l4 77q152 -4 232 -53t80 -138q0 -55 -32 -99.5t-79 -78t-118 -72.5l-33 64q90 48 132 89zM98 83q17 15 47 15q29 0 46 -15t17 -40q0 -26 -17 -41t-46 -15q-30 0 -47 15t-17 41q0 25 17 40z" />
    <glyph glyph-name="at" unicode="@" horiz-adv-x="702" 
d="M563 192q-93 -70 -178 -70q-61 0 -95.5 39.5t-34.5 113.5q0 77 35 144q55 4 115 4q71 0 153 -7v38q0 63 -39 98.5t-129 35.5q-113 0 -188.5 -68t-75.5 -243q0 -306 254 -306q57 0 115.5 14t128.5 43v-77q-64 -30 -121.5 -43t-128.5 -13q-134 0 -232.5 82.5t-98.5 299.5
q0 152 55.5 238.5t133 117.5t159.5 31q117 0 184 -47.5t67 -150.5v-259v-71q-12 -1 -35 -1t-35 1zM352.5 215.5q18.5 -18.5 55.5 -18.5q32 0 72 19t78 47v88q-85 7 -154 7q-38 0 -58 -1q-12 -36 -12 -82q0 -41 18.5 -59.5z" />
    <glyph glyph-name="A" unicode="A" horiz-adv-x="630" 
d="M118 303.5q56 170.5 123 346.5h148q69 -180 123.5 -348.5t87.5 -301.5h-93q-34 126 -48 171h-288q-35 -119 -48 -171h-93q32 133 88 303.5zM440 246q-53 169 -110 322h-30q-67 -183 -110 -322h250z" />
    <glyph glyph-name="B" unicode="B" horiz-adv-x="610" 
d="M93 563v87h89h128q99 0 151.5 -45.5t52.5 -126.5q0 -41 -19.5 -78t-53.5 -57q53 -12 83 -52t30 -97q0 -93 -55.5 -143.5t-160.5 -50.5h-245v563zM329 71q66 0 102.5 31.5t36.5 87.5q0 55 -36.5 81t-114.5 27l-135 1v-228h147zM322 367q35 0 60 16t37.5 40t12.5 48
q0 52 -33 80t-97 28h-120v-212h140z" />
    <glyph glyph-name="C" unicode="C" horiz-adv-x="560" 
d="M129 77q-79 91 -79 252q0 104 36 179.5t103.5 115.5t158.5 40q50 0 89 -7t93 -24l-17 -77q-33 9 -63 15q-56 10 -97 10q-98 0 -154.5 -66.5t-56.5 -184.5q0 -122 55.5 -191.5t157.5 -69.5q39 0 82 8t76 18l18 -78q-54 -17 -93.5 -24t-86.5 -7q-143 0 -222 91z" />
    <glyph glyph-name="D" unicode="D" horiz-adv-x="665" 
d="M89 570v80h201q99 0 172 -39.5t112.5 -113t39.5 -172.5t-39.5 -172.5t-112.5 -113t-172 -39.5h-201v570zM289 80q70 0 122.5 30t81 85.5t28.5 129.5q0 112 -62.5 178t-169.5 66h-113v-489h113z" />
    <glyph glyph-name="E" unicode="E" horiz-adv-x="540" 
d="M93 650h394l5 -80l-310 5v-204l256 7v-80l-256 5v-228l320 6l-5 -81h-404v650z" />
    <glyph glyph-name="F" unicode="F" horiz-adv-x="510" 
d="M92 650h394l5 -80l-310 5v-239l256 7v-80l-256 5v-268h-89v650z" />
    <glyph glyph-name="G" unicode="G" horiz-adv-x="640" 
d="M197 25.5q-70 39.5 -108 116t-38 184.5q0 105 37.5 181.5t106.5 116.5t161 40q107 0 197 -44l-14 -71q-90 33 -173 33q-106 0 -164.5 -68.5t-58.5 -186.5q0 -125 62.5 -192t171.5 -67q57 0 113 16l-21 218l87 4l14 -287q-47 -15 -102.5 -24t-105.5 -9q-95 0 -165 39.5z
" />
    <glyph glyph-name="H" unicode="H" horiz-adv-x="690" 
d="M508 290h-325v-290h-89v650h89v-282h325v282h89v-650h-89v290z" />
    <glyph glyph-name="I" unicode="I" horiz-adv-x="450" 
d="M41 79l140 -4v501l-140 -4l3 78h362l2 -78l-138 4v-501l138 4l-2 -79h-362z" />
    <glyph glyph-name="J" unicode="J" horiz-adv-x="470" 
d="M31 30l15 73q89 -32 149 -32q63 0 90.5 32.5t27.5 109.5v358l-225 -5l5 84h306v-448q0 -114 -49.5 -165t-143.5 -51q-83 0 -175 44z" />
    <glyph glyph-name="K" unicode="K" horiz-adv-x="595" 
d="M93 563v86q30 1 89 1v-362q89 77 161 175t99 187h92q-46 -150 -173 -293q51 -73 109.5 -173.5t99.5 -183.5h-99q-32 67 -79.5 153t-84.5 147q-63 -61 -125 -105v-195h-89v563z" />
    <glyph glyph-name="L" unicode="L" horiz-adv-x="500" 
d="M92 650h89v-575l242 3h59l-4 -78h-386v650z" />
    <glyph glyph-name="M" unicode="M" horiz-adv-x="760" 
d="M354 183l-183 316l5 -499h-84v650h77l211 -361l210 361h78v-650h-84l4 499l-183 -316h-51z" />
    <glyph glyph-name="N" unicode="N" horiz-adv-x="690" 
d="M94 650h82l337 -508l-5 508h89v-650h-81l-339 509l5 -509h-88v650z" />
    <glyph glyph-name="O" unicode="O" horiz-adv-x="680" 
d="M187.5 27.5q-65.5 41.5 -101 118t-35.5 179.5t35.5 179.5t101 118t152.5 41.5t152.5 -41.5t101 -118t35.5 -179.5t-35.5 -179.5t-101 -118t-152.5 -41.5t-152.5 41.5zM165 190q24 -58 69 -89t105 -31t105 31.5t69.5 89t24.5 134.5t-24.5 135t-69.5 89.5t-105 31.5
t-105 -31t-69 -89t-24 -136q0 -77 24 -135z" />
    <glyph glyph-name="P" unicode="P" 
d="M93 563v87h89h126q109 0 168.5 -56.5t59.5 -159.5q0 -100 -58.5 -152.5t-164.5 -58.5l-131 -8v-215h-89v563zM308 300q70 4 105 38t35 96q0 66 -37 101t-103 35h-126v-278z" />
    <glyph glyph-name="Q" unicode="Q" horiz-adv-x="680" 
d="M187.5 27.5q-65.5 41.5 -101 118t-35.5 179.5t35.5 179.5t101 118t152.5 41.5t152.5 -41.5t101 -118t35.5 -179.5q0 -91 -28.5 -162t-80.5 -115l118 -131q-27 -27 -70 -55l-106 149q-56 -25 -122 -25q-87 0 -152.5 41.5zM165 190q24 -58 69 -89t105 -31t105 31.5t69.5 89
t24.5 134.5t-24.5 135t-69.5 89.5t-105 31.5t-105 -31t-69 -89t-24 -136q0 -77 24 -135z" />
    <glyph glyph-name="R" unicode="R" horiz-adv-x="606" 
d="M334 240l-21 -2l-130 -8v-230h-89v563v87h89h130q104 0 164.5 -55.5t60.5 -151.5q0 -64 -32.5 -111.5t-93.5 -71.5q86 -134 147 -260h-99q-74 157 -126 240zM313 313q62 4 97.5 39t35.5 91q0 59 -35.5 93t-97.5 34h-130v-265z" />
    <glyph glyph-name="S" unicode="S" horiz-adv-x="520" 
d="M35 27l13 73q112 -32 219 -32q60 0 94.5 25.5t34.5 71.5q0 45 -33.5 72.5t-114.5 49.5q-106 29 -154.5 72t-48.5 117q0 89 56.5 136t161.5 47q55 0 99 -6t87 -20q-5 -48 -11 -77q-41 12 -81.5 16.5t-95.5 4.5q-60 0 -93 -24.5t-33 -70.5q0 -42 30 -67t102 -46
q117 -34 167.5 -79.5t50.5 -122.5q0 -87 -56.5 -134t-160.5 -47q-122 0 -233 41z" />
    <glyph glyph-name="T" unicode="T" horiz-adv-x="510" 
d="M210 570h-195v80h481v-80h-196v-570h-90v570z" />
    <glyph glyph-name="U" unicode="U" horiz-adv-x="660" 
d="M139 57q-66 71 -66 204v389h89v-389q0 -93 42 -141.5t126 -48.5q81 0 124.5 48.5t43.5 141.5v389h90v-389q0 -132 -68 -203.5t-190 -71.5q-125 0 -191 71z" />
    <glyph glyph-name="V" unicode="V" horiz-adv-x="630" 
d="M30 650h93q58 -232 181 -567h21q119 323 182 567h93q-31 -128 -88 -299.5t-126 -350.5h-142q-151 396 -214 650z" />
    <glyph glyph-name="W" unicode="W" horiz-adv-x="810" 
d="M35 650h86q29 -156 65.5 -313.5t68.5 -264.5h15q21 63 49 179.5t47 225.5h79q20 -111 47 -225t49 -180h15q32 103 67.5 260t65.5 318h86q-31 -178 -72 -346.5t-84 -303.5h-128q-50 147 -85 320q-37 -174 -86 -320h-127q-99 314 -158 650z" />
    <glyph glyph-name="X" unicode="X" horiz-adv-x="660" 
d="M261 338q-122 169 -189 312h99q27 -62 69.5 -134.5t90.5 -139.5q96 135 159 274h99q-55 -121 -189 -312q134 -187 205 -338h-99q-75 156 -175 293q-108 -150 -176 -293h-99q75 156 205 338z" />
    <glyph glyph-name="Y" unicode="Y" horiz-adv-x="600" 
d="M262 209h-47q-56 106 -103.5 221t-75.5 220h91q44 -174 139 -362h68q91 190 139 362h92q-30 -100 -77.5 -215.5t-101.5 -225.5h-48l9 -209h-94z" />
    <glyph glyph-name="Z" unicode="Z" horiz-adv-x="530" 
d="M29 68l355 509l-343 -8v81h442v-67l-352 -510l370 7v-80h-472v68z" />
    <glyph glyph-name="bracketleft" unicode="[" horiz-adv-x="420" 
d="M88 694h302v-72h-219v-716h219v-72h-302v860z" />
    <glyph glyph-name="backslash" unicode="\" horiz-adv-x="610" 
d="M34 666l70 34l471 -856l-70 -35z" />
    <glyph glyph-name="bracketright" unicode="]" horiz-adv-x="420" 
d="M30 -166v72h219v716h-219v72h302v-860h-302z" />
    <glyph glyph-name="asciicircum" unicode="^" horiz-adv-x="540" 
d="M308 656l160 -277l-68 -23l-128 218l-128 -218l-67 23l160 277h71z" />
    <glyph glyph-name="underscore" unicode="_" horiz-adv-x="630" 
d="M5 -90h620v-66h-620v66z" />
    <glyph glyph-name="grave" unicode="`" horiz-adv-x="630" 
d="M241 747l132 -150l-37 -32l-161 126z" />
    <glyph glyph-name="a" unicode="a" horiz-adv-x="540" 
d="M299 5q-46 -19 -89 -19q-69 0 -109 39.5t-40 110.5q0 70 34 140q31 2 95 2q87 0 189 -5v21q0 57 -21 88.5t-73 31.5q-67 0 -177 -39l-20 73q116 42 207 42q82 0 125 -40.5t43 -133.5v-245v-71q-18 -2 -33 -2t-37 2l-9 56q-39 -32 -85 -51zM164 82.5q20 -21.5 61 -21.5
q66 0 154 68v74q-93 6 -172 6q-36 0 -52 -1q-11 -33 -11 -67q0 -37 20 -58.5z" />
    <glyph glyph-name="b" unicode="b" horiz-adv-x="585" 
d="M193.5 -1.5q-53.5 12.5 -105.5 34.5v667q13 2 43 2q31 0 43 -2v-256q76 48 157 48q88 0 141 -64.5t53 -178.5q0 -81 -29.5 -140.5t-82.5 -91t-122 -31.5q-44 0 -97.5 12.5zM286 61q71 0 110.5 50.5t39.5 138.5q0 77 -33.5 119.5t-88.5 42.5q-57 0 -140 -47v-279
q66 -25 112 -25z" />
    <glyph glyph-name="c" unicode="c" horiz-adv-x="480" 
d="M115 54q-61 68 -61 187q0 77 28.5 134t80 87t119.5 30q34 0 76.5 -9t84.5 -29q-4 -38 -12 -74q-33 12 -47 16q-53 17 -89 17q-71 0 -112 -45.5t-41 -125.5q0 -85 40 -131t113 -46q29 0 70.5 11t65.5 22q4 -15 7.5 -39.5t4.5 -33.5q-79 -39 -162 -39q-105 0 -166 68z" />
    <glyph glyph-name="d" unicode="d" horiz-adv-x="585" 
d="M150 14q-42 28 -66.5 83.5t-24.5 136.5q0 79 28.5 137.5t79.5 89.5t116 31q62 0 126 -23v231q34 2 40 2q16 0 46 -3v-623v-76q-24 -2 -40 -2q-14 0 -32 2l-9 55q-39 -33 -83.5 -51t-86.5 -18q-52 0 -94 28zM176.5 107.5q29.5 -46.5 79.5 -46.5q41 0 78 18.5t75 49.5v267
q-64 23 -122 23q-63 0 -101.5 -49t-38.5 -135q0 -81 29.5 -127.5z" />
    <glyph glyph-name="e" unicode="e" horiz-adv-x="535" 
d="M118.5 53.5q-65.5 67.5 -65.5 185.5q0 76 27.5 133.5t78.5 88.5t119 31q97 0 153 -66t56 -172q0 -24 -3 -44h-350q7 -73 49.5 -110.5t118.5 -37.5q39 0 82 9t76 25q8 -44 15 -71q-36 -18 -82 -28.5t-97 -10.5q-112 0 -177.5 67.5zM406 280q-6 67 -39 102.5t-92 35.5
t-95.5 -34.5t-45.5 -103.5h272z" />
    <glyph glyph-name="f" unicode="f" horiz-adv-x="340" 
d="M255 706q54 0 106 -25l-12 -66q-27 8 -44.5 11t-37.5 3q-34 0 -51.5 -23t-17.5 -73v-56l148 2v-85l-148 9v-403h-86v402l-98 -8v85l98 -2v65q0 164 143 164z" />
    <glyph glyph-name="g" unicode="g" horiz-adv-x="570" 
d="M90 -172l19 73q84 -30 151 -30q146 0 146 160v32q-33 -24 -74.5 -39t-84.5 -15q-83 0 -137 59.5t-54 175.5q0 115 62 181.5t171 66.5q55 0 108 -16t95 -41v-405q0 -117 -59.5 -175.5t-169.5 -58.5q-84 0 -173 32zM171.5 125.5q28.5 -41.5 84.5 -41.5q40 0 79 16.5
t71 44.5v250q-60 23 -117 23q-69 0 -107.5 -45.5t-38.5 -124.5q0 -81 28.5 -122.5z" />
    <glyph glyph-name="h" unicode="h" horiz-adv-x="590" 
d="M398.5 377.5q-19.5 26.5 -68.5 26.5q-32 0 -71.5 -13t-76.5 -35v-356h-86v624v78q20 2 37 2q19 0 49 -2v-269q46 27 96 43t95 16q69 0 100 -37.5t31 -116.5v-338h-86v288q0 63 -19.5 89.5z" />
    <glyph glyph-name="i" unicode="i" horiz-adv-x="305" 
d="M121 407l-98 -14q-1 15 -1 43q0 29 1 42q27 2 96 2q66 0 88 -2v-478h-86v407zM102.5 596q-18.5 16 -18.5 44q0 27 18.5 43t49.5 16t48.5 -16t17.5 -43q0 -28 -17.5 -44t-48.5 -16t-49.5 16z" />
    <glyph glyph-name="j" unicode="j" horiz-adv-x="310" 
d="M16 -192q-34 7 -62 18q4 40 13 73q55 -19 102 -19q74 0 74 98v429l-114 -14q-1 15 -1 44q0 28 1 41q22 1 77 1q75 0 119 -2l4 1v-507q0 -89 -40 -129.5t-109 -40.5q-30 0 -64 7zM125.5 596q-18.5 16 -18.5 44q0 27 18.5 43t49.5 16t48.5 -16t17.5 -43q0 -28 -17.5 -44
t-48.5 -16t-49.5 16z" />
    <glyph glyph-name="k" unicode="k" horiz-adv-x="535" 
d="M326 127q-22 32 -46 70q-52 -49 -105 -85v-112h-86v618v81q38 2 43 2q7 0 43 -2v-489q66 59 123 131t88 137q28 2 48 2t48 -2q-50 -116 -145 -223q93 -126 172 -255h-103q-19 32 -80 127z" />
    <glyph glyph-name="l" unicode="l" horiz-adv-x="295" 
d="M111 627l-97 -14q-1 14 -1 42t1 43q60 2 97 2q42 0 86 -2v-698h-86v627z" />
    <glyph glyph-name="m" unicode="m" horiz-adv-x="840" 
d="M135 480l30 -1l8 -55q51 36 90.5 52t77.5 16q85 0 110 -74q48 37 89 55.5t82 18.5q122 0 122 -147v-345h-86v308q0 58 -17 77.5t-48 19.5q-29 0 -64 -16t-67 -41v-4v-344h-86v319q0 50 -15 68t-49 18q-29 0 -64 -15.5t-69 -41.5v-348h-86v478q28 2 42 2z" />
    <glyph glyph-name="n" unicode="n" horiz-adv-x="590" 
d="M399 383q-19 21 -69 21q-32 0 -71.5 -15.5t-76.5 -40.5v-348h-86v399v78q13 2 38 2q21 0 34 -1l7 -56q59 39 102 54.5t87 15.5q74 0 107 -40t33 -121v-331h-86v302q0 60 -19 81z" />
    <glyph glyph-name="o" unicode="o" 
d="M120 54q-61 68 -61 185t61 185t169 68t169.5 -68t61.5 -185t-61.5 -185t-169.5 -68t-169 68zM184.5 106.5q36.5 -45.5 103.5 -45.5q69 0 106 45.5t37 132.5q0 88 -37 133t-106 45q-68 0 -104 -45t-36 -133q0 -87 36.5 -132.5z" />
    <glyph glyph-name="p" unicode="p" horiz-adv-x="588" 
d="M440.5 463q41.5 -29 65.5 -84t24 -130q0 -82 -29 -141t-81 -90t-121 -31q-55 0 -120 25v-202h-86v668q34 2 38 2q5 0 35 -2l6 -56q38 32 82.5 51t91.5 19q53 0 94.5 -29zM298 60q65 0 104.5 50t39.5 140q0 77 -34.5 122.5t-86.5 45.5q-33 0 -70.5 -18t-71.5 -45v-267
q73 -28 119 -28z" />
    <glyph glyph-name="q" unicode="q" horiz-adv-x="585" 
d="M105.5 49.5q-48.5 63.5 -48.5 174.5q0 126 61 197t171 71q46 0 102.5 -15t101.5 -42v-625h-86v241q-82 -65 -171 -65q-82 0 -130.5 63.5zM174.5 107.5q29.5 -46.5 80.5 -46.5q38 0 74.5 18t77.5 50v265q-65 24 -117 24q-70 0 -107.5 -48.5t-37.5 -133.5
q0 -82 29.5 -128.5z" />
    <glyph glyph-name="r" unicode="r" horiz-adv-x="428" 
d="M80 407v71q17 2 44 2q26 0 42 -2v-94q98 75 221 106q10 -34 12 -97q-64 -8 -123.5 -29t-108.5 -55l-1 -233v-76h-86v407z" />
    <glyph glyph-name="s" unicode="s" horiz-adv-x="435" 
d="M82.5 458q45.5 34 137.5 34q88 0 167 -35q-5 -35 -16 -71q-79 31 -154 31q-94 0 -94 -56q0 -31 22.5 -47.5t85.5 -29.5q68 -13 106 -34t53 -50.5t15 -71.5q0 -68 -48.5 -105t-140.5 -37q-113 0 -189 39l14 72q82 -35 169 -35q53 0 79 15t26 50q0 34 -22 50.5t-80 27.5
q-98 17 -137 55.5t-39 100.5q0 63 45.5 97z" />
    <glyph glyph-name="t" unicode="t" horiz-adv-x="410" 
d="M153 31q-40 45 -40 155v216l-95 -7v83h99l-5 143h96l-13 -143h191q3 -21 3 -41q0 -19 -3 -42l-187 8v-220q0 -62 24 -91.5t66 -29.5q49 0 110 23q9 -43 11 -61q-32 -17 -69.5 -27.5t-69.5 -10.5q-78 0 -118 45z" />
    <glyph glyph-name="u" unicode="u" 
d="M183.5 116q8.5 -23 27.5 -32t53 -9q60 0 140 56v347h86v-399v-78q-13 -2 -38 -2q-21 0 -34 1l-7 56q-43 -32 -91.5 -51t-94.5 -19q-69 0 -102.5 38t-33.5 116v338h86v-297q0 -42 8.5 -65z" />
    <glyph glyph-name="v" unicode="v" horiz-adv-x="490" 
d="M20 478h86q58 -207 129 -401h20q74 205 129 401h87q-60 -214 -161 -478h-130q-98 258 -160 478z" />
    <glyph glyph-name="w" unicode="w" horiz-adv-x="630" 
d="M26 478h81q37 -213 99 -406q41 107 65 249h89q21 -123 66 -245q60 183 98 402h81q-20 -125 -55.5 -250.5t-75.5 -227.5h-92q-40 97 -66 200q-32 -115 -66 -200h-93q-93 240 -131 478z" />
    <glyph glyph-name="x" unicode="x" horiz-adv-x="530" 
d="M98 79q68 103 108 161q-5 9 -34 53q-61 93 -117 185h96q39 -76 114 -197q77 124 115 197h94q-64 -107 -150 -238q77 -110 159 -240h-96q-43 77 -122 194q-65 -95 -123 -194h-95q17 25 51 79z" />
    <glyph glyph-name="y" unicode="y" horiz-adv-x="490" 
d="M20 478h90q66 -195 131 -370h8q69 184 131 370h91q-53 -166 -172 -451q-58 -136 -127 -232l-71 38q37 52 63 95.5t50 98.5h-22q-130 312 -172 451z" />
    <glyph glyph-name="z" unicode="z" horiz-adv-x="440" 
d="M36 70l259 333l-246 -5v80h356v-69l-264 -335l273 6q2 -26 2 -39q0 -11 -2 -41h-378v70z" />
    <glyph glyph-name="braceleft" unicode="{" horiz-adv-x="490" 
d="M244 -143q-87 32 -87 118q0 33 8 58t23 55q2 4 8 18t9 25.5t3 21.5q0 38 -38 55.5t-117 17.5v81q79 0 117 17.5t38 55.5q0 15 -5 30.5t-16 38.5q-14 30 -22 54t-8 54q0 86 87 118t209 32v-73q-92 0 -151 -22t-59 -75q0 -20 6 -39t18 -44q13 -30 18 -45.5t5 -34.5
q0 -41 -34 -68.5t-102 -39.5q67 -11 101.5 -38.5t34.5 -69.5q0 -20 -6 -39t-17 -42q-12 -27 -18 -46t-6 -42q0 -49 59.5 -70t150.5 -21v-73q-122 0 -209 32z" />
    <glyph glyph-name="bar" unicode="|" horiz-adv-x="330" 
d="M208 700v-900h-86v900h86z" />
    <glyph glyph-name="braceright" unicode="}" horiz-adv-x="490" 
d="M187.5 -81q59.5 21 59.5 70q0 23 -6 42t-18 46q-11 23 -17 42t-6 39q0 42 34.5 69.5t101.5 38.5q-68 12 -102 39.5t-34 68.5q0 19 5 34.5t18 45.5q12 25 18 44t6 39q0 53 -59 75t-151 22v73q122 0 209 -32t87 -118q0 -30 -8 -54t-22 -54q-11 -23 -16 -38.5t-5 -30.5
q0 -38 38 -55.5t117 -17.5v-81q-79 0 -117 -17.5t-38 -55.5q0 -13 4 -25.5t9 -24t7 -15.5q15 -30 23 -55t8 -58q0 -86 -87 -118t-209 -32v73q91 0 150.5 21z" />
    <glyph glyph-name="asciitilde" unicode="~" horiz-adv-x="540" 
d="M309 194q-24 12 -55 34q-25 17 -41.5 25.5t-31.5 8.5q-26 0 -44.5 -22.5t-36.5 -71.5l-46 20q29 78 59.5 111.5t73.5 33.5q27 0 51 -12t55 -34q24 -17 39.5 -25.5t29.5 -8.5q26 0 43.5 21t34.5 68l47 -20q-29 -77 -57 -108.5t-70 -31.5q-27 0 -51 12z" />
    <glyph glyph-name="uni00A0" unicode="&#xa0;" 
 />
    <glyph glyph-name="exclamdown" unicode="&#xa1;" horiz-adv-x="340" 
d="M206 276l13 -446h-100l13 446h74zM123 478q17 15 47 15q29 0 46 -15t17 -41q0 -25 -17 -40t-46 -15q-30 0 -47 15t-17 40q0 26 17 41z" />
    <glyph glyph-name="cent" unicode="&#xa2;" horiz-adv-x="540" 
d="M334 655l-5 -139q72 -5 148 -26l-13 -73q-90 24 -164 24q-41 0 -77 -17t-58.5 -50.5t-22.5 -81.5q0 -68 44 -112t115 -44q74 0 163 24l13 -73q-78 -23 -148 -26l5 -139h-77l5 140q-95 10 -151.5 72.5t-56.5 156.5q0 65 27.5 114t75 77.5t105.5 33.5l-5 139h77z" />
    <glyph glyph-name="sterling" unicode="&#xa3;" 
d="M63 0v76l80 -5l22 197l-104 -4v72l111 -5l7 59q14 122 64 187t161 65q64 0 147 -26l-15 -72q-74 20 -124 20q-75 0 -108 -42t-43 -132l-7 -59l231 5l-5 -72l-234 5l-23 -198l286 6l-5 -77h-441z" />
    <glyph glyph-name="currency" unicode="&#xa4;" horiz-adv-x="520" 
d="M47 154l71 75q-30 41 -30 114q0 71 30 114l-70 76l53 44l61 -82q38 22 97 22q62 0 99 -21l61 81l52 -44l-69 -76q31 -45 31 -114q0 -71 -32 -115l72 -74l-52 -44l-64 80q-37 -21 -97 -21q-58 0 -97 20l-64 -79zM187 263.5q24 -25.5 74 -25.5t73.5 25.5t23.5 79.5
t-23.5 79.5t-73.5 25.5t-74 -25.5t-24 -79.5t24 -79.5z" />
    <glyph glyph-name="yen" unicode="&#xa5;" horiz-adv-x="610" 
d="M103 157l158 -5v79l-158 -5v51l139 -4q-56 84 -104.5 183t-74.5 194h89q22 -81 65 -170.5t88 -161.5q45 70 88 160t65 172h90q-27 -95 -75.5 -194t-104.5 -183l138 4v-51l-156 5v-79l156 5v-51l-156 5v-111h-89v111l-158 -5v51z" />
    <glyph glyph-name="brokenbar" unicode="&#xa6;" horiz-adv-x="200" 
d="M60 675h81v-360h-81v360zM60 175h81v-359h-81v359z" />
    <glyph glyph-name="section" unicode="&#xa7;" horiz-adv-x="450" 
d="M94 352q-62 37 -62 106q0 55 47.5 87.5t139.5 32.5q91 0 172 -25q-2 -22 -5 -36.5t-10 -31.5q-83 25 -159 25q-50 0 -75.5 -14.5t-25.5 -39.5q0 -19 10.5 -30.5t34.5 -19.5t70 -17q101 -21 141.5 -54.5t40.5 -87.5q0 -64 -65 -101q63 -35 63 -102q0 -58 -46.5 -91
t-139.5 -33q-92 0 -174 35q4 31 20 64q50 -16 85.5 -23.5t68.5 -7.5q52 0 77 13t25 42q0 27 -24 40.5t-91 25.5q-101 21 -142 55t-41 88q0 64 65 100zM142.5 210.5q24.5 -14.5 89.5 -26.5l29 -6q31 7 47.5 23t16.5 41q0 31 -25 46t-90 26l-30 6q-30 -7 -46 -23t-16 -40
q0 -32 24.5 -46.5z" />
    <glyph glyph-name="dieresis" unicode="&#xa8;" horiz-adv-x="630" 
d="M160 591.5q-16 13.5 -16 36.5q0 22 16 35.5t42 13.5q25 0 41 -13.5t16 -35.5q0 -23 -15.5 -36.5t-41.5 -13.5t-42 13.5zM384 663.5q16 13.5 42 13.5q25 0 41 -13.5t16 -35.5q0 -23 -15.5 -36.5t-41.5 -13.5t-42 13.5t-16 36.5q0 22 16 35.5z" />
    <glyph glyph-name="copyright" unicode="&#xa9;" horiz-adv-x="670" 
d="M183 55q-65 38 -100 108t-35 163t35 162.5t100 107.5t153 38t153 -38t100 -107.5t35 -162.5t-35 -163t-100 -108t-153 -38t-153 38zM137 192q28 -57 79.5 -88t118.5 -31q68 0 119 30.5t79.5 87.5t28.5 134t-28.5 134t-79.5 88t-119 31q-67 0 -118.5 -30.5t-79.5 -88
t-28 -133.5q0 -77 28 -134zM216 463q38 52 115 52q37 0 65.5 -9t57.5 -28q-2 -94 -6 -137h-61l14 100q-28 18 -68 18q-90 0 -90 -131q0 -65 23 -100.5t77 -35.5t106 37q9 -23 12 -52q-25 -18 -57 -29.5t-64 -11.5q-82 0 -122 53t-40 138q0 84 38 136z" />
    <glyph glyph-name="ordfeminine" unicode="&#xaa;" horiz-adv-x="422" 
d="M155 241q-64 0 -96.5 31.5t-32.5 92.5q0 34 9.5 66.5t28.5 53.5q42 3 89 3q63 0 155 -6v17q0 43 -19 69t-66 26q-30 0 -74 -8t-85 -22l-14 62q101 38 183 38q73 0 110.5 -33.5t37.5 -112.5v-204v-62l-30 -1l-32 1l-6 57q-94 -68 -158 -68zM115 330q20 -19 58 -19
q31 0 66.5 15.5t68.5 39.5v55q-72 6 -148 6q-33 0 -50 -1q-8 -12 -11.5 -21.5t-3.5 -23.5q0 -32 20 -51z" />
    <glyph glyph-name="guillemotleft" unicode="&#xab;" horiz-adv-x="610" 
d="M57 212v71l230 197l39 -44l-197 -188l197 -189l-39 -44zM292 268l235 212l39 -44l-197 -188l197 -189l-39 -44l-235 212v41z" />
    <glyph glyph-name="logicalnot" unicode="&#xac;" horiz-adv-x="540" 
d="M375 61v157h-293v78h381v-235h-88z" />
    <glyph glyph-name="uni00AD" unicode="&#xad;" horiz-adv-x="450" 
d="M75 290h301v-76h-301v76z" />
    <glyph glyph-name="registered" unicode="&#xae;" 
d="M164.5 199.5q-54.5 30.5 -84.5 86t-30 130.5t30 131t84.5 86.5t126.5 30.5q71 0 125.5 -30.5t84.5 -86.5t30 -131t-30 -130.5t-84.5 -86t-125.5 -30.5q-72 0 -126.5 30.5zM157 275.5q50 -51.5 133 -51.5t133 51.5t50 140.5q0 90 -50 141.5t-133 51.5t-133 -51.5
t-50 -141.5q0 -89 50 -140.5zM185 519v40h50h4h52q54 0 83 -22.5t29 -64.5q0 -61 -64 -82q36 -55 63 -112h-61q-22 53 -55 104l-47 -3v-101h-54v241zM291 429q55 3 55 42t-55 39h-52v-84z" />
    <glyph glyph-name="macron" unicode="&#xaf;" horiz-adv-x="630" 
d="M153 639h315v-67l-157 7l-158 -7v67z" />
    <glyph glyph-name="degree" unicode="&#xb0;" horiz-adv-x="440" 
d="M104 379q-44 45 -44 120t44 120t116 45t116.5 -45t44.5 -120t-44.5 -120t-116.5 -45t-116 45zM150 424.5q26 -27.5 70 -27.5t70.5 27.5t26.5 74.5q0 46 -26.5 74t-70.5 28t-70 -27.5t-26 -74.5t26 -74.5z" />
    <glyph glyph-name="plusminus" unicode="&#xb1;" horiz-adv-x="450" 
d="M60 290l129 -2l-2 120h76l-2 -120l130 2v-76l-130 2l2 -119h-76l2 119l-129 -2v76zM60 83h331v-73h-331v73z" />
    <glyph glyph-name="acute" unicode="&#xb4;" horiz-adv-x="600" 
d="M227 565l-37 32l132 150l66 -56z" />
    <glyph glyph-name="uni00B5" unicode="&#xb5;" 
d="M188 101.5q21 -26.5 72 -26.5q58 0 147 56v347h86v-399v-78q-13 -2 -38 -2q-21 0 -34 1l-7 56q-105 -70 -197 -70q-32 0 -58 8l11 -133h-89v617h86v-287q0 -63 21 -89.5z" />
    <glyph glyph-name="paragraph" unicode="&#xb6;" 
d="M424 -95v310l-106 5v-315h-69v319q-102 10 -156.5 63t-54.5 147q0 103 61.5 159.5t173.5 56.5h220v-87v-658h-69zM155 339q33 -35 94 -43v279q-60 -5 -93.5 -42t-33.5 -99q0 -60 33 -95zM424 286v290h-106v-285z" />
    <glyph glyph-name="periodcentered" unicode="&#xb7;" horiz-adv-x="350" 
d="M108 207q-17 15 -17 41q0 25 17 40t47 15q29 0 46 -15t17 -40q0 -26 -17 -41t-46 -15q-30 0 -47 15z" />
    <glyph glyph-name="cedilla" unicode="&#xb8;" horiz-adv-x="630" 
d="M227 -171l63 179l60 -3l-42 -190z" />
    <glyph glyph-name="ordmasculine" unicode="&#xba;" horiz-adv-x="482" 
d="M90 294q-56 57 -56 155q0 99 56 156.5t152 57.5q95 0 150.5 -57.5t55.5 -156.5q0 -98 -55.5 -155t-150.5 -57q-96 0 -152 57zM146 341.5q34 -36.5 95 -36.5q62 0 96 36.5t34 107.5q0 73 -34 109.5t-96 36.5q-61 0 -95 -36.5t-34 -109.5q0 -71 34 -107.5z" />
    <glyph glyph-name="guillemotright" unicode="&#xbb;" horiz-adv-x="610" 
d="M284 59l197 189l-197 188l39 44l230 -197v-71l-230 -197zM241 248l-197 188l39 44l235 -212v-41l-235 -212l-39 44z" />
    <glyph glyph-name="questiondown" unicode="&#xbf;" horiz-adv-x="400" 
d="M172 113q-42 -41 -42 -91q0 -113 228 -120l-4 -77q-152 4 -232 53t-80 138q0 55 32 99.5t79 78t118 72.5l33 -64q-90 -48 -132 -89zM209 475q17 15 46 15q30 0 47 -15t17 -41q0 -25 -17 -40t-47 -15q-29 0 -46 15t-17 40q0 26 17 41z" />
    <glyph glyph-name="Agrave" unicode="&#xc0;" horiz-adv-x="630" 
d="M118 303.5q56 170.5 123 346.5h148q69 -180 123.5 -348.5t87.5 -301.5h-93q-34 126 -48 171h-288q-35 -119 -48 -171h-93q32 133 88 303.5zM440 246q-53 169 -110 322h-30q-67 -183 -110 -322h250zM238 844l189 -93l-30 -56l-192 66z" />
    <glyph glyph-name="Aacute" unicode="&#xc1;" horiz-adv-x="630" 
d="M118 303.5q56 170.5 123 346.5h148q69 -180 123.5 -348.5t87.5 -301.5h-93q-34 126 -48 171h-288q-35 -119 -48 -171h-93q32 133 88 303.5zM440 246q-53 169 -110 322h-30q-67 -183 -110 -322h250zM237 695l-30 56l189 93l33 -83z" />
    <glyph glyph-name="Acircumflex" unicode="&#xc2;" horiz-adv-x="630" 
d="M118 303.5q56 170.5 123 346.5h148q69 -180 123.5 -348.5t87.5 -301.5h-93q-34 126 -48 171h-288q-35 -119 -48 -171h-93q32 133 88 303.5zM440 246q-53 169 -110 322h-30q-67 -183 -110 -322h250zM153 739l148 110h32l148 -110l-37 -48l-127 86l-128 -86z" />
    <glyph glyph-name="Atilde" unicode="&#xc3;" horiz-adv-x="630" 
d="M118 303.5q56 170.5 123 346.5h148q69 -180 123.5 -348.5t87.5 -301.5h-93q-34 126 -48 171h-288q-35 -119 -48 -171h-93q32 133 88 303.5zM440 246q-53 169 -110 322h-30q-67 -183 -110 -322h250zM349 713.5q-18 8.5 -41 24.5q-3 2 -17.5 10.5t-25 13t-17.5 4.5
q-18 0 -32 -16.5t-31 -51.5l-36 15q25 58 49 85.5t54 27.5q15 0 32 -8t41 -24q22 -14 36 -21t25 -7q16 0 30.5 17t30.5 51l37 -15q-25 -58 -49 -86t-53 -28q-15 0 -33 8.5z" />
    <glyph glyph-name="Adieresis" unicode="&#xc4;" horiz-adv-x="630" 
d="M118 303.5q56 170.5 123 346.5h148q69 -180 123.5 -348.5t87.5 -301.5h-93q-34 126 -48 171h-288q-35 -119 -48 -171h-93q32 133 88 303.5zM440 246q-53 169 -110 322h-30q-67 -183 -110 -322h250zM170.5 719.5q-16.5 14.5 -16.5 39.5q0 24 16.5 38t45.5 14
q28 0 44.5 -14t16.5 -38q0 -25 -16 -39.5t-45 -14.5t-45.5 14.5zM373 797q17 14 46 14q28 0 44 -14t16 -38q0 -25 -16 -39.5t-44 -14.5q-29 0 -46 14.5t-17 39.5q0 24 17 38z" />
    <glyph glyph-name="Aring" unicode="&#xc5;" horiz-adv-x="630" 
d="M118 303.5q56 170.5 123 346.5h148q69 -180 123.5 -348.5t87.5 -301.5h-93q-34 126 -48 171h-288q-35 -119 -48 -171h-93q32 133 88 303.5zM440 246q-53 169 -110 322h-30q-67 -183 -110 -322h250zM233 699q-31 27 -31 74q0 46 31 72.5t84 26.5t83.5 -26.5t30.5 -72.5
q0 -47 -30.5 -74t-83.5 -27t-84 27zM275.5 739q15.5 -12 42.5 -12q26 0 40.5 12t14.5 34q0 20 -15 32t-40 12q-27 0 -42.5 -12t-15.5 -32q0 -22 15.5 -34z" />
    <glyph glyph-name="AE" unicode="&#xc6;" horiz-adv-x="860" 
d="M307 650h494l5 -80l-309 5v-204l255 7v-80l-255 5v-228l319 6l-5 -81h-404v160h-227q-34 -82 -63 -160h-94q131 334 284 650zM407 239v344h-43q-81 -171 -152 -344h195z" />
    <glyph glyph-name="Ccedilla" unicode="&#xc7;" horiz-adv-x="560" 
d="M238 -167l55 157q-117 18 -180 106.5t-63 232.5q0 104 36 179.5t103.5 115.5t158.5 40q50 0 89 -7t93 -24l-17 -77q-33 9 -63 15q-56 10 -97 10q-98 0 -154.5 -66.5t-56.5 -184.5q0 -122 55.5 -191.5t157.5 -69.5q39 0 82 8t76 18l18 -78q-54 -17 -92.5 -24t-82.5 -7
l-37 -167z" />
    <glyph glyph-name="Egrave" unicode="&#xc8;" horiz-adv-x="540" 
d="M93 650h394l5 -80l-310 5v-204l256 7v-80l-256 5v-228l320 6l-5 -81h-404v650zM215 844l189 -93l-30 -56l-192 66z" />
    <glyph glyph-name="Eacute" unicode="&#xc9;" horiz-adv-x="540" 
d="M93 650h394l5 -80l-310 5v-204l256 7v-80l-256 5v-228l320 6l-5 -81h-404v650zM214 695l-30 56l189 93l33 -83z" />
    <glyph glyph-name="Ecircumflex" unicode="&#xca;" horiz-adv-x="540" 
d="M93 650h394l5 -80l-310 5v-204l256 7v-80l-256 5v-228l320 6l-5 -81h-404v650zM130 739l148 110h32l148 -110l-37 -48l-127 86l-128 -86z" />
    <glyph glyph-name="Edieresis" unicode="&#xcb;" horiz-adv-x="540" 
d="M93 650h394l5 -80l-310 5v-204l256 7v-80l-256 5v-228l320 6l-5 -81h-404v650zM147.5 719.5q-16.5 14.5 -16.5 39.5q0 24 16.5 38t45.5 14q28 0 44.5 -14t16.5 -38q0 -25 -16 -39.5t-45 -14.5t-45.5 14.5zM350 797q17 14 46 14q28 0 44 -14t16 -38q0 -25 -16 -39.5
t-44 -14.5q-29 0 -46 14.5t-17 39.5q0 24 17 38z" />
    <glyph glyph-name="Igrave" unicode="&#xcc;" horiz-adv-x="450" 
d="M41 79l140 -4v501l-140 -4l3 78h362l2 -78l-138 4v-501l138 4l-2 -79h-362zM146 844l189 -93l-30 -56l-192 66z" />
    <glyph glyph-name="Iacute" unicode="&#xcd;" horiz-adv-x="450" 
d="M41 79l140 -4v501l-140 -4l3 78h362l2 -78l-138 4v-501l138 4l-2 -79h-362zM145 695l-30 56l189 93l33 -83z" />
    <glyph glyph-name="Icircumflex" unicode="&#xce;" horiz-adv-x="450" 
d="M41 79l140 -4v501l-140 -4l3 78h362l2 -78l-138 4v-501l138 4l-2 -79h-362zM61 739l148 110h32l148 -110l-37 -48l-127 86l-128 -86z" />
    <glyph glyph-name="Idieresis" unicode="&#xcf;" horiz-adv-x="450" 
d="M41 79l140 -4v501l-140 -4l3 78h362l2 -78l-138 4v-501l138 4l-2 -79h-362zM78.5 719.5q-16.5 14.5 -16.5 39.5q0 24 16.5 38t45.5 14q28 0 44.5 -14t16.5 -38q0 -25 -16 -39.5t-45 -14.5t-45.5 14.5zM281 797q17 14 46 14q28 0 44 -14t16 -38q0 -25 -16 -39.5t-44 -14.5
q-29 0 -46 14.5t-17 39.5q0 24 17 38z" />
    <glyph glyph-name="Eth" unicode="&#xd0;" horiz-adv-x="650" 
d="M89 290l-55 -1l-1 35l1 34l55 -1v213v80h201q99 0 172 -39.5t112.5 -113t39.5 -172.5t-39.5 -172.5t-112.5 -113t-172 -39.5h-201v290zM289 80q70 0 122.5 30t81 85.5t28.5 129.5q0 112 -62.5 178t-169.5 66h-113v-212h42q68 0 102 1v-69q-34 1 -102 1h-42v-210h113z" />
    <glyph glyph-name="Ntilde" unicode="&#xd1;" horiz-adv-x="690" 
d="M94 650h82l337 -508l-5 508h89v-650h-81l-339 509l5 -509h-88v650zM377 713.5q-18 8.5 -41 24.5q-3 2 -17.5 10.5t-25 13t-17.5 4.5q-18 0 -32 -16.5t-31 -51.5l-36 15q25 58 49 85.5t54 27.5q15 0 32 -8t41 -24q22 -14 36 -21t25 -7q16 0 30.5 17t30.5 51l37 -15
q-25 -58 -49 -86t-53 -28q-15 0 -33 8.5z" />
    <glyph glyph-name="Ograve" unicode="&#xd2;" horiz-adv-x="680" 
d="M187.5 27.5q-65.5 41.5 -101 118t-35.5 179.5t35.5 179.5t101 118t152.5 41.5t152.5 -41.5t101 -118t35.5 -179.5t-35.5 -179.5t-101 -118t-152.5 -41.5t-152.5 41.5zM165 190q24 -58 69 -89t105 -31t105 31.5t69.5 89t24.5 134.5t-24.5 135t-69.5 89.5t-105 31.5
t-105 -31t-69 -89t-24 -136q0 -77 24 -135zM260 844l189 -93l-30 -56l-192 66z" />
    <glyph glyph-name="Oacute" unicode="&#xd3;" horiz-adv-x="680" 
d="M187.5 27.5q-65.5 41.5 -101 118t-35.5 179.5t35.5 179.5t101 118t152.5 41.5t152.5 -41.5t101 -118t35.5 -179.5t-35.5 -179.5t-101 -118t-152.5 -41.5t-152.5 41.5zM165 190q24 -58 69 -89t105 -31t105 31.5t69.5 89t24.5 134.5t-24.5 135t-69.5 89.5t-105 31.5
t-105 -31t-69 -89t-24 -136q0 -77 24 -135zM259 695l-30 56l189 93l33 -83z" />
    <glyph glyph-name="Ocircumflex" unicode="&#xd4;" horiz-adv-x="680" 
d="M187.5 27.5q-65.5 41.5 -101 118t-35.5 179.5t35.5 179.5t101 118t152.5 41.5t152.5 -41.5t101 -118t35.5 -179.5t-35.5 -179.5t-101 -118t-152.5 -41.5t-152.5 41.5zM165 190q24 -58 69 -89t105 -31t105 31.5t69.5 89t24.5 134.5t-24.5 135t-69.5 89.5t-105 31.5
t-105 -31t-69 -89t-24 -136q0 -77 24 -135zM175 739l148 110h32l148 -110l-37 -48l-127 86l-128 -86z" />
    <glyph glyph-name="Otilde" unicode="&#xd5;" horiz-adv-x="680" 
d="M187.5 27.5q-65.5 41.5 -101 118t-35.5 179.5t35.5 179.5t101 118t152.5 41.5t152.5 -41.5t101 -118t35.5 -179.5t-35.5 -179.5t-101 -118t-152.5 -41.5t-152.5 41.5zM165 190q24 -58 69 -89t105 -31t105 31.5t69.5 89t24.5 134.5t-24.5 135t-69.5 89.5t-105 31.5
t-105 -31t-69 -89t-24 -136q0 -77 24 -135zM371 713.5q-18 8.5 -41 24.5q-3 2 -17.5 10.5t-25 13t-17.5 4.5q-18 0 -32 -16.5t-31 -51.5l-36 15q25 58 49 85.5t54 27.5q15 0 32 -8t41 -24q22 -14 36 -21t25 -7q16 0 30.5 17t30.5 51l37 -15q-25 -58 -49 -86t-53 -28
q-15 0 -33 8.5z" />
    <glyph glyph-name="Odieresis" unicode="&#xd6;" horiz-adv-x="680" 
d="M187.5 27.5q-65.5 41.5 -101 118t-35.5 179.5t35.5 179.5t101 118t152.5 41.5t152.5 -41.5t101 -118t35.5 -179.5t-35.5 -179.5t-101 -118t-152.5 -41.5t-152.5 41.5zM165 190q24 -58 69 -89t105 -31t105 31.5t69.5 89t24.5 134.5t-24.5 135t-69.5 89.5t-105 31.5
t-105 -31t-69 -89t-24 -136q0 -77 24 -135zM192.5 719.5q-16.5 14.5 -16.5 39.5q0 24 16.5 38t45.5 14q28 0 44.5 -14t16.5 -38q0 -25 -16 -39.5t-45 -14.5t-45.5 14.5zM395 797q17 14 46 14q28 0 44 -14t16 -38q0 -25 -16 -39.5t-44 -14.5q-29 0 -46 14.5t-17 39.5
q0 24 17 38z" />
    <glyph glyph-name="multiply" unicode="&#xd7;" horiz-adv-x="450" 
d="M139 392l86 -89l87 89l53 -53l-89 -87l89 -86l-53 -54l-87 89l-86 -89l-54 54l89 87l-89 86z" />
    <glyph glyph-name="Oslash" unicode="&#xd8;" horiz-adv-x="680" 
d="M162 46l-63 -81l-58 45l71 90q-61 91 -61 225q0 103 35.5 179.5t101 118t152.5 41.5q101 0 173 -56l62 79l57 -45l-68 -87q65 -88 65 -230q0 -103 -35.5 -179.5t-101 -118t-152.5 -41.5q-106 0 -178 60zM172 176l286 363q-50 42 -119 42q-60 0 -105 -31t-69 -89t-24 -136
q0 -87 31 -149zM339 70q60 0 105 31.5t69.5 89t24.5 134.5q0 92 -34 155l-287 -365q50 -45 122 -45z" />
    <glyph glyph-name="Ugrave" unicode="&#xd9;" horiz-adv-x="660" 
d="M139 57q-66 71 -66 204v389h89v-389q0 -93 42 -141.5t126 -48.5q81 0 124.5 48.5t43.5 141.5v389h90v-389q0 -132 -68 -203.5t-190 -71.5q-125 0 -191 71zM251 844l189 -93l-30 -56l-192 66z" />
    <glyph glyph-name="Uacute" unicode="&#xda;" horiz-adv-x="660" 
d="M139 57q-66 71 -66 204v389h89v-389q0 -93 42 -141.5t126 -48.5q81 0 124.5 48.5t43.5 141.5v389h90v-389q0 -132 -68 -203.5t-190 -71.5q-125 0 -191 71zM250 695l-30 56l189 93l33 -83z" />
    <glyph glyph-name="Ucircumflex" unicode="&#xdb;" horiz-adv-x="660" 
d="M139 57q-66 71 -66 204v389h89v-389q0 -93 42 -141.5t126 -48.5q81 0 124.5 48.5t43.5 141.5v389h90v-389q0 -132 -68 -203.5t-190 -71.5q-125 0 -191 71zM166 739l148 110h32l148 -110l-37 -48l-127 86l-128 -86z" />
    <glyph glyph-name="Udieresis" unicode="&#xdc;" horiz-adv-x="660" 
d="M139 57q-66 71 -66 204v389h89v-389q0 -93 42 -141.5t126 -48.5q81 0 124.5 48.5t43.5 141.5v389h90v-389q0 -132 -68 -203.5t-190 -71.5q-125 0 -191 71zM183.5 719.5q-16.5 14.5 -16.5 39.5q0 24 16.5 38t45.5 14q28 0 44.5 -14t16.5 -38q0 -25 -16 -39.5t-45 -14.5
t-45.5 14.5zM386 797q17 14 46 14q28 0 44 -14t16 -38q0 -25 -16 -39.5t-44 -14.5q-29 0 -46 14.5t-17 39.5q0 24 17 38z" />
    <glyph glyph-name="Yacute" unicode="&#xdd;" horiz-adv-x="600" 
d="M262 209h-47q-56 106 -103.5 221t-75.5 220h91q44 -174 139 -362h68q91 190 139 362h92q-30 -100 -77.5 -215.5t-101.5 -225.5h-48l9 -209h-94zM221 695l-30 56l189 93l33 -83z" />
    <glyph glyph-name="Thorn" unicode="&#xde;" horiz-adv-x="590" 
d="M94 650h89v-98h125q109 0 170.5 -58.5t61.5 -162.5q0 -103 -61.5 -161t-170.5 -58h-125v-112h-89v650zM312 192q66 0 103 37t37 102q0 67 -37 104t-102 37h-130v-280h129z" />
    <glyph glyph-name="germandbls" unicode="&#xdf;" horiz-adv-x="650" 
d="M299 11l17 74q53 -23 101 -23q36 0 58 22.5t22 60.5q0 34 -17 56t-52 51q-37 30 -56 55.5t-19 66.5q0 34 11 55t32 44q19 22 28.5 39.5t9.5 44.5q0 36 -24 56t-70 20q-62 0 -90.5 -38t-28.5 -124v-471h-86v404l-83 -11v85h83v1q0 228 204 228q90 0 134.5 -39.5
t44.5 -96.5q0 -46 -12.5 -72t-36.5 -54q-17 -19 -24.5 -32t-7.5 -32q0 -21 13 -37.5t43 -43.5q42 -36 65.5 -70t23.5 -86q0 -72 -44 -115t-112 -43q-56 0 -127 25z" />
    <glyph glyph-name="agrave" unicode="&#xe0;" horiz-adv-x="540" 
d="M299 5q-46 -19 -89 -19q-69 0 -109 39.5t-40 110.5q0 70 34 140q31 2 95 2q87 0 189 -5v21q0 57 -21 88.5t-73 31.5q-67 0 -177 -39l-20 73q116 42 207 42q82 0 125 -40.5t43 -133.5v-245v-71q-18 -2 -33 -2t-37 2l-9 56q-39 -32 -85 -51zM164 82.5q20 -21.5 61 -21.5
q66 0 154 68v74q-93 6 -172 6q-36 0 -52 -1q-11 -33 -11 -67q0 -37 20 -58.5zM209 721l132 -140l-40 -37l-158 123q29 33 66 54z" />
    <glyph glyph-name="aacute" unicode="&#xe1;" horiz-adv-x="540" 
d="M299 5q-46 -19 -89 -19q-69 0 -109 39.5t-40 110.5q0 70 34 140q31 2 95 2q87 0 189 -5v21q0 57 -21 88.5t-73 31.5q-67 0 -177 -39l-20 73q116 42 207 42q82 0 125 -40.5t43 -133.5v-245v-71q-18 -2 -33 -2t-37 2l-9 56q-39 -32 -85 -51zM164 82.5q20 -21.5 61 -21.5
q66 0 154 68v74q-93 6 -172 6q-36 0 -52 -1q-11 -33 -11 -67q0 -37 20 -58.5zM257 544l-40 37l132 140q37 -21 66 -54z" />
    <glyph glyph-name="acircumflex" unicode="&#xe2;" horiz-adv-x="540" 
d="M299 5q-46 -19 -89 -19q-69 0 -109 39.5t-40 110.5q0 70 34 140q31 2 95 2q87 0 189 -5v21q0 57 -21 88.5t-73 31.5q-67 0 -177 -39l-20 73q116 42 207 42q82 0 125 -40.5t43 -133.5v-245v-71q-18 -2 -33 -2t-37 2l-9 56q-39 -32 -85 -51zM164 82.5q20 -21.5 61 -21.5
q66 0 154 68v74q-93 6 -172 6q-36 0 -52 -1q-11 -33 -11 -67q0 -37 20 -58.5zM115 579l148 120h32l148 -120l-37 -48l-127 91l-128 -91z" />
    <glyph glyph-name="atilde" unicode="&#xe3;" horiz-adv-x="540" 
d="M299 5q-46 -19 -89 -19q-69 0 -109 39.5t-40 110.5q0 70 34 140q31 2 95 2q87 0 189 -5v21q0 57 -21 88.5t-73 31.5q-67 0 -177 -39l-20 73q116 42 207 42q82 0 125 -40.5t43 -133.5v-245v-71q-18 -2 -33 -2t-37 2l-9 56q-39 -32 -85 -51zM164 82.5q20 -21.5 61 -21.5
q66 0 154 68v74q-93 6 -172 6q-36 0 -52 -1q-11 -33 -11 -67q0 -37 20 -58.5zM315 587.5q-19 7.5 -48 22.5q-16 8 -31 14.5t-26 6.5q-19 0 -33.5 -12.5t-31.5 -43.5l-46 25q25 54 49.5 77.5t55.5 23.5q19 0 39 -7.5t47 -21.5q22 -11 34.5 -16t23.5 -5q17 0 32 13t31 43
l47 -25q-25 -55 -49.5 -78.5t-54.5 -23.5q-20 0 -39 7.5z" />
    <glyph glyph-name="adieresis" unicode="&#xe4;" horiz-adv-x="540" 
d="M299 5q-46 -19 -89 -19q-69 0 -109 39.5t-40 110.5q0 70 34 140q31 2 95 2q87 0 189 -5v21q0 57 -21 88.5t-73 31.5q-67 0 -177 -39l-20 73q116 42 207 42q82 0 125 -40.5t43 -133.5v-245v-71q-18 -2 -33 -2t-37 2l-9 56q-39 -32 -85 -51zM164 82.5q20 -21.5 61 -21.5
q66 0 154 68v74q-93 6 -172 6q-36 0 -52 -1q-11 -33 -11 -67q0 -37 20 -58.5zM317 598.5q-17 14.5 -17 39.5q0 24 17 38t46 14q28 0 44 -14t16 -38q0 -25 -16 -39.5t-44 -14.5q-29 0 -46 14.5zM145.5 676q16.5 14 45.5 14q28 0 44.5 -14t16.5 -38q0 -25 -16 -39.5t-45 -14.5
t-45.5 14.5t-16.5 39.5q0 24 16.5 38z" />
    <glyph glyph-name="aring" unicode="&#xe5;" horiz-adv-x="540" 
d="M299 5q-46 -19 -89 -19q-69 0 -109 39.5t-40 110.5q0 70 34 140q31 2 95 2q87 0 189 -5v21q0 57 -21 88.5t-73 31.5q-67 0 -177 -39l-20 73q116 42 207 42q82 0 125 -40.5t43 -133.5v-245v-71q-18 -2 -33 -2t-37 2l-9 56q-39 -32 -85 -51zM164 82.5q20 -21.5 61 -21.5
q66 0 154 68v74q-93 6 -172 6q-36 0 -52 -1q-11 -33 -11 -67q0 -37 20 -58.5zM195.5 559.5q-31.5 28.5 -31.5 75.5t31.5 75.5t83.5 28.5q51 0 82.5 -28.5t31.5 -75.5t-31.5 -75.5t-82.5 -28.5q-52 0 -83.5 28.5zM233 593.5q18 -15.5 47 -15.5q28 0 45 15.5t17 41.5t-17 41.5
t-45 15.5q-29 0 -47 -15.5t-18 -41.5t18 -41.5z" />
    <glyph glyph-name="ae" unicode="&#xe6;" horiz-adv-x="840" 
d="M344.5 381q-20.5 32 -64.5 32q-65 0 -169 -38l-21 73q55 22 107.5 32t93.5 10q50 0 81.5 -17.5t46.5 -56.5q28 37 69.5 56.5t91.5 19.5q63 0 111 -30.5t74 -85t26 -124.5q0 -26 -2 -38q-142 -5 -342 -5q7 -72 48 -109.5t111 -37.5q40 0 82.5 8.5t74.5 25.5l14 -71
q-78 -39 -178 -39q-59 0 -108.5 23.5t-80.5 66.5q-100 -90 -202 -90q-63 0 -104 39t-41 109q0 74 33 140h269v20q0 55 -20.5 87zM166 82.5q20 -21.5 61 -21.5q38 0 75 17.5t79 51.5q-11 33 -12 79l-212 -1q-11 -31 -11 -67q0 -37 20 -58.5zM711 277q-7 69 -41.5 105
t-90.5 36q-54 0 -89 -36.5t-42 -107.5q175 0 263 3z" />
    <glyph glyph-name="ccedilla" unicode="&#xe7;" horiz-adv-x="480" 
d="M184 -167l55 156q-87 14 -136 80t-49 172q0 77 28.5 134t80 87t119.5 30q34 0 76.5 -9t84.5 -29q-4 -38 -12 -74q-33 12 -47 16q-53 17 -89 17q-71 0 -112 -45.5t-41 -125.5q0 -85 40 -131t113 -46q29 0 70.5 11t65.5 22q4 -15 7.5 -39.5t4.5 -33.5q-69 -34 -141 -38
l-37 -168z" />
    <glyph glyph-name="egrave" unicode="&#xe8;" horiz-adv-x="535" 
d="M118.5 53.5q-65.5 67.5 -65.5 185.5q0 76 27.5 133.5t78.5 88.5t119 31q97 0 153 -66t56 -172q0 -24 -3 -44h-350q7 -73 49.5 -110.5t118.5 -37.5q39 0 82 9t76 25q8 -44 15 -71q-36 -18 -82 -28.5t-97 -10.5q-112 0 -177.5 67.5zM406 280q-6 67 -39 102.5t-92 35.5
t-95.5 -34.5t-45.5 -103.5h272zM203 721l132 -140l-40 -37l-158 123q29 33 66 54z" />
    <glyph glyph-name="eacute" unicode="&#xe9;" horiz-adv-x="535" 
d="M118.5 53.5q-65.5 67.5 -65.5 185.5q0 76 27.5 133.5t78.5 88.5t119 31q97 0 153 -66t56 -172q0 -24 -3 -44h-350q7 -73 49.5 -110.5t118.5 -37.5q39 0 82 9t76 25q8 -44 15 -71q-36 -18 -82 -28.5t-97 -10.5q-112 0 -177.5 67.5zM406 280q-6 67 -39 102.5t-92 35.5
t-95.5 -34.5t-45.5 -103.5h272zM251 544l-40 37l132 140q37 -21 66 -54z" />
    <glyph glyph-name="ecircumflex" unicode="&#xea;" horiz-adv-x="535" 
d="M118.5 53.5q-65.5 67.5 -65.5 185.5q0 76 27.5 133.5t78.5 88.5t119 31q97 0 153 -66t56 -172q0 -24 -3 -44h-350q7 -73 49.5 -110.5t118.5 -37.5q39 0 82 9t76 25q8 -44 15 -71q-36 -18 -82 -28.5t-97 -10.5q-112 0 -177.5 67.5zM406 280q-6 67 -39 102.5t-92 35.5
t-95.5 -34.5t-45.5 -103.5h272zM109 579l148 120h32l148 -120l-37 -48l-127 91l-128 -91z" />
    <glyph glyph-name="edieresis" unicode="&#xeb;" horiz-adv-x="535" 
d="M118.5 53.5q-65.5 67.5 -65.5 185.5q0 76 27.5 133.5t78.5 88.5t119 31q97 0 153 -66t56 -172q0 -24 -3 -44h-350q7 -73 49.5 -110.5t118.5 -37.5q39 0 82 9t76 25q8 -44 15 -71q-36 -18 -82 -28.5t-97 -10.5q-112 0 -177.5 67.5zM406 280q-6 67 -39 102.5t-92 35.5
t-95.5 -34.5t-45.5 -103.5h272zM311 598.5q-17 14.5 -17 39.5q0 24 17 38t46 14q28 0 44 -14t16 -38q0 -25 -16 -39.5t-44 -14.5q-29 0 -46 14.5zM139.5 676q16.5 14 45.5 14q28 0 44.5 -14t16.5 -38q0 -25 -16 -39.5t-45 -14.5t-45.5 14.5t-16.5 39.5q0 24 16.5 38z" />
    <glyph glyph-name="igrave" unicode="&#xec;" horiz-adv-x="305" 
d="M121 407l-98 -14q-1 15 -1 43q0 29 1 42q27 2 96 2q66 0 88 -2v-478h-86v407zM82 721l132 -140l-40 -37l-158 123q29 33 66 54z" />
    <glyph glyph-name="iacute" unicode="&#xed;" horiz-adv-x="305" 
d="M121 407l-98 -14q-1 15 -1 43q0 29 1 42q27 2 96 2q66 0 88 -2v-478h-86v407zM130 544l-40 37l132 140q37 -21 66 -54z" />
    <glyph glyph-name="icircumflex" unicode="&#xee;" horiz-adv-x="305" 
d="M121 407l-98 -14q-1 15 -1 43q0 29 1 42q27 2 96 2q66 0 88 -2v-478h-86v407zM-12 579l148 120h32l148 -120l-37 -48l-127 91l-128 -91z" />
    <glyph glyph-name="idieresis" unicode="&#xef;" horiz-adv-x="305" 
d="M121 407l-98 -14q-1 15 -1 43q0 29 1 42q27 2 96 2q66 0 88 -2v-478h-86v407zM190 598.5q-17 14.5 -17 39.5q0 24 17 38t46 14q28 0 44 -14t16 -38q0 -25 -16 -39.5t-44 -14.5q-29 0 -46 14.5zM18.5 676q16.5 14 45.5 14q28 0 44.5 -14t16.5 -38q0 -25 -16 -39.5
t-45 -14.5t-45.5 14.5t-16.5 39.5q0 24 16.5 38z" />
    <glyph glyph-name="eth" unicode="&#xf0;" 
d="M165 15.5q-51 29.5 -78.5 83t-27.5 123.5q0 81 29.5 137t78.5 83.5t107 27.5q81 0 146 -39q-20 91 -84 142l-95 -72l-31 61l77 41q-61 30 -151 40l13 68q129 -11 211 -64l102 72l29 -53l-90 -50q118 -108 118 -335q0 -95 -30 -161.5t-83 -100t-123 -33.5q-67 0 -118 29.5
zM181.5 102q38.5 -42 100.5 -42q73 0 113 54t40 153q0 29 -2 79q-38 26 -72 37.5t-75 11.5q-67 0 -105 -44.5t-38 -128.5q0 -78 38.5 -120z" />
    <glyph glyph-name="ntilde" unicode="&#xf1;" horiz-adv-x="590" 
d="M399 383q-19 21 -69 21q-32 0 -71.5 -15.5t-76.5 -40.5v-348h-86v399v78q13 2 38 2q21 0 34 -1l7 -56q59 39 102 54.5t87 15.5q74 0 107 -40t33 -121v-331h-86v302q0 60 -19 81zM332 587.5q-19 7.5 -48 22.5q-16 8 -31 14.5t-26 6.5q-19 0 -33.5 -12.5t-31.5 -43.5
l-46 25q25 54 49.5 77.5t55.5 23.5q19 0 39 -7.5t47 -21.5q22 -11 34.5 -16t23.5 -5q17 0 32 13t31 43l47 -25q-25 -55 -49.5 -78.5t-54.5 -23.5q-20 0 -39 7.5z" />
    <glyph glyph-name="ograve" unicode="&#xf2;" 
d="M120 54q-61 68 -61 185t61 185t169 68t169.5 -68t61.5 -185t-61.5 -185t-169.5 -68t-169 68zM184.5 106.5q36.5 -45.5 103.5 -45.5q69 0 106 45.5t37 132.5q0 88 -37 133t-106 45q-68 0 -104 -45t-36 -133q0 -87 36.5 -132.5zM218 721l132 -140l-40 -37l-158 123
q29 33 66 54z" />
    <glyph glyph-name="oacute" unicode="&#xf3;" 
d="M120 54q-61 68 -61 185t61 185t169 68t169.5 -68t61.5 -185t-61.5 -185t-169.5 -68t-169 68zM184.5 106.5q36.5 -45.5 103.5 -45.5q69 0 106 45.5t37 132.5q0 88 -37 133t-106 45q-68 0 -104 -45t-36 -133q0 -87 36.5 -132.5zM266 544l-40 37l132 140q37 -21 66 -54z" />
    <glyph glyph-name="ocircumflex" unicode="&#xf4;" 
d="M120 54q-61 68 -61 185t61 185t169 68t169.5 -68t61.5 -185t-61.5 -185t-169.5 -68t-169 68zM184.5 106.5q36.5 -45.5 103.5 -45.5q69 0 106 45.5t37 132.5q0 88 -37 133t-106 45q-68 0 -104 -45t-36 -133q0 -87 36.5 -132.5zM124 579l148 120h32l148 -120l-37 -48
l-127 91l-128 -91z" />
    <glyph glyph-name="otilde" unicode="&#xf5;" 
d="M120 54q-61 68 -61 185t61 185t169 68t169.5 -68t61.5 -185t-61.5 -185t-169.5 -68t-169 68zM184.5 106.5q36.5 -45.5 103.5 -45.5q69 0 106 45.5t37 132.5q0 88 -37 133t-106 45q-68 0 -104 -45t-36 -133q0 -87 36.5 -132.5zM324 587.5q-19 7.5 -48 22.5q-16 8 -31 14.5
t-26 6.5q-19 0 -33.5 -12.5t-31.5 -43.5l-46 25q25 54 49.5 77.5t55.5 23.5q19 0 39 -7.5t47 -21.5q22 -11 34.5 -16t23.5 -5q17 0 32 13t31 43l47 -25q-25 -55 -49.5 -78.5t-54.5 -23.5q-20 0 -39 7.5z" />
    <glyph glyph-name="odieresis" unicode="&#xf6;" 
d="M120 54q-61 68 -61 185t61 185t169 68t169.5 -68t61.5 -185t-61.5 -185t-169.5 -68t-169 68zM184.5 106.5q36.5 -45.5 103.5 -45.5q69 0 106 45.5t37 132.5q0 88 -37 133t-106 45q-68 0 -104 -45t-36 -133q0 -87 36.5 -132.5zM326 598.5q-17 14.5 -17 39.5q0 24 17 38
t46 14q28 0 44 -14t16 -38q0 -25 -16 -39.5t-44 -14.5q-29 0 -46 14.5zM154.5 676q16.5 14 45.5 14q28 0 44.5 -14t16.5 -38q0 -25 -16 -39.5t-45 -14.5t-45.5 14.5t-16.5 39.5q0 24 16.5 38z" />
    <glyph glyph-name="divide" unicode="&#xf7;" horiz-adv-x="450" 
d="M60 285l166 -2l165 2v-66l-165 3l-166 -3v66zM187.5 142q14.5 13 38.5 13t38 -13t14 -34t-14 -33.5t-38 -12.5q-25 0 -39 12.5t-14 33.5t14.5 34zM187.5 430q14.5 13 38.5 13t38 -13t14 -34t-14 -34t-38 -13t-38.5 13t-14.5 34t14.5 34z" />
    <glyph glyph-name="oslash" unicode="&#xf8;" 
d="M172 13l-28 -40l-74 56l35 43q-46 66 -46 167q0 117 61 185t169 68q63 0 113 -25l27 38l74 -56l-32 -40q49 -66 49 -170q0 -117 -61.5 -185t-169.5 -68q-67 0 -117 27zM163 144l96 117l98 141q-28 15 -69 15q-68 0 -104 -45t-36 -133q0 -56 15 -95zM288 61q69 0 106 45.5
t37 132.5q0 58 -17 100l-100 -123l-97 -138q31 -17 71 -17z" />
    <glyph glyph-name="ugrave" unicode="&#xf9;" 
d="M183.5 116q8.5 -23 27.5 -32t53 -9q60 0 140 56v347h86v-399v-78q-13 -2 -38 -2q-21 0 -34 1l-7 56q-43 -32 -91.5 -51t-94.5 -19q-69 0 -102.5 38t-33.5 116v338h86v-297q0 -42 8.5 -65zM227 721l132 -140l-40 -37l-158 123q29 33 66 54z" />
    <glyph glyph-name="uacute" unicode="&#xfa;" 
d="M183.5 116q8.5 -23 27.5 -32t53 -9q60 0 140 56v347h86v-399v-78q-13 -2 -38 -2q-21 0 -34 1l-7 56q-43 -32 -91.5 -51t-94.5 -19q-69 0 -102.5 38t-33.5 116v338h86v-297q0 -42 8.5 -65zM275 544l-40 37l132 140q37 -21 66 -54z" />
    <glyph glyph-name="ucircumflex" unicode="&#xfb;" 
d="M183.5 116q8.5 -23 27.5 -32t53 -9q60 0 140 56v347h86v-399v-78q-13 -2 -38 -2q-21 0 -34 1l-7 56q-43 -32 -91.5 -51t-94.5 -19q-69 0 -102.5 38t-33.5 116v338h86v-297q0 -42 8.5 -65zM133 579l148 120h32l148 -120l-37 -48l-127 91l-128 -91z" />
    <glyph glyph-name="udieresis" unicode="&#xfc;" 
d="M183.5 116q8.5 -23 27.5 -32t53 -9q60 0 140 56v347h86v-399v-78q-13 -2 -38 -2q-21 0 -34 1l-7 56q-43 -32 -91.5 -51t-94.5 -19q-69 0 -102.5 38t-33.5 116v338h86v-297q0 -42 8.5 -65zM335 598.5q-17 14.5 -17 39.5q0 24 17 38t46 14q28 0 44 -14t16 -38
q0 -25 -16 -39.5t-44 -14.5q-29 0 -46 14.5zM163.5 676q16.5 14 45.5 14q28 0 44.5 -14t16.5 -38q0 -25 -16 -39.5t-45 -14.5t-45.5 14.5t-16.5 39.5q0 24 16.5 38z" />
    <glyph glyph-name="yacute" unicode="&#xfd;" horiz-adv-x="490" 
d="M20 478h90q66 -195 131 -370h8q69 184 131 370h91q-53 -166 -172 -451q-58 -136 -127 -232l-71 38q37 52 63 95.5t50 98.5h-22q-130 312 -172 451zM223 544l-40 37l132 140q37 -21 66 -54z" />
    <glyph glyph-name="thorn" unicode="&#xfe;" horiz-adv-x="600" 
d="M177 12v-202h-86v890h86v-260q47 30 85.5 41t79.5 11q56 0 99.5 -29t67.5 -83.5t24 -130.5q0 -123 -64 -192.5t-172 -69.5q-55 0 -120 25zM296 60q69 0 109 49.5t40 140.5q0 76 -34.5 119t-87.5 43q-31 0 -66 -13t-80 -38v-273q73 -28 119 -28z" />
    <glyph glyph-name="ydieresis" unicode="&#xff;" horiz-adv-x="490" 
d="M20 478h90q66 -195 131 -370h8q69 184 131 370h91q-53 -166 -172 -451q-58 -136 -127 -232l-71 38q37 52 63 95.5t50 98.5h-22q-130 312 -172 451zM283 598.5q-17 14.5 -17 39.5q0 24 17 38t46 14q28 0 44 -14t16 -38q0 -25 -16 -39.5t-44 -14.5q-29 0 -46 14.5z
M111.5 676q16.5 14 45.5 14q28 0 44.5 -14t16.5 -38q0 -25 -16 -39.5t-45 -14.5t-45.5 14.5t-16.5 39.5q0 24 16.5 38z" />
    <glyph glyph-name="Amacron" unicode="&#x100;" horiz-adv-x="630" 
d="M118 303.5q56 170.5 123 346.5h148q69 -180 123.5 -348.5t87.5 -301.5h-93q-34 126 -48 171h-288q-35 -119 -48 -171h-93q32 133 88 303.5zM440 246q-53 169 -110 322h-30q-67 -183 -110 -322h250zM159 771h315v-67l-157 7l-158 -7v67z" />
    <glyph glyph-name="amacron" unicode="&#x101;" horiz-adv-x="540" 
d="M299 5q-46 -19 -89 -19q-69 0 -109 39.5t-40 110.5q0 70 34 140q31 2 95 2q87 0 189 -5v21q0 57 -21 88.5t-73 31.5q-67 0 -177 -39l-20 73q116 42 207 42q82 0 125 -40.5t43 -133.5v-245v-71q-18 -2 -33 -2t-37 2l-9 56q-39 -32 -85 -51zM164 82.5q20 -21.5 61 -21.5
q66 0 154 68v74q-93 6 -172 6q-36 0 -52 -1q-11 -33 -11 -67q0 -37 20 -58.5zM121 639h315v-67l-157 7l-158 -7v67z" />
    <glyph glyph-name="Abreve" unicode="&#x102;" horiz-adv-x="630" 
d="M118 303.5q56 170.5 123 346.5h148q69 -180 123.5 -348.5t87.5 -301.5h-93q-34 126 -48 171h-288q-35 -119 -48 -171h-93q32 133 88 303.5zM440 246q-53 169 -110 322h-30q-67 -183 -110 -322h250zM216 734q-38 34 -42 99l59 11q7 -92 83 -92t83 92l59 -11
q-4 -65 -42 -99t-100 -34t-100 34z" />
    <glyph glyph-name="abreve" unicode="&#x103;" horiz-adv-x="540" 
d="M299 5q-46 -19 -89 -19q-69 0 -109 39.5t-40 110.5q0 70 34 140q31 2 95 2q87 0 189 -5v21q0 57 -21 88.5t-73 31.5q-67 0 -177 -39l-20 73q116 42 207 42q82 0 125 -40.5t43 -133.5v-245v-71q-18 -2 -33 -2t-37 2l-9 56q-39 -32 -85 -51zM164 82.5q20 -21.5 61 -21.5
q66 0 154 68v74q-93 6 -172 6q-36 0 -52 -1q-11 -33 -11 -67q0 -37 20 -58.5zM176 592q-39 36 -43 98l69 8q3 -38 23 -60t52 -22t52.5 21.5t23.5 59.5l67 -7q-4 -62 -42 -98t-101 -36q-62 0 -101 36z" />
    <glyph glyph-name="Aogonek" unicode="&#x104;" horiz-adv-x="630" 
d="M118 303.5q56 170.5 123 346.5h148q69 -180 123.5 -348.5t87.5 -301.5h-1q-45 -51 -45 -82q0 -37 61 -37q15 0 23 1v-66q-26 -2 -35 -2q-69 0 -98 24.5t-29 62.5q0 23 16 50t45 49h-30q-34 126 -48 171h-288q-35 -119 -48 -171h-93q32 133 88 303.5zM440 246
q-53 169 -110 322h-30q-67 -183 -110 -322h250z" />
    <glyph glyph-name="aogonek" unicode="&#x105;" horiz-adv-x="540" 
d="M299 5q-46 -19 -89 -19q-69 0 -109 39.5t-40 110.5q0 70 34 140q31 2 95 2q87 0 189 -5v21q0 57 -21 88.5t-73 31.5q-67 0 -177 -39l-20 73q116 42 207 42q82 0 125 -40.5t43 -133.5v-245v-71q-45 -51 -45 -82q0 -37 61 -37q15 0 23 1v-66q-26 -2 -35 -2q-69 0 -98 24.5
t-29 62.5q0 23 16 49.5t44 48.5l-7 1l-9 56q-39 -32 -85 -51zM164 82.5q20 -21.5 61 -21.5q66 0 154 68v74q-93 6 -172 6q-36 0 -52 -1q-11 -33 -11 -67q0 -37 20 -58.5z" />
    <glyph glyph-name="Cacute" unicode="&#x106;" horiz-adv-x="560" 
d="M129 77q-79 91 -79 252q0 104 36 179.5t103.5 115.5t158.5 40q50 0 89 -7t93 -24l-17 -77q-33 9 -63 15q-56 10 -97 10q-98 0 -154.5 -66.5t-56.5 -184.5q0 -122 55.5 -191.5t157.5 -69.5q39 0 82 8t76 18l18 -78q-54 -17 -93.5 -24t-86.5 -7q-143 0 -222 91zM296 695
l-30 56l189 93l33 -83z" />
    <glyph glyph-name="cacute" unicode="&#x107;" horiz-adv-x="480" 
d="M115 54q-61 68 -61 187q0 77 28.5 134t80 87t119.5 30q34 0 76.5 -9t84.5 -29q-4 -38 -12 -74q-33 12 -47 16q-53 17 -89 17q-71 0 -112 -45.5t-41 -125.5q0 -85 40 -131t113 -46q29 0 70.5 11t65.5 22q4 -15 7.5 -39.5t4.5 -33.5q-79 -39 -162 -39q-105 0 -166 68z
M294 544l-40 37l132 140q37 -21 66 -54z" />
    <glyph glyph-name="Ccircumflex" unicode="&#x108;" horiz-adv-x="560" 
d="M129 77q-79 91 -79 252q0 104 36 179.5t103.5 115.5t158.5 40q50 0 89 -7t93 -24l-17 -77q-33 9 -63 15q-56 10 -97 10q-98 0 -154.5 -66.5t-56.5 -184.5q0 -122 55.5 -191.5t157.5 -69.5q39 0 82 8t76 18l18 -78q-54 -17 -93.5 -24t-86.5 -7q-143 0 -222 91zM212 739
l148 110h32l148 -110l-37 -48l-127 86l-128 -86z" />
    <glyph glyph-name="ccircumflex" unicode="&#x109;" horiz-adv-x="480" 
d="M115 54q-61 68 -61 187q0 77 28.5 134t80 87t119.5 30q34 0 76.5 -9t84.5 -29q-4 -38 -12 -74q-33 12 -47 16q-53 17 -89 17q-71 0 -112 -45.5t-41 -125.5q0 -85 40 -131t113 -46q29 0 70.5 11t65.5 22q4 -15 7.5 -39.5t4.5 -33.5q-79 -39 -162 -39q-105 0 -166 68z
M152 579l148 120h32l148 -120l-37 -48l-127 91l-128 -91z" />
    <glyph glyph-name="Cdotaccent" unicode="&#x10a;" horiz-adv-x="560" 
d="M129 77q-79 91 -79 252q0 104 36 179.5t103.5 115.5t158.5 40q50 0 89 -7t93 -24l-17 -77q-33 9 -63 15q-56 10 -97 10q-98 0 -154.5 -66.5t-56.5 -184.5q0 -122 55.5 -191.5t157.5 -69.5q39 0 82 8t76 18l18 -78q-54 -17 -93.5 -24t-86.5 -7q-143 0 -222 91zM326.5 716
q-18.5 16 -18.5 44q0 27 18.5 43t49.5 16t48.5 -16t17.5 -43q0 -28 -17.5 -44t-48.5 -16t-49.5 16z" />
    <glyph glyph-name="cdotaccent" unicode="&#x10b;" horiz-adv-x="480" 
d="M115 54q-61 68 -61 187q0 77 28.5 134t80 87t119.5 30q34 0 76.5 -9t84.5 -29q-4 -38 -12 -74q-33 12 -47 16q-53 17 -89 17q-71 0 -112 -45.5t-41 -125.5q0 -85 40 -131t113 -46q29 0 70.5 11t65.5 22q4 -15 7.5 -39.5t4.5 -33.5q-79 -39 -162 -39q-105 0 -166 68z
M266.5 600q-18.5 16 -18.5 44q0 27 18.5 43t49.5 16t48.5 -16t17.5 -43q0 -28 -17.5 -44t-48.5 -16t-49.5 16z" />
    <glyph glyph-name="Ccaron" unicode="&#x10c;" horiz-adv-x="560" 
d="M129 77q-79 91 -79 252q0 104 36 179.5t103.5 115.5t158.5 40q50 0 89 -7t93 -24l-17 -77q-33 9 -63 15q-56 10 -97 10q-98 0 -154.5 -66.5t-56.5 -184.5q0 -122 55.5 -191.5t157.5 -69.5q39 0 82 8t76 18l18 -78q-54 -17 -93.5 -24t-86.5 -7q-143 0 -222 91zM376 767
l127 91l37 -48l-148 -120h-32l-148 120l36 48z" />
    <glyph glyph-name="ccaron" unicode="&#x10d;" horiz-adv-x="480" 
d="M115 54q-61 68 -61 187q0 77 28.5 134t80 87t119.5 30q34 0 76.5 -9t84.5 -29q-4 -38 -12 -74q-33 12 -47 16q-53 17 -89 17q-71 0 -112 -45.5t-41 -125.5q0 -85 40 -131t113 -46q29 0 70.5 11t65.5 22q4 -15 7.5 -39.5t4.5 -33.5q-79 -39 -162 -39q-105 0 -166 68z
M316 627l127 91l37 -48l-148 -120h-32l-148 120l36 48z" />
    <glyph glyph-name="Dcaron" unicode="&#x10e;" horiz-adv-x="665" 
d="M89 570v80h201q99 0 172 -39.5t112.5 -113t39.5 -172.5t-39.5 -172.5t-112.5 -113t-172 -39.5h-201v570zM289 80q70 0 122.5 30t81 85.5t28.5 129.5q0 112 -62.5 178t-169.5 66h-113v-489h113zM247 767l127 91l37 -48l-148 -120h-32l-148 120l36 48z" />
    <glyph glyph-name="dcaron" unicode="&#x10f;" horiz-adv-x="680" 
d="M141.5 14q-42.5 28 -67.5 83.5t-25 136.5q0 76 29 133.5t79 88.5t112 31q60 0 127 -24v237h81v-700q-24 -2 -38 -2q-12 0 -30 2l-8 53q-83 -67 -164 -67q-53 0 -95.5 28zM169 106.5q32 -46.5 91 -46.5t136 49v281q-68 24 -118 24q-65 0 -103 -48t-38 -131
q0 -82 32 -128.5zM603 700l3 -41l-24 -208h-40l-2 249h63z" />
    <glyph glyph-name="Dcroat" unicode="&#x110;" horiz-adv-x="650" 
d="M89 290l-55 -1l-1 35l1 34l55 -1v213v80h201q99 0 172 -39.5t112.5 -113t39.5 -172.5t-39.5 -172.5t-112.5 -113t-172 -39.5h-201v290zM289 80q70 0 122.5 30t81 85.5t28.5 129.5q0 112 -62.5 178t-169.5 66h-113v-212h42q68 0 102 1v-69q-34 1 -102 1h-42v-210h113z" />
    <glyph glyph-name="dcroat" unicode="&#x111;" horiz-adv-x="585" 
d="M150 14q-42 28 -66.5 83.5t-24.5 136.5q0 79 28.5 137.5t79.5 89.5t116 31q62 0 126 -23v111h-164v63h164v57q34 2 40 2q16 0 46 -3v-56h54v-63h-54v-504v-76q-24 -2 -40 -2q-14 0 -32 2l-9 55q-39 -33 -83.5 -51t-86.5 -18q-52 0 -94 28zM176.5 107.5
q29.5 -46.5 79.5 -46.5q41 0 78 18.5t75 49.5v267q-64 23 -122 23q-63 0 -101.5 -49t-38.5 -135q0 -81 29.5 -127.5z" />
    <glyph glyph-name="Emacron" unicode="&#x112;" horiz-adv-x="540" 
d="M93 650h394l5 -80l-310 5v-204l256 7v-80l-256 5v-228l320 6l-5 -81h-404v650zM136 771h315v-67l-157 7l-158 -7v67z" />
    <glyph glyph-name="emacron" unicode="&#x113;" horiz-adv-x="535" 
d="M118.5 53.5q-65.5 67.5 -65.5 185.5q0 76 27.5 133.5t78.5 88.5t119 31q97 0 153 -66t56 -172q0 -24 -3 -44h-350q7 -73 49.5 -110.5t118.5 -37.5q39 0 82 9t76 25q8 -44 15 -71q-36 -18 -82 -28.5t-97 -10.5q-112 0 -177.5 67.5zM406 280q-6 67 -39 102.5t-92 35.5
t-95.5 -34.5t-45.5 -103.5h272zM115 639h315v-67l-157 7l-158 -7v67z" />
    <glyph glyph-name="Ebreve" unicode="&#x114;" horiz-adv-x="540" 
d="M93 650h394l5 -80l-310 5v-204l256 7v-80l-256 5v-228l320 6l-5 -81h-404v650zM193 734q-38 34 -42 99l59 11q7 -92 83 -92t83 92l59 -11q-4 -65 -42 -99t-100 -34t-100 34z" />
    <glyph glyph-name="ebreve" unicode="&#x115;" horiz-adv-x="535" 
d="M118.5 53.5q-65.5 67.5 -65.5 185.5q0 76 27.5 133.5t78.5 88.5t119 31q97 0 153 -66t56 -172q0 -24 -3 -44h-350q7 -73 49.5 -110.5t118.5 -37.5q39 0 82 9t76 25q8 -44 15 -71q-36 -18 -82 -28.5t-97 -10.5q-112 0 -177.5 67.5zM406 280q-6 67 -39 102.5t-92 35.5
t-95.5 -34.5t-45.5 -103.5h272zM170 592q-39 36 -43 98l69 8q3 -38 23 -60t52 -22t52.5 21.5t23.5 59.5l67 -7q-4 -62 -42 -98t-101 -36q-62 0 -101 36z" />
    <glyph glyph-name="Edotaccent" unicode="&#x116;" horiz-adv-x="540" 
d="M93 650h394l5 -80l-310 5v-204l256 7v-80l-256 5v-228l320 6l-5 -81h-404v650zM244.5 716q-18.5 16 -18.5 44q0 27 18.5 43t49.5 16t48.5 -16t17.5 -43q0 -28 -17.5 -44t-48.5 -16t-49.5 16z" />
    <glyph glyph-name="edotaccent" unicode="&#x117;" horiz-adv-x="535" 
d="M118.5 53.5q-65.5 67.5 -65.5 185.5q0 76 27.5 133.5t78.5 88.5t119 31q97 0 153 -66t56 -172q0 -24 -3 -44h-350q7 -73 49.5 -110.5t118.5 -37.5q39 0 82 9t76 25q8 -44 15 -71q-36 -18 -82 -28.5t-97 -10.5q-112 0 -177.5 67.5zM406 280q-6 67 -39 102.5t-92 35.5
t-95.5 -34.5t-45.5 -103.5h272zM223.5 600q-18.5 16 -18.5 44q0 27 18.5 43t49.5 16t48.5 -16t17.5 -43q0 -28 -17.5 -44t-48.5 -16t-49.5 16z" />
    <glyph glyph-name="Eogonek" unicode="&#x118;" horiz-adv-x="540" 
d="M93 650h394l5 -80l-310 5v-204l256 7v-80l-256 5v-228l320 6l-5 -81q-45 -51 -45 -82q0 -37 61 -37q15 0 23 1v-66q-26 -2 -35 -2q-69 0 -98 24.5t-29 62.5q0 23 16 50t45 49h-342v650z" />
    <glyph glyph-name="eogonek" unicode="&#x119;" horiz-adv-x="535" 
d="M118.5 53.5q-65.5 67.5 -65.5 185.5q0 76 27.5 133.5t78.5 88.5t119 31q97 0 153 -66t56 -172q0 -24 -3 -44h-350q7 -73 49.5 -110.5t118.5 -37.5q39 0 82 9t76 25q8 -44 15 -71q-45 -51 -45 -82q0 -37 61 -37q15 0 23 1v-66q-26 -2 -35 -2q-69 0 -98 24.5t-29 62.5
q0 33 29 68q-42 -8 -85 -8q-112 0 -177.5 67.5zM406 280q-6 67 -39 102.5t-92 35.5t-95.5 -34.5t-45.5 -103.5h272z" />
    <glyph glyph-name="Ecaron" unicode="&#x11a;" horiz-adv-x="540" 
d="M93 650h394l5 -80l-310 5v-204l256 7v-80l-256 5v-228l320 6l-5 -81h-404v650zM294 767l127 91l37 -48l-148 -120h-32l-148 120l36 48z" />
    <glyph glyph-name="ecaron" unicode="&#x11b;" horiz-adv-x="535" 
d="M118.5 53.5q-65.5 67.5 -65.5 185.5q0 76 27.5 133.5t78.5 88.5t119 31q97 0 153 -66t56 -172q0 -24 -3 -44h-350q7 -73 49.5 -110.5t118.5 -37.5q39 0 82 9t76 25q8 -44 15 -71q-36 -18 -82 -28.5t-97 -10.5q-112 0 -177.5 67.5zM406 280q-6 67 -39 102.5t-92 35.5
t-95.5 -34.5t-45.5 -103.5h272zM273 627l127 91l37 -48l-148 -120h-32l-148 120l36 48z" />
    <glyph glyph-name="Gcircumflex" unicode="&#x11c;" horiz-adv-x="640" 
d="M197 25.5q-70 39.5 -108 116t-38 184.5q0 105 37.5 181.5t106.5 116.5t161 40q107 0 197 -44l-14 -71q-90 33 -173 33q-106 0 -164.5 -68.5t-58.5 -186.5q0 -125 62.5 -192t171.5 -67q57 0 113 16l-21 218l87 4l14 -287q-47 -15 -102.5 -24t-105.5 -9q-95 0 -165 39.5z
M210 739l148 110h32l148 -110l-37 -48l-127 86l-128 -86z" />
    <glyph glyph-name="gcircumflex" unicode="&#x11d;" horiz-adv-x="570" 
d="M90 -172l19 73q84 -30 151 -30q146 0 146 160v32q-33 -24 -74.5 -39t-84.5 -15q-83 0 -137 59.5t-54 175.5q0 115 62 181.5t171 66.5q55 0 108 -16t95 -41v-405q0 -117 -59.5 -175.5t-169.5 -58.5q-84 0 -173 32zM171.5 125.5q28.5 -41.5 84.5 -41.5q40 0 79 16.5
t71 44.5v250q-60 23 -117 23q-69 0 -107.5 -45.5t-38.5 -124.5q0 -81 28.5 -122.5zM118 579l148 120h32l148 -120l-37 -48l-127 91l-128 -91z" />
    <glyph glyph-name="Gbreve" unicode="&#x11e;" horiz-adv-x="640" 
d="M197 25.5q-70 39.5 -108 116t-38 184.5q0 105 37.5 181.5t106.5 116.5t161 40q107 0 197 -44l-14 -71q-90 33 -173 33q-106 0 -164.5 -68.5t-58.5 -186.5q0 -125 62.5 -192t171.5 -67q57 0 113 16l-21 218l87 4l14 -287q-47 -15 -102.5 -24t-105.5 -9q-95 0 -165 39.5z
M273 734q-38 34 -42 99l59 11q7 -92 83 -92t83 92l59 -11q-4 -65 -42 -99t-100 -34t-100 34z" />
    <glyph glyph-name="gbreve" unicode="&#x11f;" horiz-adv-x="570" 
d="M90 -172l19 73q84 -30 151 -30q146 0 146 160v32q-33 -24 -74.5 -39t-84.5 -15q-83 0 -137 59.5t-54 175.5q0 115 62 181.5t171 66.5q55 0 108 -16t95 -41v-405q0 -117 -59.5 -175.5t-169.5 -58.5q-84 0 -173 32zM171.5 125.5q28.5 -41.5 84.5 -41.5q40 0 79 16.5
t71 44.5v250q-60 23 -117 23q-69 0 -107.5 -45.5t-38.5 -124.5q0 -81 28.5 -122.5zM179 592q-39 36 -43 98l69 8q3 -38 23 -60t52 -22t52.5 21.5t23.5 59.5l67 -7q-4 -62 -42 -98t-101 -36q-62 0 -101 36z" />
    <glyph glyph-name="Gdotaccent" unicode="&#x120;" horiz-adv-x="640" 
d="M197 25.5q-70 39.5 -108 116t-38 184.5q0 105 37.5 181.5t106.5 116.5t161 40q107 0 197 -44l-14 -71q-90 33 -173 33q-106 0 -164.5 -68.5t-58.5 -186.5q0 -125 62.5 -192t171.5 -67q57 0 113 16l-21 218l87 4l14 -287q-47 -15 -102.5 -24t-105.5 -9q-95 0 -165 39.5z
M324.5 716q-18.5 16 -18.5 44q0 27 18.5 43t49.5 16t48.5 -16t17.5 -43q0 -28 -17.5 -44t-48.5 -16t-49.5 16z" />
    <glyph glyph-name="gdotaccent" unicode="&#x121;" horiz-adv-x="570" 
d="M90 -172l19 73q84 -30 151 -30q146 0 146 160v32q-33 -24 -74.5 -39t-84.5 -15q-83 0 -137 59.5t-54 175.5q0 115 62 181.5t171 66.5q55 0 108 -16t95 -41v-405q0 -117 -59.5 -175.5t-169.5 -58.5q-84 0 -173 32zM171.5 125.5q28.5 -41.5 84.5 -41.5q40 0 79 16.5
t71 44.5v250q-60 23 -117 23q-69 0 -107.5 -45.5t-38.5 -124.5q0 -81 28.5 -122.5zM232.5 600q-18.5 16 -18.5 44q0 27 18.5 43t49.5 16t48.5 -16t17.5 -43q0 -28 -17.5 -44t-48.5 -16t-49.5 16z" />
    <glyph glyph-name="uni0122" unicode="&#x122;" horiz-adv-x="640" 
d="M197 25.5q-70 39.5 -108 116t-38 184.5q0 105 37.5 181.5t106.5 116.5t161 40q107 0 197 -44l-14 -71q-90 33 -173 33q-106 0 -164.5 -68.5t-58.5 -186.5q0 -125 62.5 -192t171.5 -67q57 0 113 16l-21 218l87 4l14 -287q-47 -15 -102.5 -24t-105.5 -9q-95 0 -165 39.5z
M253 -199l38 158h83l-61 -160z" />
    <glyph glyph-name="uni0123" unicode="&#x123;" horiz-adv-x="570" 
d="M90 -172l19 73q84 -30 151 -30q146 0 146 160v32q-33 -24 -74.5 -39t-84.5 -15q-83 0 -137 59.5t-54 175.5q0 115 62 181.5t171 66.5q55 0 108 -16t95 -41v-405q0 -117 -59.5 -175.5t-169.5 -58.5q-84 0 -173 32zM171.5 125.5q28.5 -41.5 84.5 -41.5q40 0 79 16.5
t71 44.5v250q-60 23 -117 23q-69 0 -107.5 -45.5t-38.5 -124.5q0 -81 28.5 -122.5zM296.5 698q-15.5 -28 -19.5 -51l49 -16q0 -26 -13 -40.5t-37 -14.5q-54 0 -54 50q0 36 22 73.5t59 67.5l29 -20q-20 -21 -35.5 -49z" />
    <glyph glyph-name="Hcircumflex" unicode="&#x124;" horiz-adv-x="690" 
d="M508 290h-325v-290h-89v650h89v-282h325v282h89v-650h-89v290zM180 739l148 110h32l148 -110l-37 -48l-127 86l-128 -86z" />
    <glyph glyph-name="hcircumflex" unicode="&#x125;" horiz-adv-x="590" 
d="M398.5 377.5q-19.5 26.5 -68.5 26.5q-32 0 -71.5 -13t-76.5 -35v-356h-86v624v78q20 2 37 2q19 0 49 -2v-269q46 27 96 43t95 16q69 0 100 -37.5t31 -116.5v-338h-86v288q0 63 -19.5 89.5zM-23 750l148 110h32l148 -110l-37 -48l-127 86l-128 -86z" />
    <glyph glyph-name="Hbar" unicode="&#x126;" horiz-adv-x="690" 
d="M508 290h-325v-290h-89v488h-63v58h63v104h89v-104h325v104h89v-104h52v-58h-52v-488h-89v290zM508 368v120h-325v-120h325z" />
    <glyph glyph-name="hbar" unicode="&#x127;" horiz-adv-x="590" 
d="M398.5 377.5q-19.5 26.5 -68.5 26.5q-32 0 -71.5 -13t-76.5 -35v-356h-86v555h-56v63h56v84q20 2 37 2q19 0 49 -2v-84h162v-63h-162v-122q46 27 96 43t95 16q69 0 100 -37.5t31 -116.5v-338h-86v288q0 63 -19.5 89.5z" />
    <glyph glyph-name="Itilde" unicode="&#x128;" horiz-adv-x="450" 
d="M41 79l140 -4v501l-140 -4l3 78h362l2 -78l-138 4v-501l138 4l-2 -79h-362zM257 713.5q-18 8.5 -41 24.5q-3 2 -17.5 10.5t-25 13t-17.5 4.5q-18 0 -32 -16.5t-31 -51.5l-36 15q25 58 49 85.5t54 27.5q15 0 32 -8t41 -24q22 -14 36 -21t25 -7q16 0 30.5 17t30.5 51
l37 -15q-25 -58 -49 -86t-53 -28q-15 0 -33 8.5z" />
    <glyph glyph-name="itilde" unicode="&#x129;" horiz-adv-x="305" 
d="M121 407l-98 -14q-1 15 -1 43q0 29 1 42q27 2 96 2q66 0 88 -2v-478h-86v407zM188 587.5q-19 7.5 -48 22.5q-16 8 -31 14.5t-26 6.5q-19 0 -33.5 -12.5t-31.5 -43.5l-46 25q25 54 49.5 77.5t55.5 23.5q19 0 39 -7.5t47 -21.5q22 -11 34.5 -16t23.5 -5q17 0 32 13t31 43
l47 -25q-25 -55 -49.5 -78.5t-54.5 -23.5q-20 0 -39 7.5z" />
    <glyph glyph-name="Imacron" unicode="&#x12a;" horiz-adv-x="450" 
d="M41 79l140 -4v501l-140 -4l3 78h362l2 -78l-138 4v-501l138 4l-2 -79h-362zM67 771h315v-67l-157 7l-158 -7v67z" />
    <glyph glyph-name="imacron" unicode="&#x12b;" horiz-adv-x="305" 
d="M121 407l-98 -14q-1 15 -1 43q0 29 1 42q27 2 96 2q66 0 88 -2v-478h-86v407zM-6 639h315v-67l-157 7l-158 -7v67z" />
    <glyph glyph-name="Ibreve" unicode="&#x12c;" horiz-adv-x="450" 
d="M41 79l140 -4v501l-140 -4l3 78h362l2 -78l-138 4v-501l138 4l-2 -79h-362zM124 734q-38 34 -42 99l59 11q7 -92 83 -92t83 92l59 -11q-4 -65 -42 -99t-100 -34t-100 34z" />
    <glyph glyph-name="ibreve" unicode="&#x12d;" horiz-adv-x="305" 
d="M121 407l-98 -14q-1 15 -1 43q0 29 1 42q27 2 96 2q66 0 88 -2v-478h-86v407zM49 592q-39 36 -43 98l69 8q3 -38 23 -60t52 -22t52.5 21.5t23.5 59.5l67 -7q-4 -62 -42 -98t-101 -36q-62 0 -101 36z" />
    <glyph glyph-name="Iogonek" unicode="&#x12e;" horiz-adv-x="450" 
d="M41 79l140 -4v501l-140 -4l3 78h362l2 -78l-138 4v-501l138 4l-2 -79h-149q-45 -51 -45 -82q0 -37 61 -37q15 0 23 1v-66q-26 -2 -35 -2q-69 0 -98 24.5t-29 62.5q0 23 16 50t45 49h-151z" />
    <glyph glyph-name="iogonek" unicode="&#x12f;" horiz-adv-x="305" 
d="M121 407l-98 -14q-1 15 -1 43q0 29 1 42q27 2 96 2q66 0 88 -2v-478q-45 -51 -45 -82q0 -37 61 -37q15 0 23 1v-66q-26 -2 -35 -2q-69 0 -98 24.5t-29 62.5q0 23 16 50t45 49h-24v407zM102.5 683q18.5 16 49.5 16t48.5 -16t17.5 -43q0 -28 -17.5 -44t-48.5 -16t-49.5 16
t-18.5 44q0 27 18.5 43z" />
    <glyph glyph-name="Idotaccent" unicode="&#x130;" horiz-adv-x="450" 
d="M41 79l140 -4v501l-140 -4l3 78h362l2 -78l-138 4v-501l138 4l-2 -79h-362zM175.5 716q-18.5 16 -18.5 44q0 27 18.5 43t49.5 16t48.5 -16t17.5 -43q0 -28 -17.5 -44t-48.5 -16t-49.5 16z" />
    <glyph glyph-name="dotlessi" unicode="&#x131;" horiz-adv-x="305" 
d="M121 407l-98 -14q-1 15 -1 43q0 29 1 42q27 2 96 2q66 0 88 -2v-478h-86v407z" />
    <glyph glyph-name="IJ" unicode="&#x132;" horiz-adv-x="920" 
d="M476 30l15 73q92 -32 155 -32q65 0 94 32.5t29 109.5v358l-234 -5l5 84h314v-448q0 -114 -50.5 -165t-146.5 -51q-86 0 -181 44zM181 75v501l-145 -4l3 78h373l2 -78l-144 4v-501l144 4l-2 -79h-373l-3 79z" />
    <glyph glyph-name="ij" unicode="&#x133;" horiz-adv-x="615" 
d="M321 -192q-35 7 -64 18q5 42 13 73q57 -19 106 -19q77 0 77 98v429l-119 -14q-1 15 -1 43t1 42q23 1 79 1q77 0 122 -2l4 1v-507q0 -89 -41 -129.5t-112 -40.5q-30 0 -65 7zM21 436q0 28 1 42q28 2 98 2q68 0 90 -2v-478h-86v407l-102 -14q-1 15 -1 43zM105.5 683
q18.5 16 49.5 16t48.5 -16t17.5 -43q0 -28 -17.5 -44t-48.5 -16t-49.5 16t-18.5 44q0 27 18.5 43zM435.5 683q18.5 16 49.5 16t48.5 -16t17.5 -43q0 -28 -17.5 -44t-48.5 -16t-49.5 16t-18.5 44q0 27 18.5 43z" />
    <glyph glyph-name="Jcircumflex" unicode="&#x134;" horiz-adv-x="470" 
d="M31 30l15 73q89 -32 149 -32q63 0 90.5 32.5t27.5 109.5v358l-225 -5l5 84h306v-448q0 -114 -49.5 -165t-143.5 -51q-83 0 -175 44zM51 739l148 110h32l148 -110l-37 -48l-127 86l-128 -86z" />
    <glyph glyph-name="jcircumflex" unicode="&#x135;" horiz-adv-x="310" 
d="M16 -192q-34 7 -62 18q4 40 13 73q55 -19 102 -19q74 0 74 98v429l-114 -14q-1 15 -1 44q0 28 1 41q22 1 77 1q75 0 119 -2l4 1v-507q0 -89 -40 -129.5t-109 -40.5q-30 0 -64 7zM11 579l148 120h32l148 -120l-37 -48l-127 91l-128 -91z" />
    <glyph glyph-name="uni0136" unicode="&#x136;" horiz-adv-x="595" 
d="M93 563v86q30 1 89 1v-362q89 77 161 175t99 187h92q-46 -150 -173 -293q51 -73 109.5 -173.5t99.5 -183.5h-99q-32 67 -79.5 153t-84.5 147q-63 -61 -125 -105v-195h-89v563zM225 -199l38 158h83l-61 -160z" />
    <glyph glyph-name="uni0137" unicode="&#x137;" horiz-adv-x="535" 
d="M326 127q-22 32 -46 70q-52 -49 -105 -85v-112h-86v618v81q38 2 43 2q7 0 43 -2v-489q66 59 123 131t88 137q28 2 48 2t48 -2q-50 -116 -145 -223q93 -126 172 -255h-103q-19 32 -80 127zM191 -199l38 158h83l-61 -160z" />
    <glyph glyph-name="kgreenlandic" unicode="&#x138;" horiz-adv-x="535" 
d="M320 134l-42 63q-54 -51 -102 -83v-114h-86v397v81q38 2 43 2q7 0 43 -2v-272q78 74 124.5 136.5t82.5 135.5q16 1 58 1q30 0 42 -1q-23 -53 -60 -110t-86 -111q99 -136 173 -257h-102q-37 61 -88 134z" />
    <glyph glyph-name="Lacute" unicode="&#x139;" horiz-adv-x="500" 
d="M92 650h89v-575l242 3h59l-4 -78h-386v650zM100 695l-30 56l189 93l33 -83z" />
    <glyph glyph-name="lacute" unicode="&#x13a;" horiz-adv-x="295" 
d="M111 627l-97 -14q-1 14 -1 42t1 43q60 2 97 2q42 0 86 -2v-698h-86v627zM67 745l-30 56l189 93l33 -83z" />
    <glyph glyph-name="uni013B" unicode="&#x13b;" horiz-adv-x="500" 
d="M92 650h89v-575l242 3h59l-4 -78h-386v650zM178 -199l38 158h83l-61 -160z" />
    <glyph glyph-name="uni013C" unicode="&#x13c;" horiz-adv-x="295" 
d="M111 627l-97 -14q-1 14 -1 42t1 43q60 2 97 2q42 0 86 -2v-698h-86v627zM77 -199l38 158h83l-61 -160z" />
    <glyph glyph-name="Lcaron" unicode="&#x13d;" horiz-adv-x="500" 
d="M92 650h89v-575l242 3h59l-4 -78h-386v650zM376 650h72l3 -41l-24 -208h-49z" />
    <glyph glyph-name="lcaron" unicode="&#x13e;" horiz-adv-x="411" 
d="M111 627l-97 -14q-1 14 -1 42t1 43q60 2 97 2q42 0 86 -2v-698h-86v627zM262 700h72l3 -41l-24 -208h-49z" />
    <glyph glyph-name="Ldot" unicode="&#x13f;" horiz-adv-x="500" 
d="M92 650h89v-575l242 3h59l-4 -78h-386v650zM283.5 357q13.5 12 37.5 12q23 0 36.5 -12t13.5 -32t-13.5 -32t-36.5 -12q-24 0 -37.5 12t-13.5 32t13.5 32z" />
    <glyph glyph-name="ldot" unicode="&#x140;" horiz-adv-x="295" 
d="M111 627l-97 -14q-1 14 -1 42t1 43q60 2 97 2q42 0 86 -2v-698h-86v627zM272 328q13 13 35 13t35 -13t13 -34t-13 -34t-35 -13t-35 13t-13 34t13 34z" />
    <glyph glyph-name="Lslash" unicode="&#x141;" horiz-adv-x="500" 
d="M92 297l-67 -34l-26 60l93 47v280h89v-234l112 57l26 -60l-138 -70v-268l242 3h59l-4 -78h-386v297z" />
    <glyph glyph-name="lslash" unicode="&#x142;" horiz-adv-x="295" 
d="M111 276l-74 -40l-26 47l100 56v288l-97 -14q-1 14 -1 42t1 43q60 2 97 2q42 0 86 -2v-311l68 38l29 -49l-97 -53v-323h-86v276z" />
    <glyph glyph-name="Nacute" unicode="&#x143;" horiz-adv-x="690" 
d="M94 650h82l337 -508l-5 508h89v-650h-81l-339 509l5 -509h-88v650zM265 695l-30 56l189 93l33 -83z" />
    <glyph glyph-name="nacute" unicode="&#x144;" horiz-adv-x="590" 
d="M399 383q-19 21 -69 21q-32 0 -71.5 -15.5t-76.5 -40.5v-348h-86v399v78q13 2 38 2q21 0 34 -1l7 -56q59 39 102 54.5t87 15.5q74 0 107 -40t33 -121v-331h-86v302q0 60 -19 81zM274 544l-40 37l132 140q37 -21 66 -54z" />
    <glyph glyph-name="uni0145" unicode="&#x145;" horiz-adv-x="690" 
d="M94 650h82l337 -508l-5 508h89v-650h-81l-339 509l5 -509h-88v650zM268 -199l38 158h83l-61 -160z" />
    <glyph glyph-name="uni0146" unicode="&#x146;" horiz-adv-x="590" 
d="M399 383q-19 21 -69 21q-32 0 -71.5 -15.5t-76.5 -40.5v-348h-86v399v78q13 2 38 2q21 0 34 -1l7 -56q59 39 102 54.5t87 15.5q74 0 107 -40t33 -121v-331h-86v302q0 60 -19 81zM219 -199l38 158h83l-61 -160z" />
    <glyph glyph-name="Ncaron" unicode="&#x147;" horiz-adv-x="690" 
d="M94 650h82l337 -508l-5 508h89v-650h-81l-339 509l5 -509h-88v650zM345 767l127 91l37 -48l-148 -120h-32l-148 120l36 48z" />
    <glyph glyph-name="ncaron" unicode="&#x148;" horiz-adv-x="590" 
d="M399 383q-19 21 -69 21q-32 0 -71.5 -15.5t-76.5 -40.5v-348h-86v399v78q13 2 38 2q21 0 34 -1l7 -56q59 39 102 54.5t87 15.5q74 0 107 -40t33 -121v-331h-86v302q0 60 -19 81zM296 627l127 91l37 -48l-148 -120h-32l-148 120l36 48z" />
    <glyph glyph-name="Eng" unicode="&#x14a;" horiz-adv-x="690" 
d="M94 650h82l337 -508l-5 508h89v-663q0 -103 -40 -146.5t-103 -43.5q-39 0 -76 14l13 80q34 -10 57 -10q31 0 47.5 24t16.5 83v18l-335 503l5 -509h-88v650z" />
    <glyph glyph-name="eng" unicode="&#x14b;" horiz-adv-x="590" 
d="M399 383q-19 21 -69 21q-32 0 -71.5 -15.5t-76.5 -40.5v-348h-86v399v78q13 2 38 2q21 0 34 -1l7 -56q59 39 102 54.5t87 15.5q74 0 107 -40t33 -121v-350q0 -101 -46 -148t-131 -47q-30 0 -65.5 6t-65.5 15l13 73q53 -14 97 -14q54 0 83 29.5t29 97.5v309q0 60 -19 81z
" />
    <glyph glyph-name="Omacron" unicode="&#x14c;" horiz-adv-x="680" 
d="M187.5 27.5q-65.5 41.5 -101 118t-35.5 179.5t35.5 179.5t101 118t152.5 41.5t152.5 -41.5t101 -118t35.5 -179.5t-35.5 -179.5t-101 -118t-152.5 -41.5t-152.5 41.5zM165 190q24 -58 69 -89t105 -31t105 31.5t69.5 89t24.5 134.5t-24.5 135t-69.5 89.5t-105 31.5
t-105 -31t-69 -89t-24 -136q0 -77 24 -135zM181 771h315v-67l-157 7l-158 -7v67z" />
    <glyph glyph-name="omacron" unicode="&#x14d;" 
d="M120 54q-61 68 -61 185t61 185t169 68t169.5 -68t61.5 -185t-61.5 -185t-169.5 -68t-169 68zM184.5 106.5q36.5 -45.5 103.5 -45.5q69 0 106 45.5t37 132.5q0 88 -37 133t-106 45q-68 0 -104 -45t-36 -133q0 -87 36.5 -132.5zM130 639h315v-67l-157 7l-158 -7v67z" />
    <glyph glyph-name="Obreve" unicode="&#x14e;" horiz-adv-x="680" 
d="M187.5 27.5q-65.5 41.5 -101 118t-35.5 179.5t35.5 179.5t101 118t152.5 41.5t152.5 -41.5t101 -118t35.5 -179.5t-35.5 -179.5t-101 -118t-152.5 -41.5t-152.5 41.5zM165 190q24 -58 69 -89t105 -31t105 31.5t69.5 89t24.5 134.5t-24.5 135t-69.5 89.5t-105 31.5
t-105 -31t-69 -89t-24 -136q0 -77 24 -135zM238 734q-38 34 -42 99l59 11q7 -92 83 -92t83 92l59 -11q-4 -65 -42 -99t-100 -34t-100 34z" />
    <glyph glyph-name="obreve" unicode="&#x14f;" 
d="M120 54q-61 68 -61 185t61 185t169 68t169.5 -68t61.5 -185t-61.5 -185t-169.5 -68t-169 68zM184.5 106.5q36.5 -45.5 103.5 -45.5q69 0 106 45.5t37 132.5q0 88 -37 133t-106 45q-68 0 -104 -45t-36 -133q0 -87 36.5 -132.5zM185 592q-39 36 -43 98l69 8q3 -38 23 -60
t52 -22t52.5 21.5t23.5 59.5l67 -7q-4 -62 -42 -98t-101 -36q-62 0 -101 36z" />
    <glyph glyph-name="Ohungarumlaut" unicode="&#x150;" horiz-adv-x="680" 
d="M187.5 27.5q-65.5 41.5 -101 118t-35.5 179.5t35.5 179.5t101 118t152.5 41.5t152.5 -41.5t101 -118t35.5 -179.5t-35.5 -179.5t-101 -118t-152.5 -41.5t-152.5 41.5zM165 190q24 -58 69 -89t105 -31t105 31.5t69.5 89t24.5 134.5t-24.5 135t-69.5 89.5t-105 31.5
t-105 -31t-69 -89t-24 -136q0 -77 24 -135zM349 752l163 124l45 -76l-171 -98zM349 876l45 -76l-170 -98l-38 50z" />
    <glyph glyph-name="ohungarumlaut" unicode="&#x151;" 
d="M120 54q-61 68 -61 185t61 185t169 68t169.5 -68t61.5 -185t-61.5 -185t-169.5 -68t-169 68zM184.5 106.5q36.5 -45.5 103.5 -45.5q69 0 106 45.5t37 132.5q0 88 -37 133t-106 45q-68 0 -104 -45t-36 -133q0 -87 36.5 -132.5zM201 572l-35 24l122 156l66 -39zM464 752
l65 -40l-154 -139l-35 24z" />
    <glyph glyph-name="OE" unicode="&#x152;" horiz-adv-x="850" 
d="M144 84.5q-91 83.5 -91 240.5t91 240.5t253 84.5h394l5 -80l-310 5v-204l256 7v-80l-256 5v-228l320 6l-5 -81h-404q-162 1 -253 84.5zM211 147q67 -61 186 -62v481q-119 -1 -186 -62t-67 -179q0 -117 67 -178z" />
    <glyph glyph-name="oe" unicode="&#x153;" horiz-adv-x="890" 
d="M166.5 16q-49.5 30 -77.5 87t-28 136t28 136t77.5 87t114.5 30q57 0 101.5 -29.5t69.5 -82.5q27 53 73 82.5t105 29.5q93 0 147 -63.5t54 -189.5q0 -17 -2 -29h-336q8 -68 51 -108.5t109 -40.5q35 0 75.5 9t69.5 24l15 -72q-34 -17 -76.5 -26.5t-87.5 -9.5q-65 0 -116 30
t-80 84q-25 -54 -69.5 -84t-102.5 -30q-65 0 -114.5 30zM183.5 106.5q38.5 -45.5 97.5 -45.5t95 49t36 129t-36 129t-95 49t-97.5 -45t-38.5 -133q0 -87 38.5 -132.5zM751 280q-7 72 -37.5 105t-83.5 33q-54 0 -90.5 -37.5t-45.5 -100.5h257z" />
    <glyph glyph-name="Racute" unicode="&#x154;" horiz-adv-x="606" 
d="M334 240l-21 -2l-130 -8v-230h-89v563v87h89h130q104 0 164.5 -55.5t60.5 -151.5q0 -64 -32.5 -111.5t-93.5 -71.5q86 -134 147 -260h-99q-74 157 -126 240zM313 313q62 4 97.5 39t35.5 91q0 59 -35.5 93t-97.5 34h-130v-265zM217 695l-30 56l189 93l33 -83z" />
    <glyph glyph-name="racute" unicode="&#x155;" horiz-adv-x="428" 
d="M80 407v71q17 2 44 2q26 0 42 -2v-94q98 75 221 106q10 -34 12 -97q-64 -8 -123.5 -29t-108.5 -55l-1 -233v-76h-86v407zM206 544l-40 37l132 140q37 -21 66 -54z" />
    <glyph glyph-name="uni0156" unicode="&#x156;" horiz-adv-x="606" 
d="M334 240l-21 -2l-130 -8v-230h-89v563v87h89h130q104 0 164.5 -55.5t60.5 -151.5q0 -64 -32.5 -111.5t-93.5 -71.5q86 -134 147 -260h-99q-74 157 -126 240zM313 313q62 4 97.5 39t35.5 91q0 59 -35.5 93t-97.5 34h-130v-265zM220 -199l38 158h83l-61 -160z" />
    <glyph glyph-name="uni0157" unicode="&#x157;" horiz-adv-x="428" 
d="M80 407v71q17 2 44 2q26 0 42 -2v-94q98 75 221 106q10 -34 12 -97q-64 -8 -123.5 -29t-108.5 -55l-1 -233v-76h-86v407zM50 -199l38 158h83l-61 -160z" />
    <glyph glyph-name="Rcaron" unicode="&#x158;" horiz-adv-x="606" 
d="M334 240l-21 -2l-130 -8v-230h-89v563v87h89h130q104 0 164.5 -55.5t60.5 -151.5q0 -64 -32.5 -111.5t-93.5 -71.5q86 -134 147 -260h-99q-74 157 -126 240zM313 313q62 4 97.5 39t35.5 91q0 59 -35.5 93t-97.5 34h-130v-265zM297 767l127 91l37 -48l-148 -120h-32
l-148 120l36 48z" />
    <glyph glyph-name="rcaron" unicode="&#x159;" horiz-adv-x="428" 
d="M80 407v71q17 2 44 2q26 0 42 -2v-94q98 75 221 106q10 -34 12 -97q-64 -8 -123.5 -29t-108.5 -55l-1 -233v-76h-86v407zM228 627l127 91l37 -48l-148 -120h-32l-148 120l36 48z" />
    <glyph glyph-name="Sacute" unicode="&#x15a;" horiz-adv-x="520" 
d="M35 27l13 73q112 -32 219 -32q60 0 94.5 25.5t34.5 71.5q0 45 -33.5 72.5t-114.5 49.5q-106 29 -154.5 72t-48.5 117q0 89 56.5 136t161.5 47q55 0 99 -6t87 -20q-5 -48 -11 -77q-41 12 -81.5 16.5t-95.5 4.5q-60 0 -93 -24.5t-33 -70.5q0 -42 30 -67t102 -46
q117 -34 167.5 -79.5t50.5 -122.5q0 -87 -56.5 -134t-160.5 -47q-122 0 -233 41zM189 696l-30 56l189 93l33 -83z" />
    <glyph glyph-name="sacute" unicode="&#x15b;" horiz-adv-x="435" 
d="M82.5 458q45.5 34 137.5 34q88 0 167 -35q-5 -35 -16 -71q-79 31 -154 31q-94 0 -94 -56q0 -31 22.5 -47.5t85.5 -29.5q68 -13 106 -34t53 -50.5t15 -71.5q0 -68 -48.5 -105t-140.5 -37q-113 0 -189 39l14 72q82 -35 169 -35q53 0 79 15t26 50q0 34 -22 50.5t-80 27.5
q-98 17 -137 55.5t-39 100.5q0 63 45.5 97zM205 544l-40 37l132 140q37 -21 66 -54z" />
    <glyph glyph-name="Scircumflex" unicode="&#x15c;" horiz-adv-x="520" 
d="M35 27l13 73q112 -32 219 -32q60 0 94.5 25.5t34.5 71.5q0 45 -33.5 72.5t-114.5 49.5q-106 29 -154.5 72t-48.5 117q0 89 56.5 136t161.5 47q55 0 99 -6t87 -20q-5 -48 -11 -77q-41 12 -81.5 16.5t-95.5 4.5q-60 0 -93 -24.5t-33 -70.5q0 -42 30 -67t102 -46
q117 -34 167.5 -79.5t50.5 -122.5q0 -87 -56.5 -134t-160.5 -47q-122 0 -233 41zM105 740l148 110h32l148 -110l-37 -48l-127 86l-128 -86z" />
    <glyph glyph-name="scircumflex" unicode="&#x15d;" horiz-adv-x="435" 
d="M82.5 458q45.5 34 137.5 34q88 0 167 -35q-5 -35 -16 -71q-79 31 -154 31q-94 0 -94 -56q0 -31 22.5 -47.5t85.5 -29.5q68 -13 106 -34t53 -50.5t15 -71.5q0 -68 -48.5 -105t-140.5 -37q-113 0 -189 39l14 72q82 -35 169 -35q53 0 79 15t26 50q0 34 -22 50.5t-80 27.5
q-98 17 -137 55.5t-39 100.5q0 63 45.5 97zM63 579l148 120h32l148 -120l-37 -48l-127 91l-128 -91z" />
    <glyph glyph-name="Scedilla" unicode="&#x15e;" horiz-adv-x="520" 
d="M168 -170l55 157q-100 8 -188 40l13 73q112 -32 219 -32q60 0 94.5 25.5t34.5 71.5q0 45 -33.5 72.5t-114.5 49.5q-106 29 -154.5 72t-48.5 117q0 89 56.5 136t161.5 47q55 0 99 -6t87 -20q-5 -48 -11 -77q-41 12 -81.5 16.5t-95.5 4.5q-60 0 -93 -24.5t-33 -70.5
q0 -42 30 -67t102 -46q117 -34 167.5 -79.5t50.5 -122.5q0 -83 -51.5 -129.5t-147.5 -51.5l-37 -170z" />
    <glyph glyph-name="scedilla" unicode="&#x15f;" horiz-adv-x="435" 
d="M82.5 458q45.5 34 137.5 34q88 0 167 -35q-5 -35 -16 -71q-79 31 -154 31q-94 0 -94 -56q0 -31 22.5 -47.5t85.5 -29.5q68 -13 106 -34t53 -50.5t15 -71.5q0 -60 -38 -96.5t-111 -43.5l-37 -169l-81 14l54 153q-96 4 -165 39l14 72q82 -35 169 -35q53 0 79 15t26 50
q0 34 -22 50.5t-80 27.5q-98 17 -137 55.5t-39 100.5q0 63 45.5 97z" />
    <glyph glyph-name="Scaron" unicode="&#x160;" horiz-adv-x="520" 
d="M35 27l13 73q112 -32 219 -32q60 0 94.5 25.5t34.5 71.5q0 45 -33.5 72.5t-114.5 49.5q-106 29 -154.5 72t-48.5 117q0 89 56.5 136t161.5 47q55 0 99 -6t87 -20q-5 -48 -11 -77q-41 12 -81.5 16.5t-95.5 4.5q-60 0 -93 -24.5t-33 -70.5q0 -42 30 -67t102 -46
q117 -34 167.5 -79.5t50.5 -122.5q0 -87 -56.5 -134t-160.5 -47q-122 0 -233 41zM269 768l127 91l37 -48l-148 -120h-32l-148 120l36 48z" />
    <glyph glyph-name="scaron" unicode="&#x161;" horiz-adv-x="435" 
d="M82.5 458q45.5 34 137.5 34q88 0 167 -35q-5 -35 -16 -71q-79 31 -154 31q-94 0 -94 -56q0 -31 22.5 -47.5t85.5 -29.5q68 -13 106 -34t53 -50.5t15 -71.5q0 -68 -48.5 -105t-140.5 -37q-113 0 -189 39l14 72q82 -35 169 -35q53 0 79 15t26 50q0 34 -22 50.5t-80 27.5
q-98 17 -137 55.5t-39 100.5q0 63 45.5 97zM227 627l127 91l37 -48l-148 -120h-32l-148 120l36 48z" />
    <glyph glyph-name="uni0162" unicode="&#x162;" horiz-adv-x="510" 
d="M210 570h-195v80h481v-80h-196v-570h-13l-40 -181l-81 14l59 167h-15v570z" />
    <glyph glyph-name="uni0163" unicode="&#x163;" horiz-adv-x="410" 
d="M18 478h99l-5 143h96l-13 -143h191q3 -21 3 -41q0 -19 -3 -42l-187 8v-220q0 -62 24 -91.5t66 -29.5q49 0 110 23q9 -43 11 -61q-28 -15 -61.5 -25.5t-62.5 -11.5l-38 -173l-81 14l57 162q-55 12 -83 58t-28 138v216l-95 -7v83z" />
    <glyph glyph-name="Tcaron" unicode="&#x164;" horiz-adv-x="510" 
d="M210 570h-195v80h481v-80h-196v-570h-90v570zM255 767l127 91l37 -48l-148 -120h-32l-148 120l36 48z" />
    <glyph glyph-name="tcaron" unicode="&#x165;" horiz-adv-x="410" 
d="M153 31q-40 45 -40 155v216l-95 -7v83h99l-5 143h96l-13 -143h191q3 -21 3 -41q0 -19 -3 -42l-187 8v-220q0 -62 24 -91.5t66 -29.5q49 0 110 23q9 -43 11 -61q-32 -17 -69.5 -27.5t-69.5 -10.5q-78 0 -118 45zM311 792h72l3 -41l-24 -208h-49z" />
    <glyph glyph-name="Tbar" unicode="&#x166;" horiz-adv-x="510" 
d="M210 291q-65 0 -98 -1l-1 35l1 34l98 -1v212h-195v80h481v-80h-196v-212q65 0 98 1v-69q-33 1 -98 1v-291h-90v291z" />
    <glyph glyph-name="tbar" unicode="&#x167;" horiz-adv-x="410" 
d="M153 31q-40 45 -40 155v53h-85v63h85v100l-95 -7v83h99l-5 143h96l-13 -143h191q3 -21 3 -41q0 -19 -3 -42l-187 8v-101h133v-63h-133v-56q0 -62 24 -91.5t66 -29.5q49 0 110 23q9 -43 11 -61q-32 -17 -69.5 -27.5t-69.5 -10.5q-78 0 -118 45z" />
    <glyph glyph-name="Utilde" unicode="&#x168;" horiz-adv-x="660" 
d="M139 57q-66 71 -66 204v389h89v-389q0 -93 42 -141.5t126 -48.5q81 0 124.5 48.5t43.5 141.5v389h90v-389q0 -132 -68 -203.5t-190 -71.5q-125 0 -191 71zM362 713.5q-18 8.5 -41 24.5q-3 2 -17.5 10.5t-25 13t-17.5 4.5q-18 0 -32 -16.5t-31 -51.5l-36 15q25 58 49 85.5
t54 27.5q15 0 32 -8t41 -24q22 -14 36 -21t25 -7q16 0 30.5 17t30.5 51l37 -15q-25 -58 -49 -86t-53 -28q-15 0 -33 8.5z" />
    <glyph glyph-name="utilde" unicode="&#x169;" 
d="M183.5 116q8.5 -23 27.5 -32t53 -9q60 0 140 56v347h86v-399v-78q-13 -2 -38 -2q-21 0 -34 1l-7 56q-43 -32 -91.5 -51t-94.5 -19q-69 0 -102.5 38t-33.5 116v338h86v-297q0 -42 8.5 -65zM333 587.5q-19 7.5 -48 22.5q-16 8 -31 14.5t-26 6.5q-19 0 -33.5 -12.5
t-31.5 -43.5l-46 25q25 54 49.5 77.5t55.5 23.5q19 0 39 -7.5t47 -21.5q22 -11 34.5 -16t23.5 -5q17 0 32 13t31 43l47 -25q-25 -55 -49.5 -78.5t-54.5 -23.5q-20 0 -39 7.5z" />
    <glyph glyph-name="Umacron" unicode="&#x16a;" horiz-adv-x="660" 
d="M139 57q-66 71 -66 204v389h89v-389q0 -93 42 -141.5t126 -48.5q81 0 124.5 48.5t43.5 141.5v389h90v-389q0 -132 -68 -203.5t-190 -71.5q-125 0 -191 71zM172 771h315v-67l-157 7l-158 -7v67z" />
    <glyph glyph-name="umacron" unicode="&#x16b;" 
d="M183.5 116q8.5 -23 27.5 -32t53 -9q60 0 140 56v347h86v-399v-78q-13 -2 -38 -2q-21 0 -34 1l-7 56q-43 -32 -91.5 -51t-94.5 -19q-69 0 -102.5 38t-33.5 116v338h86v-297q0 -42 8.5 -65zM139 639h315v-67l-157 7l-158 -7v67z" />
    <glyph glyph-name="Ubreve" unicode="&#x16c;" horiz-adv-x="660" 
d="M139 57q-66 71 -66 204v389h89v-389q0 -93 42 -141.5t126 -48.5q81 0 124.5 48.5t43.5 141.5v389h90v-389q0 -132 -68 -203.5t-190 -71.5q-125 0 -191 71zM229 734q-38 34 -42 99l59 11q7 -92 83 -92t83 92l59 -11q-4 -65 -42 -99t-100 -34t-100 34z" />
    <glyph glyph-name="ubreve" unicode="&#x16d;" 
d="M183.5 116q8.5 -23 27.5 -32t53 -9q60 0 140 56v347h86v-399v-78q-13 -2 -38 -2q-21 0 -34 1l-7 56q-43 -32 -91.5 -51t-94.5 -19q-69 0 -102.5 38t-33.5 116v338h86v-297q0 -42 8.5 -65zM194 592q-39 36 -43 98l69 8q3 -38 23 -60t52 -22t52.5 21.5t23.5 59.5l67 -7
q-4 -62 -42 -98t-101 -36q-62 0 -101 36z" />
    <glyph glyph-name="Uring" unicode="&#x16e;" horiz-adv-x="660" 
d="M139 57q-66 71 -66 204v389h89v-389q0 -93 42 -141.5t126 -48.5q81 0 124.5 48.5t43.5 141.5v389h90v-389q0 -132 -68 -203.5t-190 -71.5q-125 0 -191 71zM246 699q-31 27 -31 74q0 46 31 72.5t84 26.5t83.5 -26.5t30.5 -72.5q0 -47 -30.5 -74t-83.5 -27t-84 27z
M288.5 739q15.5 -12 42.5 -12q26 0 40.5 12t14.5 34q0 20 -15 32t-40 12q-27 0 -42.5 -12t-15.5 -32q0 -22 15.5 -34z" />
    <glyph glyph-name="uring" unicode="&#x16f;" 
d="M183.5 116q8.5 -23 27.5 -32t53 -9q60 0 140 56v347h86v-399v-78q-13 -2 -38 -2q-21 0 -34 1l-7 56q-43 -32 -91.5 -51t-94.5 -19q-69 0 -102.5 38t-33.5 116v338h86v-297q0 -42 8.5 -65zM213.5 559.5q-31.5 28.5 -31.5 75.5t31.5 75.5t83.5 28.5q51 0 82.5 -28.5
t31.5 -75.5t-31.5 -75.5t-82.5 -28.5q-52 0 -83.5 28.5zM251 593.5q18 -15.5 47 -15.5q28 0 45 15.5t17 41.5t-17 41.5t-45 15.5q-29 0 -47 -15.5t-18 -41.5t18 -41.5z" />
    <glyph glyph-name="Uhungarumlaut" unicode="&#x170;" horiz-adv-x="660" 
d="M139 57q-66 71 -66 204v389h89v-389q0 -93 42 -141.5t126 -48.5q81 0 124.5 48.5t43.5 141.5v389h90v-389q0 -132 -68 -203.5t-190 -71.5q-125 0 -191 71zM340 752l163 124l45 -76l-171 -98zM340 876l45 -76l-170 -98l-38 50z" />
    <glyph glyph-name="uhungarumlaut" unicode="&#x171;" 
d="M183.5 116q8.5 -23 27.5 -32t53 -9q60 0 140 56v347h86v-399v-78q-13 -2 -38 -2q-21 0 -34 1l-7 56q-43 -32 -91.5 -51t-94.5 -19q-69 0 -102.5 38t-33.5 116v338h86v-297q0 -42 8.5 -65zM210 572l-35 24l122 156l66 -39zM473 752l65 -40l-154 -139l-35 24z" />
    <glyph glyph-name="Uogonek" unicode="&#x172;" horiz-adv-x="660" 
d="M139 57q-66 71 -66 204v389h89v-389q0 -93 42 -141.5t126 -48.5q81 0 124.5 48.5t43.5 141.5v389h90v-389q0 -149 -86 -220q-36 -44 -36 -72q0 -37 61 -37q15 0 23 1v-66q-26 -2 -35 -2q-69 0 -98 24.5t-29 62.5q0 17 11 41q-29 -7 -69 -7q-125 0 -191 71z" />
    <glyph glyph-name="uogonek" unicode="&#x173;" 
d="M183.5 116q8.5 -23 27.5 -32t53 -9q60 0 140 56v347h86v-399v-78q-45 -51 -45 -82q0 -37 61 -37q15 0 23 1v-66q-26 -2 -35 -2q-69 0 -98 24.5t-29 62.5q0 23 15.5 49t43.5 48q-3 1 -8 1l-7 56q-43 -32 -91.5 -51t-94.5 -19q-69 0 -102.5 38t-33.5 116v338h86v-297
q0 -42 8.5 -65z" />
    <glyph glyph-name="Wcircumflex" unicode="&#x174;" horiz-adv-x="810" 
d="M35 650h86q29 -156 65.5 -313.5t68.5 -264.5h15q21 63 49 179.5t47 225.5h79q20 -111 47 -225t49 -180h15q32 103 67.5 260t65.5 318h86q-31 -178 -72 -346.5t-84 -303.5h-128q-50 147 -85 320q-37 -174 -86 -320h-127q-99 314 -158 650zM241 739l148 110h32l148 -110
l-37 -48l-127 86l-128 -86z" />
    <glyph glyph-name="wcircumflex" unicode="&#x175;" horiz-adv-x="630" 
d="M26 478h81q37 -213 99 -406q41 107 65 249h89q21 -123 66 -245q60 183 98 402h81q-20 -125 -55.5 -250.5t-75.5 -227.5h-92q-40 97 -66 200q-32 -115 -66 -200h-93q-93 240 -131 478zM161 579l148 120h32l148 -120l-37 -48l-127 91l-128 -91z" />
    <glyph glyph-name="Ycircumflex" unicode="&#x176;" horiz-adv-x="600" 
d="M262 209h-47q-56 106 -103.5 221t-75.5 220h91q44 -174 139 -362h68q91 190 139 362h92q-30 -100 -77.5 -215.5t-101.5 -225.5h-48l9 -209h-94zM137 739l148 110h32l148 -110l-37 -48l-127 86l-128 -86z" />
    <glyph glyph-name="ycircumflex" unicode="&#x177;" horiz-adv-x="490" 
d="M20 478h90q66 -195 131 -370h8q69 184 131 370h91q-53 -166 -172 -451q-58 -136 -127 -232l-71 38q37 52 63 95.5t50 98.5h-22q-130 312 -172 451zM81 579l148 120h32l148 -120l-37 -48l-127 91l-128 -91z" />
    <glyph glyph-name="Ydieresis" unicode="&#x178;" horiz-adv-x="600" 
d="M262 209h-47q-56 106 -103.5 221t-75.5 220h91q44 -174 139 -362h68q91 190 139 362h92q-30 -100 -77.5 -215.5t-101.5 -225.5h-48l9 -209h-94zM154.5 719.5q-16.5 14.5 -16.5 39.5q0 24 16.5 38t45.5 14q28 0 44.5 -14t16.5 -38q0 -25 -16 -39.5t-45 -14.5t-45.5 14.5z
M357 797q17 14 46 14q28 0 44 -14t16 -38q0 -25 -16 -39.5t-44 -14.5q-29 0 -46 14.5t-17 39.5q0 24 17 38z" />
    <glyph glyph-name="Zacute" unicode="&#x179;" horiz-adv-x="530" 
d="M29 68l355 509l-343 -8v81h442v-67l-352 -510l370 7v-80h-472v68zM201 695l-30 56l189 93l33 -83z" />
    <glyph glyph-name="zacute" unicode="&#x17a;" horiz-adv-x="440" 
d="M36 70l259 333l-246 -5v80h356v-69l-264 -335l273 6q2 -26 2 -39q0 -11 -2 -41h-378v70zM204 544l-40 37l132 140q37 -21 66 -54z" />
    <glyph glyph-name="Zdotaccent" unicode="&#x17b;" horiz-adv-x="530" 
d="M29 68l355 509l-343 -8v81h442v-67l-352 -510l370 7v-80h-472v68zM231.5 716q-18.5 16 -18.5 44q0 27 18.5 43t49.5 16t48.5 -16t17.5 -43q0 -28 -17.5 -44t-48.5 -16t-49.5 16z" />
    <glyph glyph-name="zdotaccent" unicode="&#x17c;" horiz-adv-x="440" 
d="M36 70l259 333l-246 -5v80h356v-69l-264 -335l273 6q2 -26 2 -39q0 -11 -2 -41h-378v70zM176.5 600q-18.5 16 -18.5 44q0 27 18.5 43t49.5 16t48.5 -16t17.5 -43q0 -28 -17.5 -44t-48.5 -16t-49.5 16z" />
    <glyph glyph-name="Zcaron" unicode="&#x17d;" horiz-adv-x="530" 
d="M29 68l355 509l-343 -8v81h442v-67l-352 -510l370 7v-80h-472v68zM281 767l127 91l37 -48l-148 -120h-32l-148 120l36 48z" />
    <glyph glyph-name="zcaron" unicode="&#x17e;" horiz-adv-x="440" 
d="M36 70l259 333l-246 -5v80h356v-69l-264 -335l273 6q2 -26 2 -39q0 -11 -2 -41h-378v70zM226 627l127 91l37 -48l-148 -120h-32l-148 120l36 48z" />
    <glyph glyph-name="uni018F" unicode="&#x18f;" horiz-adv-x="680" 
d="M177.5 26.5q-66.5 41.5 -102 118.5t-35.5 182q0 19 3 34h504q-10 103 -75.5 161t-173.5 58q-49 0 -107 -9t-108 -24q-7 28 -15 72q49 22 114.5 34.5t130.5 12.5q101 0 175 -41t113.5 -117.5t39.5 -180.5q0 -105 -37 -182t-106.5 -118.5t-163.5 -41.5q-90 0 -156.5 41.5z
M200 124.5q52 -54.5 134 -54.5q88 0 144 54.5t68 150.5h-409q11 -96 63 -150.5z" />
    <glyph glyph-name="florin" unicode="&#x192;" horiz-adv-x="610" 
d="M19 -175l16 73q49 -18 95 -18q34 0 54 19.5t27 62.5l55 307l-170 -6v85l183 -6l36 204q14 72 51.5 104t99.5 32q65 0 128 -24l-16 -73q-46 17 -95 17q-35 0 -55 -18t-27 -61l-32 -180l194 5l-10 -85l-197 6l-59 -334q-24 -135 -151 -135q-62 0 -127 25z" />
    <glyph glyph-name="uni019D" unicode="&#x19d;" horiz-adv-x="690" 
d="M176 650l337 -510l-5 510h89v-650h-81l-339 509l5 -522q1 -102 -40.5 -146t-105.5 -44q-38 0 -77 14l13 80q35 -10 58 -10q32 0 48 23.5t16 83.5v662h82z" />
    <glyph glyph-name="Ohorn" unicode="&#x1a0;" horiz-adv-x="680" 
d="M187.5 27.5q-65.5 41.5 -101 118t-35.5 179.5t35.5 179.5t101 118t152.5 41.5q60 0 107 -19q31 1 43.5 13t12.5 35q0 16 -7 49l72 9q11 -36 11 -67q0 -64 -48 -91q47 -45 72.5 -113.5t25.5 -154.5q0 -103 -35.5 -179.5t-101 -118t-152.5 -41.5t-152.5 41.5zM165 190
q24 -58 69 -89t105 -31t105 31.5t69.5 89t24.5 134.5t-24.5 135t-69.5 89.5t-105 31.5t-105 -31t-69 -89t-24 -136q0 -77 24 -135z" />
    <glyph glyph-name="ohorn" unicode="&#x1a1;" 
d="M120 54q-61 68 -61 185t61 185t169 68q46 0 86 -14q29 2 41 14t12 34q0 16 -7 49l72 9q11 -36 11 -66q0 -64 -47 -92q63 -68 63 -187q0 -117 -61.5 -185t-169.5 -68t-169 68zM184.5 106.5q36.5 -45.5 103.5 -45.5q69 0 106 45.5t37 132.5q0 88 -37 133t-106 45
q-68 0 -104 -45t-36 -133q0 -87 36.5 -132.5z" />
    <glyph glyph-name="Uhorn" unicode="&#x1af;" horiz-adv-x="660" 
d="M139 57q-66 71 -66 204v389h89v-389q0 -93 42 -141.5t126 -48.5q81 0 124.5 48.5t43.5 141.5v389h40q37 0 51.5 12t14.5 36q0 16 -7 49l72 9q11 -36 11 -67q0 -42 -22 -70t-70 -36v-322q0 -132 -68 -203.5t-190 -71.5q-125 0 -191 71z" />
    <glyph glyph-name="uhorn" unicode="&#x1b0;" 
d="M183.5 116q8.5 -23 27.5 -32t53 -9q60 0 140 56v347h35q37 0 51.5 12t14.5 36q0 16 -7 49l72 9q11 -36 11 -67q0 -42 -22 -70t-69 -36v-332v-78q-13 -2 -38 -2q-21 0 -34 1l-7 56q-43 -32 -91.5 -51t-94.5 -19q-69 0 -102.5 38t-33.5 116v338h86v-297q0 -42 8.5 -65z" />
    <glyph glyph-name="uni01CD" unicode="&#x1cd;" horiz-adv-x="630" 
d="M118 303.5q56 170.5 123 346.5h148q69 -180 123.5 -348.5t87.5 -301.5h-93q-34 126 -48 171h-288q-35 -119 -48 -171h-93q32 133 88 303.5zM440 246q-53 169 -110 322h-30q-67 -183 -110 -322h250zM317 767l127 91l37 -48l-148 -120h-32l-148 120l36 48z" />
    <glyph glyph-name="uni01CE" unicode="&#x1ce;" horiz-adv-x="540" 
d="M299 5q-46 -19 -89 -19q-69 0 -109 39.5t-40 110.5q0 70 34 140q31 2 95 2q87 0 189 -5v21q0 57 -21 88.5t-73 31.5q-67 0 -177 -39l-20 73q116 42 207 42q82 0 125 -40.5t43 -133.5v-245v-71q-18 -2 -33 -2t-37 2l-9 56q-39 -32 -85 -51zM164 82.5q20 -21.5 61 -21.5
q66 0 154 68v74q-93 6 -172 6q-36 0 -52 -1q-11 -33 -11 -67q0 -37 20 -58.5zM279 627l127 91l37 -48l-148 -120h-32l-148 120l36 48z" />
    <glyph glyph-name="uni01CF" unicode="&#x1cf;" horiz-adv-x="450" 
d="M41 79l140 -4v501l-140 -4l3 78h362l2 -78l-138 4v-501l138 4l-2 -79h-362zM225 767l127 91l37 -48l-148 -120h-32l-148 120l36 48z" />
    <glyph glyph-name="uni01D0" unicode="&#x1d0;" horiz-adv-x="305" 
d="M121 407l-98 -14q-1 15 -1 43q0 29 1 42q27 2 96 2q66 0 88 -2v-478h-86v407zM152 627l127 91l37 -48l-148 -120h-32l-148 120l36 48z" />
    <glyph glyph-name="uni01D1" unicode="&#x1d1;" horiz-adv-x="680" 
d="M187.5 27.5q-65.5 41.5 -101 118t-35.5 179.5t35.5 179.5t101 118t152.5 41.5t152.5 -41.5t101 -118t35.5 -179.5t-35.5 -179.5t-101 -118t-152.5 -41.5t-152.5 41.5zM165 190q24 -58 69 -89t105 -31t105 31.5t69.5 89t24.5 134.5t-24.5 135t-69.5 89.5t-105 31.5
t-105 -31t-69 -89t-24 -136q0 -77 24 -135zM339 767l127 91l37 -48l-148 -120h-32l-148 120l36 48z" />
    <glyph glyph-name="uni01D2" unicode="&#x1d2;" 
d="M120 54q-61 68 -61 185t61 185t169 68t169.5 -68t61.5 -185t-61.5 -185t-169.5 -68t-169 68zM184.5 106.5q36.5 -45.5 103.5 -45.5q69 0 106 45.5t37 132.5q0 88 -37 133t-106 45q-68 0 -104 -45t-36 -133q0 -87 36.5 -132.5zM288 627l127 91l37 -48l-148 -120h-32
l-148 120l36 48z" />
    <glyph glyph-name="uni01D3" unicode="&#x1d3;" horiz-adv-x="660" 
d="M139 57q-66 71 -66 204v389h89v-389q0 -93 42 -141.5t126 -48.5q81 0 124.5 48.5t43.5 141.5v389h90v-389q0 -132 -68 -203.5t-190 -71.5q-125 0 -191 71zM330 767l127 91l37 -48l-148 -120h-32l-148 120l36 48z" />
    <glyph glyph-name="uni01D4" unicode="&#x1d4;" 
d="M183.5 116q8.5 -23 27.5 -32t53 -9q60 0 140 56v347h86v-399v-78q-13 -2 -38 -2q-21 0 -34 1l-7 56q-43 -32 -91.5 -51t-94.5 -19q-69 0 -102.5 38t-33.5 116v338h86v-297q0 -42 8.5 -65zM297 627l127 91l37 -48l-148 -120h-32l-148 120l36 48z" />
    <glyph glyph-name="uni01D5" unicode="&#x1d5;" horiz-adv-x="660" 
d="M139 57q-66 71 -66 204v389h89v-389q0 -93 42 -141.5t126 -48.5q81 0 124.5 48.5t43.5 141.5v389h90v-389q0 -132 -68 -203.5t-190 -71.5q-125 0 -191 71zM183.5 719.5q-16.5 14.5 -16.5 39.5q0 24 16.5 38t45.5 14q28 0 44.5 -14t16.5 -38q0 -25 -16 -39.5t-45 -14.5
t-45.5 14.5zM386 797q17 14 46 14q28 0 44 -14t16 -38q0 -25 -16 -39.5t-44 -14.5q-29 0 -46 14.5t-17 39.5q0 24 17 38zM172 919h315v-67l-157 7l-158 -7v67z" />
    <glyph glyph-name="uni01D6" unicode="&#x1d6;" 
d="M183.5 116q8.5 -23 27.5 -32t53 -9q60 0 140 56v347h86v-399v-78q-13 -2 -38 -2q-21 0 -34 1l-7 56q-43 -32 -91.5 -51t-94.5 -19q-69 0 -102.5 38t-33.5 116v338h86v-297q0 -42 8.5 -65zM335 598.5q-17 14.5 -17 39.5q0 24 17 38t46 14q28 0 44 -14t16 -38
q0 -25 -16 -39.5t-44 -14.5q-29 0 -46 14.5zM163.5 676q16.5 14 45.5 14q28 0 44.5 -14t16.5 -38q0 -25 -16 -39.5t-45 -14.5t-45.5 14.5t-16.5 39.5q0 24 16.5 38zM139 788h315v-67l-157 7l-158 -7v67z" />
    <glyph glyph-name="uni01D7" unicode="&#x1d7;" horiz-adv-x="660" 
d="M139 57q-66 71 -66 204v389h89v-389q0 -93 42 -141.5t126 -48.5q81 0 124.5 48.5t43.5 141.5v389h90v-389q0 -132 -68 -203.5t-190 -71.5q-125 0 -191 71zM183.5 719.5q-16.5 14.5 -16.5 39.5q0 24 16.5 38t45.5 14q28 0 44.5 -14t16.5 -38q0 -25 -16 -39.5t-45 -14.5
t-45.5 14.5zM386 797q17 14 46 14q28 0 44 -14t16 -38q0 -25 -16 -39.5t-44 -14.5q-29 0 -46 14.5t-17 39.5q0 24 17 38zM250 843l-30 56l189 93l33 -83z" />
    <glyph glyph-name="uni01D8" unicode="&#x1d8;" 
d="M183.5 116q8.5 -23 27.5 -32t53 -9q60 0 140 56v347h86v-399v-78q-13 -2 -38 -2q-21 0 -34 1l-7 56q-43 -32 -91.5 -51t-94.5 -19q-69 0 -102.5 38t-33.5 116v338h86v-297q0 -42 8.5 -65zM335 598.5q-17 14.5 -17 39.5q0 24 17 38t46 14q28 0 44 -14t16 -38
q0 -25 -16 -39.5t-44 -14.5q-29 0 -46 14.5zM163.5 676q16.5 14 45.5 14q28 0 44.5 -14t16.5 -38q0 -25 -16 -39.5t-45 -14.5t-45.5 14.5t-16.5 39.5q0 24 16.5 38zM275 693l-40 37l132 140q37 -21 66 -54z" />
    <glyph glyph-name="uni01D9" unicode="&#x1d9;" horiz-adv-x="660" 
d="M139 57q-66 71 -66 204v389h89v-389q0 -93 42 -141.5t126 -48.5q81 0 124.5 48.5t43.5 141.5v389h90v-389q0 -132 -68 -203.5t-190 -71.5q-125 0 -191 71zM183.5 719.5q-16.5 14.5 -16.5 39.5q0 24 16.5 38t45.5 14q28 0 44.5 -14t16.5 -38q0 -25 -16 -39.5t-45 -14.5
t-45.5 14.5zM386 797q17 14 46 14q28 0 44 -14t16 -38q0 -25 -16 -39.5t-44 -14.5q-29 0 -46 14.5t-17 39.5q0 24 17 38zM330 915l127 91l37 -48l-148 -120h-32l-148 120l36 48z" />
    <glyph glyph-name="uni01DA" unicode="&#x1da;" 
d="M183.5 116q8.5 -23 27.5 -32t53 -9q60 0 140 56v347h86v-399v-78q-13 -2 -38 -2q-21 0 -34 1l-7 56q-43 -32 -91.5 -51t-94.5 -19q-69 0 -102.5 38t-33.5 116v338h86v-297q0 -42 8.5 -65zM335 598.5q-17 14.5 -17 39.5q0 24 17 38t46 14q28 0 44 -14t16 -38
q0 -25 -16 -39.5t-44 -14.5q-29 0 -46 14.5zM163.5 676q16.5 14 45.5 14q28 0 44.5 -14t16.5 -38q0 -25 -16 -39.5t-45 -14.5t-45.5 14.5t-16.5 39.5q0 24 16.5 38zM297 776l127 91l37 -48l-148 -120h-32l-148 120l36 48z" />
    <glyph glyph-name="uni01DB" unicode="&#x1db;" horiz-adv-x="660" 
d="M139 57q-66 71 -66 204v389h89v-389q0 -93 42 -141.5t126 -48.5q81 0 124.5 48.5t43.5 141.5v389h90v-389q0 -132 -68 -203.5t-190 -71.5q-125 0 -191 71zM183.5 719.5q-16.5 14.5 -16.5 39.5q0 24 16.5 38t45.5 14q28 0 44.5 -14t16.5 -38q0 -25 -16 -39.5t-45 -14.5
t-45.5 14.5zM386 797q17 14 46 14q28 0 44 -14t16 -38q0 -25 -16 -39.5t-44 -14.5q-29 0 -46 14.5t-17 39.5q0 24 17 38zM251 992l189 -93l-30 -56l-192 66z" />
    <glyph glyph-name="uni01DC" unicode="&#x1dc;" 
d="M183.5 116q8.5 -23 27.5 -32t53 -9q60 0 140 56v347h86v-399v-78q-13 -2 -38 -2q-21 0 -34 1l-7 56q-43 -32 -91.5 -51t-94.5 -19q-69 0 -102.5 38t-33.5 116v338h86v-297q0 -42 8.5 -65zM335 598.5q-17 14.5 -17 39.5q0 24 17 38t46 14q28 0 44 -14t16 -38
q0 -25 -16 -39.5t-44 -14.5q-29 0 -46 14.5zM163.5 676q16.5 14 45.5 14q28 0 44.5 -14t16.5 -38q0 -25 -16 -39.5t-45 -14.5t-45.5 14.5t-16.5 39.5q0 24 16.5 38zM227 870l132 -140l-40 -37l-158 123q29 33 66 54z" />
    <glyph glyph-name="Gcaron" unicode="&#x1e6;" horiz-adv-x="640" 
d="M197 25.5q-70 39.5 -108 116t-38 184.5q0 105 37.5 181.5t106.5 116.5t161 40q107 0 197 -44l-14 -71q-90 33 -173 33q-106 0 -164.5 -68.5t-58.5 -186.5q0 -125 62.5 -192t171.5 -67q57 0 113 16l-21 218l87 4l14 -287q-47 -15 -102.5 -24t-105.5 -9q-95 0 -165 39.5z
M374 767l127 91l37 -48l-148 -120h-32l-148 120l36 48z" />
    <glyph glyph-name="gcaron" unicode="&#x1e7;" horiz-adv-x="570" 
d="M90 -172l19 73q84 -30 151 -30q146 0 146 160v32q-33 -24 -74.5 -39t-84.5 -15q-83 0 -137 59.5t-54 175.5q0 115 62 181.5t171 66.5q55 0 108 -16t95 -41v-405q0 -117 -59.5 -175.5t-169.5 -58.5q-84 0 -173 32zM171.5 125.5q28.5 -41.5 84.5 -41.5q40 0 79 16.5
t71 44.5v250q-60 23 -117 23q-69 0 -107.5 -45.5t-38.5 -124.5q0 -81 28.5 -122.5zM282 627l127 91l37 -48l-148 -120h-32l-148 120l36 48z" />
    <glyph glyph-name="uni01E8" unicode="&#x1e8;" horiz-adv-x="595" 
d="M93 563v86q30 1 89 1v-362q89 77 161 175t99 187h92q-46 -150 -173 -293q51 -73 109.5 -173.5t99.5 -183.5h-99q-32 67 -79.5 153t-84.5 147q-63 -61 -125 -105v-195h-89v563zM296 767l127 91l37 -48l-148 -120h-32l-148 120l36 48z" />
    <glyph glyph-name="uni01E9" unicode="&#x1e9;" horiz-adv-x="535" 
d="M326 127q-22 32 -46 70q-52 -49 -105 -85v-112h-86v618v81q38 2 43 2q7 0 43 -2v-489q66 59 123 131t88 137q28 2 48 2t48 -2q-50 -116 -145 -223q93 -126 172 -255h-103q-19 32 -80 127zM132 817l127 91l37 -48l-148 -120h-32l-148 120l36 48z" />
    <glyph glyph-name="uni01EA" unicode="&#x1ea;" horiz-adv-x="680" 
d="M187.5 27.5q-65.5 41.5 -101 118t-35.5 179.5t35.5 179.5t101 118t152.5 41.5t152.5 -41.5t101 -118t35.5 -179.5q0 -93 -29.5 -165.5t-84.5 -115.5l11 -2q-45 -51 -45 -82q0 -37 61 -37q15 0 23 1v-66q-26 -2 -35 -2q-69 0 -98 24.5t-29 62.5q0 26 18 53
q-42 -10 -81 -10q-87 0 -152.5 41.5zM165 190q24 -58 69 -89t105 -31t105 31.5t69.5 89t24.5 134.5t-24.5 135t-69.5 89.5t-105 31.5t-105 -31t-69 -89t-24 -136q0 -77 24 -135z" />
    <glyph glyph-name="uni01EB" unicode="&#x1eb;" 
d="M120 54q-61 68 -61 185t61 185t169 68t169.5 -68t61.5 -185q0 -72 -24 -126t-68 -86q-23 -26 -33.5 -45.5t-10.5 -35.5q0 -37 61 -37q15 0 23 1v-66q-26 -2 -35 -2q-69 0 -98 24.5t-29 62.5q0 28 23 60q-19 -3 -40 -3q-108 0 -169 68zM184.5 106.5
q36.5 -45.5 103.5 -45.5q69 0 106 45.5t37 132.5q0 88 -37 133t-106 45q-68 0 -104 -45t-36 -133q0 -87 36.5 -132.5z" />
    <glyph glyph-name="Aringacute" unicode="&#x1fa;" horiz-adv-x="630" 
d="M115.5 295q53.5 166 118.5 337q-48 26 -48 86q0 29 13 51t36 34l-4 4l112 119q31 -17 56 -46l-81 -64q46 -4 71.5 -30t25.5 -68t-25 -69q144 -381 210 -649h-93q-34 126 -48 171h-288q-35 -119 -48 -171h-93q32 129 85.5 295zM440 246q-53 169 -110 322h-30
q-67 -183 -110 -322h250zM259.5 684q15.5 -12 42.5 -12q26 0 40.5 12t14.5 34q0 20 -15 32t-40 12q-27 0 -42.5 -12t-15.5 -32q0 -22 15.5 -34z" />
    <glyph glyph-name="aringacute" unicode="&#x1fb;" horiz-adv-x="540" 
d="M299 5q-46 -19 -89 -19q-69 0 -109 39.5t-40 110.5q0 70 34 140q31 2 95 2q87 0 189 -5v21q0 57 -21 88.5t-73 31.5q-67 0 -177 -39l-20 73q116 42 207 42q82 0 125 -40.5t43 -133.5v-245v-71q-18 -2 -33 -2t-37 2l-9 56q-39 -32 -85 -51zM164 82.5q20 -21.5 61 -21.5
q66 0 154 68v74q-93 6 -172 6q-36 0 -52 -1q-11 -33 -11 -67q0 -37 20 -58.5zM195.5 559.5q-31.5 28.5 -31.5 75.5t31.5 75.5t83.5 28.5q51 0 82.5 -28.5t31.5 -75.5t-31.5 -75.5t-82.5 -28.5q-52 0 -83.5 28.5zM233 593.5q18 -15.5 47 -15.5q28 0 45 15.5t17 41.5t-17 41.5
t-45 15.5q-29 0 -47 -15.5t-18 -41.5t18 -41.5zM365 901q31 -17 56 -46l-134 -105l-34 32z" />
    <glyph glyph-name="AEacute" unicode="&#x1fc;" horiz-adv-x="860" 
d="M307 650h494l5 -80l-309 5v-204l255 7v-80l-255 5v-228l319 6l-5 -81h-404v160h-227q-34 -82 -63 -160h-94q131 334 284 650zM407 239v344h-43q-81 -171 -152 -344h195zM388 695l-30 56l189 93l33 -83z" />
    <glyph glyph-name="aeacute" unicode="&#x1fd;" horiz-adv-x="840" 
d="M344.5 381q-20.5 32 -64.5 32q-65 0 -169 -38l-21 73q55 22 107.5 32t93.5 10q50 0 81.5 -17.5t46.5 -56.5q28 37 69.5 56.5t91.5 19.5q63 0 111 -30.5t74 -85t26 -124.5q0 -26 -2 -38q-142 -5 -342 -5q7 -72 48 -109.5t111 -37.5q40 0 82.5 8.5t74.5 25.5l14 -71
q-78 -39 -178 -39q-59 0 -108.5 23.5t-80.5 66.5q-100 -90 -202 -90q-63 0 -104 39t-41 109q0 74 33 140h269v20q0 55 -20.5 87zM166 82.5q20 -21.5 61 -21.5q38 0 75 17.5t79 51.5q-11 33 -12 79l-212 -1q-11 -31 -11 -67q0 -37 20 -58.5zM711 277q-7 69 -41.5 105
t-90.5 36q-54 0 -89 -36.5t-42 -107.5q175 0 263 3zM404 544l-40 37l132 140q37 -21 66 -54z" />
    <glyph glyph-name="Oslashacute" unicode="&#x1fe;" horiz-adv-x="680" 
d="M162 46l-63 -81l-58 45l71 90q-61 91 -61 225q0 103 35.5 179.5t101 118t152.5 41.5q101 0 173 -56l62 79l57 -45l-68 -87q65 -88 65 -230q0 -103 -35.5 -179.5t-101 -118t-152.5 -41.5q-106 0 -178 60zM172 176l286 363q-50 42 -119 42q-60 0 -105 -31t-69 -89t-24 -136
q0 -87 31 -149zM339 70q60 0 105 31.5t69.5 89t24.5 134.5q0 92 -34 155l-287 -365q50 -45 122 -45zM280 695l-30 56l189 93l33 -83z" />
    <glyph glyph-name="oslashacute" unicode="&#x1ff;" 
d="M172 13l-28 -40l-74 56l35 43q-46 66 -46 167q0 117 61 185t169 68q63 0 113 -25l27 38l74 -56l-32 -40q49 -66 49 -170q0 -117 -61.5 -185t-169.5 -68q-67 0 -117 27zM163 144l96 117l98 141q-28 15 -69 15q-68 0 -104 -45t-36 -133q0 -56 15 -95zM288 61q69 0 106 45.5
t37 132.5q0 58 -17 100l-100 -123l-97 -138q31 -17 71 -17zM269 544l-40 37l132 140q37 -21 66 -54z" />
    <glyph glyph-name="uni0218" unicode="&#x218;" horiz-adv-x="520" 
d="M35 27l13 73q112 -32 219 -32q60 0 94.5 25.5t34.5 71.5q0 45 -33.5 72.5t-114.5 49.5q-106 29 -154.5 72t-48.5 117q0 89 56.5 136t161.5 47q55 0 99 -6t87 -20q-5 -48 -11 -77q-41 12 -81.5 16.5t-95.5 4.5q-60 0 -93 -24.5t-33 -70.5q0 -42 30 -67t102 -46
q117 -34 167.5 -79.5t50.5 -122.5q0 -87 -56.5 -134t-160.5 -47q-122 0 -233 41zM180 -202l38 158h83l-61 -160z" />
    <glyph glyph-name="uni0219" unicode="&#x219;" horiz-adv-x="435" 
d="M82.5 458q45.5 34 137.5 34q88 0 167 -35q-5 -35 -16 -71q-79 31 -154 31q-94 0 -94 -56q0 -31 22.5 -47.5t85.5 -29.5q68 -13 106 -34t53 -50.5t15 -71.5q0 -68 -48.5 -105t-140.5 -37q-113 0 -189 39l14 72q82 -35 169 -35q53 0 79 15t26 50q0 34 -22 50.5t-80 27.5
q-98 17 -137 55.5t-39 100.5q0 63 45.5 97zM150 -199l38 158h83l-61 -160z" />
    <glyph glyph-name="uni021A" unicode="&#x21a;" horiz-adv-x="510" 
d="M210 570h-195v80h481v-80h-196v-570h-90v570zM178 -199l38 158h83l-61 -160z" />
    <glyph glyph-name="uni021B" unicode="&#x21b;" horiz-adv-x="410" 
d="M153 31q-40 45 -40 155v216l-95 -7v83h99l-5 143h96l-13 -143h191q3 -21 3 -41q0 -19 -3 -42l-187 8v-220q0 -62 24 -91.5t66 -29.5q49 0 110 23q9 -43 11 -61q-32 -17 -69.5 -27.5t-69.5 -10.5q-78 0 -118 45zM179 -204l38 158h83l-61 -160z" />
    <glyph glyph-name="uni0232" unicode="&#x232;" horiz-adv-x="600" 
d="M262 209h-47q-56 106 -103.5 221t-75.5 220h91q44 -174 139 -362h68q91 190 139 362h92q-30 -100 -77.5 -215.5t-101.5 -225.5h-48l9 -209h-94zM143 771h315v-67l-157 7l-158 -7v67z" />
    <glyph glyph-name="uni0233" unicode="&#x233;" horiz-adv-x="490" 
d="M20 478h90q66 -195 131 -370h8q69 184 131 370h91q-53 -166 -172 -451q-58 -136 -127 -232l-71 38q37 52 63 95.5t50 98.5h-22q-130 312 -172 451zM87 639h315v-67l-157 7l-158 -7v67z" />
    <glyph glyph-name="uni0237" unicode="&#x237;" horiz-adv-x="310" 
d="M16 -192q-34 7 -62 18q4 40 13 73q55 -19 102 -19q74 0 74 98v429l-114 -14q-1 15 -1 44q0 28 1 41q22 1 77 1q75 0 119 -2l4 1v-507q0 -89 -40 -129.5t-109 -40.5q-30 0 -64 7z" />
    <glyph glyph-name="uni0259" unicode="&#x259;" horiz-adv-x="535" 
d="M416.5 424.5q65.5 -67.5 65.5 -185.5q0 -76 -27.5 -133.5t-78.5 -88.5t-119 -31q-97 0 -153 66t-56 172q0 25 3 44h350q-7 73 -49.5 110.5t-118.5 37.5q-39 0 -82 -9t-76 -25q-8 44 -15 71q36 18 82 28.5t97 10.5q112 0 177.5 -67.5zM168 95.5q33 -35.5 92 -35.5
t95.5 34.5t45.5 103.5h-272q6 -67 39 -102.5z" />
    <glyph glyph-name="circumflex" unicode="&#x2c6;" horiz-adv-x="590" 
d="M134 580l148 120h32l148 -120l-37 -48l-127 91l-128 -91z" />
    <glyph glyph-name="caron" unicode="&#x2c7;" horiz-adv-x="600" 
d="M298 682l127 91l37 -48l-148 -120h-32l-148 120l36 48z" />
    <glyph glyph-name="breve" unicode="&#x2d8;" horiz-adv-x="630" 
d="M221 607q-37 34 -41 99l59 11q4 -47 24 -69.5t57 -22.5t57.5 22t27.5 70l59 -11q-7 -65 -44.5 -99t-99.5 -34t-99 34z" />
    <glyph glyph-name="dotaccent" unicode="&#x2d9;" horiz-adv-x="630" 
d="M289.5 589.5q-15.5 13.5 -15.5 35.5t15.5 35t41.5 13q25 0 40.5 -13t15.5 -35t-15.5 -35.5t-40.5 -13.5q-26 0 -41.5 13.5z" />
    <glyph glyph-name="ring" unicode="&#x2da;" horiz-adv-x="630" 
d="M248.5 588q-26.5 25 -26.5 67t27 67t71 25t70.5 -25t26.5 -67q0 -43 -26.5 -67.5t-70.5 -24.5q-45 0 -71.5 25zM271 609q18 -17 50 -17q30 0 47.5 17t17.5 46t-17.5 46t-47.5 17q-31 0 -49.5 -17t-18.5 -46t18 -46z" />
    <glyph glyph-name="ogonek" unicode="&#x2db;" horiz-adv-x="630" 
d="M318 -89q0 -21 22 -32t72 -19l-10 -51q-152 10 -152 85q0 24 17 53.5t45 53.5l51 -8q-45 -51 -45 -82z" />
    <glyph glyph-name="tilde" unicode="&#x2dc;" horiz-adv-x="630" 
d="M350 588.5q-18 8.5 -41 24.5q-3 2 -17.5 10.5t-25 13t-17.5 4.5q-18 0 -32 -16.5t-31 -51.5l-36 15q25 58 49 85.5t54 27.5q15 0 32 -8t41 -24q22 -14 36 -21t25 -7q16 0 30.5 17t30.5 51l37 -15q-25 -58 -49 -86t-53 -28q-15 0 -33 8.5z" />
    <glyph glyph-name="hungarumlaut" unicode="&#x2dd;" horiz-adv-x="630" 
d="M238 572l-35 24l122 156l66 -39zM501 752l65 -40l-154 -139l-35 24z" />
    <glyph glyph-name="gravecomb" unicode="&#x300;" horiz-adv-x="0" 
d="M238 721l132 -140l-40 -37l-158 123q29 33 66 54z" />
    <glyph glyph-name="acutecomb" unicode="&#x301;" horiz-adv-x="0" 
d="M179 544l-40 37l132 140q37 -21 66 -54z" />
    <glyph glyph-name="uni0302" unicode="&#x302;" horiz-adv-x="0" 
d="M134 579l148 120h32l148 -120l-37 -48l-127 91l-128 -91z" />
    <glyph glyph-name="tildecomb" unicode="&#x303;" horiz-adv-x="0" 
d="M354 587.5q-19 7.5 -48 22.5q-16 8 -31 14.5t-26 6.5q-19 0 -33.5 -12.5t-31.5 -43.5l-46 25q25 54 49.5 77.5t55.5 23.5q19 0 39 -7.5t47 -21.5q22 -11 34.5 -16t23.5 -5q17 0 32 13t31 43l47 -25q-25 -55 -49.5 -78.5t-54.5 -23.5q-20 0 -39 7.5z" />
    <glyph glyph-name="uni0304" unicode="&#x304;" horiz-adv-x="0" 
d="M153 639h315v-67l-157 7l-158 -7v67z" />
    <glyph glyph-name="uni0306" unicode="&#x306;" horiz-adv-x="0" 
d="M220 592q-39 36 -43 98l69 8q3 -38 23 -60t52 -22t52.5 21.5t23.5 59.5l67 -7q-4 -62 -42 -98t-101 -36q-62 0 -101 36z" />
    <glyph glyph-name="uni0307" unicode="&#x307;" horiz-adv-x="0" 
d="M246.5 600q-18.5 16 -18.5 44q0 27 18.5 43t49.5 16t48.5 -16t17.5 -43q0 -28 -17.5 -44t-48.5 -16t-49.5 16z" />
    <glyph glyph-name="uni0308" unicode="&#x308;" horiz-adv-x="0" 
d="M352 598.5q-17 14.5 -17 39.5q0 24 17 38t46 14q28 0 44 -14t16 -38q0 -25 -16 -39.5t-44 -14.5q-29 0 -46 14.5zM180.5 676q16.5 14 45.5 14q28 0 44.5 -14t16.5 -38q0 -25 -16 -39.5t-45 -14.5t-45.5 14.5t-16.5 39.5q0 24 16.5 38z" />
    <glyph glyph-name="hookabovecomb" unicode="&#x309;" horiz-adv-x="0" 
d="M326.5 599.5q12.5 11.5 12.5 26.5q0 19 -22 27.5t-76 13.5l7 64q71 -6 112 -30t41 -66q0 -35 -24.5 -58.5t-75.5 -42.5l-20 40q33 14 45.5 25.5z" />
    <glyph glyph-name="uni030A" unicode="&#x30a;" horiz-adv-x="0" 
d="M236.5 559.5q-31.5 28.5 -31.5 75.5t31.5 75.5t83.5 28.5q51 0 82.5 -28.5t31.5 -75.5t-31.5 -75.5t-82.5 -28.5q-52 0 -83.5 28.5zM274 593.5q18 -15.5 47 -15.5q28 0 45 15.5t17 41.5t-17 41.5t-45 15.5q-29 0 -47 -15.5t-18 -41.5t18 -41.5z" />
    <glyph glyph-name="uni030B" unicode="&#x30b;" horiz-adv-x="0" 
d="M238 572l-35 24l122 156l66 -39zM501 752l65 -40l-154 -139l-35 24z" />
    <glyph glyph-name="uni030C" unicode="&#x30c;" horiz-adv-x="0" 
d="M285 627l127 91l37 -48l-148 -120h-32l-148 120l36 48z" />
    <glyph glyph-name="uni0312" unicode="&#x312;" horiz-adv-x="0" 
d="M260.5 698q-15.5 -28 -19.5 -51l49 -16q0 -26 -13 -40.5t-37 -14.5q-54 0 -54 50q0 36 22 73.5t59 67.5l29 -20q-20 -21 -35.5 -49z" />
    <glyph glyph-name="uni031B" unicode="&#x31b;" horiz-adv-x="0" 
d="M421 521q0 -50 -31 -79.5t-99 -29.5l-12 70q37 0 51.5 12t14.5 36q0 16 -7 49l72 9q11 -36 11 -67z" />
    <glyph glyph-name="dotbelowcomb" unicode="&#x323;" horiz-adv-x="0" 
d="M255.5 -169q-18.5 16 -18.5 44q0 27 18.5 43t49.5 16t48.5 -16t17.5 -43q0 -28 -17.5 -44t-48.5 -16t-49.5 16z" />
    <glyph glyph-name="uni0326" unicode="&#x326;" horiz-adv-x="0" 
d="M208 -199l38 158h83l-61 -160z" />
    <glyph glyph-name="uni0327" unicode="&#x327;" horiz-adv-x="0" 
d="M227 -167l63 179l60 -2l-42 -191z" />
    <glyph glyph-name="uni0328" unicode="&#x328;" horiz-adv-x="0" 
d="M318 -89q0 -37 61 -37q15 0 23 1v-66q-26 -2 -35 -2q-69 0 -98 24.5t-29 62.5q0 25 19 54.5t53 52.5l51 -8q-45 -51 -45 -82z" />
    <glyph glyph-name="uni032D" unicode="&#x32d;" horiz-adv-x="0" 
d="M158 -184l141 114h30l141 -114l-35 -46l-121 87l-121 -87z" />
    <glyph glyph-name="uni0335" unicode="&#x335;" horiz-adv-x="0" 
d="M503 315h-304v63h304v-63z" />
    <glyph glyph-name="uni0337" unicode="&#x337;" horiz-adv-x="0" 
d="M163 292l254 142l29 -49l-257 -140z" />
    <glyph glyph-name="uni0338" unicode="&#x338;" horiz-adv-x="0" 
d="M87 29l189 232l170 244l74 -56l-189 -233l-170 -243z" />
    <glyph glyph-name="uni0400" unicode="&#x400;" horiz-adv-x="540" 
d="M93 650h394l5 -80l-310 5v-204l256 7v-80l-256 5v-228l320 6l-5 -81h-404v650zM215 844l189 -93l-30 -56l-192 66z" />
    <glyph glyph-name="uni0401" unicode="&#x401;" horiz-adv-x="540" 
d="M93 650h394l5 -80l-310 5v-204l256 7v-80l-256 5v-228l320 6l-5 -81h-404v650zM147.5 719.5q-16.5 14.5 -16.5 39.5q0 24 16.5 38t45.5 14q28 0 44.5 -14t16.5 -38q0 -25 -16 -39.5t-45 -14.5t-45.5 14.5zM350 797q17 14 46 14q28 0 44 -14t16 -38q0 -25 -16 -39.5
t-44 -14.5q-29 0 -46 14.5t-17 39.5q0 24 17 38z" />
    <glyph glyph-name="uni0402" unicode="&#x402;" horiz-adv-x="700" 
d="M399.5 -7q-33.5 7 -77.5 21l13 73q35 -11 60.5 -15.5t51.5 -4.5q52 0 81 34t29 99q0 139 -121 139q-75 0 -156 -26v-313h-89v570h-163v80h484v-80h-232v-177q96 29 175 29q191 0 191 -218q0 -109 -45 -163.5t-130 -54.5q-38 0 -71.5 7z" />
    <glyph glyph-name="uni0403" unicode="&#x403;" horiz-adv-x="510" 
d="M88 650h394l5 -81l-310 7v-576h-89v650zM225 695l-30 56l189 93l33 -83z" />
    <glyph glyph-name="uni0404" unicode="&#x404;" horiz-adv-x="560" 
d="M129 77q-79 91 -79 252q0 104 36 179.5t103.5 115.5t158.5 40q50 0 89 -7t93 -24l-17 -77q-92 25 -160 25q-89 0 -144 -55.5t-65 -155.5l315 6v-80l-316 5q6 -109 61 -170.5t151 -61.5q39 0 82 8t76 18l18 -78q-54 -17 -93.5 -24t-86.5 -7q-143 0 -222 91z" />
    <glyph glyph-name="uni0405" unicode="&#x405;" horiz-adv-x="520" 
d="M35 27l13 73q112 -32 219 -32q60 0 94.5 25.5t34.5 71.5q0 45 -33.5 72.5t-114.5 49.5q-106 29 -154.5 72t-48.5 117q0 89 56.5 136t161.5 47q55 0 99 -6t87 -20q-5 -48 -11 -77q-41 12 -81.5 16.5t-95.5 4.5q-60 0 -93 -24.5t-33 -70.5q0 -42 30 -67t102 -46
q117 -34 167.5 -79.5t50.5 -122.5q0 -87 -56.5 -134t-160.5 -47q-122 0 -233 41z" />
    <glyph glyph-name="uni0406" unicode="&#x406;" horiz-adv-x="450" 
d="M41 79l140 -4v501l-140 -4l3 78h362l2 -78l-138 4v-501l138 4l-2 -79h-362z" />
    <glyph glyph-name="uni0407" unicode="&#x407;" horiz-adv-x="450" 
d="M41 79l140 -4v501l-140 -4l3 78h362l2 -78l-138 4v-501l138 4l-2 -79h-362zM78.5 719.5q-16.5 14.5 -16.5 39.5q0 24 16.5 38t45.5 14q28 0 44.5 -14t16.5 -38q0 -25 -16 -39.5t-45 -14.5t-45.5 14.5zM281 797q17 14 46 14q28 0 44 -14t16 -38q0 -25 -16 -39.5t-44 -14.5
q-29 0 -46 14.5t-17 39.5q0 24 17 38z" />
    <glyph glyph-name="uni0408" unicode="&#x408;" horiz-adv-x="470" 
d="M31 30l15 73q89 -32 149 -32q63 0 90.5 32.5t27.5 109.5v358l-225 -5l5 84h306v-448q0 -114 -49.5 -165t-143.5 -51q-83 0 -175 44z" />
    <glyph glyph-name="uni0409" unicode="&#x409;" horiz-adv-x="940" 
d="M479 569h-234q-6 -257 -26 -374.5t-63 -156.5t-134 -42l-6 85q60 2 86 36.5t37.5 147.5t18.5 385h410v-243h137q100 0 156.5 -52.5t56.5 -148.5q0 -99 -55 -152.5t-154 -53.5h-230v569zM699 81q65 0 98.5 31.5t33.5 95.5q0 58 -34 88.5t-99 30.5h-130v-246h131z" />
    <glyph glyph-name="uni040A" unicode="&#x40a;" horiz-adv-x="930" 
d="M480 300h-297v-300h-89v650h89v-272h297v272h89v-270h127q95 0 151 -50.5t56 -138.5t-54 -139.5t-149 -51.5h-220v300zM690 79q60 0 96 30t36 81t-36 82t-97 31h-120v-224h121z" />
    <glyph glyph-name="uni040B" unicode="&#x40b;" horiz-adv-x="670" 
d="M176 570h-168v80h484v-80h-227v-189q44 17 105.5 29t108.5 12q53 0 82.5 -17.5t41.5 -53.5t12 -98v-253h-88v218q0 67 -24 94t-82 27q-74 0 -156 -13v-326h-89v570z" />
    <glyph glyph-name="uni040C" unicode="&#x40c;" horiz-adv-x="590" 
d="M88 650h89v-274h138q43 61 78 135t54 139h88q-22 -83 -59.5 -164.5t-87.5 -152.5l169 -333h-96l-151 300h-133v-300h-89v650zM215 695l-30 56l189 93l33 -83z" />
    <glyph glyph-name="uni040D" unicode="&#x40d;" horiz-adv-x="690" 
d="M508 0l5 509l-339 -509h-81v650h89l-5 -508l337 508h82v-650h-88zM266 844l189 -93l-30 -56l-192 66z" />
    <glyph glyph-name="uni040E" unicode="&#x40e;" horiz-adv-x="570" 
d="M49 1l5 78q27 -6 60 -6q49 0 82.5 29t73.5 99h-22q-71 84 -120 203.5t-78 245.5h87q25 -101 63.5 -198.5t90.5 -167.5h25q44 85 81.5 188t53.5 178h86q-16 -86 -60.5 -209t-98.5 -221q-66 -120 -123.5 -173.5t-134.5 -53.5q-39 0 -71 8zM187 764q-39 36 -43 98l69 8
q3 -38 23 -60t52 -22t52.5 21.5t23.5 59.5l67 -7q-4 -62 -42 -98t-101 -36q-62 0 -101 36z" />
    <glyph glyph-name="uni040F" unicode="&#x40f;" horiz-adv-x="710" 
d="M623 650v-650h-233l3 -128h-79l4 128h-230v650h89v-571h357v571h89z" />
    <glyph glyph-name="uni0410" unicode="&#x410;" horiz-adv-x="630" 
d="M118 303.5q56 170.5 123 346.5h148q69 -180 123.5 -348.5t87.5 -301.5h-93q-34 126 -48 171h-288q-35 -119 -48 -171h-93q32 133 88 303.5zM440 246q-53 169 -110 322h-30q-67 -183 -110 -322h250z" />
    <glyph glyph-name="uni0411" unicode="&#x411;" horiz-adv-x="610" 
d="M88 650h394l5 -81l-310 7v-190h136q111 0 174.5 -50t63.5 -133q0 -96 -61.5 -149.5t-170.5 -53.5h-231v650zM314 80q68 0 106.5 32.5t38.5 90.5q0 52 -38.5 82.5t-106.5 30.5h-137v-236h137z" />
    <glyph glyph-name="uni0412" unicode="&#x412;" horiz-adv-x="610" 
d="M93 563v87h89h128q99 0 151.5 -45.5t52.5 -126.5q0 -41 -19.5 -78t-53.5 -57q53 -12 83 -52t30 -97q0 -93 -55.5 -143.5t-160.5 -50.5h-245v563zM329 71q66 0 102.5 31.5t36.5 87.5q0 55 -36.5 81t-114.5 27l-135 1v-228h147zM322 367q35 0 60 16t37.5 40t12.5 48
q0 52 -33 80t-97 28h-120v-212h140z" />
    <glyph glyph-name="uni0413" unicode="&#x413;" horiz-adv-x="510" 
d="M88 650h394l5 -81l-310 7v-576h-89v650z" />
    <glyph glyph-name="uni0414" unicode="&#x414;" horiz-adv-x="680" 
d="M108 -128h-79v209q56 7 82 41t39 151t14 377h427v-569h63v-209h-80l7 128h-480zM502 81v491h-254q-1 -222 -14 -330t-51 -161h319z" />
    <glyph glyph-name="uni0415" unicode="&#x415;" horiz-adv-x="540" 
d="M93 650h394l5 -80l-310 5v-204l256 7v-80l-256 5v-228l320 6l-5 -81h-404v650z" />
    <glyph glyph-name="uni0416" unicode="&#x416;" horiz-adv-x="790" 
d="M352 300h-99l-103 -300h-94l118 335q-33 72 -58.5 155t-37.5 159h90q10 -66 32 -138t51 -135h101v273h87v-273h102q29 63 50.5 135.5t31.5 137.5h89q-23 -158 -96 -314l119 -335h-94l-103 300h-99v-300h-87v300z" />
    <glyph glyph-name="uni0417" unicode="&#x417;" horiz-adv-x="540" 
d="M127 -4q-53 10 -108 32l15 73q46 -16 91.5 -24.5t100.5 -8.5q84 0 129.5 32.5t45.5 87.5q0 54 -41.5 86t-111.5 35l-107 -7v73l107 -6q65 4 98.5 32.5t33.5 73.5q0 49 -37 78t-113 29q-91 0 -170 -34l-16 71q94 45 203 45t165.5 -47t56.5 -132q0 -46 -21 -84t-63 -60
q51 -23 78 -64t27 -94q0 -90 -66 -143.5t-183 -53.5q-61 0 -114 10z" />
    <glyph glyph-name="uni0418" unicode="&#x418;" horiz-adv-x="690" 
d="M508 0l5 509l-339 -509h-81v650h89l-5 -508l337 508h82v-650h-88z" />
    <glyph glyph-name="uni0419" unicode="&#x419;" horiz-adv-x="690" 
d="M508 0l5 509l-339 -509h-81v650h89l-5 -508l337 508h82v-650h-88zM242 764q-39 36 -43 98l69 8q3 -38 23 -60t52 -22t52.5 21.5t23.5 59.5l67 -7q-4 -62 -42 -98t-101 -36q-62 0 -101 36z" />
    <glyph glyph-name="uni041A" unicode="&#x41a;" horiz-adv-x="590" 
d="M88 650h89v-274h138q43 61 78 135t54 139h88q-22 -83 -59.5 -164.5t-87.5 -152.5l169 -333h-96l-151 300h-133v-300h-89v650z" />
    <glyph glyph-name="uni041B" unicode="&#x41b;" horiz-adv-x="720" 
d="M544 572h-294q-6 -259 -26 -376.5t-64 -157t-138 -42.5l-6 85q63 2 89.5 36.5t38.5 147.5t19 385h470v-650h-89v572z" />
    <glyph glyph-name="uni041C" unicode="&#x41c;" horiz-adv-x="760" 
d="M354 183l-183 316l5 -499h-84v650h77l211 -361l210 361h78v-650h-84l4 499l-183 -316h-51z" />
    <glyph glyph-name="uni041D" unicode="&#x41d;" horiz-adv-x="690" 
d="M508 290h-325v-290h-89v650h89v-282h325v282h89v-650h-89v290z" />
    <glyph glyph-name="uni041E" unicode="&#x41e;" horiz-adv-x="680" 
d="M187.5 27.5q-65.5 41.5 -101 118t-35.5 179.5t35.5 179.5t101 118t152.5 41.5t152.5 -41.5t101 -118t35.5 -179.5t-35.5 -179.5t-101 -118t-152.5 -41.5t-152.5 41.5zM165 190q24 -58 69 -89t105 -31t105 31.5t69.5 89t24.5 134.5t-24.5 135t-69.5 89.5t-105 31.5
t-105 -31t-69 -89t-24 -136q0 -77 24 -135z" />
    <glyph glyph-name="uni041F" unicode="&#x41f;" horiz-adv-x="680" 
d="M504 572h-327v-572h-89v650h505v-650h-89v572z" />
    <glyph glyph-name="uni0420" unicode="&#x420;" 
d="M93 563v87h89h126q109 0 168.5 -56.5t59.5 -159.5q0 -100 -58.5 -152.5t-164.5 -58.5l-131 -8v-215h-89v563zM308 300q70 4 105 38t35 96q0 66 -37 101t-103 35h-126v-278z" />
    <glyph glyph-name="uni0421" unicode="&#x421;" horiz-adv-x="560" 
d="M129 77q-79 91 -79 252q0 104 36 179.5t103.5 115.5t158.5 40q50 0 89 -7t93 -24l-17 -77q-33 9 -63 15q-56 10 -97 10q-98 0 -154.5 -66.5t-56.5 -184.5q0 -122 55.5 -191.5t157.5 -69.5q39 0 82 8t76 18l18 -78q-54 -17 -93.5 -24t-86.5 -7q-143 0 -222 91z" />
    <glyph glyph-name="uni0422" unicode="&#x422;" horiz-adv-x="510" 
d="M210 570h-195v80h481v-80h-196v-570h-90v570z" />
    <glyph glyph-name="uni0423" unicode="&#x423;" horiz-adv-x="570" 
d="M49 1l5 78q27 -6 60 -6q49 0 82.5 29t73.5 99h-22q-71 84 -120 203.5t-78 245.5h87q25 -101 63.5 -198.5t90.5 -167.5h25q44 85 81.5 188t53.5 178h86q-16 -86 -60.5 -209t-98.5 -221q-66 -120 -123.5 -173.5t-134.5 -53.5q-39 0 -71 8z" />
    <glyph glyph-name="uni0424" unicode="&#x424;" horiz-adv-x="690" 
d="M302 59q-126 10 -190.5 75.5t-64.5 185.5q0 122 64.5 189t190.5 76v69h86v-68q127 -10 191.5 -77t64.5 -189q0 -120 -64.5 -185.5t-191.5 -75.5v-68h-86v68zM179.5 195q41.5 -46 122.5 -57v368q-164 -24 -164 -186q0 -79 41.5 -125zM511.5 195q41.5 46 41.5 125
q0 162 -165 186v-368q82 11 123.5 57z" />
    <glyph glyph-name="uni0425" unicode="&#x425;" horiz-adv-x="660" 
d="M261 338q-122 169 -189 312h99q27 -62 69.5 -134.5t90.5 -139.5q96 135 159 274h99q-55 -121 -189 -312q134 -187 205 -338h-99q-75 156 -175 293q-108 -150 -176 -293h-99q75 156 205 338z" />
    <glyph glyph-name="uni0426" unicode="&#x426;" horiz-adv-x="680" 
d="M75 650h89v-569h318v569h89v-569h52v-209h-89l8 128h-467v650z" />
    <glyph glyph-name="uni0427" unicode="&#x427;" horiz-adv-x="590" 
d="M89 287.5q-36 39.5 -36 129.5v233h88v-197q0 -66 23.5 -94t77.5 -28q73 0 166 29v290h89v-650h-89v284q-47 -16 -101 -26t-98 -10q-84 0 -120 39.5z" />
    <glyph glyph-name="uni0428" unicode="&#x428;" horiz-adv-x="850" 
d="M69 650h88v-569h225v569h88v-569h224v569h88v-650h-713v650z" />
    <glyph glyph-name="uni0429" unicode="&#x429;" horiz-adv-x="860" 
d="M69 650h89v-569h218v569h89v-569h218v569h89v-569h52v-209h-89l8 128h-674v650z" />
    <glyph glyph-name="uni042A" unicode="&#x42a;" horiz-adv-x="690" 
d="M190 578l-164 -13v85h253v-243h162q110 0 168.5 -52t58.5 -149q0 -100 -57 -153t-166 -53h-255v578zM435 79q71 0 109 31.5t38 92.5q0 62 -37.5 94t-110.5 32h-155v-250h156z" />
    <glyph glyph-name="uni042B" unicode="&#x42b;" horiz-adv-x="850" 
d="M88 650h89v-243h147q110 0 168.5 -52t58.5 -149q0 -100 -57 -153t-166 -53h-240v650zM318 79q71 0 109 31.5t38 92.5q0 62 -37.5 94t-110.5 32h-140v-250h141zM664 650h89v-650h-89v650z" />
    <glyph glyph-name="uni042C" unicode="&#x42c;" horiz-adv-x="610" 
d="M94 650h89v-243h177q110 0 168.5 -52t58.5 -149q0 -100 -57 -153t-166 -53h-270v650zM354 79q72 0 109.5 32.5t37.5 96.5q0 58 -38 89.5t-110 31.5h-170v-250h171z" />
    <glyph glyph-name="uni042D" unicode="&#x42d;" horiz-adv-x="560" 
d="M122.5 -7q-39.5 7 -93.5 24l18 78q33 -10 76 -18t82 -8q96 0 151 61.5t61 170.5l-316 -5v80l315 -6q-10 100 -65 155.5t-144 55.5q-68 0 -160 -25l-17 77q54 17 93 24t89 7q91 0 158.5 -40t103.5 -115.5t36 -179.5q0 -161 -79 -252t-222 -91q-47 0 -86.5 7z" />
    <glyph glyph-name="uni042E" unicode="&#x42e;" horiz-adv-x="980" 
d="M91 650h89v-282h150q12 138 95 217t216 79q94 0 164.5 -41t109 -118t38.5 -180t-38.5 -180t-109 -118t-164.5 -41q-89 0 -157.5 37t-108.5 105.5t-46 161.5h-149v-290h-89v650zM446.5 190.5q27.5 -57.5 77.5 -88.5t116 -31q67 0 117 31t77 88.5t27 134.5t-27.5 135
t-77.5 89t-116 31t-116 -31t-77.5 -89t-27.5 -135t27.5 -134.5z" />
    <glyph glyph-name="uni042F" unicode="&#x42f;" horiz-adv-x="606" 
d="M276 240q-56 -92 -113 -240h-95q64 146 134 256q-66 23 -102 72t-36 115q0 96 61.5 151.5t168.5 55.5h136h89v-87v-563h-89v230l-136 8zM192.5 352q37.5 -35 102.5 -39l135 -8v265h-136q-65 0 -102 -34t-37 -93q0 -56 37.5 -91z" />
    <glyph glyph-name="uni0430" unicode="&#x430;" horiz-adv-x="540" 
d="M299 5q-46 -19 -89 -19q-69 0 -109 39.5t-40 110.5q0 70 34 140q31 2 95 2q87 0 189 -5v21q0 57 -21 88.5t-73 31.5q-67 0 -177 -39l-20 73q116 42 207 42q82 0 125 -40.5t43 -133.5v-245v-71q-18 -2 -33 -2t-37 2l-9 56q-39 -32 -85 -51zM164 82.5q20 -21.5 61 -21.5
q66 0 154 68v74q-93 6 -172 6q-36 0 -52 -1q-11 -33 -11 -67q0 -37 20 -58.5z" />
    <glyph glyph-name="uni0431" unicode="&#x431;" 
d="M56 284q0 121 16 194t61.5 119t133.5 68q78 20 191 33l7 -78q-61 -8 -101.5 -15t-76.5 -18q-47 -13 -74.5 -30t-44 -50t-22.5 -92q98 44 200 44q91 0 139.5 -58t48.5 -168q0 -113 -61.5 -180t-178.5 -67q-238 0 -238 298zM179 114.5q39 -54.5 118 -54.5q71 0 111 44.5
t40 119.5q0 78 -32 116.5t-103 38.5q-79 0 -172 -38q-1 -17 -1 -57q0 -115 39 -169.5z" />
    <glyph glyph-name="uni0432" unicode="&#x432;" horiz-adv-x="550" 
d="M90 478h221q78 0 119 -28.5t41 -81.5q0 -57 -54 -104q44 -15 67.5 -46t23.5 -76q0 -65 -46.5 -103.5t-140.5 -38.5h-231v478zM320 66q50 0 76 21t26 58q0 36 -27.5 54.5t-79.5 18.5h-144v-152h149zM319 279q12 0 36 -2q37 33 37 72q0 32 -24.5 47.5t-68.5 15.5h-128v-133
h148z" />
    <glyph glyph-name="uni0433" unicode="&#x433;" horiz-adv-x="450" 
d="M90 478h339v-85l-253 9v-402h-86v478z" />
    <glyph glyph-name="uni0434" unicode="&#x434;" horiz-adv-x="600" 
d="M107.5 105q20.5 24 28.5 104.5t10 268.5h359v-398h55v-208h-80l7 128h-375l7 -128h-79v208q47 1 67.5 25zM419 80v319h-195q-1 -134 -8.5 -207t-28.5 -112h232z" />
    <glyph glyph-name="uni0435" unicode="&#x435;" horiz-adv-x="535" 
d="M118.5 53.5q-65.5 67.5 -65.5 185.5q0 76 27.5 133.5t78.5 88.5t119 31q97 0 153 -66t56 -172q0 -24 -3 -44h-350q7 -73 49.5 -110.5t118.5 -37.5q39 0 82 9t76 25q8 -44 15 -71q-36 -18 -82 -28.5t-97 -10.5q-112 0 -177.5 67.5zM406 280q-6 67 -39 102.5t-92 35.5
t-95.5 -34.5t-45.5 -103.5h272z" />
    <glyph glyph-name="uni0436" unicode="&#x436;" horiz-adv-x="650" 
d="M133 255q-71 118 -103 223h98q43 -124 80 -192h74v192h86v-192h73q37 68 80 192h97q-33 -108 -103 -223l121 -255h-99l-93 208h-76v-208h-86v208h-78l-92 -208h-99z" />
    <glyph glyph-name="uni0437" unicode="&#x437;" horiz-adv-x="430" 
d="M32 18l12 68q67 -23 145 -23q69 0 103.5 21.5t34.5 59.5q0 77 -107 80l-105 -4v68l105 -5q46 2 68 21t22 47q0 29 -25 47.5t-84 18.5q-77 0 -139 -25l-12 67q43 18 83 25.5t86 7.5q86 0 130 -34t44 -91q0 -68 -50 -107q35 -20 50.5 -49.5t15.5 -69.5q0 -72 -52 -113.5
t-150 -41.5t-175 32z" />
    <glyph glyph-name="uni0438" unicode="&#x438;" horiz-adv-x="630" 
d="M446 0v353l-269 -353h-76v478h84v-350l268 350h77v-478h-84z" />
    <glyph glyph-name="uni0439" unicode="&#x439;" horiz-adv-x="630" 
d="M446 0v353l-269 -353h-76v478h84v-350l268 350h77v-478h-84zM212 592q-39 36 -43 98l69 8q3 -38 23 -60t52 -22t52.5 21.5t23.5 59.5l67 -7q-4 -62 -42 -98t-101 -36q-62 0 -101 36z" />
    <glyph glyph-name="uni043A" unicode="&#x43a;" horiz-adv-x="530" 
d="M278 208h-106v-208h-86v478h86v-192h105q40 42 68 92.5t38 99.5h88q-10 -56 -40.5 -116t-77.5 -115l160 -247h-99z" />
    <glyph glyph-name="uni043B" unicode="&#x43b;" horiz-adv-x="610" 
d="M445 399h-215q-2 -166 -17.5 -249t-55 -117.5t-119.5 -37.5l-5 79q54 5 75.5 30t29 103t9.5 271h384v-478h-86v399z" />
    <glyph glyph-name="uni043C" unicode="&#x43c;" horiz-adv-x="680" 
d="M324 104l-151 234v-338h-78v478h74l171 -265l171 265h74v-478h-78v338l-150 -234h-33z" />
    <glyph glyph-name="uni043D" unicode="&#x43d;" horiz-adv-x="590" 
d="M415 210h-239v-210h-86v478h86v-189h239v189h86v-478h-86v210z" />
    <glyph glyph-name="uni043E" unicode="&#x43e;" 
d="M120 54q-61 68 -61 185t61 185t169 68t169.5 -68t61.5 -185t-61.5 -185t-169.5 -68t-169 68zM184.5 106.5q36.5 -45.5 103.5 -45.5q69 0 106 45.5t37 132.5q0 88 -37 133t-106 45q-68 0 -104 -45t-36 -133q0 -87 36.5 -132.5z" />
    <glyph glyph-name="uni043F" unicode="&#x43f;" horiz-adv-x="610" 
d="M425 399h-239v-399h-86v478h411v-478h-86v399z" />
    <glyph glyph-name="uni0440" unicode="&#x440;" horiz-adv-x="588" 
d="M440.5 463q41.5 -29 65.5 -84t24 -130q0 -82 -29 -141t-81 -90t-121 -31q-55 0 -120 25v-202h-86v668q34 2 38 2q5 0 35 -2l6 -56q38 32 82.5 51t91.5 19q53 0 94.5 -29zM298 60q65 0 104.5 50t39.5 140q0 77 -34.5 122.5t-86.5 45.5q-33 0 -70.5 -18t-71.5 -45v-267
q73 -28 119 -28z" />
    <glyph glyph-name="uni0441" unicode="&#x441;" horiz-adv-x="480" 
d="M115 54q-61 68 -61 187q0 77 28.5 134t80 87t119.5 30q34 0 76.5 -9t84.5 -29q-4 -38 -12 -74q-33 12 -47 16q-53 17 -89 17q-71 0 -112 -45.5t-41 -125.5q0 -85 40 -131t113 -46q29 0 70.5 11t65.5 22q4 -15 7.5 -39.5t4.5 -33.5q-79 -39 -162 -39q-105 0 -166 68z" />
    <glyph glyph-name="uni0442" unicode="&#x442;" horiz-adv-x="470" 
d="M191 398h-168v80h424v-80h-167v-398h-89v398z" />
    <glyph glyph-name="uni0443" unicode="&#x443;" horiz-adv-x="490" 
d="M20 478h90q66 -195 131 -370h8q69 184 131 370h91q-53 -166 -172 -451q-58 -136 -127 -232l-71 38q37 52 63 95.5t50 98.5h-22q-130 312 -172 451z" />
    <glyph glyph-name="uni0444" unicode="&#x444;" horiz-adv-x="650" 
d="M287 -14q-106 5 -169 72t-63 181t63 181t169 72v208h76v-208q107 -5 170 -72t63 -181t-63 -181t-170 -72v-176h-76v176zM173.5 109q39.5 -44 113.5 -49v359q-74 -4 -113.5 -48.5t-39.5 -131.5q0 -86 39.5 -130zM477 109q40 44 40 130q0 87 -40 131.5t-114 49.5v-360
q74 5 114 49z" />
    <glyph glyph-name="uni0445" unicode="&#x445;" horiz-adv-x="530" 
d="M98 79q68 103 108 161q-5 9 -34 53q-61 93 -117 185h96q39 -76 114 -197q77 124 115 197h94q-64 -107 -150 -238q77 -110 159 -240h-96q-43 77 -122 194q-65 -95 -123 -194h-95q17 25 51 79z" />
    <glyph glyph-name="uni0446" unicode="&#x446;" horiz-adv-x="586" 
d="M90 478h86v-398h229v398h86v-398h55v-208h-80l7 128h-383v478z" />
    <glyph glyph-name="uni0447" unicode="&#x447;" horiz-adv-x="520" 
d="M83.5 199q-37.5 38 -37.5 116v163h86v-112q0 -45 6 -69.5t23.5 -36t51.5 -11.5q45 0 141 17v212h86v-478h-86v188q-93 -27 -157 -27q-76 0 -113.5 38z" />
    <glyph glyph-name="uni0448" unicode="&#x448;" horiz-adv-x="770" 
d="M97 478h86v-398h159v398h86v-398h159v398h86v-478h-576v478z" />
    <glyph glyph-name="uni0449" unicode="&#x449;" horiz-adv-x="755" 
d="M90 478h86v-398h156v398h86v-398h156v398h86v-398h55v-208h-80l7 128h-552v478z" />
    <glyph glyph-name="uni044A" unicode="&#x44a;" horiz-adv-x="630" 
d="M175 404l-149 -5v79h235v-144h129q95 0 144 -42t49 -126q0 -83 -48 -124.5t-140 -41.5h-220v404zM384 71q55 0 84 24.5t29 72.5q0 47 -30.5 71t-87.5 24h-118v-192h123z" />
    <glyph glyph-name="uni044B" unicode="&#x44b;" horiz-adv-x="800" 
d="M100 478h86v-149h129q93 0 143 -41t50 -123q0 -78 -46.5 -121.5t-141.5 -43.5h-220v478zM314 71q51 0 79.5 24t28.5 70q0 93 -113 93h-123v-187h128zM623 478h86v-478h-86v478z" />
    <glyph glyph-name="uni044C" unicode="&#x44c;" horiz-adv-x="570" 
d="M100 478h86v-149h144q93 0 143 -41t50 -123q0 -78 -46.5 -121.5t-141.5 -43.5h-235v478zM329 71q51 0 79.5 24t28.5 70q0 93 -113 93h-138v-187h143z" />
    <glyph glyph-name="uni044D" unicode="&#x44d;" horiz-adv-x="525" 
d="M132 -4q-46 10 -81 28l12 61q37 -10 78 -16.5t72 -6.5q80 0 125.5 40t52.5 113l-232 -4v70l231 -5q-9 66 -53.5 103t-118.5 37q-33 0 -79 -7t-71 -16l-12 61q37 19 84 28.5t91 9.5q116 0 182.5 -66.5t66.5 -184.5q0 -119 -67.5 -187t-185.5 -68q-49 0 -95 10z" />
    <glyph glyph-name="uni044E" unicode="&#x44e;" horiz-adv-x="780" 
d="M103 478h81v-195h93q11 98 70 153.5t151 55.5q107 0 167.5 -66.5t60.5 -186.5t-60.5 -186.5t-167.5 -66.5q-95 0 -154.5 59t-67.5 162h-92v-207h-81v478zM397 107.5q38 -46.5 101 -46.5t101 46.5t38 131.5q0 86 -38 132.5t-101 46.5t-101 -46.5t-38 -132.5
q0 -85 38 -131.5z" />
    <glyph glyph-name="uni044F" unicode="&#x44f;" horiz-adv-x="550" 
d="M268 173l-103 -173h-95l118 187q-44 16 -67 51t-23 88q0 70 46 111t145 41h172v-478h-86v173h-97h-10zM199.5 264q24.5 -20 77.5 -20h98v162h-98q-102 0 -102 -81q0 -41 24.5 -61z" />
    <glyph glyph-name="uni0450" unicode="&#x450;" horiz-adv-x="535" 
d="M118.5 53.5q-65.5 67.5 -65.5 185.5q0 76 27.5 133.5t78.5 88.5t119 31q97 0 153 -66t56 -172q0 -24 -3 -44h-350q7 -73 49.5 -110.5t118.5 -37.5q39 0 82 9t76 25q8 -44 15 -71q-36 -18 -82 -28.5t-97 -10.5q-112 0 -177.5 67.5zM406 280q-6 67 -39 102.5t-92 35.5
t-95.5 -34.5t-45.5 -103.5h272zM203 721l132 -140l-40 -37l-158 123q29 33 66 54z" />
    <glyph glyph-name="uni0451" unicode="&#x451;" horiz-adv-x="535" 
d="M118.5 53.5q-65.5 67.5 -65.5 185.5q0 76 27.5 133.5t78.5 88.5t119 31q97 0 153 -66t56 -172q0 -24 -3 -44h-350q7 -73 49.5 -110.5t118.5 -37.5q39 0 82 9t76 25q8 -44 15 -71q-36 -18 -82 -28.5t-97 -10.5q-112 0 -177.5 67.5zM406 280q-6 67 -39 102.5t-92 35.5
t-95.5 -34.5t-45.5 -103.5h272zM311 598.5q-17 14.5 -17 39.5q0 24 17 38t46 14q28 0 44 -14t16 -38q0 -25 -16 -39.5t-44 -14.5q-29 0 -46 14.5zM139.5 676q16.5 14 45.5 14q28 0 44.5 -14t16.5 -38q0 -25 -16 -39.5t-45 -14.5t-45.5 14.5t-16.5 39.5q0 24 16.5 38z" />
    <glyph glyph-name="uni0452" unicode="&#x452;" horiz-adv-x="610" 
d="M271.5 -193.5q-35.5 5.5 -64.5 15.5l13 68q57 -15 97 -15q54 0 83 29.5t29 98.5v285q0 63 -20.5 89.5t-71.5 26.5q-62 0 -155 -49v-355h-86v579h-57v53h57v68q13 2 46 2q28 0 40 -1v-69h161v-53h-161v-147q105 60 198 60q71 0 103 -37.5t32 -116.5v-342q0 -195 -177 -195
q-31 0 -66.5 5.5z" />
    <glyph glyph-name="uni0453" unicode="&#x453;" horiz-adv-x="450" 
d="M90 478h339v-85l-253 9v-402h-86v478zM238 544l-40 37l132 140q37 -21 66 -54z" />
    <glyph glyph-name="uni0454" unicode="&#x454;" horiz-adv-x="525" 
d="M117.5 54q-67.5 68 -67.5 187q0 118 66.5 184.5t182.5 66.5q44 0 91 -9.5t84 -28.5l-12 -61q-25 9 -71 16t-79 7q-74 0 -118.5 -37t-53.5 -103l231 5v-70l-232 4q7 -73 52.5 -113t125.5 -40q31 0 72 6.5t78 16.5l12 -61q-35 -18 -81 -28t-95 -10q-118 0 -185.5 68z" />
    <glyph glyph-name="uni0455" unicode="&#x455;" horiz-adv-x="435" 
d="M82.5 458q45.5 34 137.5 34q88 0 167 -35q-5 -35 -16 -71q-79 31 -154 31q-94 0 -94 -56q0 -31 22.5 -47.5t85.5 -29.5q68 -13 106 -34t53 -50.5t15 -71.5q0 -68 -48.5 -105t-140.5 -37q-113 0 -189 39l14 72q82 -35 169 -35q53 0 79 15t26 50q0 34 -22 50.5t-80 27.5
q-98 17 -137 55.5t-39 100.5q0 63 45.5 97z" />
    <glyph glyph-name="uni0456" unicode="&#x456;" horiz-adv-x="305" 
d="M121 407l-98 -14q-1 15 -1 43q0 29 1 42q27 2 96 2q66 0 88 -2v-478h-86v407zM102.5 596q-18.5 16 -18.5 44q0 27 18.5 43t49.5 16t48.5 -16t17.5 -43q0 -28 -17.5 -44t-48.5 -16t-49.5 16z" />
    <glyph glyph-name="uni0457" unicode="&#x457;" horiz-adv-x="305" 
d="M121 407l-98 -14q-1 15 -1 43q0 29 1 42q27 2 96 2q66 0 88 -2v-478h-86v407zM190 598.5q-17 14.5 -17 39.5q0 24 17 38t46 14q28 0 44 -14t16 -38q0 -25 -16 -39.5t-44 -14.5q-29 0 -46 14.5zM18.5 676q16.5 14 45.5 14q28 0 44.5 -14t16.5 -38q0 -25 -16 -39.5
t-45 -14.5t-45.5 14.5t-16.5 39.5q0 24 16.5 38z" />
    <glyph glyph-name="uni0458" unicode="&#x458;" horiz-adv-x="310" 
d="M16 -192q-34 7 -62 18q4 40 13 73q55 -19 102 -19q74 0 74 98v429l-114 -14q-1 15 -1 44q0 28 1 41q22 1 77 1q75 0 119 -2l4 1v-507q0 -89 -40 -129.5t-109 -40.5q-30 0 -64 7zM125.5 596q-18.5 16 -18.5 44q0 27 18.5 43t49.5 16t48.5 -16t17.5 -43q0 -28 -17.5 -44
t-48.5 -16t-49.5 16z" />
    <glyph glyph-name="uni0459" unicode="&#x459;" horiz-adv-x="840" 
d="M410 399h-180q-2 -166 -17.5 -249t-55 -117.5t-119.5 -37.5l-5 79q54 5 75.5 30t29 103t9.5 271h349v-149h104q93 0 143 -41t50 -123q0 -78 -46.5 -121.5t-141.5 -43.5h-195v399zM599 71q51 0 79.5 24t28.5 70q0 93 -113 93h-98v-187h103z" />
    <glyph glyph-name="uni045A" unicode="&#x45a;" horiz-adv-x="850" 
d="M415 220h-229v-220h-86v478h86v-179h229v179h86v-162h119q89 0 136 -39.5t47 -118.5q0 -75 -44.5 -116.5t-138.5 -41.5h-205v220zM614 71q103 0 103 87t-103 87h-113v-174h113z" />
    <glyph glyph-name="uni045B" unicode="&#x45b;" horiz-adv-x="610" 
d="M408.5 377.5q-20.5 26.5 -71.5 26.5q-35 0 -75.5 -13.5t-79.5 -35.5v-355h-86v579h-57v53h57v68q13 2 46 2q28 0 40 -1v-69h161v-53h-161v-147q47 28 99 44t99 16q71 0 103 -37.5t32 -116.5v-338h-86v288q0 63 -20.5 89.5z" />
    <glyph glyph-name="uni045C" unicode="&#x45c;" horiz-adv-x="530" 
d="M278 208h-106v-208h-86v478h86v-192h105q40 42 68 92.5t38 99.5h88q-10 -56 -40.5 -116t-77.5 -115l160 -247h-99zM258 544l-40 37l132 140q37 -21 66 -54z" />
    <glyph glyph-name="uni045D" unicode="&#x45d;" horiz-adv-x="630" 
d="M446 0v353l-269 -353h-76v478h84v-350l268 350h77v-478h-84zM245 721l132 -140l-40 -37l-158 123q29 33 66 54z" />
    <glyph glyph-name="uni045E" unicode="&#x45e;" horiz-adv-x="490" 
d="M20 478h90q66 -195 131 -370h8q69 184 131 370h91q-53 -166 -172 -451q-58 -136 -127 -232l-71 38q37 52 63 95.5t50 98.5h-22q-130 312 -172 451zM142 592q-39 36 -43 98l69 8q3 -38 23 -60t52 -22t52.5 21.5t23.5 59.5l67 -7q-4 -62 -42 -98t-101 -36q-62 0 -101 36z
" />
    <glyph glyph-name="uni045F" unicode="&#x45f;" horiz-adv-x="590" 
d="M511 478v-478h-179l3 -128h-80l4 128h-179v478h86v-398h259v398h86z" />
    <glyph glyph-name="uni0490" unicode="&#x490;" horiz-adv-x="510" 
d="M88 650h321l-6 97l80 -2l4 -176l-310 7v-576h-89v650z" />
    <glyph glyph-name="uni0491" unicode="&#x491;" horiz-adv-x="470" 
d="M100 478h266l-7 97l80 -2v-180l-253 9v-402h-86v478z" />
    <glyph glyph-name="uni04BB" unicode="&#x4bb;" horiz-adv-x="590" 
d="M398.5 377.5q-19.5 26.5 -68.5 26.5q-32 0 -71.5 -13t-76.5 -35v-356h-86v624v78q20 2 37 2q19 0 49 -2v-269q46 27 96 43t95 16q69 0 100 -37.5t31 -116.5v-338h-86v288q0 63 -19.5 89.5z" />
    <glyph glyph-name="uni04C0" unicode="&#x4c0;" horiz-adv-x="450" 
d="M41 79l140 -4v501l-140 -4l3 78h362l2 -78l-138 4v-501l138 4l-2 -79h-362z" />
    <glyph glyph-name="uni04C0" unicode="&#x4cf;" horiz-adv-x="450" 
d="M41 79l140 -4v501l-140 -4l3 78h362l2 -78l-138 4v-501l138 4l-2 -79h-362z" />
    <glyph glyph-name="uni04E2" unicode="&#x4e2;" horiz-adv-x="690" 
d="M508 0l5 509l-339 -509h-81v650h89l-5 -508l337 508h82v-650h-88zM187 771h315v-67l-157 7l-158 -7v67z" />
    <glyph glyph-name="uni04E3" unicode="&#x4e3;" horiz-adv-x="630" 
d="M446 0v353l-269 -353h-76v478h84v-350l268 350h77v-478h-84zM157 639h315v-67l-157 7l-158 -7v67z" />
    <glyph glyph-name="uni04EE" unicode="&#x4ee;" horiz-adv-x="570" 
d="M49 1l5 78q27 -6 60 -6q49 0 82.5 29t73.5 99h-22q-71 84 -120 203.5t-78 245.5h87q25 -101 63.5 -198.5t90.5 -167.5h25q44 85 81.5 188t53.5 178h86q-16 -86 -60.5 -209t-98.5 -221q-66 -120 -123.5 -173.5t-134.5 -53.5q-39 0 -71 8zM132 771h315v-67l-157 7l-158 -7
v67z" />
    <glyph glyph-name="uni04EF" unicode="&#x4ef;" horiz-adv-x="490" 
d="M20 478h90q66 -195 131 -370h8q69 184 131 370h91q-53 -166 -172 -451q-58 -136 -127 -232l-71 38q37 52 63 95.5t50 98.5h-22q-130 312 -172 451zM87 639h315v-67l-157 7l-158 -7v67z" />
    <glyph glyph-name="uni1E20" unicode="&#x1e20;" horiz-adv-x="640" 
d="M197 25.5q-70 39.5 -108 116t-38 184.5q0 105 37.5 181.5t106.5 116.5t161 40q107 0 197 -44l-14 -71q-90 33 -173 33q-106 0 -164.5 -68.5t-58.5 -186.5q0 -125 62.5 -192t171.5 -67q57 0 113 16l-21 218l87 4l14 -287q-47 -15 -102.5 -24t-105.5 -9q-95 0 -165 39.5z
M216 771h315v-67l-157 7l-158 -7v67z" />
    <glyph glyph-name="uni1E21" unicode="&#x1e21;" horiz-adv-x="570" 
d="M90 -172l19 73q84 -30 151 -30q146 0 146 160v32q-33 -24 -74.5 -39t-84.5 -15q-83 0 -137 59.5t-54 175.5q0 115 62 181.5t171 66.5q55 0 108 -16t95 -41v-405q0 -117 -59.5 -175.5t-169.5 -58.5q-84 0 -173 32zM171.5 125.5q28.5 -41.5 84.5 -41.5q40 0 79 16.5
t71 44.5v250q-60 23 -117 23q-69 0 -107.5 -45.5t-38.5 -124.5q0 -81 28.5 -122.5zM124 639h315v-67l-157 7l-158 -7v67z" />
    <glyph glyph-name="Wgrave" unicode="&#x1e80;" horiz-adv-x="810" 
d="M35 650h86q29 -156 65.5 -313.5t68.5 -264.5h15q21 63 49 179.5t47 225.5h79q20 -111 47 -225t49 -180h15q32 103 67.5 260t65.5 318h86q-31 -178 -72 -346.5t-84 -303.5h-128q-50 147 -85 320q-37 -174 -86 -320h-127q-99 314 -158 650zM326 844l189 -93l-30 -56
l-192 66z" />
    <glyph glyph-name="wgrave" unicode="&#x1e81;" horiz-adv-x="630" 
d="M26 478h81q37 -213 99 -406q41 107 65 249h89q21 -123 66 -245q60 183 98 402h81q-20 -125 -55.5 -250.5t-75.5 -227.5h-92q-40 97 -66 200q-32 -115 -66 -200h-93q-93 240 -131 478zM255 721l132 -140l-40 -37l-158 123q29 33 66 54z" />
    <glyph glyph-name="Wacute" unicode="&#x1e82;" horiz-adv-x="810" 
d="M35 650h86q29 -156 65.5 -313.5t68.5 -264.5h15q21 63 49 179.5t47 225.5h79q20 -111 47 -225t49 -180h15q32 103 67.5 260t65.5 318h86q-31 -178 -72 -346.5t-84 -303.5h-128q-50 147 -85 320q-37 -174 -86 -320h-127q-99 314 -158 650zM325 695l-30 56l189 93l33 -83z
" />
    <glyph glyph-name="wacute" unicode="&#x1e83;" horiz-adv-x="630" 
d="M26 478h81q37 -213 99 -406q41 107 65 249h89q21 -123 66 -245q60 183 98 402h81q-20 -125 -55.5 -250.5t-75.5 -227.5h-92q-40 97 -66 200q-32 -115 -66 -200h-93q-93 240 -131 478zM303 544l-40 37l132 140q37 -21 66 -54z" />
    <glyph glyph-name="Wdieresis" unicode="&#x1e84;" horiz-adv-x="810" 
d="M35 650h86q29 -156 65.5 -313.5t68.5 -264.5h15q21 63 49 179.5t47 225.5h79q20 -111 47 -225t49 -180h15q32 103 67.5 260t65.5 318h86q-31 -178 -72 -346.5t-84 -303.5h-128q-50 147 -85 320q-37 -174 -86 -320h-127q-99 314 -158 650zM258.5 719.5
q-16.5 14.5 -16.5 39.5q0 24 16.5 38t45.5 14q28 0 44.5 -14t16.5 -38q0 -25 -16 -39.5t-45 -14.5t-45.5 14.5zM461 797q17 14 46 14q28 0 44 -14t16 -38q0 -25 -16 -39.5t-44 -14.5q-29 0 -46 14.5t-17 39.5q0 24 17 38z" />
    <glyph glyph-name="wdieresis" unicode="&#x1e85;" horiz-adv-x="630" 
d="M26 478h81q37 -213 99 -406q41 107 65 249h89q21 -123 66 -245q60 183 98 402h81q-20 -125 -55.5 -250.5t-75.5 -227.5h-92q-40 97 -66 200q-32 -115 -66 -200h-93q-93 240 -131 478zM363 598.5q-17 14.5 -17 39.5q0 24 17 38t46 14q28 0 44 -14t16 -38q0 -25 -16 -39.5
t-44 -14.5q-29 0 -46 14.5zM191.5 676q16.5 14 45.5 14q28 0 44.5 -14t16.5 -38q0 -25 -16 -39.5t-45 -14.5t-45.5 14.5t-16.5 39.5q0 24 16.5 38z" />
    <glyph glyph-name="uni1E9E" unicode="&#x1e9e;" horiz-adv-x="640" 
d="M247 9l8 79q19 -9 46.5 -14.5t54.5 -5.5q62 0 97 35t35 90q0 61 -43.5 93t-120.5 32l-1 68q41 25 71 76t35 108h-245v-570h-89v650h424q0 -92 -23 -158.5t-67 -113.5q69 -19 107 -69t38 -121q0 -59 -25 -104.5t-72.5 -71.5t-111.5 -26q-59 0 -118 23z" />
    <glyph glyph-name="uni1EA0" unicode="&#x1ea0;" horiz-adv-x="630" 
d="M118 303.5q56 170.5 123 346.5h148q69 -180 123.5 -348.5t87.5 -301.5h-93q-34 126 -48 171h-288q-35 -119 -48 -171h-93q32 133 88 303.5zM440 246q-53 169 -110 322h-30q-67 -183 -110 -322h250zM268.5 -169q-18.5 16 -18.5 44q0 27 18.5 43t49.5 16t48.5 -16t17.5 -43
q0 -28 -17.5 -44t-48.5 -16t-49.5 16z" />
    <glyph glyph-name="uni1EA1" unicode="&#x1ea1;" horiz-adv-x="540" 
d="M299 5q-46 -19 -89 -19q-69 0 -109 39.5t-40 110.5q0 70 34 140q31 2 95 2q87 0 189 -5v21q0 57 -21 88.5t-73 31.5q-67 0 -177 -39l-20 73q116 42 207 42q82 0 125 -40.5t43 -133.5v-245v-71q-18 -2 -33 -2t-37 2l-9 56q-39 -32 -85 -51zM164 82.5q20 -21.5 61 -21.5
q66 0 154 68v74q-93 6 -172 6q-36 0 -52 -1q-11 -33 -11 -67q0 -37 20 -58.5zM219.5 -169q-18.5 16 -18.5 44q0 27 18.5 43t49.5 16t48.5 -16t17.5 -43q0 -28 -17.5 -44t-48.5 -16t-49.5 16z" />
    <glyph glyph-name="uni1EA2" unicode="&#x1ea2;" horiz-adv-x="630" 
d="M118 303.5q56 170.5 123 346.5h148q69 -180 123.5 -348.5t87.5 -301.5h-93q-34 126 -48 171h-288q-35 -119 -48 -171h-93q32 133 88 303.5zM440 246q-53 169 -110 322h-30q-67 -183 -110 -322h250zM327 756q15 11 15 26q0 20 -25.5 32t-78.5 18l7 56q69 -6 110 -30.5
t41 -63.5q0 -38 -25.5 -59t-83.5 -42l-13 35q38 17 53 28z" />
    <glyph glyph-name="uni1EA3" unicode="&#x1ea3;" horiz-adv-x="540" 
d="M299 5q-46 -19 -89 -19q-69 0 -109 39.5t-40 110.5q0 70 34 140q31 2 95 2q87 0 189 -5v21q0 57 -21 88.5t-73 31.5q-67 0 -177 -39l-20 73q116 42 207 42q82 0 125 -40.5t43 -133.5v-245v-71q-18 -2 -33 -2t-37 2l-9 56q-39 -32 -85 -51zM164 82.5q20 -21.5 61 -21.5
q66 0 154 68v74q-93 6 -172 6q-36 0 -52 -1q-11 -33 -11 -67q0 -37 20 -58.5zM285.5 599.5q12.5 11.5 12.5 26.5q0 19 -22 27.5t-76 13.5l7 64q71 -6 112 -30t41 -66q0 -35 -24.5 -58.5t-75.5 -42.5l-20 40q33 14 45.5 25.5z" />
    <glyph glyph-name="uni1EA4" unicode="&#x1ea4;" horiz-adv-x="630" 
d="M118 303.5q56 170.5 123 346.5h148q69 -180 123.5 -348.5t87.5 -301.5h-93q-34 126 -48 171h-288q-35 -119 -48 -171h-93q32 133 88 303.5zM440 246q-53 169 -110 322h-30q-67 -183 -110 -322h250zM153 739l148 110h32l148 -110l-37 -48l-127 86l-128 -86zM488 952
q31 -9 61 -31l-103 -123l-38 23z" />
    <glyph glyph-name="uni1EA5" unicode="&#x1ea5;" horiz-adv-x="540" 
d="M299 5q-46 -19 -89 -19q-69 0 -109 39.5t-40 110.5q0 70 34 140q31 2 95 2q87 0 189 -5v21q0 57 -21 88.5t-73 31.5q-67 0 -177 -39l-20 73q116 42 207 42q82 0 125 -40.5t43 -133.5v-245v-71q-18 -2 -33 -2t-37 2l-9 56q-39 -32 -85 -51zM164 82.5q20 -21.5 61 -21.5
q66 0 154 68v74q-93 6 -172 6q-36 0 -52 -1q-11 -33 -11 -67q0 -37 20 -58.5zM115 579l148 120h32l148 -120l-37 -48l-127 91l-128 -91zM407 845q31 -9 61 -31l-103 -123l-38 23z" />
    <glyph glyph-name="uni1EA6" unicode="&#x1ea6;" horiz-adv-x="630" 
d="M118 303.5q56 170.5 123 346.5h148q69 -180 123.5 -348.5t87.5 -301.5h-93q-34 126 -48 171h-288q-35 -119 -48 -171h-93q32 133 88 303.5zM440 246q-53 169 -110 322h-30q-67 -183 -110 -322h250zM317 777l-127 -86l-37 48l148 110h32l148 -110l-36 -48zM146 952
l80 -131l-38 -23l-103 123q30 22 61 31z" />
    <glyph glyph-name="uni1EA7" unicode="&#x1ea7;" horiz-adv-x="540" 
d="M299 5q-46 -19 -89 -19q-69 0 -109 39.5t-40 110.5q0 70 34 140q31 2 95 2q87 0 189 -5v21q0 57 -21 88.5t-73 31.5q-67 0 -177 -39l-20 73q116 42 207 42q82 0 125 -40.5t43 -133.5v-245v-71q-18 -2 -33 -2t-37 2l-9 56q-39 -32 -85 -51zM164 82.5q20 -21.5 61 -21.5
q66 0 154 68v74q-93 6 -172 6q-36 0 -52 -1q-11 -33 -11 -67q0 -37 20 -58.5zM279 622l-127 -91l-37 48l148 120h32l148 -120l-36 -48zM151 845l80 -131l-38 -23l-103 123q30 22 61 31z" />
    <glyph glyph-name="uni1EA8" unicode="&#x1ea8;" horiz-adv-x="630" 
d="M118 303.5q56 170.5 123 346.5h148q69 -180 123.5 -348.5t87.5 -301.5h-93q-34 126 -48 171h-288q-35 -119 -48 -171h-93q32 133 88 303.5zM440 246q-53 169 -110 322h-30q-67 -183 -110 -322h250zM153 739l148 110h32l148 -110l-37 -48l-127 86l-128 -86zM376 966
q64 -6 101 -27t37 -59q0 -32 -22 -53.5t-68 -37.5l-18 36q30 13 41 22.5t11 23.5q0 18 -19.5 25.5t-68.5 11.5z" />
    <glyph glyph-name="uni1EA9" unicode="&#x1ea9;" horiz-adv-x="540" 
d="M299 5q-46 -19 -89 -19q-69 0 -109 39.5t-40 110.5q0 70 34 140q31 2 95 2q87 0 189 -5v21q0 57 -21 88.5t-73 31.5q-67 0 -177 -39l-20 73q116 42 207 42q82 0 125 -40.5t43 -133.5v-245v-71q-18 -2 -33 -2t-37 2l-9 56q-39 -32 -85 -51zM164 82.5q20 -21.5 61 -21.5
q66 0 154 68v74q-93 6 -172 6q-36 0 -52 -1q-11 -33 -11 -67q0 -37 20 -58.5zM115 579l148 120h32l148 -120l-37 -48l-127 91l-128 -91zM382.5 776.5q12.5 11.5 12.5 26.5q0 19 -22 27.5t-76 13.5l7 64q71 -6 112 -30t41 -66q0 -35 -24.5 -58.5t-75.5 -42.5l-20 40
q33 14 45.5 25.5z" />
    <glyph glyph-name="uni1EAA" unicode="&#x1eaa;" horiz-adv-x="630" 
d="M118 303.5q56 170.5 123 346.5h148q69 -180 123.5 -348.5t87.5 -301.5h-93q-34 126 -48 171h-288q-35 -119 -48 -171h-93q32 133 88 303.5zM440 246q-53 169 -110 322h-30q-67 -183 -110 -322h250zM153 739l148 110h32l148 -110l-37 -48l-127 86l-128 -86zM210.5 966
q19.5 20 43.5 20q16 0 32 -6.5t37 -18.5q3 -2 19.5 -10t27.5 -8q14 0 25.5 11t24.5 37l38 -21q-21 -47 -40.5 -67t-43.5 -20q-16 0 -32 6.5t-37 18.5q-4 2 -19.5 10t-26.5 8q-15 0 -26.5 -10.5t-25.5 -36.5l-37 21q21 46 40.5 66z" />
    <glyph glyph-name="uni1EAB" unicode="&#x1eab;" horiz-adv-x="540" 
d="M299 5q-46 -19 -89 -19q-69 0 -109 39.5t-40 110.5q0 70 34 140q31 2 95 2q87 0 189 -5v21q0 57 -21 88.5t-73 31.5q-67 0 -177 -39l-20 73q116 42 207 42q82 0 125 -40.5t43 -133.5v-245v-71q-18 -2 -33 -2t-37 2l-9 56q-39 -32 -85 -51zM164 82.5q20 -21.5 61 -21.5
q66 0 154 68v74q-93 6 -172 6q-36 0 -52 -1q-11 -33 -11 -67q0 -37 20 -58.5zM115 579l148 120h32l148 -120l-37 -48l-127 91l-128 -91zM172.5 841q19.5 20 43.5 20q16 0 32 -6.5t37 -18.5q3 -2 19.5 -10t27.5 -8q14 0 25.5 11t24.5 37l38 -21q-21 -47 -40.5 -67t-43.5 -20
q-16 0 -32 6.5t-37 18.5q-4 2 -19.5 10t-26.5 8q-15 0 -26.5 -10.5t-25.5 -36.5l-37 21q21 46 40.5 66z" />
    <glyph glyph-name="uni1EAC" unicode="&#x1eac;" horiz-adv-x="630" 
d="M118 303.5q56 170.5 123 346.5h148q69 -180 123.5 -348.5t87.5 -301.5h-93q-34 126 -48 171h-288q-35 -119 -48 -171h-93q32 133 88 303.5zM440 246q-53 169 -110 322h-30q-67 -183 -110 -322h250zM268.5 -169q-18.5 16 -18.5 44q0 27 18.5 43t49.5 16t48.5 -16t17.5 -43
q0 -28 -17.5 -44t-48.5 -16t-49.5 16zM153 739l148 110h32l148 -110l-37 -48l-127 86l-128 -86z" />
    <glyph glyph-name="uni1EAD" unicode="&#x1ead;" horiz-adv-x="540" 
d="M299 5q-46 -19 -89 -19q-69 0 -109 39.5t-40 110.5q0 70 34 140q31 2 95 2q87 0 189 -5v21q0 57 -21 88.5t-73 31.5q-67 0 -177 -39l-20 73q116 42 207 42q82 0 125 -40.5t43 -133.5v-245v-71q-18 -2 -33 -2t-37 2l-9 56q-39 -32 -85 -51zM164 82.5q20 -21.5 61 -21.5
q66 0 154 68v74q-93 6 -172 6q-36 0 -52 -1q-11 -33 -11 -67q0 -37 20 -58.5zM219.5 -169q-18.5 16 -18.5 44q0 27 18.5 43t49.5 16t48.5 -16t17.5 -43q0 -28 -17.5 -44t-48.5 -16t-49.5 16zM115 579l148 120h32l148 -120l-37 -48l-127 91l-128 -91z" />
    <glyph glyph-name="uni1EAE" unicode="&#x1eae;" horiz-adv-x="630" 
d="M118 303.5q56 170.5 123 346.5h148q69 -180 123.5 -348.5t87.5 -301.5h-93q-34 126 -48 171h-288q-35 -119 -48 -171h-93q32 133 88 303.5zM440 246q-53 169 -110 322h-30q-67 -183 -110 -322h250zM216 734q-38 34 -42 99l59 11q7 -92 83 -92t83 92l59 -11
q-4 -65 -42 -99t-100 -34t-100 34zM376 976q31 -17 56 -46l-134 -105l-34 32z" />
    <glyph glyph-name="uni1EAF" unicode="&#x1eaf;" horiz-adv-x="540" 
d="M299 5q-46 -19 -89 -19q-69 0 -109 39.5t-40 110.5q0 70 34 140q31 2 95 2q87 0 189 -5v21q0 57 -21 88.5t-73 31.5q-67 0 -177 -39l-20 73q116 42 207 42q82 0 125 -40.5t43 -133.5v-245v-71q-18 -2 -33 -2t-37 2l-9 56q-39 -32 -85 -51zM164 82.5q20 -21.5 61 -21.5
q66 0 154 68v74q-93 6 -172 6q-36 0 -52 -1q-11 -33 -11 -67q0 -37 20 -58.5zM176 592q-39 36 -43 98l69 8q3 -38 23 -60t52 -22t52.5 21.5t23.5 59.5l67 -7q-4 -62 -42 -98t-101 -36q-62 0 -101 36zM318 845q31 -17 56 -46l-134 -105l-34 32z" />
    <glyph glyph-name="uni1EB0" unicode="&#x1eb0;" horiz-adv-x="630" 
d="M118 303.5q56 170.5 123 346.5h148q69 -180 123.5 -348.5t87.5 -301.5h-93q-34 126 -48 171h-288q-35 -119 -48 -171h-93q32 133 88 303.5zM440 246q-53 169 -110 322h-30q-67 -183 -110 -322h250zM218 734q-38 34 -42 99l59 11q7 -92 83 -92t83 92l59 -11
q-4 -65 -42 -99t-100 -34t-100 34zM258 976l112 -119l-34 -32l-134 105q25 29 56 46z" />
    <glyph glyph-name="uni1EB1" unicode="&#x1eb1;" horiz-adv-x="540" 
d="M299 5q-46 -19 -89 -19q-69 0 -109 39.5t-40 110.5q0 70 34 140q31 2 95 2q87 0 189 -5v21q0 57 -21 88.5t-73 31.5q-67 0 -177 -39l-20 73q116 42 207 42q82 0 125 -40.5t43 -133.5v-245v-71q-18 -2 -33 -2t-37 2l-9 56q-39 -32 -85 -51zM164 82.5q20 -21.5 61 -21.5
q66 0 154 68v74q-93 6 -172 6q-36 0 -52 -1q-11 -33 -11 -67q0 -37 20 -58.5zM180 592q-38 36 -42 98l67 7q3 -38 23.5 -59.5t52.5 -21.5t52 22t23 60l69 -8q-4 -62 -43 -98t-101 -36q-63 0 -101 36zM240 845l112 -119l-34 -32l-134 105q25 29 56 46z" />
    <glyph glyph-name="uni1EB2" unicode="&#x1eb2;" horiz-adv-x="630" 
d="M118 303.5q56 170.5 123 346.5h148q69 -180 123.5 -348.5t87.5 -301.5h-93q-34 126 -48 171h-288q-35 -119 -48 -171h-93q32 133 88 303.5zM440 246q-53 169 -110 322h-30q-67 -183 -110 -322h250zM216 734q-38 34 -42 99l59 11q7 -92 83 -92t83 92l59 -11
q-4 -65 -42 -99t-100 -34t-100 34zM262 994q64 -6 101 -27t37 -59q0 -32 -22 -53.5t-68 -37.5l-18 36q30 13 41 22.5t11 23.5q0 18 -19.5 25.5t-68.5 11.5z" />
    <glyph glyph-name="uni1EB3" unicode="&#x1eb3;" horiz-adv-x="540" 
d="M299 5q-46 -19 -89 -19q-69 0 -109 39.5t-40 110.5q0 70 34 140q31 2 95 2q87 0 189 -5v21q0 57 -21 88.5t-73 31.5q-67 0 -177 -39l-20 73q116 42 207 42q82 0 125 -40.5t43 -133.5v-245v-71q-18 -2 -33 -2t-37 2l-9 56q-39 -32 -85 -51zM164 82.5q20 -21.5 61 -21.5
q66 0 154 68v74q-93 6 -172 6q-36 0 -52 -1q-11 -33 -11 -67q0 -37 20 -58.5zM176 592q-39 36 -43 98l69 8q3 -38 23 -60t52 -22t52.5 21.5t23.5 59.5l67 -7q-4 -62 -42 -98t-101 -36q-62 0 -101 36zM287.5 756.5q12.5 11.5 12.5 26.5q0 19 -22 27.5t-76 13.5l7 64
q71 -6 112 -30t41 -66q0 -35 -24.5 -58.5t-75.5 -42.5l-20 40q33 14 45.5 25.5z" />
    <glyph glyph-name="uni1EB4" unicode="&#x1eb4;" horiz-adv-x="630" 
d="M118 303.5q56 170.5 123 346.5h148q69 -180 123.5 -348.5t87.5 -301.5h-93q-34 126 -48 171h-288q-35 -119 -48 -171h-93q32 133 88 303.5zM440 246q-53 169 -110 322h-30q-67 -183 -110 -322h250zM216 734q-38 34 -42 99l59 11q7 -92 83 -92t83 92l59 -11
q-4 -65 -42 -99t-100 -34t-100 34zM210.5 940q19.5 20 43.5 20q16 0 32 -6.5t37 -18.5q3 -2 19.5 -10t27.5 -8q14 0 25.5 11t24.5 37l38 -21q-21 -47 -40.5 -67t-43.5 -20q-16 0 -32 6.5t-37 18.5q-4 2 -19.5 10t-26.5 8q-15 0 -26.5 -10.5t-25.5 -36.5l-37 21
q21 46 40.5 66z" />
    <glyph glyph-name="uni1EB5" unicode="&#x1eb5;" horiz-adv-x="540" 
d="M299 5q-46 -19 -89 -19q-69 0 -109 39.5t-40 110.5q0 70 34 140q31 2 95 2q87 0 189 -5v21q0 57 -21 88.5t-73 31.5q-67 0 -177 -39l-20 73q116 42 207 42q82 0 125 -40.5t43 -133.5v-245v-71q-18 -2 -33 -2t-37 2l-9 56q-39 -32 -85 -51zM164 82.5q20 -21.5 61 -21.5
q66 0 154 68v74q-93 6 -172 6q-36 0 -52 -1q-11 -33 -11 -67q0 -37 20 -58.5zM176 592q-39 36 -43 98l69 8q3 -38 23 -60t52 -22t52.5 21.5t23.5 59.5l67 -7q-4 -62 -42 -98t-101 -36q-62 0 -101 36zM167 837q21 20 47 20q15 0 29.5 -5t27 -11t15.5 -8q14 -7 27.5 -13
t22.5 -6q15 0 27.5 11t26.5 37l39 -21q-21 -46 -42 -66.5t-46 -20.5q-17 0 -34.5 6.5t-40.5 18.5q-32 18 -47 18q-16 0 -28.5 -10.5t-27.5 -36.5l-39 21q22 46 43 66z" />
    <glyph glyph-name="uni1EB6" unicode="&#x1eb6;" horiz-adv-x="630" 
d="M118 303.5q56 170.5 123 346.5h148q69 -180 123.5 -348.5t87.5 -301.5h-93q-34 126 -48 171h-288q-35 -119 -48 -171h-93q32 133 88 303.5zM440 246q-53 169 -110 322h-30q-67 -183 -110 -322h250zM268.5 -169q-18.5 16 -18.5 44q0 27 18.5 43t49.5 16t48.5 -16t17.5 -43
q0 -28 -17.5 -44t-48.5 -16t-49.5 16zM216 734q-38 34 -42 99l59 11q7 -92 83 -92t83 92l59 -11q-4 -65 -42 -99t-100 -34t-100 34z" />
    <glyph glyph-name="uni1EB7" unicode="&#x1eb7;" horiz-adv-x="540" 
d="M299 5q-46 -19 -89 -19q-69 0 -109 39.5t-40 110.5q0 70 34 140q31 2 95 2q87 0 189 -5v21q0 57 -21 88.5t-73 31.5q-67 0 -177 -39l-20 73q116 42 207 42q82 0 125 -40.5t43 -133.5v-245v-71q-18 -2 -33 -2t-37 2l-9 56q-39 -32 -85 -51zM164 82.5q20 -21.5 61 -21.5
q66 0 154 68v74q-93 6 -172 6q-36 0 -52 -1q-11 -33 -11 -67q0 -37 20 -58.5zM219.5 -169q-18.5 16 -18.5 44q0 27 18.5 43t49.5 16t48.5 -16t17.5 -43q0 -28 -17.5 -44t-48.5 -16t-49.5 16zM176 592q-39 36 -43 98l69 8q3 -38 23 -60t52 -22t52.5 21.5t23.5 59.5l67 -7
q-4 -62 -42 -98t-101 -36q-62 0 -101 36z" />
    <glyph glyph-name="uni1EB8" unicode="&#x1eb8;" horiz-adv-x="540" 
d="M93 650h394l5 -80l-310 5v-204l256 7v-80l-256 5v-228l320 6l-5 -81h-404v650zM231.5 -169q-18.5 16 -18.5 44q0 27 18.5 43t49.5 16t48.5 -16t17.5 -43q0 -28 -17.5 -44t-48.5 -16t-49.5 16z" />
    <glyph glyph-name="uni1EB9" unicode="&#x1eb9;" horiz-adv-x="535" 
d="M118.5 53.5q-65.5 67.5 -65.5 185.5q0 76 27.5 133.5t78.5 88.5t119 31q97 0 153 -66t56 -172q0 -24 -3 -44h-350q7 -73 49.5 -110.5t118.5 -37.5q39 0 82 9t76 25q8 -44 15 -71q-36 -18 -82 -28.5t-97 -10.5q-112 0 -177.5 67.5zM406 280q-6 67 -39 102.5t-92 35.5
t-95.5 -34.5t-45.5 -103.5h272zM224.5 -169q-18.5 16 -18.5 44q0 27 18.5 43t49.5 16t48.5 -16t17.5 -43q0 -28 -17.5 -44t-48.5 -16t-49.5 16z" />
    <glyph glyph-name="uni1EBA" unicode="&#x1eba;" horiz-adv-x="540" 
d="M93 650h394l5 -80l-310 5v-204l256 7v-80l-256 5v-228l320 6l-5 -81h-404v650zM304 756q15 11 15 26q0 20 -25.5 32t-78.5 18l7 56q69 -6 110 -30.5t41 -63.5q0 -38 -25.5 -59t-83.5 -42l-13 35q38 17 53 28z" />
    <glyph glyph-name="uni1EBB" unicode="&#x1ebb;" horiz-adv-x="535" 
d="M118.5 53.5q-65.5 67.5 -65.5 185.5q0 76 27.5 133.5t78.5 88.5t119 31q97 0 153 -66t56 -172q0 -24 -3 -44h-350q7 -73 49.5 -110.5t118.5 -37.5q39 0 82 9t76 25q8 -44 15 -71q-36 -18 -82 -28.5t-97 -10.5q-112 0 -177.5 67.5zM406 280q-6 67 -39 102.5t-92 35.5
t-95.5 -34.5t-45.5 -103.5h272zM279.5 599.5q12.5 11.5 12.5 26.5q0 19 -22 27.5t-76 13.5l7 64q71 -6 112 -30t41 -66q0 -35 -24.5 -58.5t-75.5 -42.5l-20 40q33 14 45.5 25.5z" />
    <glyph glyph-name="uni1EBC" unicode="&#x1ebc;" horiz-adv-x="540" 
d="M93 650h394l5 -80l-310 5v-204l256 7v-80l-256 5v-228l320 6l-5 -81h-404v650zM326 713.5q-18 8.5 -41 24.5q-3 2 -17.5 10.5t-25 13t-17.5 4.5q-18 0 -32 -16.5t-31 -51.5l-36 15q25 58 49 85.5t54 27.5q15 0 32 -8t41 -24q22 -14 36 -21t25 -7q16 0 30.5 17t30.5 51
l37 -15q-25 -58 -49 -86t-53 -28q-15 0 -33 8.5z" />
    <glyph glyph-name="uni1EBD" unicode="&#x1ebd;" horiz-adv-x="535" 
d="M118.5 53.5q-65.5 67.5 -65.5 185.5q0 76 27.5 133.5t78.5 88.5t119 31q97 0 153 -66t56 -172q0 -24 -3 -44h-350q7 -73 49.5 -110.5t118.5 -37.5q39 0 82 9t76 25q8 -44 15 -71q-36 -18 -82 -28.5t-97 -10.5q-112 0 -177.5 67.5zM406 280q-6 67 -39 102.5t-92 35.5
t-95.5 -34.5t-45.5 -103.5h272zM309 587.5q-19 7.5 -48 22.5q-16 8 -31 14.5t-26 6.5q-19 0 -33.5 -12.5t-31.5 -43.5l-46 25q25 54 49.5 77.5t55.5 23.5q19 0 39 -7.5t47 -21.5q22 -11 34.5 -16t23.5 -5q17 0 32 13t31 43l47 -25q-25 -55 -49.5 -78.5t-54.5 -23.5
q-20 0 -39 7.5z" />
    <glyph glyph-name="uni1EBE" unicode="&#x1ebe;" horiz-adv-x="540" 
d="M93 650h394l5 -80l-310 5v-204l256 7v-80l-256 5v-228l320 6l-5 -81h-404v650zM130 739l148 110h32l148 -110l-37 -48l-127 86l-128 -86zM465 952q31 -9 61 -31l-103 -123l-38 23z" />
    <glyph glyph-name="uni1EBF" unicode="&#x1ebf;" horiz-adv-x="535" 
d="M118.5 53.5q-65.5 67.5 -65.5 185.5q0 76 27.5 133.5t78.5 88.5t119 31q97 0 153 -66t56 -172q0 -24 -3 -44h-350q7 -73 49.5 -110.5t118.5 -37.5q39 0 82 9t76 25q8 -44 15 -71q-36 -18 -82 -28.5t-97 -10.5q-112 0 -177.5 67.5zM406 280q-6 67 -39 102.5t-92 35.5
t-95.5 -34.5t-45.5 -103.5h272zM109 579l148 120h32l148 -120l-37 -48l-127 91l-128 -91zM401 845q31 -9 61 -31l-103 -123l-38 23z" />
    <glyph glyph-name="uni1EC0" unicode="&#x1ec0;" horiz-adv-x="540" 
d="M93 650h394l5 -80l-310 5v-204l256 7v-80l-256 5v-228l320 6l-5 -81h-404v650zM294 777l-127 -86l-37 48l148 110h32l148 -110l-36 -48zM123 952l80 -131l-38 -23l-103 123q30 22 61 31z" />
    <glyph glyph-name="uni1EC1" unicode="&#x1ec1;" horiz-adv-x="535" 
d="M118.5 53.5q-65.5 67.5 -65.5 185.5q0 76 27.5 133.5t78.5 88.5t119 31q97 0 153 -66t56 -172q0 -24 -3 -44h-350q7 -73 49.5 -110.5t118.5 -37.5q39 0 82 9t76 25q8 -44 15 -71q-36 -18 -82 -28.5t-97 -10.5q-112 0 -177.5 67.5zM406 280q-6 67 -39 102.5t-92 35.5
t-95.5 -34.5t-45.5 -103.5h272zM273 622l-127 -91l-37 48l148 120h32l148 -120l-36 -48zM145 845l80 -131l-38 -23l-103 123q30 22 61 31z" />
    <glyph glyph-name="uni1EC2" unicode="&#x1ec2;" horiz-adv-x="540" 
d="M93 650h394l5 -80l-310 5v-204l256 7v-80l-256 5v-228l320 6l-5 -81h-404v650zM130 739l148 110h32l148 -110l-37 -48l-127 86l-128 -86zM353 966q64 -6 101 -27t37 -59q0 -32 -22 -53.5t-68 -37.5l-18 36q30 13 41 22.5t11 23.5q0 18 -19.5 25.5t-68.5 11.5z" />
    <glyph glyph-name="uni1EC3" unicode="&#x1ec3;" horiz-adv-x="535" 
d="M118.5 53.5q-65.5 67.5 -65.5 185.5q0 76 27.5 133.5t78.5 88.5t119 31q97 0 153 -66t56 -172q0 -24 -3 -44h-350q7 -73 49.5 -110.5t118.5 -37.5q39 0 82 9t76 25q8 -44 15 -71q-36 -18 -82 -28.5t-97 -10.5q-112 0 -177.5 67.5zM406 280q-6 67 -39 102.5t-92 35.5
t-95.5 -34.5t-45.5 -103.5h272zM109 579l148 120h32l148 -120l-37 -48l-127 91l-128 -91zM279.5 811.5q12.5 11.5 12.5 26.5q0 19 -22 27.5t-76 13.5l7 64q71 -6 112 -30t41 -66q0 -35 -24.5 -58.5t-75.5 -42.5l-20 40q33 14 45.5 25.5z" />
    <glyph glyph-name="uni1EC4" unicode="&#x1ec4;" horiz-adv-x="540" 
d="M93 650h394l5 -80l-310 5v-204l256 7v-80l-256 5v-228l320 6l-5 -81h-404v650zM130 739l148 110h32l148 -110l-37 -48l-127 86l-128 -86zM187.5 966q19.5 20 43.5 20q16 0 32 -6.5t37 -18.5q3 -2 19.5 -10t27.5 -8q14 0 25.5 11t24.5 37l38 -21q-21 -47 -40.5 -67
t-43.5 -20q-16 0 -32 6.5t-37 18.5q-4 2 -19.5 10t-26.5 8q-15 0 -26.5 -10.5t-25.5 -36.5l-37 21q21 46 40.5 66z" />
    <glyph glyph-name="uni1EC5" unicode="&#x1ec5;" horiz-adv-x="535" 
d="M118.5 53.5q-65.5 67.5 -65.5 185.5q0 76 27.5 133.5t78.5 88.5t119 31q97 0 153 -66t56 -172q0 -24 -3 -44h-350q7 -73 49.5 -110.5t118.5 -37.5q39 0 82 9t76 25q8 -44 15 -71q-36 -18 -82 -28.5t-97 -10.5q-112 0 -177.5 67.5zM406 280q-6 67 -39 102.5t-92 35.5
t-95.5 -34.5t-45.5 -103.5h272zM109 579l148 120h32l148 -120l-37 -48l-127 91l-128 -91zM166.5 841q19.5 20 43.5 20q16 0 32 -6.5t37 -18.5q3 -2 19.5 -10t27.5 -8q14 0 25.5 11t24.5 37l38 -21q-21 -47 -40.5 -67t-43.5 -20q-16 0 -32 6.5t-37 18.5q-4 2 -19.5 10
t-26.5 8q-15 0 -26.5 -10.5t-25.5 -36.5l-37 21q21 46 40.5 66z" />
    <glyph glyph-name="uni1EC6" unicode="&#x1ec6;" horiz-adv-x="540" 
d="M93 650h394l5 -80l-310 5v-204l256 7v-80l-256 5v-228l320 6l-5 -81h-404v650zM231.5 -169q-18.5 16 -18.5 44q0 27 18.5 43t49.5 16t48.5 -16t17.5 -43q0 -28 -17.5 -44t-48.5 -16t-49.5 16zM130 739l148 110h32l148 -110l-37 -48l-127 86l-128 -86z" />
    <glyph glyph-name="uni1EC7" unicode="&#x1ec7;" horiz-adv-x="535" 
d="M118.5 53.5q-65.5 67.5 -65.5 185.5q0 76 27.5 133.5t78.5 88.5t119 31q97 0 153 -66t56 -172q0 -24 -3 -44h-350q7 -73 49.5 -110.5t118.5 -37.5q39 0 82 9t76 25q8 -44 15 -71q-36 -18 -82 -28.5t-97 -10.5q-112 0 -177.5 67.5zM406 280q-6 67 -39 102.5t-92 35.5
t-95.5 -34.5t-45.5 -103.5h272zM224.5 -169q-18.5 16 -18.5 44q0 27 18.5 43t49.5 16t48.5 -16t17.5 -43q0 -28 -17.5 -44t-48.5 -16t-49.5 16zM109 579l148 120h32l148 -120l-37 -48l-127 91l-128 -91z" />
    <glyph glyph-name="uni1EC8" unicode="&#x1ec8;" horiz-adv-x="450" 
d="M41 79l140 -4v501l-140 -4l3 78h362l2 -78l-138 4v-501l138 4l-2 -79h-362zM235 756q15 11 15 26q0 20 -25.5 32t-78.5 18l7 56q69 -6 110 -30.5t41 -63.5q0 -38 -25.5 -59t-83.5 -42l-13 35q38 17 53 28z" />
    <glyph glyph-name="uni1EC9" unicode="&#x1ec9;" horiz-adv-x="305" 
d="M121 407l-98 -14q-1 15 -1 43q0 29 1 42q27 2 96 2q66 0 88 -2v-478h-86v407zM158.5 599.5q12.5 11.5 12.5 26.5q0 19 -22 27.5t-76 13.5l7 64q71 -6 112 -30t41 -66q0 -35 -24.5 -58.5t-75.5 -42.5l-20 40q33 14 45.5 25.5z" />
    <glyph glyph-name="uni1ECA" unicode="&#x1eca;" horiz-adv-x="450" 
d="M41 79l140 -4v501l-140 -4l3 78h362l2 -78l-138 4v-501l138 4l-2 -79h-362zM176.5 -169q-18.5 16 -18.5 44q0 27 18.5 43t49.5 16t48.5 -16t17.5 -43q0 -28 -17.5 -44t-48.5 -16t-49.5 16z" />
    <glyph glyph-name="uni1ECB" unicode="&#x1ecb;" horiz-adv-x="305" 
d="M121 407l-98 -14q-1 15 -1 43q0 29 1 42q27 2 96 2q66 0 88 -2v-478h-86v407zM102.5 596q-18.5 16 -18.5 44q0 27 18.5 43t49.5 16t48.5 -16t17.5 -43q0 -28 -17.5 -44t-48.5 -16t-49.5 16zM106.5 -169q-18.5 16 -18.5 44q0 27 18.5 43t49.5 16t48.5 -16t17.5 -43
q0 -28 -17.5 -44t-48.5 -16t-49.5 16z" />
    <glyph glyph-name="uni1ECC" unicode="&#x1ecc;" horiz-adv-x="680" 
d="M187.5 27.5q-65.5 41.5 -101 118t-35.5 179.5t35.5 179.5t101 118t152.5 41.5t152.5 -41.5t101 -118t35.5 -179.5t-35.5 -179.5t-101 -118t-152.5 -41.5t-152.5 41.5zM165 190q24 -58 69 -89t105 -31t105 31.5t69.5 89t24.5 134.5t-24.5 135t-69.5 89.5t-105 31.5
t-105 -31t-69 -89t-24 -136q0 -77 24 -135zM290.5 -169q-18.5 16 -18.5 44q0 27 18.5 43t49.5 16t48.5 -16t17.5 -43q0 -28 -17.5 -44t-48.5 -16t-49.5 16z" />
    <glyph glyph-name="uni1ECD" unicode="&#x1ecd;" 
d="M120 54q-61 68 -61 185t61 185t169 68t169.5 -68t61.5 -185t-61.5 -185t-169.5 -68t-169 68zM184.5 106.5q36.5 -45.5 103.5 -45.5q69 0 106 45.5t37 132.5q0 88 -37 133t-106 45q-68 0 -104 -45t-36 -133q0 -87 36.5 -132.5zM239.5 -169q-18.5 16 -18.5 44q0 27 18.5 43
t49.5 16t48.5 -16t17.5 -43q0 -28 -17.5 -44t-48.5 -16t-49.5 16z" />
    <glyph glyph-name="uni1ECE" unicode="&#x1ece;" horiz-adv-x="680" 
d="M187.5 27.5q-65.5 41.5 -101 118t-35.5 179.5t35.5 179.5t101 118t152.5 41.5t152.5 -41.5t101 -118t35.5 -179.5t-35.5 -179.5t-101 -118t-152.5 -41.5t-152.5 41.5zM165 190q24 -58 69 -89t105 -31t105 31.5t69.5 89t24.5 134.5t-24.5 135t-69.5 89.5t-105 31.5
t-105 -31t-69 -89t-24 -136q0 -77 24 -135zM349 756q15 11 15 26q0 20 -25.5 32t-78.5 18l7 56q69 -6 110 -30.5t41 -63.5q0 -38 -25.5 -59t-83.5 -42l-13 35q38 17 53 28z" />
    <glyph glyph-name="uni1ECF" unicode="&#x1ecf;" 
d="M120 54q-61 68 -61 185t61 185t169 68t169.5 -68t61.5 -185t-61.5 -185t-169.5 -68t-169 68zM184.5 106.5q36.5 -45.5 103.5 -45.5q69 0 106 45.5t37 132.5q0 88 -37 133t-106 45q-68 0 -104 -45t-36 -133q0 -87 36.5 -132.5zM294.5 599.5q12.5 11.5 12.5 26.5
q0 19 -22 27.5t-76 13.5l7 64q71 -6 112 -30t41 -66q0 -35 -24.5 -58.5t-75.5 -42.5l-20 40q33 14 45.5 25.5z" />
    <glyph glyph-name="uni1ED0" unicode="&#x1ed0;" horiz-adv-x="680" 
d="M187.5 27.5q-65.5 41.5 -101 118t-35.5 179.5t35.5 179.5t101 118t152.5 41.5t152.5 -41.5t101 -118t35.5 -179.5t-35.5 -179.5t-101 -118t-152.5 -41.5t-152.5 41.5zM165 190q24 -58 69 -89t105 -31t105 31.5t69.5 89t24.5 134.5t-24.5 135t-69.5 89.5t-105 31.5
t-105 -31t-69 -89t-24 -136q0 -77 24 -135zM175 739l148 110h32l148 -110l-37 -48l-127 86l-128 -86zM510 952q31 -9 61 -31l-103 -123l-38 23z" />
    <glyph glyph-name="uni1ED1" unicode="&#x1ed1;" 
d="M120 54q-61 68 -61 185t61 185t169 68t169.5 -68t61.5 -185t-61.5 -185t-169.5 -68t-169 68zM184.5 106.5q36.5 -45.5 103.5 -45.5q69 0 106 45.5t37 132.5q0 88 -37 133t-106 45q-68 0 -104 -45t-36 -133q0 -87 36.5 -132.5zM124 579l148 120h32l148 -120l-37 -48
l-127 91l-128 -91zM416 845q31 -9 61 -31l-103 -123l-38 23z" />
    <glyph glyph-name="uni1ED2" unicode="&#x1ed2;" horiz-adv-x="680" 
d="M187.5 27.5q-65.5 41.5 -101 118t-35.5 179.5t35.5 179.5t101 118t152.5 41.5t152.5 -41.5t101 -118t35.5 -179.5t-35.5 -179.5t-101 -118t-152.5 -41.5t-152.5 41.5zM165 190q24 -58 69 -89t105 -31t105 31.5t69.5 89t24.5 134.5t-24.5 135t-69.5 89.5t-105 31.5
t-105 -31t-69 -89t-24 -136q0 -77 24 -135zM339 777l-127 -86l-37 48l148 110h32l148 -110l-36 -48zM168 952l80 -131l-38 -23l-103 123q30 22 61 31z" />
    <glyph glyph-name="uni1ED3" unicode="&#x1ed3;" 
d="M120 54q-61 68 -61 185t61 185t169 68t169.5 -68t61.5 -185t-61.5 -185t-169.5 -68t-169 68zM184.5 106.5q36.5 -45.5 103.5 -45.5q69 0 106 45.5t37 132.5q0 88 -37 133t-106 45q-68 0 -104 -45t-36 -133q0 -87 36.5 -132.5zM288 622l-127 -91l-37 48l148 120h32
l148 -120l-36 -48zM160 845l80 -131l-38 -23l-103 123q30 22 61 31z" />
    </font>
</defs>
</svg>
