<svg xmlns="http://www.w3.org/2000/svg">
<defs>
<font id="BakemonoMonoTrial-Bold" horiz-adv-x="600" >
  <font-face 
    font-family="Bakemono Mono Trial"
    font-weight="700"
    font-stretch="normal"
    units-per-em="1000"
    panose-1="0 0 0 0 0 0 0 0 0 0"
    ascent="800"
    descent="-200"
    x-height="492"
    cap-height="640"
    bbox="-38 -214 1307 997"
    underline-thickness="98"
    underline-position="-297"
    unicode-range="U+000D-F8FF"
  />
<missing-glyph horiz-adv-x="1354" 
d="M48 40h95v31h-38l41 78h-93v-31h36zM64 170v29h33v11h-33v26h38v11h-50v-77h12zM53 462h486q4 56 44.5 94t96.5 38t96.5 -38t44.5 -94h486v-193h-1254v193zM105 392v-86h39v86h28v35h-96v-35h29zM121 178q9 -9 22 -9q14 0 23 8.5t9 22.5v47h-12v-47q0 -8 -6 -14t-14 -6
t-13.5 5.5t-5.5 14.5v47h-12v-47q0 -13 9 -22zM233 40v30h-45v10h38v30h-38v9h44v30h-79v-109h80zM218 306v35h8l15 -35h41l-21 46q14 12 14 32q0 18 -13.5 30.5t-32.5 12.5h-50v-121h39zM237 170v11h-35v66h-12v-77h47zM218 394h10q3 0 5.5 -3t2.5 -7t-2.5 -7.5t-5.5 -3.5
h-10v21zM263 118v-78h35v78h26v31h-87v-31h26zM296 170v11h-36v66h-12v-77h48zM326 306v121h-38v-121h38zM348 40l5 17h31l4 -17h38l-37 109h-40l-37 -109h36zM360 170h8l32 77h-14l-22 -57l-22 57h-14zM374 306l5 19h34l5 -19h42l-41 121h-45l-41 -121h41zM368 112h1l7 -26
h-15zM395 386h1l8 -29h-17zM460 170v11h-38v23h33v10h-33v22h38v11h-50v-77h50zM467 40v34h37v29h-37v16h44v30h-79v-109h35zM549 306v33h-43v88h-39v-121h82zM485 170v28h18l13 -28h14l-15 31q12 7 12 21q0 11 -7 18t-18 7h-29v-77h12zM485 236h17q5 0 9 -4t4 -10t-4 -10
t-9 -4h-17v28zM532 53.5q17 -16.5 42 -16.5t42 16.5t17 41.5q0 24 -17 40.5t-42 16.5t-42 -16.5t-17 -40.5q0 -25 17 -41.5zM562 169q11 0 18.5 6t7.5 17q0 13 -23 22q-9 3 -12.5 5.5t-3.5 7.5t4 8t10 3q11 0 20 -7v13q-10 5 -20 5q-12 0 -19 -6t-7 -16q0 -9 5 -13.5
t17 -9.5q17 -5 17 -12q0 -12 -14 -12q-13 0 -26 9v-13q12 -7 26 -7zM557 113q7 7 17 7t17 -7t7 -18t-7 -18.5t-17 -7.5t-17 7.5t-7 18.5t7 18zM585 367l167 166h-171q-29 -35 -29 -81q0 -49 33 -85zM680 325q48 0 85 32h-170q37 -32 85 -32zM765 547q-38 33 -85 33

<glyph glyph-name=".notdef" horiz-adv-x="1354" 
d="M48 40h95v31h-38l41 78h-93v-31h36zM64 170v29h33v11h-33v26h38v11h-50v-77h12zM53 462h486q4 56 44.5 94t96.5 38t96.5 -38t44.5 -94h486v-193h-1254v193zM105 392v-86h39v86h28v35h-96v-35h29zM121 178q9 -9 22 -9q14 0 23 8.5t9 22.5v47h-12v-47q0 -8 -6 -14t-14 -6
t-13.5 5.5t-5.5 14.5v47h-12v-47q0 -13 9 -22zM233 40v30h-45v10h38v30h-38v9h44v30h-79v-109h80zM218 306v35h8l15 -35h41l-21 46q14 12 14 32q0 18 -13.5 30.5t-32.5 12.5h-50v-121h39zM237 170v11h-35v66h-12v-77h47zM218 394h10q3 0 5.5 -3t2.5 -7t-2.5 -7.5t-5.5 -3.5
h-10v21zM263 118v-78h35v78h26v31h-87v-31h26zM296 170v11h-36v66h-12v-77h48zM326 306v121h-38v-121h38zM348 40l5 17h31l4 -17h38l-37 109h-40l-37 -109h36zM360 170h8l32 77h-14l-22 -57l-22 57h-14zM374 306l5 19h34l5 -19h42l-41 121h-45l-41 -121h41zM368 112h1l7 -26
h-15zM395 386h1l8 -29h-17zM460 170v11h-38v23h33v10h-33v22h38v11h-50v-77h50zM467 40v34h37v29h-37v16h44v30h-79v-109h35zM549 306v33h-43v88h-39v-121h82zM485 170v28h18l13 -28h14l-15 31q12 7 12 21q0 11 -7 18t-18 7h-29v-77h12zM485 236h17q5 0 9 -4t4 -10t-4 -10
t-9 -4h-17v28zM532 53.5q17 -16.5 42 -16.5t42 16.5t17 41.5q0 24 -17 40.5t-42 16.5t-42 -16.5t-17 -40.5q0 -25 17 -41.5zM562 169q11 0 18.5 6t7.5 17q0 13 -23 22q-9 3 -12.5 5.5t-3.5 7.5t4 8t10 3q11 0 20 -7v13q-10 5 -20 5q-12 0 -19 -6t-7 -16q0 -9 5 -13.5
t17 -9.5q17 -5 17 -12q0 -12 -14 -12q-13 0 -26 9v-13q12 -7 26 -7zM557 113q7 7 17 7t17 -7t7 -18t-7 -18.5t-17 -7.5t-17 7.5t-7 18.5t7 18zM585 367l167 166h-171q-29 -35 -29 -81q0 -49 33 -85zM680 325q48 0 85 32h-170q37 -32 85 -32zM765 547q-38 33 -85 33
q-49 0 -85 -33h170zM612 170v77h-12v-77h12zM778 371q29 35 29 81q0 48 -32 85l-166 -166h169zM636.5 180.5q11.5 -11.5 28.5 -11.5t28.5 11.5t11.5 28.5t-11.5 28.5t-28.5 11.5t-28.5 -11.5t-11.5 -28.5t11.5 -28.5zM645 229q8 8 20 8q11 0 19 -8t8 -20q0 -13 -8 -21
t-19 -8q-12 0 -20 8t-8 21q0 12 8 20zM676 40l-1 53l34 -53h36v109h-35v-58l-33 58h-36v-109h35zM729 170v52l49 -54h6v79h-12v-54l-49 55h-6v-78h12zM777 118v-78h35v78h25v31h-86v-31h26zM1276 201l-13 -11l8 -7l25 24l-25 24l-8 -7l13 -11h-458v-12h458zM850.5 321
q18.5 -18 46.5 -18t47 18t19 46q0 27 -19 45t-47 18t-46.5 -18t-18.5 -45q0 -28 18.5 -46zM847.5 96.5q7.5 -7.5 24.5 -13.5q3 -1 10 -3t7 -6q0 -6 -9 -6q-13 0 -38 16v-37q16 -10 38 -10q19 0 31.5 10t12.5 27q0 27 -36 35q-3 1 -7 2t-5.5 2.5t-1.5 3.5q0 4 11 4
q7 0 16.5 -3t15.5 -8v34q-18 8 -32 8q-21 0 -33 -9t-12 -25q0 -14 7.5 -21.5zM878 387q8 8 19 8q12 0 19.5 -8t7.5 -20q0 -13 -7.5 -21t-19.5 -8q-11 0 -19 8t-8 21q0 12 8 20zM934 42q5 -5 13 -5q7 0 12 5t5 12t-5 11.5t-12 4.5q-8 0 -13 -4.5t-5 -11.5t5 -12zM987 53.5
q17 -16.5 41 -16.5q12 0 26 7l1 35q-10 -10 -25 -10q-11 0 -18 7.5t-7 18.5t7.5 18t17.5 7t22 -7v33q-10 6 -23 6q-25 0 -42 -16.5t-17 -40.5q0 -25 17 -41.5zM1010 306l-1 59l38 -59h40v121h-39v-64l-37 64h-40v-121h39zM1075 53.5q17 -16.5 43 -16.5q25 0 42 16.5t17 41.5
q0 24 -17 40.5t-42 16.5t-42.5 -16.5t-17.5 -40.5q0 -25 17 -41.5zM1100.5 113q7.5 7 17.5 7t17 -7.5t7 -17.5q0 -11 -7 -18.5t-17 -7.5q-11 0 -18 7.5t-7 18.5t7.5 18zM1181 306v33h-43v88h-39v-121h82zM1203 354v-48h39v48l41 73h-45l-16 -36l-15 36h-46zM1219 40v43
l14 -27h25l14 27v-43h34v109h-35l-26 -50l-26 50h-35v-109h35z" />
    <glyph glyph-name=".null" horiz-adv-x="0" 
 />
    <glyph glyph-name="nonmarkingreturn" unicode="&#xd;" 
 />
    <glyph glyph-name="space" unicode=" " 
 />
    <glyph glyph-name="exclam" unicode="!" 
d="M222 640h154l-20 -410h-114zM244 102q21 18 56 18q36 0 56.5 -18t20.5 -49t-20.5 -49t-56.5 -18q-35 0 -56 18t-21 49t21 49z" />
    <glyph glyph-name="quotedbl" unicode="&#x22;" 
d="M118 670h160l3 -47l-54 -243h-106zM345 670h160l3 -47l-54 -243h-106z" />
    <glyph glyph-name="numbersign" unicode="#" 
d="M147 204h-60v76h71l15 98h-86v76h96l18 117h82l-17 -117h96l17 117h83l-17 -117h57v-76h-68l-14 -98h82v-76h-93l-18 -120h-83l17 120h-95l-17 -120h-83zM336 280l15 98h-95l-15 -98h95z" />
    <glyph glyph-name="dollar" unicode="$" 
d="M267 50q-104 5 -199 34l22 107q114 -30 215 -30q51 0 72.5 12t21.5 34q0 20 -21.5 31t-84.5 24q-80 16 -127 36t-68.5 49.5t-21.5 72.5q0 65 48 104t142 46l-6 127h117l-6 -129q81 -8 149 -31l-29 -105q-36 11 -89 20t-98 9q-91 0 -91 -39q0 -14 10.5 -22.5t33 -16
t68.5 -17.5q111 -25 162 -60t51 -102q0 -66 -43 -104.5t-125 -47.5l7 -145h-117z" />
    <glyph glyph-name="percent" unicode="%" 
d="M35 123l460 460q43 -29 68 -68l-460 -460zM70 618q34 37 98 37t98 -37t34 -102q0 -68 -34 -105.5t-98 -37.5t-98 37.5t-34 105.5q0 65 34 102zM134.5 467q10.5 -16 33.5 -16q44 0 44 65q0 63 -44 63q-23 0 -33.5 -15.5t-10.5 -47.5q0 -33 10.5 -49zM336 230.5
q34 37.5 98 37.5t98 -37.5t34 -102.5q0 -67 -34 -105t-98 -38t-98 38t-34 105q0 65 34 102.5zM400.5 79q10.5 -16 33.5 -16q44 0 44 65q0 63 -44 63q-23 0 -33.5 -15.5t-10.5 -47.5q0 -33 10.5 -49z" />
    <glyph glyph-name="ampersand" unicode="&#x26;" 
d="M491 -15l-73 84q-98 -84 -217 -84q-74 0 -124 43t-50 141q0 47 8.5 88.5t27.5 91.5q67 5 108 5q-32 38 -49.5 74t-17.5 76q0 64 46.5 107.5t138.5 43.5q47 0 90 -9t95 -31l-26 -110q-47 17 -81 25t-67 8t-48.5 -12t-15.5 -31q0 -16 10 -32.5t30 -40.5l136 -158
q13 64 15 147h122q-3 -133 -47 -250l79 -92q-33 -46 -90 -84zM180 130q16 -21 44 -21q61 0 119 47l-91 105q-36 1 -79 -2q-9 -34 -9 -74q0 -34 16 -55z" />
    <glyph glyph-name="quotesingle" unicode="'" 
d="M215 670h160l3 -47l-54 -243h-106z" />
    <glyph glyph-name="parenleft" unicode="(" 
d="M203 47q-55 113 -55 231q0 119 55 232t174 204l69 -73q-81 -81 -121.5 -168t-40.5 -195q0 -107 40.5 -194t121.5 -168l-70 -74q-118 92 -173 205z" />
    <glyph glyph-name="parenright" unicode=")" 
d="M263.5 84q40.5 87 40.5 194q0 108 -40.5 195t-121.5 168l69 73q119 -91 174 -204t55 -232q0 -118 -55 -231t-173 -205l-70 74q81 81 121.5 168z" />
    <glyph glyph-name="asterisk" unicode="*" 
d="M281 496l-64 -66l-43 71l90 26l-90 25l43 67l64 -62l-22 90h82l-21 -90l63 62l43 -67l-90 -26l90 -25l-43 -71l-63 65l20 -88h-80z" />
    <glyph glyph-name="plus" unicode="+" 
d="M122 318l122 -3l-2 113h116l-3 -113l123 3v-116l-123 3l3 -112h-116l2 112l-122 -3v116z" />
    <glyph glyph-name="comma" unicode="," 
d="M267 -89q23 36 32 75l-95 21q-2 56 21 87t68 31t67 -27.5t22 -74.5q0 -55 -29.5 -115t-75.5 -103l-63 43q30 27 53 63z" />
    <glyph glyph-name="hyphen" unicode="-" 
d="M141 318h319v-116h-319v116z" />
    <glyph glyph-name="period" unicode="." 
d="M235.5 4.5q-22.5 19.5 -22.5 53.5t22.5 54t62.5 20q38 0 60.5 -20t22.5 -54t-22.5 -53.5t-60.5 -19.5q-40 0 -62.5 19.5z" />
    <glyph glyph-name="slash" unicode="/" 
d="M25 -138l449 845l108 -52l-449 -845z" />
    <glyph glyph-name="zero" unicode="0" horiz-adv-x="1354" 
d="M48 40h95v31h-38l41 78h-93v-31h36zM64 170v29h33v11h-33v26h38v11h-50v-77h12zM53 462h486q4 56 44.5 94t96.5 38t96.5 -38t44.5 -94h486v-193h-1254v193zM105 392v-86h39v86h28v35h-96v-35h29zM121 178q9 -9 22 -9q14 0 23 8.5t9 22.5v47h-12v-47q0 -8 -6 -14t-14 -6
t-13.5 5.5t-5.5 14.5v47h-12v-47q0 -13 9 -22zM233 40v30h-45v10h38v30h-38v9h44v30h-79v-109h80zM218 306v35h8l15 -35h41l-21 46q14 12 14 32q0 18 -13.5 30.5t-32.5 12.5h-50v-121h39zM237 170v11h-35v66h-12v-77h47zM218 394h10q3 0 5.5 -3t2.5 -7t-2.5 -7.5t-5.5 -3.5
h-10v21zM263 118v-78h35v78h26v31h-87v-31h26zM296 170v11h-36v66h-12v-77h48zM326 306v121h-38v-121h38zM348 40l5 17h31l4 -17h38l-37 109h-40l-37 -109h36zM360 170h8l32 77h-14l-22 -57l-22 57h-14zM374 306l5 19h34l5 -19h42l-41 121h-45l-41 -121h41zM368 112h1l7 -26
h-15zM395 386h1l8 -29h-17zM460 170v11h-38v23h33v10h-33v22h38v11h-50v-77h50zM467 40v34h37v29h-37v16h44v30h-79v-109h35zM549 306v33h-43v88h-39v-121h82zM485 170v28h18l13 -28h14l-15 31q12 7 12 21q0 11 -7 18t-18 7h-29v-77h12zM485 236h17q5 0 9 -4t4 -10t-4 -10
t-9 -4h-17v28zM532 53.5q17 -16.5 42 -16.5t42 16.5t17 41.5q0 24 -17 40.5t-42 16.5t-42 -16.5t-17 -40.5q0 -25 17 -41.5zM562 169q11 0 18.5 6t7.5 17q0 13 -23 22q-9 3 -12.5 5.5t-3.5 7.5t4 8t10 3q11 0 20 -7v13q-10 5 -20 5q-12 0 -19 -6t-7 -16q0 -9 5 -13.5
t17 -9.5q17 -5 17 -12q0 -12 -14 -12q-13 0 -26 9v-13q12 -7 26 -7zM557 113q7 7 17 7t17 -7t7 -18t-7 -18.5t-17 -7.5t-17 7.5t-7 18.5t7 18zM585 367l167 166h-171q-29 -35 -29 -81q0 -49 33 -85zM680 325q48 0 85 32h-170q37 -32 85 -32zM765 547q-38 33 -85 33
q-49 0 -85 -33h170zM612 170v77h-12v-77h12zM778 371q29 35 29 81q0 48 -32 85l-166 -166h169zM636.5 180.5q11.5 -11.5 28.5 -11.5t28.5 11.5t11.5 28.5t-11.5 28.5t-28.5 11.5t-28.5 -11.5t-11.5 -28.5t11.5 -28.5zM645 229q8 8 20 8q11 0 19 -8t8 -20q0 -13 -8 -21
t-19 -8q-12 0 -20 8t-8 21q0 12 8 20zM676 40l-1 53l34 -53h36v109h-35v-58l-33 58h-36v-109h35zM729 170v52l49 -54h6v79h-12v-54l-49 55h-6v-78h12zM777 118v-78h35v78h25v31h-86v-31h26zM1276 201l-13 -11l8 -7l25 24l-25 24l-8 -7l13 -11h-458v-12h458zM850.5 321
q18.5 -18 46.5 -18t47 18t19 46q0 27 -19 45t-47 18t-46.5 -18t-18.5 -45q0 -28 18.5 -46zM847.5 96.5q7.5 -7.5 24.5 -13.5q3 -1 10 -3t7 -6q0 -6 -9 -6q-13 0 -38 16v-37q16 -10 38 -10q19 0 31.5 10t12.5 27q0 27 -36 35q-3 1 -7 2t-5.5 2.5t-1.5 3.5q0 4 11 4
q7 0 16.5 -3t15.5 -8v34q-18 8 -32 8q-21 0 -33 -9t-12 -25q0 -14 7.5 -21.5zM878 387q8 8 19 8q12 0 19.5 -8t7.5 -20q0 -13 -7.5 -21t-19.5 -8q-11 0 -19 8t-8 21q0 12 8 20zM934 42q5 -5 13 -5q7 0 12 5t5 12t-5 11.5t-12 4.5q-8 0 -13 -4.5t-5 -11.5t5 -12zM987 53.5
q17 -16.5 41 -16.5q12 0 26 7l1 35q-10 -10 -25 -10q-11 0 -18 7.5t-7 18.5t7.5 18t17.5 7t22 -7v33q-10 6 -23 6q-25 0 -42 -16.5t-17 -40.5q0 -25 17 -41.5zM1010 306l-1 59l38 -59h40v121h-39v-64l-37 64h-40v-121h39zM1075 53.5q17 -16.5 43 -16.5q25 0 42 16.5t17 41.5
q0 24 -17 40.5t-42 16.5t-42.5 -16.5t-17.5 -40.5q0 -25 17 -41.5zM1100.5 113q7.5 7 17.5 7t17 -7.5t7 -17.5q0 -11 -7 -18.5t-17 -7.5q-11 0 -18 7.5t-7 18.5t7.5 18zM1181 306v33h-43v88h-39v-121h82zM1203 354v-48h39v48l41 73h-45l-16 -36l-15 36h-46zM1219 40v43
l14 -27h25l14 27v-43h34v109h-35l-26 -50l-26 50h-35v-109h35z" />
    <glyph glyph-name="one" unicode="1" horiz-adv-x="1354" 
d="M48 40h95v31h-38l41 78h-93v-31h36zM64 170v29h33v11h-33v26h38v11h-50v-77h12zM53 462h486q4 56 44.5 94t96.5 38t96.5 -38t44.5 -94h486v-193h-1254v193zM105 392v-86h39v86h28v35h-96v-35h29zM121 178q9 -9 22 -9q14 0 23 8.5t9 22.5v47h-12v-47q0 -8 -6 -14t-14 -6
t-13.5 5.5t-5.5 14.5v47h-12v-47q0 -13 9 -22zM233 40v30h-45v10h38v30h-38v9h44v30h-79v-109h80zM218 306v35h8l15 -35h41l-21 46q14 12 14 32q0 18 -13.5 30.5t-32.5 12.5h-50v-121h39zM237 170v11h-35v66h-12v-77h47zM218 394h10q3 0 5.5 -3t2.5 -7t-2.5 -7.5t-5.5 -3.5
h-10v21zM263 118v-78h35v78h26v31h-87v-31h26zM296 170v11h-36v66h-12v-77h48zM326 306v121h-38v-121h38zM348 40l5 17h31l4 -17h38l-37 109h-40l-37 -109h36zM360 170h8l32 77h-14l-22 -57l-22 57h-14zM374 306l5 19h34l5 -19h42l-41 121h-45l-41 -121h41zM368 112h1l7 -26
h-15zM395 386h1l8 -29h-17zM460 170v11h-38v23h33v10h-33v22h38v11h-50v-77h50zM467 40v34h37v29h-37v16h44v30h-79v-109h35zM549 306v33h-43v88h-39v-121h82zM485 170v28h18l13 -28h14l-15 31q12 7 12 21q0 11 -7 18t-18 7h-29v-77h12zM485 236h17q5 0 9 -4t4 -10t-4 -10
t-9 -4h-17v28zM532 53.5q17 -16.5 42 -16.5t42 16.5t17 41.5q0 24 -17 40.5t-42 16.5t-42 -16.5t-17 -40.5q0 -25 17 -41.5zM562 169q11 0 18.5 6t7.5 17q0 13 -23 22q-9 3 -12.5 5.5t-3.5 7.5t4 8t10 3q11 0 20 -7v13q-10 5 -20 5q-12 0 -19 -6t-7 -16q0 -9 5 -13.5
t17 -9.5q17 -5 17 -12q0 -12 -14 -12q-13 0 -26 9v-13q12 -7 26 -7zM557 113q7 7 17 7t17 -7t7 -18t-7 -18.5t-17 -7.5t-17 7.5t-7 18.5t7 18zM585 367l167 166h-171q-29 -35 -29 -81q0 -49 33 -85zM680 325q48 0 85 32h-170q37 -32 85 -32zM765 547q-38 33 -85 33
q-49 0 -85 -33h170zM612 170v77h-12v-77h12zM778 371q29 35 29 81q0 48 -32 85l-166 -166h169zM636.5 180.5q11.5 -11.5 28.5 -11.5t28.5 11.5t11.5 28.5t-11.5 28.5t-28.5 11.5t-28.5 -11.5t-11.5 -28.5t11.5 -28.5zM645 229q8 8 20 8q11 0 19 -8t8 -20q0 -13 -8 -21
t-19 -8q-12 0 -20 8t-8 21q0 12 8 20zM676 40l-1 53l34 -53h36v109h-35v-58l-33 58h-36v-109h35zM729 170v52l49 -54h6v79h-12v-54l-49 55h-6v-78h12zM777 118v-78h35v78h25v31h-86v-31h26zM1276 201l-13 -11l8 -7l25 24l-25 24l-8 -7l13 -11h-458v-12h458zM850.5 321
q18.5 -18 46.5 -18t47 18t19 46q0 27 -19 45t-47 18t-46.5 -18t-18.5 -45q0 -28 18.5 -46zM847.5 96.5q7.5 -7.5 24.5 -13.5q3 -1 10 -3t7 -6q0 -6 -9 -6q-13 0 -38 16v-37q16 -10 38 -10q19 0 31.5 10t12.5 27q0 27 -36 35q-3 1 -7 2t-5.5 2.5t-1.5 3.5q0 4 11 4
q7 0 16.5 -3t15.5 -8v34q-18 8 -32 8q-21 0 -33 -9t-12 -25q0 -14 7.5 -21.5zM878 387q8 8 19 8q12 0 19.5 -8t7.5 -20q0 -13 -7.5 -21t-19.5 -8q-11 0 -19 8t-8 21q0 12 8 20zM934 42q5 -5 13 -5q7 0 12 5t5 12t-5 11.5t-12 4.5q-8 0 -13 -4.5t-5 -11.5t5 -12zM987 53.5
q17 -16.5 41 -16.5q12 0 26 7l1 35q-10 -10 -25 -10q-11 0 -18 7.5t-7 18.5t7.5 18t17.5 7t22 -7v33q-10 6 -23 6q-25 0 -42 -16.5t-17 -40.5q0 -25 17 -41.5zM1010 306l-1 59l38 -59h40v121h-39v-64l-37 64h-40v-121h39zM1075 53.5q17 -16.5 43 -16.5q25 0 42 16.5t17 41.5
q0 24 -17 40.5t-42 16.5t-42.5 -16.5t-17.5 -40.5q0 -25 17 -41.5zM1100.5 113q7.5 7 17.5 7t17 -7.5t7 -17.5q0 -11 -7 -18.5t-17 -7.5q-11 0 -18 7.5t-7 18.5t7.5 18zM1181 306v33h-43v88h-39v-121h82zM1203 354v-48h39v48l41 73h-45l-16 -36l-15 36h-46zM1219 40v43
l14 -27h25l14 27v-43h34v109h-35l-26 -50l-26 50h-35v-109h35z" />
    <glyph glyph-name="two" unicode="2" horiz-adv-x="1354" 
d="M48 40h95v31h-38l41 78h-93v-31h36zM64 170v29h33v11h-33v26h38v11h-50v-77h12zM53 462h486q4 56 44.5 94t96.5 38t96.5 -38t44.5 -94h486v-193h-1254v193zM105 392v-86h39v86h28v35h-96v-35h29zM121 178q9 -9 22 -9q14 0 23 8.5t9 22.5v47h-12v-47q0 -8 -6 -14t-14 -6
t-13.5 5.5t-5.5 14.5v47h-12v-47q0 -13 9 -22zM233 40v30h-45v10h38v30h-38v9h44v30h-79v-109h80zM218 306v35h8l15 -35h41l-21 46q14 12 14 32q0 18 -13.5 30.5t-32.5 12.5h-50v-121h39zM237 170v11h-35v66h-12v-77h47zM218 394h10q3 0 5.5 -3t2.5 -7t-2.5 -7.5t-5.5 -3.5
h-10v21zM263 118v-78h35v78h26v31h-87v-31h26zM296 170v11h-36v66h-12v-77h48zM326 306v121h-38v-121h38zM348 40l5 17h31l4 -17h38l-37 109h-40l-37 -109h36zM360 170h8l32 77h-14l-22 -57l-22 57h-14zM374 306l5 19h34l5 -19h42l-41 121h-45l-41 -121h41zM368 112h1l7 -26
h-15zM395 386h1l8 -29h-17zM460 170v11h-38v23h33v10h-33v22h38v11h-50v-77h50zM467 40v34h37v29h-37v16h44v30h-79v-109h35zM549 306v33h-43v88h-39v-121h82zM485 170v28h18l13 -28h14l-15 31q12 7 12 21q0 11 -7 18t-18 7h-29v-77h12zM485 236h17q5 0 9 -4t4 -10t-4 -10
t-9 -4h-17v28zM532 53.5q17 -16.5 42 -16.5t42 16.5t17 41.5q0 24 -17 40.5t-42 16.5t-42 -16.5t-17 -40.5q0 -25 17 -41.5zM562 169q11 0 18.5 6t7.5 17q0 13 -23 22q-9 3 -12.5 5.5t-3.5 7.5t4 8t10 3q11 0 20 -7v13q-10 5 -20 5q-12 0 -19 -6t-7 -16q0 -9 5 -13.5
t17 -9.5q17 -5 17 -12q0 -12 -14 -12q-13 0 -26 9v-13q12 -7 26 -7zM557 113q7 7 17 7t17 -7t7 -18t-7 -18.5t-17 -7.5t-17 7.5t-7 18.5t7 18zM585 367l167 166h-171q-29 -35 -29 -81q0 -49 33 -85zM680 325q48 0 85 32h-170q37 -32 85 -32zM765 547q-38 33 -85 33
q-49 0 -85 -33h170zM612 170v77h-12v-77h12zM778 371q29 35 29 81q0 48 -32 85l-166 -166h169zM636.5 180.5q11.5 -11.5 28.5 -11.5t28.5 11.5t11.5 28.5t-11.5 28.5t-28.5 11.5t-28.5 -11.5t-11.5 -28.5t11.5 -28.5zM645 229q8 8 20 8q11 0 19 -8t8 -20q0 -13 -8 -21
t-19 -8q-12 0 -20 8t-8 21q0 12 8 20zM676 40l-1 53l34 -53h36v109h-35v-58l-33 58h-36v-109h35zM729 170v52l49 -54h6v79h-12v-54l-49 55h-6v-78h12zM777 118v-78h35v78h25v31h-86v-31h26zM1276 201l-13 -11l8 -7l25 24l-25 24l-8 -7l13 -11h-458v-12h458zM850.5 321
q18.5 -18 46.5 -18t47 18t19 46q0 27 -19 45t-47 18t-46.5 -18t-18.5 -45q0 -28 18.5 -46zM847.5 96.5q7.5 -7.5 24.5 -13.5q3 -1 10 -3t7 -6q0 -6 -9 -6q-13 0 -38 16v-37q16 -10 38 -10q19 0 31.5 10t12.5 27q0 27 -36 35q-3 1 -7 2t-5.5 2.5t-1.5 3.5q0 4 11 4
q7 0 16.5 -3t15.5 -8v34q-18 8 -32 8q-21 0 -33 -9t-12 -25q0 -14 7.5 -21.5zM878 387q8 8 19 8q12 0 19.5 -8t7.5 -20q0 -13 -7.5 -21t-19.5 -8q-11 0 -19 8t-8 21q0 12 8 20zM934 42q5 -5 13 -5q7 0 12 5t5 12t-5 11.5t-12 4.5q-8 0 -13 -4.5t-5 -11.5t5 -12zM987 53.5
q17 -16.5 41 -16.5q12 0 26 7l1 35q-10 -10 -25 -10q-11 0 -18 7.5t-7 18.5t7.5 18t17.5 7t22 -7v33q-10 6 -23 6q-25 0 -42 -16.5t-17 -40.5q0 -25 17 -41.5zM1010 306l-1 59l38 -59h40v121h-39v-64l-37 64h-40v-121h39zM1075 53.5q17 -16.5 43 -16.5q25 0 42 16.5t17 41.5
q0 24 -17 40.5t-42 16.5t-42.5 -16.5t-17.5 -40.5q0 -25 17 -41.5zM1100.5 113q7.5 7 17.5 7t17 -7.5t7 -17.5q0 -11 -7 -18.5t-17 -7.5q-11 0 -18 7.5t-7 18.5t7.5 18zM1181 306v33h-43v88h-39v-121h82zM1203 354v-48h39v48l41 73h-45l-16 -36l-15 36h-46zM1219 40v43
l14 -27h25l14 27v-43h34v109h-35l-26 -50l-26 50h-35v-109h35z" />
    <glyph glyph-name="three" unicode="3" horiz-adv-x="1354" 
d="M48 40h95v31h-38l41 78h-93v-31h36zM64 170v29h33v11h-33v26h38v11h-50v-77h12zM53 462h486q4 56 44.5 94t96.5 38t96.5 -38t44.5 -94h486v-193h-1254v193zM105 392v-86h39v86h28v35h-96v-35h29zM121 178q9 -9 22 -9q14 0 23 8.5t9 22.5v47h-12v-47q0 -8 -6 -14t-14 -6
t-13.5 5.5t-5.5 14.5v47h-12v-47q0 -13 9 -22zM233 40v30h-45v10h38v30h-38v9h44v30h-79v-109h80zM218 306v35h8l15 -35h41l-21 46q14 12 14 32q0 18 -13.5 30.5t-32.5 12.5h-50v-121h39zM237 170v11h-35v66h-12v-77h47zM218 394h10q3 0 5.5 -3t2.5 -7t-2.5 -7.5t-5.5 -3.5
h-10v21zM263 118v-78h35v78h26v31h-87v-31h26zM296 170v11h-36v66h-12v-77h48zM326 306v121h-38v-121h38zM348 40l5 17h31l4 -17h38l-37 109h-40l-37 -109h36zM360 170h8l32 77h-14l-22 -57l-22 57h-14zM374 306l5 19h34l5 -19h42l-41 121h-45l-41 -121h41zM368 112h1l7 -26
h-15zM395 386h1l8 -29h-17zM460 170v11h-38v23h33v10h-33v22h38v11h-50v-77h50zM467 40v34h37v29h-37v16h44v30h-79v-109h35zM549 306v33h-43v88h-39v-121h82zM485 170v28h18l13 -28h14l-15 31q12 7 12 21q0 11 -7 18t-18 7h-29v-77h12zM485 236h17q5 0 9 -4t4 -10t-4 -10
t-9 -4h-17v28zM532 53.5q17 -16.5 42 -16.5t42 16.5t17 41.5q0 24 -17 40.5t-42 16.5t-42 -16.5t-17 -40.5q0 -25 17 -41.5zM562 169q11 0 18.5 6t7.5 17q0 13 -23 22q-9 3 -12.5 5.5t-3.5 7.5t4 8t10 3q11 0 20 -7v13q-10 5 -20 5q-12 0 -19 -6t-7 -16q0 -9 5 -13.5
t17 -9.5q17 -5 17 -12q0 -12 -14 -12q-13 0 -26 9v-13q12 -7 26 -7zM557 113q7 7 17 7t17 -7t7 -18t-7 -18.5t-17 -7.5t-17 7.5t-7 18.5t7 18zM585 367l167 166h-171q-29 -35 -29 -81q0 -49 33 -85zM680 325q48 0 85 32h-170q37 -32 85 -32zM765 547q-38 33 -85 33
q-49 0 -85 -33h170zM612 170v77h-12v-77h12zM778 371q29 35 29 81q0 48 -32 85l-166 -166h169zM636.5 180.5q11.5 -11.5 28.5 -11.5t28.5 11.5t11.5 28.5t-11.5 28.5t-28.5 11.5t-28.5 -11.5t-11.5 -28.5t11.5 -28.5zM645 229q8 8 20 8q11 0 19 -8t8 -20q0 -13 -8 -21
t-19 -8q-12 0 -20 8t-8 21q0 12 8 20zM676 40l-1 53l34 -53h36v109h-35v-58l-33 58h-36v-109h35zM729 170v52l49 -54h6v79h-12v-54l-49 55h-6v-78h12zM777 118v-78h35v78h25v31h-86v-31h26zM1276 201l-13 -11l8 -7l25 24l-25 24l-8 -7l13 -11h-458v-12h458zM850.5 321
q18.5 -18 46.5 -18t47 18t19 46q0 27 -19 45t-47 18t-46.5 -18t-18.5 -45q0 -28 18.5 -46zM847.5 96.5q7.5 -7.5 24.5 -13.5q3 -1 10 -3t7 -6q0 -6 -9 -6q-13 0 -38 16v-37q16 -10 38 -10q19 0 31.5 10t12.5 27q0 27 -36 35q-3 1 -7 2t-5.5 2.5t-1.5 3.5q0 4 11 4
q7 0 16.5 -3t15.5 -8v34q-18 8 -32 8q-21 0 -33 -9t-12 -25q0 -14 7.5 -21.5zM878 387q8 8 19 8q12 0 19.5 -8t7.5 -20q0 -13 -7.5 -21t-19.5 -8q-11 0 -19 8t-8 21q0 12 8 20zM934 42q5 -5 13 -5q7 0 12 5t5 12t-5 11.5t-12 4.5q-8 0 -13 -4.5t-5 -11.5t5 -12zM987 53.5
q17 -16.5 41 -16.5q12 0 26 7l1 35q-10 -10 -25 -10q-11 0 -18 7.5t-7 18.5t7.5 18t17.5 7t22 -7v33q-10 6 -23 6q-25 0 -42 -16.5t-17 -40.5q0 -25 17 -41.5zM1010 306l-1 59l38 -59h40v121h-39v-64l-37 64h-40v-121h39zM1075 53.5q17 -16.5 43 -16.5q25 0 42 16.5t17 41.5
q0 24 -17 40.5t-42 16.5t-42.5 -16.5t-17.5 -40.5q0 -25 17 -41.5zM1100.5 113q7.5 7 17.5 7t17 -7.5t7 -17.5q0 -11 -7 -18.5t-17 -7.5q-11 0 -18 7.5t-7 18.5t7.5 18zM1181 306v33h-43v88h-39v-121h82zM1203 354v-48h39v48l41 73h-45l-16 -36l-15 36h-46zM1219 40v43
l14 -27h25l14 27v-43h34v109h-35l-26 -50l-26 50h-35v-109h35z" />
    <glyph glyph-name="four" unicode="4" horiz-adv-x="1354" 
d="M48 40h95v31h-38l41 78h-93v-31h36zM64 170v29h33v11h-33v26h38v11h-50v-77h12zM53 462h486q4 56 44.5 94t96.5 38t96.5 -38t44.5 -94h486v-193h-1254v193zM105 392v-86h39v86h28v35h-96v-35h29zM121 178q9 -9 22 -9q14 0 23 8.5t9 22.5v47h-12v-47q0 -8 -6 -14t-14 -6
t-13.5 5.5t-5.5 14.5v47h-12v-47q0 -13 9 -22zM233 40v30h-45v10h38v30h-38v9h44v30h-79v-109h80zM218 306v35h8l15 -35h41l-21 46q14 12 14 32q0 18 -13.5 30.5t-32.5 12.5h-50v-121h39zM237 170v11h-35v66h-12v-77h47zM218 394h10q3 0 5.5 -3t2.5 -7t-2.5 -7.5t-5.5 -3.5
h-10v21zM263 118v-78h35v78h26v31h-87v-31h26zM296 170v11h-36v66h-12v-77h48zM326 306v121h-38v-121h38zM348 40l5 17h31l4 -17h38l-37 109h-40l-37 -109h36zM360 170h8l32 77h-14l-22 -57l-22 57h-14zM374 306l5 19h34l5 -19h42l-41 121h-45l-41 -121h41zM368 112h1l7 -26
h-15zM395 386h1l8 -29h-17zM460 170v11h-38v23h33v10h-33v22h38v11h-50v-77h50zM467 40v34h37v29h-37v16h44v30h-79v-109h35zM549 306v33h-43v88h-39v-121h82zM485 170v28h18l13 -28h14l-15 31q12 7 12 21q0 11 -7 18t-18 7h-29v-77h12zM485 236h17q5 0 9 -4t4 -10t-4 -10
t-9 -4h-17v28zM532 53.5q17 -16.5 42 -16.5t42 16.5t17 41.5q0 24 -17 40.5t-42 16.5t-42 -16.5t-17 -40.5q0 -25 17 -41.5zM562 169q11 0 18.5 6t7.5 17q0 13 -23 22q-9 3 -12.5 5.5t-3.5 7.5t4 8t10 3q11 0 20 -7v13q-10 5 -20 5q-12 0 -19 -6t-7 -16q0 -9 5 -13.5
t17 -9.5q17 -5 17 -12q0 -12 -14 -12q-13 0 -26 9v-13q12 -7 26 -7zM557 113q7 7 17 7t17 -7t7 -18t-7 -18.5t-17 -7.5t-17 7.5t-7 18.5t7 18zM585 367l167 166h-171q-29 -35 -29 -81q0 -49 33 -85zM680 325q48 0 85 32h-170q37 -32 85 -32zM765 547q-38 33 -85 33
q-49 0 -85 -33h170zM612 170v77h-12v-77h12zM778 371q29 35 29 81q0 48 -32 85l-166 -166h169zM636.5 180.5q11.5 -11.5 28.5 -11.5t28.5 11.5t11.5 28.5t-11.5 28.5t-28.5 11.5t-28.5 -11.5t-11.5 -28.5t11.5 -28.5zM645 229q8 8 20 8q11 0 19 -8t8 -20q0 -13 -8 -21
t-19 -8q-12 0 -20 8t-8 21q0 12 8 20zM676 40l-1 53l34 -53h36v109h-35v-58l-33 58h-36v-109h35zM729 170v52l49 -54h6v79h-12v-54l-49 55h-6v-78h12zM777 118v-78h35v78h25v31h-86v-31h26zM1276 201l-13 -11l8 -7l25 24l-25 24l-8 -7l13 -11h-458v-12h458zM850.5 321
q18.5 -18 46.5 -18t47 18t19 46q0 27 -19 45t-47 18t-46.5 -18t-18.5 -45q0 -28 18.5 -46zM847.5 96.5q7.5 -7.5 24.5 -13.5q3 -1 10 -3t7 -6q0 -6 -9 -6q-13 0 -38 16v-37q16 -10 38 -10q19 0 31.5 10t12.5 27q0 27 -36 35q-3 1 -7 2t-5.5 2.5t-1.5 3.5q0 4 11 4
q7 0 16.5 -3t15.5 -8v34q-18 8 -32 8q-21 0 -33 -9t-12 -25q0 -14 7.5 -21.5zM878 387q8 8 19 8q12 0 19.5 -8t7.5 -20q0 -13 -7.5 -21t-19.5 -8q-11 0 -19 8t-8 21q0 12 8 20zM934 42q5 -5 13 -5q7 0 12 5t5 12t-5 11.5t-12 4.5q-8 0 -13 -4.5t-5 -11.5t5 -12zM987 53.5
q17 -16.5 41 -16.5q12 0 26 7l1 35q-10 -10 -25 -10q-11 0 -18 7.5t-7 18.5t7.5 18t17.5 7t22 -7v33q-10 6 -23 6q-25 0 -42 -16.5t-17 -40.5q0 -25 17 -41.5zM1010 306l-1 59l38 -59h40v121h-39v-64l-37 64h-40v-121h39zM1075 53.5q17 -16.5 43 -16.5q25 0 42 16.5t17 41.5
q0 24 -17 40.5t-42 16.5t-42.5 -16.5t-17.5 -40.5q0 -25 17 -41.5zM1100.5 113q7.5 7 17.5 7t17 -7.5t7 -17.5q0 -11 -7 -18.5t-17 -7.5q-11 0 -18 7.5t-7 18.5t7.5 18zM1181 306v33h-43v88h-39v-121h82zM1203 354v-48h39v48l41 73h-45l-16 -36l-15 36h-46zM1219 40v43
l14 -27h25l14 27v-43h34v109h-35l-26 -50l-26 50h-35v-109h35z" />
    <glyph glyph-name="five" unicode="5" horiz-adv-x="1354" 
d="M48 40h95v31h-38l41 78h-93v-31h36zM64 170v29h33v11h-33v26h38v11h-50v-77h12zM53 462h486q4 56 44.5 94t96.5 38t96.5 -38t44.5 -94h486v-193h-1254v193zM105 392v-86h39v86h28v35h-96v-35h29zM121 178q9 -9 22 -9q14 0 23 8.5t9 22.5v47h-12v-47q0 -8 -6 -14t-14 -6
t-13.5 5.5t-5.5 14.5v47h-12v-47q0 -13 9 -22zM233 40v30h-45v10h38v30h-38v9h44v30h-79v-109h80zM218 306v35h8l15 -35h41l-21 46q14 12 14 32q0 18 -13.5 30.5t-32.5 12.5h-50v-121h39zM237 170v11h-35v66h-12v-77h47zM218 394h10q3 0 5.5 -3t2.5 -7t-2.5 -7.5t-5.5 -3.5
h-10v21zM263 118v-78h35v78h26v31h-87v-31h26zM296 170v11h-36v66h-12v-77h48zM326 306v121h-38v-121h38zM348 40l5 17h31l4 -17h38l-37 109h-40l-37 -109h36zM360 170h8l32 77h-14l-22 -57l-22 57h-14zM374 306l5 19h34l5 -19h42l-41 121h-45l-41 -121h41zM368 112h1l7 -26
h-15zM395 386h1l8 -29h-17zM460 170v11h-38v23h33v10h-33v22h38v11h-50v-77h50zM467 40v34h37v29h-37v16h44v30h-79v-109h35zM549 306v33h-43v88h-39v-121h82zM485 170v28h18l13 -28h14l-15 31q12 7 12 21q0 11 -7 18t-18 7h-29v-77h12zM485 236h17q5 0 9 -4t4 -10t-4 -10
t-9 -4h-17v28zM532 53.5q17 -16.5 42 -16.5t42 16.5t17 41.5q0 24 -17 40.5t-42 16.5t-42 -16.5t-17 -40.5q0 -25 17 -41.5zM562 169q11 0 18.5 6t7.5 17q0 13 -23 22q-9 3 -12.5 5.5t-3.5 7.5t4 8t10 3q11 0 20 -7v13q-10 5 -20 5q-12 0 -19 -6t-7 -16q0 -9 5 -13.5
t17 -9.5q17 -5 17 -12q0 -12 -14 -12q-13 0 -26 9v-13q12 -7 26 -7zM557 113q7 7 17 7t17 -7t7 -18t-7 -18.5t-17 -7.5t-17 7.5t-7 18.5t7 18zM585 367l167 166h-171q-29 -35 -29 -81q0 -49 33 -85zM680 325q48 0 85 32h-170q37 -32 85 -32zM765 547q-38 33 -85 33
q-49 0 -85 -33h170zM612 170v77h-12v-77h12zM778 371q29 35 29 81q0 48 -32 85l-166 -166h169zM636.5 180.5q11.5 -11.5 28.5 -11.5t28.5 11.5t11.5 28.5t-11.5 28.5t-28.5 11.5t-28.5 -11.5t-11.5 -28.5t11.5 -28.5zM645 229q8 8 20 8q11 0 19 -8t8 -20q0 -13 -8 -21
t-19 -8q-12 0 -20 8t-8 21q0 12 8 20zM676 40l-1 53l34 -53h36v109h-35v-58l-33 58h-36v-109h35zM729 170v52l49 -54h6v79h-12v-54l-49 55h-6v-78h12zM777 118v-78h35v78h25v31h-86v-31h26zM1276 201l-13 -11l8 -7l25 24l-25 24l-8 -7l13 -11h-458v-12h458zM850.5 321
q18.5 -18 46.5 -18t47 18t19 46q0 27 -19 45t-47 18t-46.5 -18t-18.5 -45q0 -28 18.5 -46zM847.5 96.5q7.5 -7.5 24.5 -13.5q3 -1 10 -3t7 -6q0 -6 -9 -6q-13 0 -38 16v-37q16 -10 38 -10q19 0 31.5 10t12.5 27q0 27 -36 35q-3 1 -7 2t-5.5 2.5t-1.5 3.5q0 4 11 4
q7 0 16.5 -3t15.5 -8v34q-18 8 -32 8q-21 0 -33 -9t-12 -25q0 -14 7.5 -21.5zM878 387q8 8 19 8q12 0 19.5 -8t7.5 -20q0 -13 -7.5 -21t-19.5 -8q-11 0 -19 8t-8 21q0 12 8 20zM934 42q5 -5 13 -5q7 0 12 5t5 12t-5 11.5t-12 4.5q-8 0 -13 -4.5t-5 -11.5t5 -12zM987 53.5
q17 -16.5 41 -16.5q12 0 26 7l1 35q-10 -10 -25 -10q-11 0 -18 7.5t-7 18.5t7.5 18t17.5 7t22 -7v33q-10 6 -23 6q-25 0 -42 -16.5t-17 -40.5q0 -25 17 -41.5zM1010 306l-1 59l38 -59h40v121h-39v-64l-37 64h-40v-121h39zM1075 53.5q17 -16.5 43 -16.5q25 0 42 16.5t17 41.5
q0 24 -17 40.5t-42 16.5t-42.5 -16.5t-17.5 -40.5q0 -25 17 -41.5zM1100.5 113q7.5 7 17.5 7t17 -7.5t7 -17.5q0 -11 -7 -18.5t-17 -7.5q-11 0 -18 7.5t-7 18.5t7.5 18zM1181 306v33h-43v88h-39v-121h82zM1203 354v-48h39v48l41 73h-45l-16 -36l-15 36h-46zM1219 40v43
l14 -27h25l14 27v-43h34v109h-35l-26 -50l-26 50h-35v-109h35z" />
    <glyph glyph-name="six" unicode="6" horiz-adv-x="1354" 
d="M48 40h95v31h-38l41 78h-93v-31h36zM64 170v29h33v11h-33v26h38v11h-50v-77h12zM53 462h486q4 56 44.5 94t96.5 38t96.5 -38t44.5 -94h486v-193h-1254v193zM105 392v-86h39v86h28v35h-96v-35h29zM121 178q9 -9 22 -9q14 0 23 8.5t9 22.5v47h-12v-47q0 -8 -6 -14t-14 -6
t-13.5 5.5t-5.5 14.5v47h-12v-47q0 -13 9 -22zM233 40v30h-45v10h38v30h-38v9h44v30h-79v-109h80zM218 306v35h8l15 -35h41l-21 46q14 12 14 32q0 18 -13.5 30.5t-32.5 12.5h-50v-121h39zM237 170v11h-35v66h-12v-77h47zM218 394h10q3 0 5.5 -3t2.5 -7t-2.5 -7.5t-5.5 -3.5
h-10v21zM263 118v-78h35v78h26v31h-87v-31h26zM296 170v11h-36v66h-12v-77h48zM326 306v121h-38v-121h38zM348 40l5 17h31l4 -17h38l-37 109h-40l-37 -109h36zM360 170h8l32 77h-14l-22 -57l-22 57h-14zM374 306l5 19h34l5 -19h42l-41 121h-45l-41 -121h41zM368 112h1l7 -26
h-15zM395 386h1l8 -29h-17zM460 170v11h-38v23h33v10h-33v22h38v11h-50v-77h50zM467 40v34h37v29h-37v16h44v30h-79v-109h35zM549 306v33h-43v88h-39v-121h82zM485 170v28h18l13 -28h14l-15 31q12 7 12 21q0 11 -7 18t-18 7h-29v-77h12zM485 236h17q5 0 9 -4t4 -10t-4 -10
t-9 -4h-17v28zM532 53.5q17 -16.5 42 -16.5t42 16.5t17 41.5q0 24 -17 40.5t-42 16.5t-42 -16.5t-17 -40.5q0 -25 17 -41.5zM562 169q11 0 18.5 6t7.5 17q0 13 -23 22q-9 3 -12.5 5.5t-3.5 7.5t4 8t10 3q11 0 20 -7v13q-10 5 -20 5q-12 0 -19 -6t-7 -16q0 -9 5 -13.5
t17 -9.5q17 -5 17 -12q0 -12 -14 -12q-13 0 -26 9v-13q12 -7 26 -7zM557 113q7 7 17 7t17 -7t7 -18t-7 -18.5t-17 -7.5t-17 7.5t-7 18.5t7 18zM585 367l167 166h-171q-29 -35 -29 -81q0 -49 33 -85zM680 325q48 0 85 32h-170q37 -32 85 -32zM765 547q-38 33 -85 33
q-49 0 -85 -33h170zM612 170v77h-12v-77h12zM778 371q29 35 29 81q0 48 -32 85l-166 -166h169zM636.5 180.5q11.5 -11.5 28.5 -11.5t28.5 11.5t11.5 28.5t-11.5 28.5t-28.5 11.5t-28.5 -11.5t-11.5 -28.5t11.5 -28.5zM645 229q8 8 20 8q11 0 19 -8t8 -20q0 -13 -8 -21
t-19 -8q-12 0 -20 8t-8 21q0 12 8 20zM676 40l-1 53l34 -53h36v109h-35v-58l-33 58h-36v-109h35zM729 170v52l49 -54h6v79h-12v-54l-49 55h-6v-78h12zM777 118v-78h35v78h25v31h-86v-31h26zM1276 201l-13 -11l8 -7l25 24l-25 24l-8 -7l13 -11h-458v-12h458zM850.5 321
q18.5 -18 46.5 -18t47 18t19 46q0 27 -19 45t-47 18t-46.5 -18t-18.5 -45q0 -28 18.5 -46zM847.5 96.5q7.5 -7.5 24.5 -13.5q3 -1 10 -3t7 -6q0 -6 -9 -6q-13 0 -38 16v-37q16 -10 38 -10q19 0 31.5 10t12.5 27q0 27 -36 35q-3 1 -7 2t-5.5 2.5t-1.5 3.5q0 4 11 4
q7 0 16.5 -3t15.5 -8v34q-18 8 -32 8q-21 0 -33 -9t-12 -25q0 -14 7.5 -21.5zM878 387q8 8 19 8q12 0 19.5 -8t7.5 -20q0 -13 -7.5 -21t-19.5 -8q-11 0 -19 8t-8 21q0 12 8 20zM934 42q5 -5 13 -5q7 0 12 5t5 12t-5 11.5t-12 4.5q-8 0 -13 -4.5t-5 -11.5t5 -12zM987 53.5
q17 -16.5 41 -16.5q12 0 26 7l1 35q-10 -10 -25 -10q-11 0 -18 7.5t-7 18.5t7.5 18t17.5 7t22 -7v33q-10 6 -23 6q-25 0 -42 -16.5t-17 -40.5q0 -25 17 -41.5zM1010 306l-1 59l38 -59h40v121h-39v-64l-37 64h-40v-121h39zM1075 53.5q17 -16.5 43 -16.5q25 0 42 16.5t17 41.5
q0 24 -17 40.5t-42 16.5t-42.5 -16.5t-17.5 -40.5q0 -25 17 -41.5zM1100.5 113q7.5 7 17.5 7t17 -7.5t7 -17.5q0 -11 -7 -18.5t-17 -7.5q-11 0 -18 7.5t-7 18.5t7.5 18zM1181 306v33h-43v88h-39v-121h82zM1203 354v-48h39v48l41 73h-45l-16 -36l-15 36h-46zM1219 40v43
l14 -27h25l14 27v-43h34v109h-35l-26 -50l-26 50h-35v-109h35z" />
    <glyph glyph-name="seven" unicode="7" horiz-adv-x="1354" 
d="M48 40h95v31h-38l41 78h-93v-31h36zM64 170v29h33v11h-33v26h38v11h-50v-77h12zM53 462h486q4 56 44.5 94t96.5 38t96.5 -38t44.5 -94h486v-193h-1254v193zM105 392v-86h39v86h28v35h-96v-35h29zM121 178q9 -9 22 -9q14 0 23 8.5t9 22.5v47h-12v-47q0 -8 -6 -14t-14 -6
t-13.5 5.5t-5.5 14.5v47h-12v-47q0 -13 9 -22zM233 40v30h-45v10h38v30h-38v9h44v30h-79v-109h80zM218 306v35h8l15 -35h41l-21 46q14 12 14 32q0 18 -13.5 30.5t-32.5 12.5h-50v-121h39zM237 170v11h-35v66h-12v-77h47zM218 394h10q3 0 5.5 -3t2.5 -7t-2.5 -7.5t-5.5 -3.5
h-10v21zM263 118v-78h35v78h26v31h-87v-31h26zM296 170v11h-36v66h-12v-77h48zM326 306v121h-38v-121h38zM348 40l5 17h31l4 -17h38l-37 109h-40l-37 -109h36zM360 170h8l32 77h-14l-22 -57l-22 57h-14zM374 306l5 19h34l5 -19h42l-41 121h-45l-41 -121h41zM368 112h1l7 -26
h-15zM395 386h1l8 -29h-17zM460 170v11h-38v23h33v10h-33v22h38v11h-50v-77h50zM467 40v34h37v29h-37v16h44v30h-79v-109h35zM549 306v33h-43v88h-39v-121h82zM485 170v28h18l13 -28h14l-15 31q12 7 12 21q0 11 -7 18t-18 7h-29v-77h12zM485 236h17q5 0 9 -4t4 -10t-4 -10
t-9 -4h-17v28zM532 53.5q17 -16.5 42 -16.5t42 16.5t17 41.5q0 24 -17 40.5t-42 16.5t-42 -16.5t-17 -40.5q0 -25 17 -41.5zM562 169q11 0 18.5 6t7.5 17q0 13 -23 22q-9 3 -12.5 5.5t-3.5 7.5t4 8t10 3q11 0 20 -7v13q-10 5 -20 5q-12 0 -19 -6t-7 -16q0 -9 5 -13.5
t17 -9.5q17 -5 17 -12q0 -12 -14 -12q-13 0 -26 9v-13q12 -7 26 -7zM557 113q7 7 17 7t17 -7t7 -18t-7 -18.5t-17 -7.5t-17 7.5t-7 18.5t7 18zM585 367l167 166h-171q-29 -35 -29 -81q0 -49 33 -85zM680 325q48 0 85 32h-170q37 -32 85 -32zM765 547q-38 33 -85 33
q-49 0 -85 -33h170zM612 170v77h-12v-77h12zM778 371q29 35 29 81q0 48 -32 85l-166 -166h169zM636.5 180.5q11.5 -11.5 28.5 -11.5t28.5 11.5t11.5 28.5t-11.5 28.5t-28.5 11.5t-28.5 -11.5t-11.5 -28.5t11.5 -28.5zM645 229q8 8 20 8q11 0 19 -8t8 -20q0 -13 -8 -21
t-19 -8q-12 0 -20 8t-8 21q0 12 8 20zM676 40l-1 53l34 -53h36v109h-35v-58l-33 58h-36v-109h35zM729 170v52l49 -54h6v79h-12v-54l-49 55h-6v-78h12zM777 118v-78h35v78h25v31h-86v-31h26zM1276 201l-13 -11l8 -7l25 24l-25 24l-8 -7l13 -11h-458v-12h458zM850.5 321
q18.5 -18 46.5 -18t47 18t19 46q0 27 -19 45t-47 18t-46.5 -18t-18.5 -45q0 -28 18.5 -46zM847.5 96.5q7.5 -7.5 24.5 -13.5q3 -1 10 -3t7 -6q0 -6 -9 -6q-13 0 -38 16v-37q16 -10 38 -10q19 0 31.5 10t12.5 27q0 27 -36 35q-3 1 -7 2t-5.5 2.5t-1.5 3.5q0 4 11 4
q7 0 16.5 -3t15.5 -8v34q-18 8 -32 8q-21 0 -33 -9t-12 -25q0 -14 7.5 -21.5zM878 387q8 8 19 8q12 0 19.5 -8t7.5 -20q0 -13 -7.5 -21t-19.5 -8q-11 0 -19 8t-8 21q0 12 8 20zM934 42q5 -5 13 -5q7 0 12 5t5 12t-5 11.5t-12 4.5q-8 0 -13 -4.5t-5 -11.5t5 -12zM987 53.5
q17 -16.5 41 -16.5q12 0 26 7l1 35q-10 -10 -25 -10q-11 0 -18 7.5t-7 18.5t7.5 18t17.5 7t22 -7v33q-10 6 -23 6q-25 0 -42 -16.5t-17 -40.5q0 -25 17 -41.5zM1010 306l-1 59l38 -59h40v121h-39v-64l-37 64h-40v-121h39zM1075 53.5q17 -16.5 43 -16.5q25 0 42 16.5t17 41.5
q0 24 -17 40.5t-42 16.5t-42.5 -16.5t-17.5 -40.5q0 -25 17 -41.5zM1100.5 113q7.5 7 17.5 7t17 -7.5t7 -17.5q0 -11 -7 -18.5t-17 -7.5q-11 0 -18 7.5t-7 18.5t7.5 18zM1181 306v33h-43v88h-39v-121h82zM1203 354v-48h39v48l41 73h-45l-16 -36l-15 36h-46zM1219 40v43
l14 -27h25l14 27v-43h34v109h-35l-26 -50l-26 50h-35v-109h35z" />
    <glyph glyph-name="eight" unicode="8" horiz-adv-x="1354" 
d="M48 40h95v31h-38l41 78h-93v-31h36zM64 170v29h33v11h-33v26h38v11h-50v-77h12zM53 462h486q4 56 44.5 94t96.5 38t96.5 -38t44.5 -94h486v-193h-1254v193zM105 392v-86h39v86h28v35h-96v-35h29zM121 178q9 -9 22 -9q14 0 23 8.5t9 22.5v47h-12v-47q0 -8 -6 -14t-14 -6
t-13.5 5.5t-5.5 14.5v47h-12v-47q0 -13 9 -22zM233 40v30h-45v10h38v30h-38v9h44v30h-79v-109h80zM218 306v35h8l15 -35h41l-21 46q14 12 14 32q0 18 -13.5 30.5t-32.5 12.5h-50v-121h39zM237 170v11h-35v66h-12v-77h47zM218 394h10q3 0 5.5 -3t2.5 -7t-2.5 -7.5t-5.5 -3.5
h-10v21zM263 118v-78h35v78h26v31h-87v-31h26zM296 170v11h-36v66h-12v-77h48zM326 306v121h-38v-121h38zM348 40l5 17h31l4 -17h38l-37 109h-40l-37 -109h36zM360 170h8l32 77h-14l-22 -57l-22 57h-14zM374 306l5 19h34l5 -19h42l-41 121h-45l-41 -121h41zM368 112h1l7 -26
h-15zM395 386h1l8 -29h-17zM460 170v11h-38v23h33v10h-33v22h38v11h-50v-77h50zM467 40v34h37v29h-37v16h44v30h-79v-109h35zM549 306v33h-43v88h-39v-121h82zM485 170v28h18l13 -28h14l-15 31q12 7 12 21q0 11 -7 18t-18 7h-29v-77h12zM485 236h17q5 0 9 -4t4 -10t-4 -10
t-9 -4h-17v28zM532 53.5q17 -16.5 42 -16.5t42 16.5t17 41.5q0 24 -17 40.5t-42 16.5t-42 -16.5t-17 -40.5q0 -25 17 -41.5zM562 169q11 0 18.5 6t7.5 17q0 13 -23 22q-9 3 -12.5 5.5t-3.5 7.5t4 8t10 3q11 0 20 -7v13q-10 5 -20 5q-12 0 -19 -6t-7 -16q0 -9 5 -13.5
t17 -9.5q17 -5 17 -12q0 -12 -14 -12q-13 0 -26 9v-13q12 -7 26 -7zM557 113q7 7 17 7t17 -7t7 -18t-7 -18.5t-17 -7.5t-17 7.5t-7 18.5t7 18zM585 367l167 166h-171q-29 -35 -29 -81q0 -49 33 -85zM680 325q48 0 85 32h-170q37 -32 85 -32zM765 547q-38 33 -85 33
q-49 0 -85 -33h170zM612 170v77h-12v-77h12zM778 371q29 35 29 81q0 48 -32 85l-166 -166h169zM636.5 180.5q11.5 -11.5 28.5 -11.5t28.5 11.5t11.5 28.5t-11.5 28.5t-28.5 11.5t-28.5 -11.5t-11.5 -28.5t11.5 -28.5zM645 229q8 8 20 8q11 0 19 -8t8 -20q0 -13 -8 -21
t-19 -8q-12 0 -20 8t-8 21q0 12 8 20zM676 40l-1 53l34 -53h36v109h-35v-58l-33 58h-36v-109h35zM729 170v52l49 -54h6v79h-12v-54l-49 55h-6v-78h12zM777 118v-78h35v78h25v31h-86v-31h26zM1276 201l-13 -11l8 -7l25 24l-25 24l-8 -7l13 -11h-458v-12h458zM850.5 321
q18.5 -18 46.5 -18t47 18t19 46q0 27 -19 45t-47 18t-46.5 -18t-18.5 -45q0 -28 18.5 -46zM847.5 96.5q7.5 -7.5 24.5 -13.5q3 -1 10 -3t7 -6q0 -6 -9 -6q-13 0 -38 16v-37q16 -10 38 -10q19 0 31.5 10t12.5 27q0 27 -36 35q-3 1 -7 2t-5.5 2.5t-1.5 3.5q0 4 11 4
q7 0 16.5 -3t15.5 -8v34q-18 8 -32 8q-21 0 -33 -9t-12 -25q0 -14 7.5 -21.5zM878 387q8 8 19 8q12 0 19.5 -8t7.5 -20q0 -13 -7.5 -21t-19.5 -8q-11 0 -19 8t-8 21q0 12 8 20zM934 42q5 -5 13 -5q7 0 12 5t5 12t-5 11.5t-12 4.5q-8 0 -13 -4.5t-5 -11.5t5 -12zM987 53.5
q17 -16.5 41 -16.5q12 0 26 7l1 35q-10 -10 -25 -10q-11 0 -18 7.5t-7 18.5t7.5 18t17.5 7t22 -7v33q-10 6 -23 6q-25 0 -42 -16.5t-17 -40.5q0 -25 17 -41.5zM1010 306l-1 59l38 -59h40v121h-39v-64l-37 64h-40v-121h39zM1075 53.5q17 -16.5 43 -16.5q25 0 42 16.5t17 41.5
q0 24 -17 40.5t-42 16.5t-42.5 -16.5t-17.5 -40.5q0 -25 17 -41.5zM1100.5 113q7.5 7 17.5 7t17 -7.5t7 -17.5q0 -11 -7 -18.5t-17 -7.5q-11 0 -18 7.5t-7 18.5t7.5 18zM1181 306v33h-43v88h-39v-121h82zM1203 354v-48h39v48l41 73h-45l-16 -36l-15 36h-46zM1219 40v43
l14 -27h25l14 27v-43h34v109h-35l-26 -50l-26 50h-35v-109h35z" />
    <glyph glyph-name="nine" unicode="9" horiz-adv-x="1354" 
d="M48 40h95v31h-38l41 78h-93v-31h36zM64 170v29h33v11h-33v26h38v11h-50v-77h12zM53 462h486q4 56 44.5 94t96.5 38t96.5 -38t44.5 -94h486v-193h-1254v193zM105 392v-86h39v86h28v35h-96v-35h29zM121 178q9 -9 22 -9q14 0 23 8.5t9 22.5v47h-12v-47q0 -8 -6 -14t-14 -6
t-13.5 5.5t-5.5 14.5v47h-12v-47q0 -13 9 -22zM233 40v30h-45v10h38v30h-38v9h44v30h-79v-109h80zM218 306v35h8l15 -35h41l-21 46q14 12 14 32q0 18 -13.5 30.5t-32.5 12.5h-50v-121h39zM237 170v11h-35v66h-12v-77h47zM218 394h10q3 0 5.5 -3t2.5 -7t-2.5 -7.5t-5.5 -3.5
h-10v21zM263 118v-78h35v78h26v31h-87v-31h26zM296 170v11h-36v66h-12v-77h48zM326 306v121h-38v-121h38zM348 40l5 17h31l4 -17h38l-37 109h-40l-37 -109h36zM360 170h8l32 77h-14l-22 -57l-22 57h-14zM374 306l5 19h34l5 -19h42l-41 121h-45l-41 -121h41zM368 112h1l7 -26
h-15zM395 386h1l8 -29h-17zM460 170v11h-38v23h33v10h-33v22h38v11h-50v-77h50zM467 40v34h37v29h-37v16h44v30h-79v-109h35zM549 306v33h-43v88h-39v-121h82zM485 170v28h18l13 -28h14l-15 31q12 7 12 21q0 11 -7 18t-18 7h-29v-77h12zM485 236h17q5 0 9 -4t4 -10t-4 -10
t-9 -4h-17v28zM532 53.5q17 -16.5 42 -16.5t42 16.5t17 41.5q0 24 -17 40.5t-42 16.5t-42 -16.5t-17 -40.5q0 -25 17 -41.5zM562 169q11 0 18.5 6t7.5 17q0 13 -23 22q-9 3 -12.5 5.5t-3.5 7.5t4 8t10 3q11 0 20 -7v13q-10 5 -20 5q-12 0 -19 -6t-7 -16q0 -9 5 -13.5
t17 -9.5q17 -5 17 -12q0 -12 -14 -12q-13 0 -26 9v-13q12 -7 26 -7zM557 113q7 7 17 7t17 -7t7 -18t-7 -18.5t-17 -7.5t-17 7.5t-7 18.5t7 18zM585 367l167 166h-171q-29 -35 -29 -81q0 -49 33 -85zM680 325q48 0 85 32h-170q37 -32 85 -32zM765 547q-38 33 -85 33
q-49 0 -85 -33h170zM612 170v77h-12v-77h12zM778 371q29 35 29 81q0 48 -32 85l-166 -166h169zM636.5 180.5q11.5 -11.5 28.5 -11.5t28.5 11.5t11.5 28.5t-11.5 28.5t-28.5 11.5t-28.5 -11.5t-11.5 -28.5t11.5 -28.5zM645 229q8 8 20 8q11 0 19 -8t8 -20q0 -13 -8 -21
t-19 -8q-12 0 -20 8t-8 21q0 12 8 20zM676 40l-1 53l34 -53h36v109h-35v-58l-33 58h-36v-109h35zM729 170v52l49 -54h6v79h-12v-54l-49 55h-6v-78h12zM777 118v-78h35v78h25v31h-86v-31h26zM1276 201l-13 -11l8 -7l25 24l-25 24l-8 -7l13 -11h-458v-12h458zM850.5 321
q18.5 -18 46.5 -18t47 18t19 46q0 27 -19 45t-47 18t-46.5 -18t-18.5 -45q0 -28 18.5 -46zM847.5 96.5q7.5 -7.5 24.5 -13.5q3 -1 10 -3t7 -6q0 -6 -9 -6q-13 0 -38 16v-37q16 -10 38 -10q19 0 31.5 10t12.5 27q0 27 -36 35q-3 1 -7 2t-5.5 2.5t-1.5 3.5q0 4 11 4
q7 0 16.5 -3t15.5 -8v34q-18 8 -32 8q-21 0 -33 -9t-12 -25q0 -14 7.5 -21.5zM878 387q8 8 19 8q12 0 19.5 -8t7.5 -20q0 -13 -7.5 -21t-19.5 -8q-11 0 -19 8t-8 21q0 12 8 20zM934 42q5 -5 13 -5q7 0 12 5t5 12t-5 11.5t-12 4.5q-8 0 -13 -4.5t-5 -11.5t5 -12zM987 53.5
q17 -16.5 41 -16.5q12 0 26 7l1 35q-10 -10 -25 -10q-11 0 -18 7.5t-7 18.5t7.5 18t17.5 7t22 -7v33q-10 6 -23 6q-25 0 -42 -16.5t-17 -40.5q0 -25 17 -41.5zM1010 306l-1 59l38 -59h40v121h-39v-64l-37 64h-40v-121h39zM1075 53.5q17 -16.5 43 -16.5q25 0 42 16.5t17 41.5
q0 24 -17 40.5t-42 16.5t-42.5 -16.5t-17.5 -40.5q0 -25 17 -41.5zM1100.5 113q7.5 7 17.5 7t17 -7.5t7 -17.5q0 -11 -7 -18.5t-17 -7.5q-11 0 -18 7.5t-7 18.5t7.5 18zM1181 306v33h-43v88h-39v-121h82zM1203 354v-48h39v48l41 73h-45l-16 -36l-15 36h-46zM1219 40v43
l14 -27h25l14 27v-43h34v109h-35l-26 -50l-26 50h-35v-109h35z" />
    <glyph glyph-name="colon" unicode=":" 
d="M235.5 4.5q-22.5 19.5 -22.5 53.5t22.5 54t62.5 20q38 0 60.5 -20t22.5 -54t-22.5 -53.5t-60.5 -19.5q-40 0 -62.5 19.5zM235.5 382.5q-22.5 19.5 -22.5 53.5t22.5 54t62.5 20q38 0 60.5 -20t22.5 -54t-22.5 -53.5t-60.5 -19.5q-40 0 -62.5 19.5z" />
    <glyph glyph-name="semicolon" unicode=";" 
d="M239.5 386.5q-22.5 19.5 -22.5 53.5t22.5 54t62.5 20q38 0 60.5 -20t22.5 -54t-22.5 -53.5t-60.5 -19.5q-40 0 -62.5 19.5zM277 -89q23 36 32 75l-95 21q-2 56 21 87t68 31t67 -27.5t22 -74.5q0 -55 -29.5 -115t-75.5 -103l-63 43q30 27 53 63z" />
    <glyph glyph-name="less" unicode="&#x3c;" 
d="M82 179v133l381 199l61 -104l-341 -161l341 -161l-61 -106z" />
    <glyph glyph-name="equal" unicode="=" 
d="M141 206h319v-111h-319v111zM141 403h319v-111h-319v111z" />
    <glyph glyph-name="greater" unicode="&#x3e;" 
d="M86 85l341 161l-341 161l61 104l381 -199v-133l-381 -200z" />
    <glyph glyph-name="question" unicode="?" 
d="M298 373.5q36 31.5 36 69.5q0 39 -46 64t-148 25l5 118q152 0 238 -52.5t86 -145.5q0 -59 -38.5 -105.5t-88 -76.5t-113.5 -59l-40 90q73 41 109 72.5zM210.5 100.5q20.5 18.5 55.5 18.5t55.5 -18.5t20.5 -48.5t-20.5 -48t-55.5 -18t-55.5 18t-20.5 48t20.5 48.5z" />
    <glyph glyph-name="at" unicode="@" 
d="M419 172q-24 -35 -49.5 -50.5t-56.5 -15.5q-51 0 -80.5 38.5t-29.5 120.5q0 51 8 89.5t22 75.5q72 5 105 5q34 0 74 -3v15q0 100 -107 100q-73 0 -119.5 -57.5t-46.5 -217.5q0 -109 23.5 -168t63.5 -79.5t101 -20.5q58 0 116.5 13t139.5 47q4 -24 4 -57q0 -32 -4 -57
q-82 -31 -140.5 -42.5t-125.5 -11.5q-80 0 -142.5 26.5t-105 109.5t-42.5 240q0 225 87 304t192 79q218 0 218 -200v-225l59 6q4 -27 4 -57q0 -29 -4 -54q-42 -8 -95 -8q-35 0 -59 3zM318 233q10 -16 32 -16q17 0 31 7t31 23v103q-40 2 -53 2q-11 0 -43 -2q-8 -34 -8 -67
q0 -34 10 -50z" />
    <glyph glyph-name="A" unicode="A" 
d="M87 358.5q44 177.5 108 281.5h211q64 -105 108 -282.5t55 -357.5h-137q-6 85 -11 124h-242q-5 -39 -11 -124h-136q11 181 55 358.5zM404 240q-31 169 -84 281h-40q-53 -112 -84 -281h208z" />
    <glyph glyph-name="B" unicode="B" 
d="M95 458l9 63l-65 -11q-2 86 -2 130h196h74q100 0 158 -48t58 -131q0 -35 -14 -64.5t-41 -50.5q45 -24 70.5 -65t25.5 -93q0 -87 -60 -137.5t-164 -50.5h-245v458zM340 112q42 0 66.5 22t24.5 61q0 37 -26.5 58.5t-72.5 22.5l-99 1v-165h107zM312 381q11 0 45 -4
q18 12 28 31t10 42q0 36 -25 57t-69 21h-68v-146z" />
    <glyph glyph-name="C" unicode="C" 
d="M116.5 71q-77.5 86 -77.5 251q0 163 77.5 248t223.5 85q58 0 115 -12.5t94 -33.5l-15 -254l-133 10l20 156q-43 10 -88 10q-79 0 -116.5 -51.5t-37.5 -157.5q0 -108 44.5 -160t141.5 -52q72 0 169 23l20 -107q-34 -17 -93 -29t-119 -12q-148 0 -225.5 86z" />
    <glyph glyph-name="D" unicode="D" 
d="M79 458l9 62l-70 -10q-1 22 -1 65q0 44 1 65h211q168 0 254.5 -81.5t86.5 -238.5t-85 -238.5t-248 -81.5h-158v458zM253 124q84 0 132 52t48 144t-48 144t-132 52h-36v-392h36z" />
    <glyph glyph-name="E" unicode="E" 
d="M96 457l9 65l-90 -12v130h510l9 -123l-301 7v-144l248 8v-122l-248 7v-157l311 7l-9 -123h-439v457z" />
    <glyph glyph-name="F" unicode="F" 
d="M104 458l8 64l-89 -12v130h527v-123l-309 7v-174l240 8v-121l-240 7v-244h-137v458z" />
    <glyph glyph-name="G" unicode="G" 
d="M113 71q-83 86 -83 247q0 165 76.5 251t219.5 86q64 0 124 -12t95 -31l-19 -108q-44 12 -91.5 19t-84.5 7q-93 0 -136 -52.5t-43 -159.5q0 -106 39 -157.5t123 -51.5q56 0 98 12l-22 200l133 7l15 -312q-50 -14 -107 -22.5t-108 -8.5q-146 0 -229 86z" />
    <glyph glyph-name="H" unicode="H" 
d="M406 256h-212v-256h-137v640h137v-260h212v260h138v-640h-138v256z" />
    <glyph glyph-name="I" unicode="I" 
d="M78 120l152 -6v412l-152 -6l4 120h435l4 -120l-153 6v-412l153 6l-4 -120h-435z" />
    <glyph glyph-name="J" unicode="J" 
d="M155.5 -3q-60.5 12 -104.5 32l22 108q49 -14 91 -20.5t89 -6.5q75 0 108.5 35.5t33.5 107.5v265l-277 -8l9 130h401v-405q0 -118 -67 -184t-188 -66q-57 0 -117.5 12z" />
    <glyph glyph-name="K" unicode="K" 
d="M95 458l9 63l-65 -11q-2 43 -2 130q36 5 106 5q38 0 90 -2v-299q48 15 84.5 63.5t59 111t29.5 119.5q68 5 113 5q31 0 45 -1q-8 -84 -50.5 -173t-105.5 -153q102 -139 174 -316h-164q-18 58 -47 128t-55 120q-42 -22 -83 -26v-224l-138 2v458z" />
    <glyph glyph-name="L" unicode="L" 
d="M76 640h137v-525l214 7l-15 169q62 7 132 7l6 -298h-474v640z" />
    <glyph glyph-name="M" unicode="M" 
d="M274 159l-99 237l8 -396h-134v640h123l128 -296l128 296h123v-640h-134l8 393l-99 -234h-52z" />
    <glyph glyph-name="N" unicode="N" 
d="M50 640h126l245 -421l-8 421h137v-640h-125l-245 420l8 -420h-138v640z" />
    <glyph glyph-name="O" unicode="O" 
d="M100 71q-70 86 -70 248q0 164 70 250t200 86t200 -86t70 -250q0 -162 -70 -248t-200 -86t-200 86zM203 160q32 -51 97 -51t97 51t32 159q0 110 -32 161t-97 51t-97 -51t-32 -161q0 -108 32 -159z" />
    <glyph glyph-name="P" unicode="P" 
d="M92 458l8 63l-64 -11q-2 62 -2 96v34h158h38h95q109 0 171 -57.5t62 -157.5q0 -96 -62.5 -155.5t-170.5 -67.5l-95 -8v-194h-138v458zM316 318q50 4 77.5 32.5t27.5 74.5t-27.5 72.5t-76.5 26.5h-87v-213z" />
    <glyph glyph-name="Q" unicode="Q" 
d="M100 71q-70 86 -70 248q0 164 70 250t200 86t200 -86t70 -250q0 -188 -94 -273l99 -99q-44 -50 -107 -90l-94 136q-37 -8 -74 -8q-130 0 -200 86zM203 160q32 -51 97 -51t97 51t32 159q0 110 -32 161t-97 51t-97 -51t-32 -161q0 -108 32 -159z" />
    <glyph glyph-name="R" unicode="R" 
d="M329 213l-87 -8v-205h-138v458l8 63l-64 -11q-1 30 -1 92v38h195v-3l1 3h101q103 0 163 -52t60 -143q0 -68 -30 -118.5t-83 -79.5q72 -111 128 -247h-164q-35 109 -89 213zM327 329q47 4 75.5 31.5t28.5 70.5t-25.5 68t-68.5 25h-95v-203z" />
    <glyph glyph-name="S" unicode="S" 
d="M55 23l25 118q123 -33 233 -33q56 0 81 16.5t25 49.5q0 22 -11 37t-38.5 27.5t-78.5 25.5q-119 30 -173 77t-54 129q0 90 62 137.5t183 47.5q122 0 212 -27q-7 -63 -18 -119q-97 23 -196 23q-108 0 -108 -62q0 -30 27.5 -47.5t100.5 -37.5q82 -22 131 -48t73 -65t24 -98
q0 -91 -61.5 -140t-179.5 -49q-142 0 -259 38z" />
    <glyph glyph-name="T" unicode="T" 
d="M231 524h-197l-5 116h537l5 -116h-202v-524h-138v524z" />
    <glyph glyph-name="U" unicode="U" 
d="M111.5 50.5q-63.5 65.5 -63.5 206.5v383h137v-383q0 -75 28 -111.5t87 -36.5t87 36.5t28 111.5v383h137v-383q0 -141 -63 -206.5t-188 -65.5q-126 0 -189.5 65.5z" />
    <glyph glyph-name="V" unicode="V" 
d="M11 640h138q16 -151 53 -286.5t91 -245.5h14q54 109 91 244.5t53 287.5h138q-34 -346 -189 -640h-199q-157 298 -190 640z" />
    <glyph glyph-name="W" unicode="W" 
d="M41 305.5q-28 169.5 -28 334.5h132q0 -132 14 -267.5t37 -249.5h47l-9 365q44 2 67 2q22 0 66 -2l-9 -365h46q24 112 37.5 247.5t14.5 269.5h131q0 -165 -28 -334t-78 -306h-361q-51 136 -79 305.5z" />
    <glyph glyph-name="X" unicode="X" 
d="M97.5 171.5q45.5 89.5 94.5 160.5q-109 168 -154 308h141q18 -59 51 -126t71 -125q38 61 70.5 126.5t49.5 124.5h142q-23 -72 -64.5 -153.5t-89.5 -154.5q50 -73 95.5 -162.5t71.5 -169.5h-143q-21 69 -56.5 141t-76.5 128q-42 -59 -77.5 -129.5t-55.5 -139.5h-142
q27 82 72.5 171.5z" />
    <glyph glyph-name="Y" unicode="Y" 
d="M241 207h-75q-56 96 -89.5 210.5t-34.5 222.5h138q2 -77 20.5 -159t52.5 -155h95q33 73 51.5 155t20.5 159h138q-1 -108 -34.5 -222.5t-89.5 -210.5h-75l12 -207h-141z" />
    <glyph glyph-name="Z" unicode="Z" 
d="M38 113l344 413l-326 -10v124h495v-112l-340 -415l347 12v-125h-520v113z" />
    <glyph glyph-name="bracketleft" unicode="[" 
d="M152 693h339v-110h-211v-617h211v-109h-339v836z" />
    <glyph glyph-name="backslash" unicode="\" 
d="M26 655l108 52l449 -845l-108 -52z" />
    <glyph glyph-name="bracketright" unicode="]" 
d="M81 -143v109h211v617h-211v110h339v-836h-339z" />
    <glyph glyph-name="asciicircum" unicode="^" 
d="M354 647l167 -314l-104 -33l-117 221l-117 -221l-104 33l167 314h108z" />
    <glyph glyph-name="underscore" unicode="_" 
d="M-10 -74h620v-100h-620v100z" />
    <glyph glyph-name="grave" unicode="`" 
d="M249 762l116 -154l-57 -49l-161 119z" />
    <glyph glyph-name="a" unicode="a" 
d="M293 7.5q-45 -21.5 -89 -21.5q-64 0 -101.5 38.5t-37.5 108.5q0 39 12 77t30 63q59 8 150 8q60 0 109 -3v10q0 47 -15 73t-61 26q-31 0 -80 -8.5t-95 -26.5q-18 51 -24 105q125 47 216 47q63 0 104.5 -15.5t64 -55.5t22.5 -112v-213l72 8q2 -36 2 -56q0 -19 -2 -57
q-33 -8 -94 -8q-52 0 -88 5l-15 61q-35 -32 -80 -53.5zM207 104q12 -14 43 -14q24 0 57.5 10t58.5 25v75q-40 2 -99 2q-42 0 -60 -1q-12 -21 -12 -51q0 -32 12 -46z" />
    <glyph glyph-name="b" unicode="b" 
d="M206 -2.5q-60 12.5 -122 34.5v535l-73 -25q-3 35 -3 70q0 23 2 57q69 6 145 6q43 0 62 -1v-219q35 25 73.5 38.5t76.5 13.5q88 0 137 -64t49 -177q0 -85 -29 -148.5t-84 -98t-129 -34.5q-45 0 -105 12.5zM294 97q61 0 96.5 43.5t35.5 117.5q0 65 -25 101t-71 36
q-59 0 -113 -24v-260q50 -14 77 -14z" />
    <glyph glyph-name="c" unicode="c" 
d="M127.5 55q-73.5 69 -73.5 194q0 124 71 191t202 67q102 0 191 -41q2 -56 2 -90q0 -60 -4 -105l-42 -1q-48 0 -83 4l16 108q-39 11 -76 11q-71 0 -106 -35t-35 -109q0 -73 40.5 -110t131.5 -37q30 0 69 5.5t74 14.5q13 -42 19 -95q-75 -41 -182 -41q-141 0 -214.5 69z" />
    <glyph glyph-name="d" unicode="d" 
d="M97 45q-49 60 -49 178q0 138 63.5 210.5t170.5 72.5q44 0 94 -14v182q32 2 48 2q43 0 85 -6v-563l72 9q2 -19 2 -56t-2 -56q-45 -8 -102 -8q-46 0 -81 4l-11 46q-85 -61 -158 -61q-83 0 -132 60zM196 133.5q20 -36.5 66 -36.5q51 0 114 35v248q-49 14 -86 14
q-53 0 -83.5 -38.5t-30.5 -115.5q0 -70 20 -106.5z" />
    <glyph glyph-name="e" unicode="e" 
d="M128 54.5q-70 68.5 -70 193.5q0 78 30 136.5t85 90.5t128 32q69 0 122 -28.5t82.5 -82.5t29.5 -127q0 -26 -7 -54q-75 -12 -155 -15.5t-189 -3.5q9 -48 44.5 -72t107.5 -24q81 0 156 20q15 -40 20 -93q-32 -19 -80.5 -30t-101.5 -11q-132 0 -202 68.5zM406 295
q-12 104 -113 104q-46 0 -74.5 -28t-35.5 -85q114 0 223 9z" />
    <glyph glyph-name="f" unicode="f" 
d="M244 644.5q50 57.5 148 57.5q107 0 191 -40l-17 -95q-86 18 -140 18q-53 0 -76.5 -23.5t-23.5 -86.5l196 8v-130l-196 7v-247l189 16v-129h-447v129l126 -18v249l-128 -7v130l128 -8v5q0 107 50 164.5z" />
    <glyph glyph-name="g" unicode="g" 
d="M95 -167l17 98q34 -7 73 -12t68 -5q131 0 131 138v10q-72 -45 -141 -45q-88 0 -137.5 61.5t-49.5 177.5q0 117 64.5 184t176.5 67q61 0 119.5 -18.5t100.5 -46.5v-391q0 -119 -64.5 -184t-180.5 -65q-89 0 -177 31zM207 163.5q23 -32.5 71 -32.5q27 0 55 8t51 22v219
q-50 13 -86 13q-55 0 -84.5 -35.5t-29.5 -101.5q0 -60 23 -92.5z" />
    <glyph glyph-name="h" unicode="h" 
d="M393.5 358.5q-14.5 20.5 -51.5 20.5q-52 0 -114 -26v-353h-133v559l-71 -19q-4 36 -4 86q0 28 1 42q82 7 144 7q23 0 63 -2v-235q44 29 95.5 49t91.5 20q126 0 126 -144v-363h-133v292q0 46 -14.5 66.5z" />
    <glyph glyph-name="i" unicode="i" 
d="M72 130l184 -20v270l-154 -23q-2 44 -2 65t2 65q73 6 183 6q67 0 103 -1v-383l172 21l-2 -130h-483zM222.5 576.5q-25.5 22.5 -25.5 59.5q0 38 25.5 60.5t69.5 22.5q43 0 68 -22.5t25 -60.5q0 -37 -25 -59.5t-68 -22.5q-44 0 -69.5 22.5z" />
    <glyph glyph-name="j" unicode="j" 
d="M156.5 -58q-53.5 12 -95.5 30q6 54 20 95q104 -25 170 -25t100.5 36t34.5 107v204l-243 -27q-2 44 -2 65q0 23 2 65q60 2 187 2t189 -2v-299q0 -129 -67 -196t-189 -67q-53 0 -106.5 12zM336.5 576.5q-25.5 22.5 -25.5 59.5q0 38 25.5 60.5t69.5 22.5q43 0 68 -22.5
t25 -60.5q0 -37 -25 -59.5t-68 -22.5q-44 0 -69.5 22.5z" />
    <glyph glyph-name="k" unicode="k" 
d="M331 189q-51 -30 -108 -36v-153h-133v564l-68 -22q-6 67 -5 127q69 6 146 6q41 0 60 -1v-414q45 15 82 53t60 86t27 93q46 2 69 2q25 0 69 -2q-7 -63 -36.5 -124t-75.5 -110q90 -138 146 -258h-155q-35 96 -78 189z" />
    <glyph glyph-name="l" unicode="l" 
d="M71 130l185 -20v455q-59 -8 -175 -26q-3 33 -3 65q0 33 3 64q104 8 203 8q34 0 104 -2v-565l172 21l-2 -130h-485z" />
    <glyph glyph-name="m" unicode="m" 
d="M132 493l9 -56q65 70 131 70q26 0 47 -12.5t30 -36.5q28 22 59.5 35.5t60.5 13.5q48 0 73 -29.5t25 -99.5v-378h-120v336q0 41 -31 41q-21 0 -61 -21v-356h-113v336q0 22 -6.5 31.5t-20.5 9.5q-25 0 -64 -27v-350h-120v491q56 3 101 2z" />
    <glyph glyph-name="n" unicode="n" 
d="M394 360q-14 19 -49 19q-53 0 -117 -27v-352h-133v382l-60 -12q-2 40 -2 60q0 22 2 60q62 5 104 5q18 0 64 -2l14 -65q45 33 100.5 56t94.5 23q66 0 97.5 -36.5t31.5 -109.5v-361h-133v295q0 46 -14 65z" />
    <glyph glyph-name="o" unicode="o" 
d="M116 55q-68 70 -68 191t68 191t185 70t184.5 -70t67.5 -191t-67.5 -191t-184.5 -70t-185 70zM210.5 138q33.5 -40 89.5 -40q57 0 91 40.5t34 110.5q0 67 -34 106t-91 39q-56 0 -89.5 -40t-33.5 -108t33.5 -108z" />
    <glyph glyph-name="p" unicode="p" 
d="M468.5 478.5q41.5 -28.5 64.5 -83t23 -129.5q0 -74 -29.5 -132.5t-81.5 -91t-116 -32.5q-46 0 -109 15v-108l114 13q2 -38 2 -57t-2 -57h-334q-2 38 -2 57t2 57l87 -12v634q35 3 69 3q36 0 72 -3l-13 -103q80 58 158 58q54 0 95.5 -28.5zM299 122q62 0 95.5 38t33.5 105
q0 63 -22.5 95.5t-71.5 32.5q-59 0 -114 -28v-231q50 -12 79 -12z" />
    <glyph glyph-name="q" unicode="q" 
d="M107.5 70q-51.5 60 -51.5 187q0 117 65.5 183.5t176.5 66.5q58 0 118.5 -19.5t100.5 -45.5v-524l79 12q2 -38 2 -57t-2 -57h-334l-1 57l1 57l122 -13v135q-69 -42 -141 -42q-84 0 -135.5 60zM278 123q53 0 106 33v224q-45 13 -86 13q-55 0 -84.5 -36.5t-29.5 -99.5
q0 -134 94 -134z" />
    <glyph glyph-name="r" unicode="r" 
d="M71 123l133 -13v275l-126 -16q-2 42 -2 61q0 20 2 60q78 5 137 5q50 0 98 -3l19 -104q47 43 95 71.5t113 45.5q8 -69 8 -124l-1 -40q-58 -2 -104 -9t-105 -21v-203l182 15l-2 -123h-445z" />
    <glyph glyph-name="s" unicode="s" 
d="M142 467.5q56 39.5 165 39.5q122 0 211 -31q-8 -60 -24 -106q-114 28 -194 28q-40 0 -58.5 -10.5t-18.5 -31.5t24 -34t85 -23q82 -15 126 -35.5t61 -50t17 -74.5q0 -154 -230 -154q-115 0 -229 35l22 106q125 -30 214 -30q84 0 84 45q0 20 -18.5 31.5t-65.5 19.5
q-89 16 -138 36.5t-69 49.5t-20 73q0 77 56 116.5z" />
    <glyph glyph-name="t" unicode="t" 
d="M198 42.5q-50 56.5 -50 162.5v175l-106 -9v121h117l-13 151h144l-14 -151h232q4 -27 4 -61q0 -33 -4 -60l-222 12v-158q0 -63 25 -91.5t79 -28.5q52 0 133 24q12 -38 16 -99q-103 -44 -200 -44q-91 0 -141 56.5z" />
    <glyph glyph-name="u" unicode="u" 
d="M206.5 132.5q13.5 -19.5 52.5 -19.5q51 0 106 25v354h133v-385l72 9q2 -19 2 -57q0 -37 -2 -56q-43 -8 -100 -8q-49 0 -84 5l-10 57q-42 -29 -95 -50.5t-95 -21.5q-126 0 -126 144v363h133v-293q0 -47 13.5 -66.5z" />
    <glyph glyph-name="v" unicode="v" 
d="M115 240q-46 130 -66 252h136q15 -95 46 -194t70 -178q39 81 70.5 180t45.5 192h136q-19 -122 -65.5 -252.5t-106.5 -239.5h-160q-60 110 -106 240z" />
    <glyph glyph-name="w" unicode="w" 
d="M110 0q-43 101 -67.5 232.5t-24.5 259.5h136q0 -107 11 -206t32 -175h58q-16 131 -16 271q20 2 62 2t62 -2q0 -140 -16 -271h56q22 77 33 175.5t11 205.5h135q0 -129 -24 -260t-67 -232h-381z" />
    <glyph glyph-name="x" unicode="x" 
d="M108 122q38 69 83 133q-41 58 -75.5 121t-54.5 116h140q30 -78 99 -183q68 104 99 183h140q-21 -55 -55.5 -118.5t-74.5 -118.5q45 -65 83 -133t58 -122h-140q-43 106 -110 196q-32 -43 -60.5 -94.5t-48.5 -101.5h-141q20 53 58 122z" />
    <glyph glyph-name="y" unicode="y" 
d="M48 492q23 1 68 1t67 -1q25 -215 84 -333h70q58 116 82 333q23 1 68 1t67 -1q-16 -134 -51 -247.5t-96 -212.5h-53q14 -95 19 -216h-142q5 122 18 216h-54q-115 190 -147 460z" />
    <glyph glyph-name="z" unicode="z" 
d="M68 106l275 282l-267 -20q-2 40 -2 62t2 62h432v-106l-276 -286l277 12q6 -37 6 -78q0 -23 -1 -34h-446v106z" />
    <glyph glyph-name="braceleft" unicode="{" 
d="M350 -131q-64 9 -109 41.5t-45 95.5q0 31 6.5 52t17.5 45q5 12 9.5 24.5t4.5 23.5q0 32 -33.5 45.5t-109.5 13.5v124q77 0 110 13t33 46q0 14 -4 26t-12 29q-11 25 -16.5 44t-5.5 45q0 64 45 96t108.5 41t148.5 9v-111q-84 0 -127 -12t-43 -55q0 -20 15 -54q9 -22 13 -36
t4 -31q0 -43 -37.5 -71.5t-108.5 -40.5q69 -12 107.5 -40.5t38.5 -72.5q0 -20 -4 -34t-13 -36q-7 -17 -11 -30t-4 -29q0 -37 43 -48t127 -11v-111q-84 0 -148 9z" />
    <glyph glyph-name="bar" unicode="|" 
d="M366 700v-900h-132v900h132z" />
    <glyph glyph-name="braceright" unicode="}" 
d="M225 -18q43 11 43 48q0 16 -4 29t-11 30q-9 22 -13 36t-4 34q0 44 38.5 72.5t107.5 40.5q-71 12 -108.5 40.5t-37.5 71.5q0 17 4 31t13 36q15 34 15 54q0 43 -43 55t-127 12v111q85 0 148.5 -9t108.5 -41t45 -96q0 -26 -5.5 -45t-16.5 -44q-8 -17 -12 -29t-4 -26
q0 -33 33 -46t110 -13v-124q-76 0 -109.5 -13.5t-33.5 -45.5q0 -11 4.5 -23.5t9.5 -24.5q11 -24 17.5 -45t6.5 -52q0 -63 -45 -95.5t-109 -41.5t-148 -9v111q84 0 127 11z" />
    <glyph glyph-name="asciitilde" unicode="~" 
d="M332.5 179q-25.5 12 -56.5 33q-22 15 -36 22.5t-26 7.5q-24 0 -40.5 -21t-31.5 -63l-68 30q30 83 65.5 123t83.5 40q29 0 53.5 -12.5t55.5 -34.5q22 -15 35 -22t24 -7q22 0 37 19.5t28 57.5l70 -30q-30 -83 -61.5 -119t-77.5 -36q-29 0 -54.5 12z" />
    <glyph glyph-name="uni00A0" unicode="&#xa0;" 
 />
    <glyph glyph-name="exclamdown" unicode="&#xa1;" 
d="M356 260l20 -410h-154l20 410h114zM244 486q21 18 56 18q36 0 56.5 -18t20.5 -49t-20.5 -49t-56.5 -18q-35 0 -56 18t-21 49t21 49z" />
    <glyph glyph-name="cent" unicode="&#xa2;" 
d="M377 652l-6 -132q75 -10 141 -36l-17 -95q-79 17 -150 17q-64 0 -102 -31.5t-38 -88.5t36.5 -92t104.5 -35q31 0 71.5 4.5t77.5 13.5l17 -96q-63 -29 -141 -36l6 -131h-116l6 134q-93 16 -146 80t-53 158q0 96 54.5 158.5t144.5 75.5l-6 132h116z" />
    <glyph glyph-name="sterling" unicode="&#xa3;" 
d="M63 0v116l82 -6l19 147l-104 -2v95l115 -3l3 25q16 131 69.5 201.5t175.5 70.5q65 0 150 -24l-22 -111q-74 16 -116 16q-46 0 -71.5 -16t-38.5 -48t-21 -89l-3 -25l212 3l-8 -95l-216 3l-21 -148l266 8l-8 -118h-463z" />
    <glyph glyph-name="currency" unicode="&#xa4;" 
d="M89 160l66 68q-26 39 -26 106q0 65 25 106l-65 68l70 55l52 -74q35 17 88 17q54 0 89 -16l53 73l69 -55l-64 -68q26 -43 26 -106q0 -65 -27 -107l66 -67l-69 -55l-54 73q-37 -16 -88 -16q-52 0 -88 16l-54 -73zM247.5 276q17.5 -19 54.5 -19q70 0 70 77q0 39 -17 58
t-53 19q-37 0 -54.5 -19t-17.5 -58t17.5 -58z" />
    <glyph glyph-name="yen" unicode="&#xa5;" 
d="M89 162l141 -3v51l-141 -3v75l115 -2q-53 86 -95 181t-66 179h138q16 -59 48.5 -136.5t69.5 -147.5q37 69 70 146.5t49 137.5h138q-24 -83 -66.5 -178t-94.5 -182l111 2v-75l-138 3v-51l138 3v-75l-138 3v-90h-138v90l-141 -3v75z" />
    <glyph glyph-name="brokenbar" unicode="&#xa6;" 
d="M238 675h124v-366h-124v366zM238 181h124v-365h-124v365z" />
    <glyph glyph-name="section" unicode="&#xa7;" 
d="M138 344q-28 17 -40 41.5t-12 59.5q0 68 56 105.5t163 37.5q124 0 212 -32q-8 -60 -22 -100q-114 29 -199 29q-38 0 -56 -9t-18 -28q0 -20 23 -31t85 -22q83 -15 128 -34.5t62 -46t17 -68.5q0 -63 -54 -99q28 -17 40 -41.5t12 -59.5q0 -68 -56 -105.5t-163 -37.5
q-123 0 -212 31q6 47 23 102q113 -30 198 -30q38 0 56 9t18 28q0 20 -22.5 31t-85.5 22q-83 15 -128 34.5t-62 46t-17 68.5q0 63 54 99zM236 221q21 -11 72 -20l45 -9q53 10 53 43q0 23 -20.5 34t-71.5 20l-48 9q-51 -10 -51 -42q0 -24 21 -35z" />
    <glyph glyph-name="dieresis" unicode="&#xa8;" 
d="M151.5 587.5q-22.5 19.5 -22.5 53.5q0 33 22.5 52.5t59.5 19.5q36 0 57.5 -19t21.5 -53t-21.5 -53.5t-57.5 -19.5q-37 0 -59.5 19.5zM377.5 693.5q22.5 19.5 58.5 19.5q37 0 59.5 -19.5t22.5 -52.5t-23 -53t-59 -20t-58.5 20t-22.5 53t22.5 52.5z" />
    <glyph glyph-name="copyright" unicode="&#xa9;" 
d="M164.5 52.5q-57.5 36.5 -89 106t-31.5 167.5q0 97 31.5 166.5t89.5 106t136 36.5q119 0 187 -81t68 -228t-68 -228.5t-187 -81.5q-79 0 -136.5 36.5zM170.5 151q46.5 -60 129.5 -60q85 0 130.5 59t45.5 175t-46 175.5t-130 59.5q-83 0 -129.5 -60t-46.5 -174
q0 -115 46.5 -175zM195 468q33 53 98 53q32 0 58 -9.5t54 -29.5v-41q0 -34 -2 -114h-79l13 99q-16 11 -40 11q-29 0 -39.5 -28.5t-10.5 -80.5q0 -61 12.5 -87.5t44.5 -26.5q51 0 93 42q10 -30 15 -77q-18 -20 -48.5 -34.5t-63.5 -14.5q-69 0 -103.5 54.5t-34.5 143.5
q0 87 33 140z" />
    <glyph glyph-name="ordfeminine" unicode="&#xaa;" 
d="M293 233q-49 -19 -89 -19q-50 0 -81.5 32t-31.5 90q0 35 11 69.5t25 52.5q49 7 133 7q61 0 104 -3v11q0 36 -15 55t-57 19q-29 0 -74 -6.5t-83 -20.5l-22 91q51 20 103.5 30.5t90.5 10.5q60 0 97.5 -12.5t57.5 -46t20 -95.5v-177l60 7q2 -38 2 -53t-2 -47q-37 -8 -80 -8
q-36 0 -79 5l-13 54q-28 -27 -77 -46zM218 322.5q12 -10.5 40 -10.5q19 0 52.5 9t53.5 20v50q-50 2 -86 2q-32 0 -62 -2q-10 -15 -10 -36q0 -22 12 -32.5z" />
    <glyph glyph-name="guillemotleft" unicode="&#xab;" 
d="M34 196v111l227 191l59 -66l-176 -180l176 -181l-59 -66zM264 282l235 216l59 -66l-176 -180l176 -181l-59 -66l-235 216v61z" />
    <glyph glyph-name="logicalnot" unicode="&#xac;" 
d="M358 52v150h-268v120h403v-270h-135z" />
    <glyph glyph-name="uni00AD" unicode="&#xad;" 
d="M141 318h319v-116h-319v116z" />
    <glyph glyph-name="registered" unicode="&#xae;" 
d="M163 165q-56 32 -86.5 91t-30.5 138t30.5 138t86.5 91t130 32t129.5 -32t86 -91t30.5 -138t-30.5 -138t-86 -91t-129.5 -32t-130 32zM166.5 254q46.5 -50 125.5 -50t125.5 50t46.5 140t-46.5 140.5t-125.5 50.5t-125.5 -50.5t-46.5 -140.5t46.5 -140zM191 476v60h62h3h35
q53 0 82 -24t29 -68q0 -26 -13 -46t-38 -31q32 -53 55 -108h-73q-18 55 -40 95h-2l-35 -3v-92h-65v217zM291 408q44 3 44 36t-44 33h-35v-71z" />
    <glyph glyph-name="macron" unicode="&#xaf;" 
d="M132 668h327v-101l-163 9l-164 -9v101z" />
    <glyph glyph-name="degree" unicode="&#xb0;" 
d="M143.5 349q-59.5 48 -59.5 129t59.5 129t156.5 48t156.5 -48.5t59.5 -128.5t-59.5 -128.5t-156.5 -48.5t-156.5 48zM215.5 416.5q31.5 -23.5 84.5 -23.5q52 0 84 23.5t32 61.5t-32 61.5t-84 23.5q-53 0 -84.5 -23.5t-31.5 -61.5t31.5 -61.5z" />
    <glyph glyph-name="plusminus" unicode="&#xb1;" 
d="M122 318l122 -3l-2 113h116l-3 -113l123 3v-116l-123 3l3 -94h120v-106h-356v106h120l2 94l-122 -3v116z" />
    <glyph glyph-name="acute" unicode="&#xb4;" 
d="M255 559l-57 49l116 154l102 -84z" />
    <glyph glyph-name="uni00B5" unicode="&#xb5;" 
d="M207.5 133.5q14.5 -20.5 51.5 -20.5q48 0 106 25v354h133v-385l72 9q2 -19 2 -57q0 -37 -2 -56q-43 -8 -100 -8q-49 0 -84 5l-10 58q-43 -30 -96.5 -51.5t-94.5 -21.5h-6l16 -123h-135v630h133v-293q0 -45 14.5 -65.5z" />
    <glyph glyph-name="paragraph" unicode="&#xb6;" 
d="M386 -92v284l-59 4v-288h-105v298q-91 14 -144 72t-53 147q0 101 58.5 158t166.5 57h322v-38q0 -62 -1 -92l-81 11l1 -63v-550h-105zM171.5 366q18.5 -25 50.5 -36v187q-33 -8 -51 -31.5t-18 -60.5q0 -34 18.5 -59zM386 309v215h-59v-211z" />
    <glyph glyph-name="periodcentered" unicode="&#xb7;" 
d="M238.5 233.5q-22.5 19.5 -22.5 53.5t22.5 54t62.5 20q38 0 60.5 -20t22.5 -54t-22.5 -53.5t-60.5 -19.5q-40 0 -62.5 19.5z" />
    <glyph glyph-name="cedilla" unicode="&#xb8;" 
d="M160 -168l70 184l91 -4l-37 -201z" />
    <glyph glyph-name="ordmasculine" unicode="&#xba;" 
d="M105 266q-63 60 -63 162q0 103 62.5 163t168.5 60q108 0 169 -59.5t61 -163.5q0 -103 -61 -162.5t-169 -59.5q-105 0 -168 60zM189 340.5q32 -32.5 83 -32.5q55 0 85.5 33t30.5 89t-30 87.5t-86 31.5q-51 0 -83 -33t-32 -88t32 -87.5z" />
    <glyph glyph-name="guillemotright" unicode="&#xbb;" 
d="M278 71l176 181l-176 180l59 66l227 -191v-111l-227 -191zM216 252l-176 180l59 66l235 -216v-61l-235 -216l-59 66z" />
    <glyph glyph-name="questiondown" unicode="&#xbf;" 
d="M285 117.5q-36 -31.5 -36 -69.5q0 -39 46 -64t148 -25l-5 -118q-152 0 -238 52.5t-86 145.5q0 59 38.5 105.5t88 76.5t113.5 59l40 -90q-73 -41 -109 -72.5zM261.5 487q20.5 18 55.5 18t55.5 -18t20.5 -48t-20.5 -48.5t-55.5 -18.5t-55.5 18.5t-20.5 48.5t20.5 48z" />
    <glyph glyph-name="Agrave" unicode="&#xc0;" 
d="M87 358.5q44 177.5 108 281.5h211q64 -105 108 -282.5t55 -357.5h-137q-6 85 -11 124h-242q-5 -39 -11 -124h-136q11 181 55 358.5zM404 240q-31 169 -84 281h-40q-53 -112 -84 -281h208zM229 842l185 -100l-39 -68l-191 67z" />
    <glyph glyph-name="Aacute" unicode="&#xc1;" 
d="M87 358.5q44 177.5 108 281.5h211q64 -105 108 -282.5t55 -357.5h-137q-6 85 -11 124h-242q-5 -39 -11 -124h-136q11 181 55 358.5zM404 240q-31 169 -84 281h-40q-53 -112 -84 -281h208zM225 674l-39 68l185 100l45 -101z" />
    <glyph glyph-name="Acircumflex" unicode="&#xc2;" 
d="M87 358.5q44 177.5 108 281.5h211q64 -105 108 -282.5t55 -357.5h-137q-6 85 -11 124h-242q-5 -39 -11 -124h-136q11 181 55 358.5zM404 240q-31 169 -84 281h-40q-53 -112 -84 -281h208zM131 739l147 107h44l148 -107l-43 -61l-127 70l-127 -70z" />
    <glyph glyph-name="Atilde" unicode="&#xc3;" 
d="M87 358.5q44 177.5 108 281.5h211q64 -105 108 -282.5t55 -357.5h-137q-6 85 -11 124h-242q-5 -39 -11 -124h-136q11 181 55 358.5zM404 240q-31 169 -84 281h-40q-53 -112 -84 -281h208zM329 689q-17 8 -40 23q-39 26 -58 26q-14 0 -27 -16t-28 -46l-53 22q27 66 55 98
t60 32q17 0 33.5 -8t39.5 -23q20 -12 33.5 -18.5t24.5 -6.5q13 0 26 16t28 46l53 -22q-26 -66 -53.5 -98.5t-59.5 -32.5q-17 0 -34 8z" />
    <glyph glyph-name="Adieresis" unicode="&#xc4;" 
d="M87 358.5q44 177.5 108 281.5h211q64 -105 108 -282.5t55 -357.5h-137q-6 85 -11 124h-242q-5 -39 -11 -124h-136q11 181 55 358.5zM404 240q-31 169 -84 281h-40q-53 -112 -84 -281h208zM126.5 699.5q-22.5 19.5 -22.5 52.5q0 31 22.5 50.5t59.5 19.5q36 0 57.5 -19
t21.5 -51q0 -33 -21.5 -52.5t-57.5 -19.5q-37 0 -59.5 19.5zM352.5 802.5q22.5 19.5 58.5 19.5t59 -19.5t23 -50.5q0 -33 -23 -52.5t-59 -19.5t-58.5 19.5t-22.5 52.5q0 31 22.5 50.5z" />
    <glyph glyph-name="Aring" unicode="&#xc5;" 
d="M87 358.5q44 177.5 108 281.5h211q64 -105 108 -282.5t55 -357.5h-137q-6 85 -11 124h-242q-5 -39 -11 -124h-136q11 181 55 358.5zM404 240q-31 169 -84 281h-40q-53 -112 -84 -281h208zM221 697q-30 27 -30 73q0 44 30 71.5t79 27.5t78.5 -27.5t29.5 -71.5
q0 -46 -29.5 -73t-78.5 -27t-79 27zM263 735.5q14 -12.5 38 -12.5q22 0 35.5 12.5t13.5 34.5q0 21 -13.5 33.5t-35.5 12.5q-24 0 -38 -12.5t-14 -33.5q0 -22 14 -34.5z" />
    <glyph glyph-name="AE" unicode="&#xc6;" 
d="M72 356q45 168 117 284h378l8 -123l-166 7v-144l118 8v-122l-118 6v-156l176 7l-8 -123h-306v121h-120q-6 -42 -14 -121h-126q16 188 61 356zM271 241v297h-11q-54 -124 -88 -297h99z" />
    <glyph glyph-name="Ccedilla" unicode="&#xc7;" 
d="M194 -168l61 162q-106 23 -161 106t-55 222q0 163 77.5 248t223.5 85q58 0 115 -12.5t94 -33.5l-15 -254l-133 10l20 156q-43 10 -88 10q-79 0 -116.5 -51.5t-37.5 -157.5q0 -108 44.5 -160t141.5 -52q72 0 169 23l20 -107q-33 -17 -89.5 -28.5t-114.5 -12.5l-32 -173z
" />
    <glyph glyph-name="Egrave" unicode="&#xc8;" 
d="M96 457l9 65l-90 -12v130h510l9 -123l-301 7v-144l248 8v-122l-248 7v-157l311 7l-9 -123h-439v457zM231 842l185 -100l-39 -68l-191 67z" />
    <glyph glyph-name="Eacute" unicode="&#xc9;" 
d="M96 457l9 65l-90 -12v130h510l9 -123l-301 7v-144l248 8v-122l-248 7v-157l311 7l-9 -123h-439v457zM227 674l-39 68l185 100l45 -101z" />
    <glyph glyph-name="Ecircumflex" unicode="&#xca;" 
d="M96 457l9 65l-90 -12v130h510l9 -123l-301 7v-144l248 8v-122l-248 7v-157l311 7l-9 -123h-439v457zM133 739l147 107h44l148 -107l-43 -61l-127 70l-127 -70z" />
    <glyph glyph-name="Edieresis" unicode="&#xcb;" 
d="M96 457l9 65l-90 -12v130h510l9 -123l-301 7v-144l248 8v-122l-248 7v-157l311 7l-9 -123h-439v457zM128.5 699.5q-22.5 19.5 -22.5 52.5q0 31 22.5 50.5t59.5 19.5q36 0 57.5 -19t21.5 -51q0 -33 -21.5 -52.5t-57.5 -19.5q-37 0 -59.5 19.5zM354.5 802.5
q22.5 19.5 58.5 19.5t59 -19.5t23 -50.5q0 -33 -23 -52.5t-59 -19.5t-58.5 19.5t-22.5 52.5q0 31 22.5 50.5z" />
    <glyph glyph-name="Igrave" unicode="&#xcc;" 
d="M78 120l152 -6v412l-152 -6l4 120h435l4 -120l-153 6v-412l153 6l-4 -120h-435zM229 842l185 -100l-39 -68l-191 67z" />
    <glyph glyph-name="Iacute" unicode="&#xcd;" 
d="M78 120l152 -6v412l-152 -6l4 120h435l4 -120l-153 6v-412l153 6l-4 -120h-435zM225 674l-39 68l185 100l45 -101z" />
    <glyph glyph-name="Icircumflex" unicode="&#xce;" 
d="M78 120l152 -6v412l-152 -6l4 120h435l4 -120l-153 6v-412l153 6l-4 -120h-435zM131 739l147 107h44l148 -107l-43 -61l-127 70l-127 -70z" />
    <glyph glyph-name="Idieresis" unicode="&#xcf;" 
d="M78 120l152 -6v412l-152 -6l4 120h435l4 -120l-153 6v-412l153 6l-4 -120h-435zM126.5 699.5q-22.5 19.5 -22.5 52.5q0 31 22.5 50.5t59.5 19.5q36 0 57.5 -19t21.5 -51q0 -33 -21.5 -52.5t-57.5 -19.5q-37 0 -59.5 19.5zM352.5 802.5q22.5 19.5 58.5 19.5t59 -19.5
t23 -50.5q0 -33 -23 -52.5t-59 -19.5t-58.5 19.5t-22.5 52.5q0 31 22.5 50.5z" />
    <glyph glyph-name="Eth" unicode="&#xd0;" 
d="M79 268l-45 -3q-2 36 -2 52q0 18 2 52l45 -4v93l9 62l-70 -10q-1 22 -1 65q0 44 1 65h211q168 0 254.5 -81.5t86.5 -238.5t-85 -238.5t-248 -81.5h-158v268zM253 124q84 0 132 52t48 144t-48 144t-132 52h-36v-153q53 2 103 6q2 -34 2 -52q0 -16 -2 -52q-50 4 -103 6
v-147h36z" />
    <glyph glyph-name="Ntilde" unicode="&#xd1;" 
d="M50 640h126l245 -421l-8 421h137v-640h-125l-245 420l8 -420h-138v640zM329 689q-17 8 -40 23q-39 26 -58 26q-14 0 -27 -16t-28 -46l-53 22q27 66 55 98t60 32q17 0 33.5 -8t39.5 -23q20 -12 33.5 -18.5t24.5 -6.5q13 0 26 16t28 46l53 -22q-26 -66 -53.5 -98.5
t-59.5 -32.5q-17 0 -34 8z" />
    <glyph glyph-name="Ograve" unicode="&#xd2;" 
d="M100 71q-70 86 -70 248q0 164 70 250t200 86t200 -86t70 -250q0 -162 -70 -248t-200 -86t-200 86zM203 160q32 -51 97 -51t97 51t32 159q0 110 -32 161t-97 51t-97 -51t-32 -161q0 -108 32 -159zM229 842l185 -100l-39 -68l-191 67z" />
    <glyph glyph-name="Oacute" unicode="&#xd3;" 
d="M100 71q-70 86 -70 248q0 164 70 250t200 86t200 -86t70 -250q0 -162 -70 -248t-200 -86t-200 86zM203 160q32 -51 97 -51t97 51t32 159q0 110 -32 161t-97 51t-97 -51t-32 -161q0 -108 32 -159zM225 674l-39 68l185 100l45 -101z" />
    <glyph glyph-name="Ocircumflex" unicode="&#xd4;" 
d="M100 71q-70 86 -70 248q0 164 70 250t200 86t200 -86t70 -250q0 -162 -70 -248t-200 -86t-200 86zM203 160q32 -51 97 -51t97 51t32 159q0 110 -32 161t-97 51t-97 -51t-32 -161q0 -108 32 -159zM131 739l147 107h44l148 -107l-43 -61l-127 70l-127 -70z" />
    <glyph glyph-name="Otilde" unicode="&#xd5;" 
d="M100 71q-70 86 -70 248q0 164 70 250t200 86t200 -86t70 -250q0 -162 -70 -248t-200 -86t-200 86zM203 160q32 -51 97 -51t97 51t32 159q0 110 -32 161t-97 51t-97 -51t-32 -161q0 -108 32 -159zM329 689q-17 8 -40 23q-39 26 -58 26q-14 0 -27 -16t-28 -46l-53 22
q27 66 55 98t60 32q17 0 33.5 -8t39.5 -23q20 -12 33.5 -18.5t24.5 -6.5q13 0 26 16t28 46l53 -22q-26 -66 -53.5 -98.5t-59.5 -32.5q-17 0 -34 8z" />
    <glyph glyph-name="Odieresis" unicode="&#xd6;" 
d="M100 71q-70 86 -70 248q0 164 70 250t200 86t200 -86t70 -250q0 -162 -70 -248t-200 -86t-200 86zM203 160q32 -51 97 -51t97 51t32 159q0 110 -32 161t-97 51t-97 -51t-32 -161q0 -108 32 -159zM126.5 699.5q-22.5 19.5 -22.5 52.5q0 31 22.5 50.5t59.5 19.5
q36 0 57.5 -19t21.5 -51q0 -33 -21.5 -52.5t-57.5 -19.5q-37 0 -59.5 19.5zM352.5 802.5q22.5 19.5 58.5 19.5t59 -19.5t23 -50.5q0 -33 -23 -52.5t-59 -19.5t-58.5 19.5t-22.5 52.5q0 31 22.5 50.5z" />
    <glyph glyph-name="multiply" unicode="&#xd7;" 
d="M216 427l83 -88l85 88l83 -82l-89 -85l89 -84l-83 -82l-84 88l-84 -88l-82 82l88 85l-88 84z" />
    <glyph glyph-name="Oslash" unicode="&#xd8;" 
d="M151 25l-41 -55l-84 70l50 68q-46 81 -46 211q0 164 70 250t200 86q88 0 149 -40l40 55l84 -69l-49 -67q46 -83 46 -215q0 -162 -70 -248t-200 -86q-87 0 -149 40zM176 244l195 265q-28 22 -71 22q-65 0 -97 -51t-32 -161q0 -38 5 -75zM300 109q65 0 97 51t32 159
q0 41 -5 79l-196 -267q28 -22 72 -22z" />
    <glyph glyph-name="Ugrave" unicode="&#xd9;" 
d="M111.5 50.5q-63.5 65.5 -63.5 206.5v383h137v-383q0 -75 28 -111.5t87 -36.5t87 36.5t28 111.5v383h137v-383q0 -141 -63 -206.5t-188 -65.5q-126 0 -189.5 65.5zM229 842l185 -100l-39 -68l-191 67z" />
    <glyph glyph-name="Uacute" unicode="&#xda;" 
d="M111.5 50.5q-63.5 65.5 -63.5 206.5v383h137v-383q0 -75 28 -111.5t87 -36.5t87 36.5t28 111.5v383h137v-383q0 -141 -63 -206.5t-188 -65.5q-126 0 -189.5 65.5zM225 674l-39 68l185 100l45 -101z" />
    <glyph glyph-name="Ucircumflex" unicode="&#xdb;" 
d="M111.5 50.5q-63.5 65.5 -63.5 206.5v383h137v-383q0 -75 28 -111.5t87 -36.5t87 36.5t28 111.5v383h137v-383q0 -141 -63 -206.5t-188 -65.5q-126 0 -189.5 65.5zM131 739l147 107h44l148 -107l-43 -61l-127 70l-127 -70z" />
    <glyph glyph-name="Udieresis" unicode="&#xdc;" 
d="M111.5 50.5q-63.5 65.5 -63.5 206.5v383h137v-383q0 -75 28 -111.5t87 -36.5t87 36.5t28 111.5v383h137v-383q0 -141 -63 -206.5t-188 -65.5q-126 0 -189.5 65.5zM126.5 699.5q-22.5 19.5 -22.5 52.5q0 31 22.5 50.5t59.5 19.5q36 0 57.5 -19t21.5 -51q0 -33 -21.5 -52.5
t-57.5 -19.5q-37 0 -59.5 19.5zM352.5 802.5q22.5 19.5 58.5 19.5t59 -19.5t23 -50.5q0 -33 -23 -52.5t-59 -19.5t-58.5 19.5t-22.5 52.5q0 31 22.5 50.5z" />
    <glyph glyph-name="Yacute" unicode="&#xdd;" 
d="M241 207h-75q-56 96 -89.5 210.5t-34.5 222.5h138q2 -77 20.5 -159t52.5 -155h95q33 73 51.5 155t20.5 159h138q-1 -108 -34.5 -222.5t-89.5 -210.5h-75l12 -207h-141zM225 674l-39 68l185 100l45 -101z" />
    <glyph glyph-name="Thorn" unicode="&#xde;" 
d="M98 456l9 67l-92 -13v130h220v-95h86q118 0 183.5 -56t65.5 -161q0 -107 -65.5 -165t-183.5 -58h-86v-105h-137v456zM321 228q52 0 79.5 25t27.5 75q0 47 -27.5 70.5t-79.5 23.5h-86v-194h86z" />
    <glyph glyph-name="germandbls" unicode="&#xdf;" 
d="M282 9l15 105q40 -14 74 -14q28 0 43.5 14.5t15.5 39.5q0 24 -14 43.5t-42 44.5q-34 33 -50.5 57t-16.5 58q0 23 9 40.5t26 39.5q17 23 25.5 38.5t8.5 36.5q0 30 -16.5 46t-46.5 16q-47 0 -65.5 -27.5t-18.5 -89.5v-457h-133v375l-62 -13v130h63q9 193 207 193
q106 0 153.5 -41t47.5 -112q0 -35 -12 -59.5t-33 -51.5q-14 -17 -21.5 -30.5t-7.5 -27.5q0 -15 11 -29.5t34 -36.5q41 -38 64 -73.5t23 -91.5q0 -39 -20 -72.5t-57 -54t-87 -20.5q-56 0 -117 24z" />
    <glyph glyph-name="agrave" unicode="&#xe0;" 
d="M293 7.5q-45 -21.5 -89 -21.5q-64 0 -101.5 38.5t-37.5 108.5q0 39 12 77t30 63q59 8 150 8q60 0 109 -3v10q0 47 -15 73t-61 26q-31 0 -80 -8.5t-95 -26.5q-18 51 -24 105q125 47 216 47q63 0 104.5 -15.5t64 -55.5t22.5 -112v-213l72 8q2 -36 2 -56q0 -19 -2 -57
q-33 -8 -94 -8q-52 0 -88 5l-15 61q-35 -32 -80 -53.5zM207 104q12 -14 43 -14q24 0 57.5 10t58.5 25v75q-40 2 -99 2q-42 0 -60 -1q-12 -21 -12 -51q0 -32 12 -46zM259 751l125 -151l-62 -55l-160 122q45 63 97 84z" />
    <glyph glyph-name="aacute" unicode="&#xe1;" 
d="M293 7.5q-45 -21.5 -89 -21.5q-64 0 -101.5 38.5t-37.5 108.5q0 39 12 77t30 63q59 8 150 8q60 0 109 -3v10q0 47 -15 73t-61 26q-31 0 -80 -8.5t-95 -26.5q-18 51 -24 105q125 47 216 47q63 0 104.5 -15.5t64 -55.5t22.5 -112v-213l72 8q2 -36 2 -56q0 -19 -2 -57
q-33 -8 -94 -8q-52 0 -88 5l-15 61q-35 -32 -80 -53.5zM207 104q12 -14 43 -14q24 0 57.5 10t58.5 25v75q-40 2 -99 2q-42 0 -60 -1q-12 -21 -12 -51q0 -32 12 -46zM280 545l-62 55l125 151q52 -21 97 -84z" />
    <glyph glyph-name="acircumflex" unicode="&#xe2;" 
d="M293 7.5q-45 -21.5 -89 -21.5q-64 0 -101.5 38.5t-37.5 108.5q0 39 12 77t30 63q59 8 150 8q60 0 109 -3v10q0 47 -15 73t-61 26q-31 0 -80 -8.5t-95 -26.5q-18 51 -24 105q125 47 216 47q63 0 104.5 -15.5t64 -55.5t22.5 -112v-213l72 8q2 -36 2 -56q0 -19 -2 -57
q-33 -8 -94 -8q-52 0 -88 5l-15 61q-35 -32 -80 -53.5zM207 104q12 -14 43 -14q24 0 57.5 10t58.5 25v75q-40 2 -99 2q-42 0 -60 -1q-12 -21 -12 -51q0 -32 12 -46zM135 597l144 108h45l143 -108l-38 -58l-128 72l-127 -72z" />
    <glyph glyph-name="atilde" unicode="&#xe3;" 
d="M293 7.5q-45 -21.5 -89 -21.5q-64 0 -101.5 38.5t-37.5 108.5q0 39 12 77t30 63q59 8 150 8q60 0 109 -3v10q0 47 -15 73t-61 26q-31 0 -80 -8.5t-95 -26.5q-18 51 -24 105q125 47 216 47q63 0 104.5 -15.5t64 -55.5t22.5 -112v-213l72 8q2 -36 2 -56q0 -19 -2 -57
q-33 -8 -94 -8q-52 0 -88 5l-15 61q-35 -32 -80 -53.5zM207 104q12 -14 43 -14q24 0 57.5 10t58.5 25v75q-40 2 -99 2q-42 0 -60 -1q-12 -21 -12 -51q0 -32 12 -46zM330 577q-17 8 -40 23q-20 12 -33.5 18.5t-24.5 6.5q-14 0 -27 -16t-28 -46l-53 22q27 66 54.5 98.5
t60.5 32.5q17 0 33.5 -8t39.5 -23q20 -12 33.5 -18.5t24.5 -6.5q13 0 26 15.5t28 45.5l53 -21q-26 -66 -53.5 -98.5t-59.5 -32.5q-17 0 -34 8z" />
    <glyph glyph-name="adieresis" unicode="&#xe4;" 
d="M293 7.5q-45 -21.5 -89 -21.5q-64 0 -101.5 38.5t-37.5 108.5q0 39 12 77t30 63q59 8 150 8q60 0 109 -3v10q0 47 -15 73t-61 26q-31 0 -80 -8.5t-95 -26.5q-18 51 -24 105q125 47 216 47q63 0 104.5 -15.5t64 -55.5t22.5 -112v-213l72 8q2 -36 2 -56q0 -19 -2 -57
q-33 -8 -94 -8q-52 0 -88 5l-15 61q-35 -32 -80 -53.5zM207 104q12 -14 43 -14q24 0 57.5 10t58.5 25v75q-40 2 -99 2q-42 0 -60 -1q-12 -21 -12 -51q0 -32 12 -46zM359 584.5q-22 19.5 -22 53.5t22 53.5t58 19.5q37 0 59.5 -19.5t22.5 -53.5t-22.5 -53.5t-59.5 -19.5
q-36 0 -58 19.5zM129.5 691.5q22.5 19.5 59.5 19.5q36 0 57.5 -19.5t21.5 -53.5t-21.5 -53.5t-57.5 -19.5q-37 0 -59.5 19.5t-22.5 53.5t22.5 53.5z" />
    <glyph glyph-name="aring" unicode="&#xe5;" 
d="M293 7.5q-45 -21.5 -89 -21.5q-64 0 -101.5 38.5t-37.5 108.5q0 39 12 77t30 63q59 8 150 8q60 0 109 -3v10q0 47 -15 73t-61 26q-31 0 -80 -8.5t-95 -26.5q-18 51 -24 105q125 47 216 47q63 0 104.5 -15.5t64 -55.5t22.5 -112v-213l72 8q2 -36 2 -56q0 -19 -2 -57
q-33 -8 -94 -8q-52 0 -88 5l-15 61q-35 -32 -80 -53.5zM207 104q12 -14 43 -14q24 0 57.5 10t58.5 25v75q-40 2 -99 2q-42 0 -60 -1q-12 -21 -12 -51q0 -32 12 -46zM222 582.5q-30 27.5 -30 72.5t30 72.5t79 27.5t78.5 -27.5t29.5 -72.5t-29.5 -72.5t-78.5 -27.5t-79 27.5z
M262.5 620q14.5 -13 39.5 -13q23 0 37 13t14 35t-14 35t-37 13q-25 0 -39.5 -13t-14.5 -35t14.5 -35z" />
    <glyph glyph-name="ae" unicode="&#xe6;" 
d="M190 386q-25 0 -62 -9.5t-71 -24.5l-25 107q34 19 84.5 33.5t90.5 14.5q79 0 107 -55q45 55 118 55q74 0 113 -55t39 -154q0 -40 -12 -86q-85 -13 -218 -15q4 -50 24.5 -73.5t67.5 -23.5q28 0 46 2t53 9l15 -101q-70 -24 -121 -24q-41 0 -79 15.5t-62 44.5
q-85 -60 -146 -60q-62 0 -99.5 38t-37.5 108q0 42 12.5 79t30.5 65l186 1l1 39q1 70 -55 70zM158 110q13 -13 40 -13q26 0 62 15q-11 38 -14 84l-91 -1q-4 -7 -7 -20t-3 -26q0 -26 13 -39zM469 285q-2 61 -14.5 85.5t-40.5 24.5t-42.5 -26t-17.5 -90q77 2 115 6z" />
    <glyph glyph-name="ccedilla" unicode="&#xe7;" 
d="M192 -167l61 161q-98 20 -148.5 86t-50.5 169q0 124 71 191t202 67q102 0 191 -41q2 -56 2 -90q0 -60 -4 -105l-42 -1q-48 0 -83 4l16 108q-39 11 -76 11q-71 0 -106 -35t-35 -109q0 -73 40.5 -110t131.5 -37q30 0 69 5.5t74 14.5q13 -42 19 -95q-74 -40 -176 -41
l-32 -173z" />
    <glyph glyph-name="egrave" unicode="&#xe8;" 
d="M128 54.5q-70 68.5 -70 193.5q0 78 30 136.5t85 90.5t128 32q69 0 122 -28.5t82.5 -82.5t29.5 -127q0 -26 -7 -54q-75 -12 -155 -15.5t-189 -3.5q9 -48 44.5 -72t107.5 -24q81 0 156 20q15 -40 20 -93q-32 -19 -80.5 -30t-101.5 -11q-132 0 -202 68.5zM406 295
q-12 104 -113 104q-46 0 -74.5 -28t-35.5 -85q114 0 223 9zM259 751l125 -151l-62 -55l-160 122q45 63 97 84z" />
    <glyph glyph-name="eacute" unicode="&#xe9;" 
d="M128 54.5q-70 68.5 -70 193.5q0 78 30 136.5t85 90.5t128 32q69 0 122 -28.5t82.5 -82.5t29.5 -127q0 -26 -7 -54q-75 -12 -155 -15.5t-189 -3.5q9 -48 44.5 -72t107.5 -24q81 0 156 20q15 -40 20 -93q-32 -19 -80.5 -30t-101.5 -11q-132 0 -202 68.5zM406 295
q-12 104 -113 104q-46 0 -74.5 -28t-35.5 -85q114 0 223 9zM280 545l-62 55l125 151q52 -21 97 -84z" />
    <glyph glyph-name="ecircumflex" unicode="&#xea;" 
d="M128 54.5q-70 68.5 -70 193.5q0 78 30 136.5t85 90.5t128 32q69 0 122 -28.5t82.5 -82.5t29.5 -127q0 -26 -7 -54q-75 -12 -155 -15.5t-189 -3.5q9 -48 44.5 -72t107.5 -24q81 0 156 20q15 -40 20 -93q-32 -19 -80.5 -30t-101.5 -11q-132 0 -202 68.5zM406 295
q-12 104 -113 104q-46 0 -74.5 -28t-35.5 -85q114 0 223 9zM135 597l144 108h45l143 -108l-38 -58l-128 72l-127 -72z" />
    <glyph glyph-name="edieresis" unicode="&#xeb;" 
d="M128 54.5q-70 68.5 -70 193.5q0 78 30 136.5t85 90.5t128 32q69 0 122 -28.5t82.5 -82.5t29.5 -127q0 -26 -7 -54q-75 -12 -155 -15.5t-189 -3.5q9 -48 44.5 -72t107.5 -24q81 0 156 20q15 -40 20 -93q-32 -19 -80.5 -30t-101.5 -11q-132 0 -202 68.5zM406 295
q-12 104 -113 104q-46 0 -74.5 -28t-35.5 -85q114 0 223 9zM359 584.5q-22 19.5 -22 53.5t22 53.5t58 19.5q37 0 59.5 -19.5t22.5 -53.5t-22.5 -53.5t-59.5 -19.5q-36 0 -58 19.5zM129.5 691.5q22.5 19.5 59.5 19.5q36 0 57.5 -19.5t21.5 -53.5t-21.5 -53.5t-57.5 -19.5
q-37 0 -59.5 19.5t-22.5 53.5t22.5 53.5z" />
    <glyph glyph-name="igrave" unicode="&#xec;" 
d="M72 130l184 -20v270l-154 -23q-2 44 -2 65t2 65q73 6 183 6q67 0 103 -1v-383l172 21l-2 -130h-483zM249 751l125 -151l-62 -55l-160 122q45 63 97 84z" />
    <glyph glyph-name="iacute" unicode="&#xed;" 
d="M72 130l184 -20v270l-154 -23q-2 44 -2 65t2 65q73 6 183 6q67 0 103 -1v-383l172 21l-2 -130h-483zM270 545l-62 55l125 151q52 -21 97 -84z" />
    <glyph glyph-name="icircumflex" unicode="&#xee;" 
d="M72 130l184 -20v270l-154 -23q-2 44 -2 65t2 65q73 6 183 6q67 0 103 -1v-383l172 21l-2 -130h-483zM125 597l144 108h45l143 -108l-38 -58l-128 72l-127 -72z" />
    <glyph glyph-name="idieresis" unicode="&#xef;" 
d="M72 130l184 -20v270l-154 -23q-2 44 -2 65t2 65q73 6 183 6q67 0 103 -1v-383l172 21l-2 -130h-483zM349 584.5q-22 19.5 -22 53.5t22 53.5t58 19.5q37 0 59.5 -19.5t22.5 -53.5t-22.5 -53.5t-59.5 -19.5q-36 0 -58 19.5zM119.5 691.5q22.5 19.5 59.5 19.5
q36 0 57.5 -19.5t21.5 -53.5t-21.5 -53.5t-57.5 -19.5q-37 0 -59.5 19.5t-22.5 53.5t22.5 53.5z" />
    <glyph glyph-name="eth" unicode="&#xf0;" 
d="M118 46.5q-64 61.5 -64 171.5q0 105 53 162t149 57q87 0 144 -33q-26 69 -85 113l-80 -56l-46 62l55 32q-58 24 -130 31l33 104q126 -15 211 -63l101 74l42 -64l-82 -51q63 -53 95.5 -128t32.5 -168q0 -145 -65.5 -225t-188.5 -80q-111 0 -175 61.5zM213 129.5
q29 -32.5 77 -32.5q63 0 95.5 50.5t32.5 144.5q-55 39 -127 39q-52 0 -79.5 -29.5t-27.5 -83.5q0 -56 29 -88.5z" />
    <glyph glyph-name="ntilde" unicode="&#xf1;" 
d="M394 360q-14 19 -49 19q-53 0 -117 -27v-352h-133v382l-60 -12q-2 40 -2 60q0 22 2 60q62 5 104 5q18 0 64 -2l14 -65q45 33 100.5 56t94.5 23q66 0 97.5 -36.5t31.5 -109.5v-361h-133v295q0 46 -14 65zM334 577q-17 8 -40 23q-20 12 -33.5 18.5t-24.5 6.5q-14 0 -27 -16
t-28 -46l-53 22q27 66 54.5 98.5t60.5 32.5q17 0 33.5 -8t39.5 -23q20 -12 33.5 -18.5t24.5 -6.5q13 0 26 15.5t28 45.5l53 -21q-26 -66 -53.5 -98.5t-59.5 -32.5q-17 0 -34 8z" />
    <glyph glyph-name="ograve" unicode="&#xf2;" 
d="M116 55q-68 70 -68 191t68 191t185 70t184.5 -70t67.5 -191t-67.5 -191t-184.5 -70t-185 70zM210.5 138q33.5 -40 89.5 -40q57 0 91 40.5t34 110.5q0 67 -34 106t-91 39q-56 0 -89.5 -40t-33.5 -108t33.5 -108zM258 751l125 -151l-62 -55l-160 122q45 63 97 84z" />
    <glyph glyph-name="oacute" unicode="&#xf3;" 
d="M116 55q-68 70 -68 191t68 191t185 70t184.5 -70t67.5 -191t-67.5 -191t-184.5 -70t-185 70zM210.5 138q33.5 -40 89.5 -40q57 0 91 40.5t34 110.5q0 67 -34 106t-91 39q-56 0 -89.5 -40t-33.5 -108t33.5 -108zM280 545l-62 55l125 151q52 -21 97 -84z" />
    <glyph glyph-name="ocircumflex" unicode="&#xf4;" 
d="M116 55q-68 70 -68 191t68 191t185 70t184.5 -70t67.5 -191t-67.5 -191t-184.5 -70t-185 70zM210.5 138q33.5 -40 89.5 -40q57 0 91 40.5t34 110.5q0 67 -34 106t-91 39q-56 0 -89.5 -40t-33.5 -108t33.5 -108zM134 597l144 108h45l143 -108l-38 -58l-128 72l-127 -72z
" />
    <glyph glyph-name="otilde" unicode="&#xf5;" 
d="M116 55q-68 70 -68 191t68 191t185 70t184.5 -70t67.5 -191t-67.5 -191t-184.5 -70t-185 70zM210.5 138q33.5 -40 89.5 -40q57 0 91 40.5t34 110.5q0 67 -34 106t-91 39q-56 0 -89.5 -40t-33.5 -108t33.5 -108zM329 577q-17 8 -40 23q-20 12 -33.5 18.5t-24.5 6.5
q-14 0 -27 -16t-28 -46l-53 22q27 66 54.5 98.5t60.5 32.5q17 0 33.5 -8t39.5 -23q20 -12 33.5 -18.5t24.5 -6.5q13 0 26 15.5t28 45.5l53 -21q-26 -66 -53.5 -98.5t-59.5 -32.5q-17 0 -34 8z" />
    <glyph glyph-name="odieresis" unicode="&#xf6;" 
d="M116 55q-68 70 -68 191t68 191t185 70t184.5 -70t67.5 -191t-67.5 -191t-184.5 -70t-185 70zM210.5 138q33.5 -40 89.5 -40q57 0 91 40.5t34 110.5q0 67 -34 106t-91 39q-56 0 -89.5 -40t-33.5 -108t33.5 -108zM359 584.5q-22 19.5 -22 53.5t22 53.5t58 19.5
q37 0 59.5 -19.5t22.5 -53.5t-22.5 -53.5t-59.5 -19.5q-36 0 -58 19.5zM129.5 691.5q22.5 19.5 59.5 19.5q36 0 57.5 -19.5t21.5 -53.5t-21.5 -53.5t-57.5 -19.5q-37 0 -59.5 19.5t-22.5 53.5t22.5 53.5z" />
    <glyph glyph-name="divide" unicode="&#xf7;" 
d="M122 310l179 -4l177 4v-100l-177 4l-179 -4v100zM246 150q20 18 55 18q34 0 54 -18t20 -48t-20 -47.5t-54 -17.5q-35 0 -55 17.5t-20 47.5t20 48zM246 465.5q20 17.5 55 17.5q34 0 54 -17.5t20 -47.5t-20 -47.5t-54 -17.5q-35 0 -55 17.5t-20 47.5t20 47.5z" />
    <glyph glyph-name="oslash" unicode="&#xf8;" 
d="M171 14l-22 -30l-79 60l28 32q-50 67 -50 170q0 121 68 191t185 70q73 0 129 -29l22 30l78 -60l-28 -31q51 -66 51 -171q0 -121 -67.5 -191t-184.5 -70q-74 0 -130 29zM188 177l83 92l85 113q-24 12 -56 12q-56 0 -89.5 -40t-33.5 -108q0 -39 11 -69zM300 98
q57 0 91 40.5t34 110.5q0 41 -12 71l-88 -96l-82 -112q25 -14 57 -14z" />
    <glyph glyph-name="ugrave" unicode="&#xf9;" 
d="M206.5 132.5q13.5 -19.5 52.5 -19.5q51 0 106 25v354h133v-385l72 9q2 -19 2 -57q0 -37 -2 -56q-43 -8 -100 -8q-49 0 -84 5l-10 57q-42 -29 -95 -50.5t-95 -21.5q-126 0 -126 144v363h133v-293q0 -47 13.5 -66.5zM255 751l125 -151l-62 -55l-160 122q45 63 97 84z" />
    <glyph glyph-name="uacute" unicode="&#xfa;" 
d="M206.5 132.5q13.5 -19.5 52.5 -19.5q51 0 106 25v354h133v-385l72 9q2 -19 2 -57q0 -37 -2 -56q-43 -8 -100 -8q-49 0 -84 5l-10 57q-42 -29 -95 -50.5t-95 -21.5q-126 0 -126 144v363h133v-293q0 -47 13.5 -66.5zM277 545l-62 55l125 151q52 -21 97 -84z" />
    <glyph glyph-name="ucircumflex" unicode="&#xfb;" 
d="M206.5 132.5q13.5 -19.5 52.5 -19.5q51 0 106 25v354h133v-385l72 9q2 -19 2 -57q0 -37 -2 -56q-43 -8 -100 -8q-49 0 -84 5l-10 57q-42 -29 -95 -50.5t-95 -21.5q-126 0 -126 144v363h133v-293q0 -47 13.5 -66.5zM131 597l144 108h45l143 -108l-38 -58l-128 72l-127 -72
z" />
    <glyph glyph-name="udieresis" unicode="&#xfc;" 
d="M206.5 132.5q13.5 -19.5 52.5 -19.5q51 0 106 25v354h133v-385l72 9q2 -19 2 -57q0 -37 -2 -56q-43 -8 -100 -8q-49 0 -84 5l-10 57q-42 -29 -95 -50.5t-95 -21.5q-126 0 -126 144v363h133v-293q0 -47 13.5 -66.5zM356 584.5q-22 19.5 -22 53.5t22 53.5t58 19.5
q37 0 59.5 -19.5t22.5 -53.5t-22.5 -53.5t-59.5 -19.5q-36 0 -58 19.5zM126.5 691.5q22.5 19.5 59.5 19.5q36 0 57.5 -19.5t21.5 -53.5t-21.5 -53.5t-57.5 -19.5q-37 0 -59.5 19.5t-22.5 53.5t22.5 53.5z" />
    <glyph glyph-name="yacute" unicode="&#xfd;" 
d="M48 492q23 1 68 1t67 -1q25 -215 84 -333h70q58 116 82 333q23 1 68 1t67 -1q-16 -134 -51 -247.5t-96 -212.5h-53q14 -95 19 -216h-142q5 122 18 216h-54q-115 190 -147 460zM280 545l-62 55l125 151q52 -21 97 -84z" />
    <glyph glyph-name="thorn" unicode="&#xfe;" 
d="M220 25v-108l114 13v-114h-334v114l87 -12v640l-65 -10v121q57 3 102 3l67 -1q9 -1 29 -1v-218q78 55 153 55q54 0 95.5 -28.5t64.5 -83t23 -129.5q0 -74 -29.5 -132.5t-81.5 -91t-116 -32.5q-46 0 -109 15zM299 122q62 0 95.5 38t33.5 105q0 63 -22.5 95.5t-71.5 32.5
q-57 0 -114 -27v-233q46 -11 79 -11z" />
    <glyph glyph-name="ydieresis" unicode="&#xff;" 
d="M48 492q23 1 68 1t67 -1q25 -215 84 -333h70q58 116 82 333q23 1 68 1t67 -1q-16 -134 -51 -247.5t-96 -212.5h-53q14 -95 19 -216h-142q5 122 18 216h-54q-115 190 -147 460zM359 584.5q-22 19.5 -22 53.5t22 53.5t58 19.5q37 0 59.5 -19.5t22.5 -53.5t-22.5 -53.5
t-59.5 -19.5q-36 0 -58 19.5zM129.5 691.5q22.5 19.5 59.5 19.5q36 0 57.5 -19.5t21.5 -53.5t-21.5 -53.5t-57.5 -19.5q-37 0 -59.5 19.5t-22.5 53.5t22.5 53.5z" />
    <glyph glyph-name="Amacron" unicode="&#x100;" 
d="M87 358.5q44 177.5 108 281.5h211q64 -105 108 -282.5t55 -357.5h-137q-6 85 -11 124h-242q-5 -39 -11 -124h-136q11 181 55 358.5zM404 240q-31 169 -84 281h-40q-53 -112 -84 -281h208zM136 780h327v-101l-163 9l-164 -9v101z" />
    <glyph glyph-name="amacron" unicode="&#x101;" 
d="M293 7.5q-45 -21.5 -89 -21.5q-64 0 -101.5 38.5t-37.5 108.5q0 39 12 77t30 63q59 8 150 8q60 0 109 -3v10q0 47 -15 73t-61 26q-31 0 -80 -8.5t-95 -26.5q-18 51 -24 105q125 47 216 47q63 0 104.5 -15.5t64 -55.5t22.5 -112v-213l72 8q2 -36 2 -56q0 -19 -2 -57
q-33 -8 -94 -8q-52 0 -88 5l-15 61q-35 -32 -80 -53.5zM207 104q12 -14 43 -14q24 0 57.5 10t58.5 25v75q-40 2 -99 2q-42 0 -60 -1q-12 -21 -12 -51q0 -32 12 -46zM137 668h327v-101l-163 9l-164 -9v101z" />
    <glyph glyph-name="Abreve" unicode="&#x102;" 
d="M87 358.5q44 177.5 108 281.5h211q64 -105 108 -282.5t55 -357.5h-137q-6 85 -11 124h-242q-5 -39 -11 -124h-136q11 181 55 358.5zM404 240q-31 169 -84 281h-40q-53 -112 -84 -281h208zM191 711.5q-42 35.5 -48 98.5l89 17q6 -38 22.5 -55.5t45.5 -17.5t45 17.5
t22 55.5l89 -17q-7 -63 -48.5 -98.5t-107.5 -35.5q-67 0 -109 35.5z" />
    <glyph glyph-name="abreve" unicode="&#x103;" 
d="M293 7.5q-45 -21.5 -89 -21.5q-64 0 -101.5 38.5t-37.5 108.5q0 39 12 77t30 63q59 8 150 8q60 0 109 -3v10q0 47 -15 73t-61 26q-31 0 -80 -8.5t-95 -26.5q-18 51 -24 105q125 47 216 47q63 0 104.5 -15.5t64 -55.5t22.5 -112v-213l72 8q2 -36 2 -56q0 -19 -2 -57
q-33 -8 -94 -8q-52 0 -88 5l-15 61q-35 -32 -80 -53.5zM207 104q12 -14 43 -14q24 0 57.5 10t58.5 25v75q-40 2 -99 2q-42 0 -60 -1q-12 -21 -12 -51q0 -32 12 -46zM190.5 585.5q-41.5 35.5 -47.5 98.5l92 15q6 -35 22 -52t43 -17t43 17t22 52l91 -15q-6 -63 -47.5 -98.5
t-108.5 -35.5q-68 0 -109.5 35.5z" />
    <glyph glyph-name="Aogonek" unicode="&#x104;" 
d="M87 358.5q44 177.5 108 281.5h211q64 -105 108 -282t55 -357l4 -1q-20 -21 -30 -36.5t-10 -28.5q0 -18 19.5 -27t63.5 -13l-11 -82q-92 -1 -136 26t-44 69q0 23 15 48t40 44h-48q-6 85 -11 124h-242q-5 -39 -11 -124h-136q11 181 55 358.5zM404 240q-31 169 -84 281h-40
q-53 -112 -84 -281h208z" />
    <glyph glyph-name="aogonek" unicode="&#x105;" 
d="M293 7.5q-45 -21.5 -89 -21.5q-64 0 -101.5 38.5t-37.5 108.5q0 39 12 77t30 63q59 8 150 8q60 0 109 -3v10q0 47 -15 73t-61 26q-31 0 -80 -8.5t-95 -26.5q-18 51 -24 105q125 47 216 47q63 0 104.5 -15.5t64 -55.5t22.5 -112v-213l72 8q2 -36 2 -56q0 -19 -2 -57
q-20 -21 -30 -36.5t-10 -28.5q0 -18 19.5 -27t63.5 -13l-11 -82q-92 -1 -136 26t-44 69q0 20 12.5 43t32.5 41q-36 0 -79 5l-15 61q-35 -32 -80 -53.5zM207 104q12 -14 43 -14q24 0 57.5 10t58.5 25v75q-40 2 -99 2q-42 0 -60 -1q-12 -21 -12 -51q0 -32 12 -46z" />
    <glyph glyph-name="Cacute" unicode="&#x106;" 
d="M116.5 71q-77.5 86 -77.5 251q0 163 77.5 248t223.5 85q58 0 115 -12.5t94 -33.5l-15 -254l-133 10l20 156q-43 10 -88 10q-79 0 -116.5 -51.5t-37.5 -157.5q0 -108 44.5 -160t141.5 -52q72 0 169 23l20 -107q-34 -17 -93 -29t-119 -12q-148 0 -225.5 86zM279 674l-39 68
l185 100l45 -101z" />
    <glyph glyph-name="cacute" unicode="&#x107;" 
d="M127.5 55q-73.5 69 -73.5 194q0 124 71 191t202 67q102 0 191 -41q2 -56 2 -90q0 -60 -4 -105l-42 -1q-48 0 -83 4l16 108q-39 11 -76 11q-71 0 -106 -35t-35 -109q0 -73 40.5 -110t131.5 -37q30 0 69 5.5t74 14.5q13 -42 19 -95q-75 -41 -182 -41q-141 0 -214.5 69z
M301 545l-62 55l125 151q52 -21 97 -84z" />
    <glyph glyph-name="Ccircumflex" unicode="&#x108;" 
d="M116.5 71q-77.5 86 -77.5 251q0 163 77.5 248t223.5 85q58 0 115 -12.5t94 -33.5l-15 -254l-133 10l20 156q-43 10 -88 10q-79 0 -116.5 -51.5t-37.5 -157.5q0 -108 44.5 -160t141.5 -52q72 0 169 23l20 -107q-34 -17 -93 -29t-119 -12q-148 0 -225.5 86zM185 739
l147 107h44l148 -107l-43 -61l-127 70l-127 -70z" />
    <glyph glyph-name="ccircumflex" unicode="&#x109;" 
d="M127.5 55q-73.5 69 -73.5 194q0 124 71 191t202 67q102 0 191 -41q2 -56 2 -90q0 -60 -4 -105l-42 -1q-48 0 -83 4l16 108q-39 11 -76 11q-71 0 -106 -35t-35 -109q0 -73 40.5 -110t131.5 -37q30 0 69 5.5t74 14.5q13 -42 19 -95q-75 -41 -182 -41q-141 0 -214.5 69z
M155 597l144 108h45l143 -108l-38 -58l-128 72l-127 -72z" />
    <glyph glyph-name="Cdotaccent" unicode="&#x10a;" 
d="M116.5 71q-77.5 86 -77.5 251q0 163 77.5 248t223.5 85q58 0 115 -12.5t94 -33.5l-15 -254l-133 10l20 156q-43 10 -88 10q-79 0 -116.5 -51.5t-37.5 -157.5q0 -108 44.5 -160t141.5 -52q72 0 169 23l20 -107q-34 -17 -93 -29t-119 -12q-148 0 -225.5 86zM295.5 700.5
q-22.5 19.5 -22.5 50.5t22.5 50t58.5 19q35 0 57.5 -19t22.5 -50t-22.5 -50.5t-57.5 -19.5q-36 0 -58.5 19.5z" />
    <glyph glyph-name="cdotaccent" unicode="&#x10b;" 
d="M127.5 55q-73.5 69 -73.5 194q0 124 71 191t202 67q102 0 191 -41q2 -56 2 -90q0 -60 -4 -105l-42 -1q-48 0 -83 4l16 108q-39 11 -76 11q-71 0 -106 -35t-35 -109q0 -73 40.5 -110t131.5 -37q30 0 69 5.5t74 14.5q13 -42 19 -95q-75 -41 -182 -41q-141 0 -214.5 69z
M257 583q-24 21 -24 56t24 56t65 21q40 0 63.5 -21t23.5 -56t-23.5 -56t-63.5 -21q-41 0 -65 21z" />
    <glyph glyph-name="Ccaron" unicode="&#x10c;" 
d="M116.5 71q-77.5 86 -77.5 251q0 163 77.5 248t223.5 85q58 0 115 -12.5t94 -33.5l-15 -254l-133 10l20 156q-43 10 -88 10q-79 0 -116.5 -51.5t-37.5 -157.5q0 -108 44.5 -160t141.5 -52q72 0 169 23l20 -107q-34 -17 -93 -29t-119 -12q-148 0 -225.5 86zM354 764l128 72
l38 -58l-143 -108h-45l-144 108l39 58z" />
    <glyph glyph-name="ccaron" unicode="&#x10d;" 
d="M127.5 55q-73.5 69 -73.5 194q0 124 71 191t202 67q102 0 191 -41q2 -56 2 -90q0 -60 -4 -105l-42 -1q-48 0 -83 4l16 108q-39 11 -76 11q-71 0 -106 -35t-35 -109q0 -73 40.5 -110t131.5 -37q30 0 69 5.5t74 14.5q13 -42 19 -95q-75 -41 -182 -41q-141 0 -214.5 69z
M321 641l128 72l38 -58l-143 -108h-45l-144 108l39 58z" />
    <glyph glyph-name="Dcaron" unicode="&#x10e;" 
d="M79 458l9 62l-70 -10q-1 22 -1 65q0 44 1 65h211q168 0 254.5 -81.5t86.5 -238.5t-85 -238.5t-248 -81.5h-158v458zM253 124q84 0 132 52t48 144t-48 144t-132 52h-36v-392h36zM220 764l128 72l38 -58l-143 -108h-45l-144 108l39 58z" />
    <glyph glyph-name="dcaron" unicode="&#x10f;" horiz-adv-x="601" 
d="M75 45q-49 60 -49 178q0 133 64 204.5t171 71.5q20 0 69 -14v185h133v-562l72 8v-113q-44 -8 -98 -8q-38 0 -85 5l-10 43q-62 -58 -135 -58q-83 0 -132 60zM245 97q41 0 85 28v249q-45 13 -61 13q-53 0 -84 -37.5t-31 -109.5q0 -143 91 -143zM588 670l3 -47l-16 -219h-74
l-3 266h90z" />
    <glyph glyph-name="Dcroat" unicode="&#x110;" 
d="M79 268l-45 -3q-2 36 -2 52q0 18 2 52l45 -4v93l9 62l-70 -10q-1 22 -1 65q0 44 1 65h211q168 0 254.5 -81.5t86.5 -238.5t-85 -238.5t-248 -81.5h-158v268zM253 124q84 0 132 52t48 144t-48 144t-132 52h-36v-153q53 2 103 6q2 -34 2 -52q0 -16 -2 -52q-50 4 -103 6
v-147h36z" />
    <glyph glyph-name="dcroat" unicode="&#x111;" 
d="M97 45q-49 60 -49 178q0 138 63.5 210.5t170.5 72.5q44 0 94 -14v51h-161v83h161v48q32 2 48 2q43 0 85 -6v-44h48v-83h-48v-436l72 9q2 -19 2 -56t-2 -56q-45 -8 -102 -8q-46 0 -81 4l-11 46q-85 -61 -158 -61q-83 0 -132 60zM196 133.5q20 -36.5 66 -36.5q51 0 114 35
v248q-49 14 -86 14q-53 0 -83.5 -38.5t-30.5 -115.5q0 -70 20 -106.5z" />
    <glyph glyph-name="Emacron" unicode="&#x112;" 
d="M96 457l9 65l-90 -12v130h510l9 -123l-301 7v-144l248 8v-122l-248 7v-157l311 7l-9 -123h-439v457zM138 780h327v-101l-163 9l-164 -9v101z" />
    <glyph glyph-name="emacron" unicode="&#x113;" 
d="M128 54.5q-70 68.5 -70 193.5q0 78 30 136.5t85 90.5t128 32q69 0 122 -28.5t82.5 -82.5t29.5 -127q0 -26 -7 -54q-75 -12 -155 -15.5t-189 -3.5q9 -48 44.5 -72t107.5 -24q81 0 156 20q15 -40 20 -93q-32 -19 -80.5 -30t-101.5 -11q-132 0 -202 68.5zM406 295
q-12 104 -113 104q-46 0 -74.5 -28t-35.5 -85q114 0 223 9zM137 668h327v-101l-163 9l-164 -9v101z" />
    <glyph glyph-name="Ebreve" unicode="&#x114;" 
d="M96 457l9 65l-90 -12v130h510l9 -123l-301 7v-144l248 8v-122l-248 7v-157l311 7l-9 -123h-439v457zM193 711.5q-42 35.5 -48 98.5l89 17q6 -38 22.5 -55.5t45.5 -17.5t45 17.5t22 55.5l89 -17q-7 -63 -48.5 -98.5t-107.5 -35.5q-67 0 -109 35.5z" />
    <glyph glyph-name="ebreve" unicode="&#x115;" 
d="M128 54.5q-70 68.5 -70 193.5q0 78 30 136.5t85 90.5t128 32q69 0 122 -28.5t82.5 -82.5t29.5 -127q0 -26 -7 -54q-75 -12 -155 -15.5t-189 -3.5q9 -48 44.5 -72t107.5 -24q81 0 156 20q15 -40 20 -93q-32 -19 -80.5 -30t-101.5 -11q-132 0 -202 68.5zM406 295
q-12 104 -113 104q-46 0 -74.5 -28t-35.5 -85q114 0 223 9zM190.5 585.5q-41.5 35.5 -47.5 98.5l92 15q6 -35 22 -52t43 -17t43 17t22 52l91 -15q-6 -63 -47.5 -98.5t-108.5 -35.5q-68 0 -109.5 35.5z" />
    <glyph glyph-name="Edotaccent" unicode="&#x116;" 
d="M96 457l9 65l-90 -12v130h510l9 -123l-301 7v-144l248 8v-122l-248 7v-157l311 7l-9 -123h-439v457zM243.5 700.5q-22.5 19.5 -22.5 50.5t22.5 50t58.5 19q35 0 57.5 -19t22.5 -50t-22.5 -50.5t-57.5 -19.5q-36 0 -58.5 19.5z" />
    <glyph glyph-name="edotaccent" unicode="&#x117;" 
d="M128 54.5q-70 68.5 -70 193.5q0 78 30 136.5t85 90.5t128 32q69 0 122 -28.5t82.5 -82.5t29.5 -127q0 -26 -7 -54q-75 -12 -155 -15.5t-189 -3.5q9 -48 44.5 -72t107.5 -24q81 0 156 20q15 -40 20 -93q-32 -19 -80.5 -30t-101.5 -11q-132 0 -202 68.5zM406 295
q-12 104 -113 104q-46 0 -74.5 -28t-35.5 -85q114 0 223 9zM237 583q-24 21 -24 56t24 56t65 21q40 0 63.5 -21t23.5 -56t-23.5 -56t-63.5 -21q-41 0 -65 21z" />
    <glyph glyph-name="Eogonek" unicode="&#x118;" 
d="M96 457l9 65l-90 -12v130h510l9 -123l-301 7v-144l248 8v-122l-248 7v-157l311 7l-9 -123h1q-20 -21 -30 -36.5t-10 -28.5q0 -18 19.5 -27t63.5 -13l-11 -82q-92 -1 -136 26t-44 69q0 23 15 48t40 44h-347v457z" />
    <glyph glyph-name="eogonek" unicode="&#x119;" 
d="M128 54.5q-70 68.5 -70 193.5q0 78 30 136.5t85 90.5t128 32q69 0 122 -28.5t82.5 -82.5t29.5 -127q0 -26 -7 -54q-75 -12 -155 -15.5t-189 -3.5q9 -48 44.5 -72t107.5 -24q81 0 156 20q15 -40 20 -93q-20 -21 -30 -36.5t-10 -28.5q0 -18 19.5 -27t63.5 -13l-11 -82
q-92 -1 -136 26t-44 69q0 25 19 54q-25 -3 -53 -3q-132 0 -202 68.5zM406 295q-12 104 -113 104q-46 0 -74.5 -28t-35.5 -85q114 0 223 9z" />
    <glyph glyph-name="Ecaron" unicode="&#x11a;" 
d="M96 457l9 65l-90 -12v130h510l9 -123l-301 7v-144l248 8v-122l-248 7v-157l311 7l-9 -123h-439v457zM302 764l128 72l38 -58l-143 -108h-45l-144 108l39 58z" />
    <glyph glyph-name="ecaron" unicode="&#x11b;" 
d="M128 54.5q-70 68.5 -70 193.5q0 78 30 136.5t85 90.5t128 32q69 0 122 -28.5t82.5 -82.5t29.5 -127q0 -26 -7 -54q-75 -12 -155 -15.5t-189 -3.5q9 -48 44.5 -72t107.5 -24q81 0 156 20q15 -40 20 -93q-32 -19 -80.5 -30t-101.5 -11q-132 0 -202 68.5zM406 295
q-12 104 -113 104q-46 0 -74.5 -28t-35.5 -85q114 0 223 9zM301 641l128 72l38 -58l-143 -108h-45l-144 108l39 58z" />
    <glyph glyph-name="Gcircumflex" unicode="&#x11c;" 
d="M113 71q-83 86 -83 247q0 165 76.5 251t219.5 86q64 0 124 -12t95 -31l-19 -108q-44 12 -91.5 19t-84.5 7q-93 0 -136 -52.5t-43 -159.5q0 -106 39 -157.5t123 -51.5q56 0 98 12l-22 200l133 7l15 -312q-50 -14 -107 -22.5t-108 -8.5q-146 0 -229 86zM167 739l147 107h44
l148 -107l-43 -61l-127 70l-127 -70z" />
    <glyph glyph-name="gcircumflex" unicode="&#x11d;" 
d="M95 -167l17 98q34 -7 73 -12t68 -5q131 0 131 138v10q-72 -45 -141 -45q-88 0 -137.5 61.5t-49.5 177.5q0 117 64.5 184t176.5 67q61 0 119.5 -18.5t100.5 -46.5v-391q0 -119 -64.5 -184t-180.5 -65q-89 0 -177 31zM207 163.5q23 -32.5 71 -32.5q27 0 55 8t51 22v219
q-50 13 -86 13q-55 0 -84.5 -35.5t-29.5 -101.5q0 -60 23 -92.5zM134 597l144 108h45l143 -108l-38 -58l-128 72l-127 -72z" />
    <glyph glyph-name="Gbreve" unicode="&#x11e;" 
d="M113 71q-83 86 -83 247q0 165 76.5 251t219.5 86q64 0 124 -12t95 -31l-19 -108q-44 12 -91.5 19t-84.5 7q-93 0 -136 -52.5t-43 -159.5q0 -106 39 -157.5t123 -51.5q56 0 98 12l-22 200l133 7l15 -312q-50 -14 -107 -22.5t-108 -8.5q-146 0 -229 86zM227 711.5
q-42 35.5 -48 98.5l89 17q6 -38 22.5 -55.5t45.5 -17.5t45 17.5t22 55.5l89 -17q-7 -63 -48.5 -98.5t-107.5 -35.5q-67 0 -109 35.5z" />
    <glyph glyph-name="gbreve" unicode="&#x11f;" 
d="M95 -167l17 98q34 -7 73 -12t68 -5q131 0 131 138v10q-72 -45 -141 -45q-88 0 -137.5 61.5t-49.5 177.5q0 117 64.5 184t176.5 67q61 0 119.5 -18.5t100.5 -46.5v-391q0 -119 -64.5 -184t-180.5 -65q-89 0 -177 31zM207 163.5q23 -32.5 71 -32.5q27 0 55 8t51 22v219
q-50 13 -86 13q-55 0 -84.5 -35.5t-29.5 -101.5q0 -60 23 -92.5zM190.5 585.5q-41.5 35.5 -47.5 98.5l92 15q6 -35 22 -52t43 -17t43 17t22 52l91 -15q-6 -63 -47.5 -98.5t-108.5 -35.5q-68 0 -109.5 35.5z" />
    <glyph glyph-name="Gdotaccent" unicode="&#x120;" 
d="M113 71q-83 86 -83 247q0 165 76.5 251t219.5 86q64 0 124 -12t95 -31l-19 -108q-44 12 -91.5 19t-84.5 7q-93 0 -136 -52.5t-43 -159.5q0 -106 39 -157.5t123 -51.5q56 0 98 12l-22 200l133 7l15 -312q-50 -14 -107 -22.5t-108 -8.5q-146 0 -229 86zM277.5 700.5
q-22.5 19.5 -22.5 50.5t22.5 50t58.5 19q35 0 57.5 -19t22.5 -50t-22.5 -50.5t-57.5 -19.5q-36 0 -58.5 19.5z" />
    <glyph glyph-name="gdotaccent" unicode="&#x121;" 
d="M95 -167l17 98q34 -7 73 -12t68 -5q131 0 131 138v10q-72 -45 -141 -45q-88 0 -137.5 61.5t-49.5 177.5q0 117 64.5 184t176.5 67q61 0 119.5 -18.5t100.5 -46.5v-391q0 -119 -64.5 -184t-180.5 -65q-89 0 -177 31zM207 163.5q23 -32.5 71 -32.5q27 0 55 8t51 22v219
q-50 13 -86 13q-55 0 -84.5 -35.5t-29.5 -101.5q0 -60 23 -92.5zM236 583q-24 21 -24 56t24 56t65 21q40 0 63.5 -21t23.5 -56t-23.5 -56t-63.5 -21q-41 0 -65 21z" />
    <glyph glyph-name="uni0122" unicode="&#x122;" 
d="M113 71q-83 86 -83 247q0 165 76.5 251t219.5 86q64 0 124 -12t95 -31l-19 -108q-44 12 -91.5 19t-84.5 7q-93 0 -136 -52.5t-43 -159.5q0 -106 39 -157.5t123 -51.5q56 0 98 12l-22 200l133 7l15 -312q-50 -14 -107 -22.5t-108 -8.5q-146 0 -229 86zM208 -193l33 155
h125l-67 -158z" />
    <glyph glyph-name="uni0123" unicode="&#x123;" 
d="M95 -167l17 98q34 -7 73 -12t68 -5q131 0 131 138v10q-72 -45 -141 -45q-88 0 -137.5 61.5t-49.5 177.5q0 117 64.5 184t176.5 67q61 0 119.5 -18.5t100.5 -46.5v-391q0 -119 -64.5 -184t-180.5 -65q-89 0 -177 31zM207 163.5q23 -32.5 71 -32.5q27 0 55 8t51 22v219
q-50 13 -86 13q-55 0 -84.5 -35.5t-29.5 -101.5q0 -60 23 -92.5zM306 657l63 -20q0 -33 -17.5 -51.5t-50.5 -18.5q-76 0 -76 67q0 37 24.5 75.5t68.5 69.5l43 -28q-42 -44 -55 -94z" />
    <glyph glyph-name="Hcircumflex" unicode="&#x124;" 
d="M406 256h-212v-256h-137v640h137v-260h212v260h138v-640h-138v256zM131 739l147 107h44l148 -107l-43 -61l-127 70l-127 -70z" />
    <glyph glyph-name="hcircumflex" unicode="&#x125;" 
d="M393.5 358.5q-14.5 20.5 -51.5 20.5q-52 0 -114 -26v-353h-133v559l-71 -19q-4 36 -4 86q0 28 1 42q82 7 144 7q23 0 63 -2v-235q44 29 95.5 49t91.5 20q126 0 126 -144v-363h-133v292q0 46 -14.5 66.5zM13 764l147 107h44l148 -107l-43 -61l-127 70l-127 -70z" />
    <glyph glyph-name="Hbar" unicode="&#x126;" 
d="M406 256h-212v-256h-137v484h-71v86h71v70h137v-70h212v70h138v-70h60v-86h-60v-484h-138v256zM406 380v104h-212v-104h212z" />
    <glyph glyph-name="hbar" unicode="&#x127;" 
d="M393.5 358.5q-14.5 20.5 -51.5 20.5q-52 0 -114 -26v-353h-133v552h-57v83h57v35q22 2 67 2q44 0 66 -2v-35h152v-83h-152v-114q44 29 95.5 49t91.5 20q126 0 126 -144v-363h-133v292q0 46 -14.5 66.5z" />
    <glyph glyph-name="Itilde" unicode="&#x128;" 
d="M78 120l152 -6v412l-152 -6l4 120h435l4 -120l-153 6v-412l153 6l-4 -120h-435zM329 689q-17 8 -40 23q-39 26 -58 26q-14 0 -27 -16t-28 -46l-53 22q27 66 55 98t60 32q17 0 33.5 -8t39.5 -23q20 -12 33.5 -18.5t24.5 -6.5q13 0 26 16t28 46l53 -22q-26 -66 -53.5 -98.5
t-59.5 -32.5q-17 0 -34 8z" />
    <glyph glyph-name="itilde" unicode="&#x129;" 
d="M72 130l184 -20v270l-154 -23q-2 44 -2 65t2 65q73 6 183 6q67 0 103 -1v-383l172 21l-2 -130h-483zM320 577q-17 8 -40 23q-20 12 -33.5 18.5t-24.5 6.5q-14 0 -27 -16t-28 -46l-53 22q27 66 54.5 98.5t60.5 32.5q17 0 33.5 -8t39.5 -23q20 -12 33.5 -18.5t24.5 -6.5
q13 0 26 15.5t28 45.5l53 -21q-26 -66 -53.5 -98.5t-59.5 -32.5q-17 0 -34 8z" />
    <glyph glyph-name="Imacron" unicode="&#x12a;" 
d="M78 120l152 -6v412l-152 -6l4 120h435l4 -120l-153 6v-412l153 6l-4 -120h-435zM136 780h327v-101l-163 9l-164 -9v101z" />
    <glyph glyph-name="imacron" unicode="&#x12b;" 
d="M72 130l184 -20v270l-154 -23q-2 44 -2 65t2 65q73 6 183 6q67 0 103 -1v-383l172 21l-2 -130h-483zM127 668h327v-101l-163 9l-164 -9v101z" />
    <glyph glyph-name="Ibreve" unicode="&#x12c;" 
d="M78 120l152 -6v412l-152 -6l4 120h435l4 -120l-153 6v-412l153 6l-4 -120h-435zM191 711.5q-42 35.5 -48 98.5l89 17q6 -38 22.5 -55.5t45.5 -17.5t45 17.5t22 55.5l89 -17q-7 -63 -48.5 -98.5t-107.5 -35.5q-67 0 -109 35.5z" />
    <glyph glyph-name="ibreve" unicode="&#x12d;" 
d="M72 130l184 -20v270l-154 -23q-2 44 -2 65t2 65q73 6 183 6q67 0 103 -1v-383l172 21l-2 -130h-483zM180.5 585.5q-41.5 35.5 -47.5 98.5l92 15q6 -35 22 -52t43 -17t43 17t22 52l91 -15q-6 -63 -47.5 -98.5t-108.5 -35.5q-68 0 -109.5 35.5z" />
    <glyph glyph-name="Iogonek" unicode="&#x12e;" 
d="M78 120l152 -6v412l-152 -6l4 120h435l4 -120l-153 6v-412l153 6l-4 -120h-167q-20 -21 -30 -36.5t-10 -28.5q0 -18 19.5 -27t63.5 -13l-11 -82q-92 -1 -136 26t-44 69q0 23 15 48t40 44h-175z" />
    <glyph glyph-name="iogonek" unicode="&#x12f;" 
d="M72 130l184 -20v270l-154 -23q-2 44 -2 65t2 65q73 6 183 6q67 0 103 -1v-383l172 21l-2 -130h-188q-20 -21 -30 -36.5t-10 -28.5q0 -18 19.5 -27t63.5 -13l-11 -82q-92 -1 -136 26t-44 69q0 23 15 48t40 44h-202zM222.5 696.5q25.5 22.5 69.5 22.5q43 0 68 -22.5
t25 -60.5q0 -37 -25 -59.5t-68 -22.5q-44 0 -69.5 22.5t-25.5 59.5q0 38 25.5 60.5z" />
    <glyph glyph-name="Idotaccent" unicode="&#x130;" 
d="M78 120l152 -6v412l-152 -6l4 120h435l4 -120l-153 6v-412l153 6l-4 -120h-435zM241.5 700.5q-22.5 19.5 -22.5 50.5t22.5 50t58.5 19q35 0 57.5 -19t22.5 -50t-22.5 -50.5t-57.5 -19.5q-36 0 -58.5 19.5z" />
    <glyph glyph-name="dotlessi" unicode="&#x131;" 
d="M72 130l184 -20v270l-154 -23q-2 44 -2 65t2 65q73 6 183 6q67 0 103 -1v-383l172 21l-2 -130h-483z" />
    <glyph glyph-name="IJ" unicode="&#x132;" 
d="M334 1v122q43 -14 75 -14q16 0 23.5 8.5t7.5 31.5v377l-105 -7l8 121h223v-500q0 -81 -35 -118t-103 -37q-44 0 -94 16zM88 116v408l-66 -4l4 120h252l4 -120l-66 4v-408l66 4l-4 -120h-252l-4 120z" />
    <glyph glyph-name="ij" unicode="&#x133;" 
d="M320 -148.5q-32 5.5 -70 17.5q8 53 23 104q35 -8 56 -11.5t44 -3.5q32 0 44 18.5t12 70.5v333l-107 -20q-2 44 -2 66q0 24 2 64q56 4 129 4q34 0 110 -2l1 -446q0 -103 -43 -151.5t-130 -48.5q-37 0 -69 5.5zM131 114v265l-95 -18q-2 44 -2 65q0 22 2 64q54 5 131 5
q30 0 96 -2v-492h-225l-2 122zM94 699.5q27 23.5 72 23.5t71 -23t26 -62t-26 -63t-71 -24t-72 24t-27 63q0 38 27 61.5zM376 699.5q27 23.5 72 23.5t71 -23t26 -62t-26 -63t-71 -24t-72 24t-27 63q0 38 27 61.5z" />
    <glyph glyph-name="Jcircumflex" unicode="&#x134;" 
d="M155.5 -3q-60.5 12 -104.5 32l22 108q49 -14 91 -20.5t89 -6.5q75 0 108.5 35.5t33.5 107.5v265l-277 -8l9 130h401v-405q0 -118 -67 -184t-188 -66q-57 0 -117.5 12zM131 739l147 107h44l148 -107l-43 -61l-127 70l-127 -70z" />
    <glyph glyph-name="jcircumflex" unicode="&#x135;" 
d="M156.5 -58q-53.5 12 -95.5 30q6 54 20 95q104 -25 170 -25t100.5 36t34.5 107v204l-243 -27q-2 44 -2 65q0 23 2 65q60 2 187 2t189 -2v-299q0 -129 -67 -196t-189 -67q-53 0 -106.5 12zM239 597l144 108h45l143 -108l-38 -58l-128 72l-127 -72z" />
    <glyph glyph-name="uni0136" unicode="&#x136;" 
d="M95 458l9 63l-65 -11q-2 43 -2 130q36 5 106 5q38 0 90 -2v-299q48 15 84.5 63.5t59 111t29.5 119.5q68 5 113 5q31 0 45 -1q-8 -84 -50.5 -173t-105.5 -153q102 -139 174 -316h-164q-18 58 -47 128t-55 120q-42 -22 -83 -26v-224l-138 2v458zM242 -193l33 155h125
l-67 -158z" />
    <glyph glyph-name="uni0137" unicode="&#x137;" 
d="M331 189q-51 -30 -108 -36v-153h-133v564l-68 -22q-6 67 -5 127q69 6 146 6q41 0 60 -1v-414q45 15 82 53t60 86t27 93q46 2 69 2q25 0 69 -2q-7 -63 -36.5 -124t-75.5 -110q90 -138 146 -258h-155q-35 96 -78 189zM209 -193l33 155h125l-67 -158z" />
    <glyph glyph-name="kgreenlandic" unicode="&#x138;" 
d="M374 96q-21 49 -43 91q-54 -29 -108 -33v-154h-133v382l-68 -22q-6 69 -5 128q75 5 143 5q43 0 63 -1v-231q72 33 116 97.5t52 133.5q46 2 70 2q25 0 69 -2q-7 -65 -37.5 -128t-78.5 -112q47 -54 79.5 -111.5t69.5 -140.5h-149q-19 47 -40 96z" />
    <glyph glyph-name="Lacute" unicode="&#x139;" 
d="M76 640h137v-525l214 7l-15 169q62 7 132 7l6 -298h-474v640zM128 674l-39 68l185 100l45 -101z" />
    <glyph glyph-name="lacute" unicode="&#x13a;" 
d="M71 130l185 -20v455q-59 -8 -175 -26q-3 33 -3 65q0 33 3 64q104 8 203 8q34 0 104 -2v-565l172 21l-2 -130h-485zM225 704l-39 68l185 100l45 -101z" />
    <glyph glyph-name="uni013B" unicode="&#x13b;" 
d="M76 640h137v-525l214 7l-15 169q62 7 132 7l6 -298h-474v640zM208 -193l33 155h125l-67 -158z" />
    <glyph glyph-name="uni013C" unicode="&#x13c;" 
d="M71 130l185 -20v455q-59 -8 -175 -26q-3 33 -3 65q0 33 3 64q104 8 203 8q34 0 104 -2v-565l172 21l-2 -130h-485zM213 -193l33 155h125l-67 -158z" />
    <glyph glyph-name="Lcaron" unicode="&#x13d;" 
d="M76 640h137v-525l214 7l-15 169q62 7 132 7l6 -298h-474v640zM414 640h111l3 -47l-37 -219h-74z" />
    <glyph glyph-name="lcaron" unicode="&#x13e;" horiz-adv-x="591" 
d="M71 130l185 -20v455q-59 -8 -175 -26q-3 33 -3 65q0 33 3 64q104 8 203 8q34 0 104 -2v-565l172 21l-2 -130h-485zM478 670h111l3 -47l-37 -219h-74z" />
    <glyph glyph-name="Ldot" unicode="&#x13f;" 
d="M76 640h137v-525l214 7l-15 169q62 7 132 7l6 -298h-474v640zM387.5 440.5q15.5 13.5 42.5 13.5q26 0 41 -13.5t15 -36.5q0 -22 -15 -35.5t-41 -13.5q-27 0 -42.5 13t-15.5 36t15.5 36.5z" />
    <glyph glyph-name="ldot" unicode="&#x140;" 
d="M71 130l185 -20v455q-59 -8 -175 -26q-3 33 -3 65q0 33 3 64q104 8 203 8q34 0 104 -2v-565l172 21l-2 -130h-485zM545.5 273.5q-22.5 19.5 -22.5 53.5t22.5 54t62.5 20q38 0 60.5 -20t22.5 -54t-22.5 -53.5t-60.5 -19.5q-40 0 -62.5 19.5z" />
    <glyph glyph-name="Lslash" unicode="&#x141;" 
d="M76 286l-57 -26l-39 87l96 44v249h137v-187l118 54l39 -87l-157 -72v-233l214 7l-15 169q62 7 132 7l6 -298h-474v286z" />
    <glyph glyph-name="lslash" unicode="&#x142;" 
d="M71 130l185 -20v147l-69 -37l-38 71l107 59v215q-59 -8 -175 -26q-3 33 -3 65q0 33 3 64q104 8 203 8q34 0 104 -2v-250l49 27l43 -74l-92 -49v-219l172 21l-2 -130h-485z" />
    <glyph glyph-name="Nacute" unicode="&#x143;" 
d="M50 640h126l245 -421l-8 421h137v-640h-125l-245 420l8 -420h-138v640zM225 674l-39 68l185 100l45 -101z" />
    <glyph glyph-name="nacute" unicode="&#x144;" 
d="M394 360q-14 19 -49 19q-53 0 -117 -27v-352h-133v382l-60 -12q-2 40 -2 60q0 22 2 60q62 5 104 5q18 0 64 -2l14 -65q45 33 100.5 56t94.5 23q66 0 97.5 -36.5t31.5 -109.5v-361h-133v295q0 46 -14 65zM285 545l-62 55l125 151q52 -21 97 -84z" />
    <glyph glyph-name="uni0145" unicode="&#x145;" 
d="M50 640h126l245 -421l-8 421h137v-640h-125l-245 420l8 -420h-138v640zM208 -193l33 155h125l-67 -158z" />
    <glyph glyph-name="uni0146" unicode="&#x146;" 
d="M394 360q-14 19 -49 19q-53 0 -117 -27v-352h-133v382l-60 -12q-2 40 -2 60q0 22 2 60q62 5 104 5q18 0 64 -2l14 -65q45 33 100.5 56t94.5 23q66 0 97.5 -36.5t31.5 -109.5v-361h-133v295q0 46 -14 65zM213 -193l33 155h125l-67 -158z" />
    <glyph glyph-name="Ncaron" unicode="&#x147;" 
d="M50 640h126l245 -421l-8 421h137v-640h-125l-245 420l8 -420h-138v640zM300 764l128 72l38 -58l-143 -108h-45l-144 108l39 58z" />
    <glyph glyph-name="ncaron" unicode="&#x148;" 
d="M394 360q-14 19 -49 19q-53 0 -117 -27v-352h-133v382l-60 -12q-2 40 -2 60q0 22 2 60q62 5 104 5q18 0 64 -2l14 -65q45 33 100.5 56t94.5 23q66 0 97.5 -36.5t31.5 -109.5v-361h-133v295q0 46 -14 65zM305 641l128 72l38 -58l-143 -108h-45l-144 108l39 58z" />
    <glyph glyph-name="Eng" unicode="&#x14a;" 
d="M50 640h126l245 -421l-8 421h137v-639q1 -71 -19 -115.5t-52 -64t-68 -19.5q-53 0 -96 12l20 123q25 -5 42 -5q20 0 28 12t8 42v35l-233 399l8 -420h-138v640z" />
    <glyph glyph-name="eng" unicode="&#x14b;" 
d="M394 360q-14 19 -49 19q-53 0 -117 -27v-352h-133v382l-60 -12q-2 40 -2 60q0 22 2 60q62 5 104 5q18 0 64 -2l14 -65q45 33 100.5 56t94.5 23q66 0 97.5 -36.5t31.5 -109.5v-368q0 -92 -49.5 -140.5t-135.5 -48.5q-32 0 -69 6t-67 16l18 104q51 -12 85 -12q41 0 63 22
t22 78v277q0 46 -14 65z" />
    <glyph glyph-name="Omacron" unicode="&#x14c;" 
d="M100 71q-70 86 -70 248q0 164 70 250t200 86t200 -86t70 -250q0 -162 -70 -248t-200 -86t-200 86zM203 160q32 -51 97 -51t97 51t32 159q0 110 -32 161t-97 51t-97 -51t-32 -161q0 -108 32 -159zM136 780h327v-101l-163 9l-164 -9v101z" />
    <glyph glyph-name="omacron" unicode="&#x14d;" 
d="M116 55q-68 70 -68 191t68 191t185 70t184.5 -70t67.5 -191t-67.5 -191t-184.5 -70t-185 70zM210.5 138q33.5 -40 89.5 -40q57 0 91 40.5t34 110.5q0 67 -34 106t-91 39q-56 0 -89.5 -40t-33.5 -108t33.5 -108zM136 668h327v-101l-163 9l-164 -9v101z" />
    <glyph glyph-name="Obreve" unicode="&#x14e;" 
d="M100 71q-70 86 -70 248q0 164 70 250t200 86t200 -86t70 -250q0 -162 -70 -248t-200 -86t-200 86zM203 160q32 -51 97 -51t97 51t32 159q0 110 -32 161t-97 51t-97 -51t-32 -161q0 -108 32 -159zM191 711.5q-42 35.5 -48 98.5l89 17q6 -38 22.5 -55.5t45.5 -17.5t45 17.5
t22 55.5l89 -17q-7 -63 -48.5 -98.5t-107.5 -35.5q-67 0 -109 35.5z" />
    <glyph glyph-name="obreve" unicode="&#x14f;" 
d="M116 55q-68 70 -68 191t68 191t185 70t184.5 -70t67.5 -191t-67.5 -191t-184.5 -70t-185 70zM210.5 138q33.5 -40 89.5 -40q57 0 91 40.5t34 110.5q0 67 -34 106t-91 39q-56 0 -89.5 -40t-33.5 -108t33.5 -108zM190.5 585.5q-41.5 35.5 -47.5 98.5l92 15q6 -35 22 -52
t43 -17t43 17t22 52l91 -15q-6 -63 -47.5 -98.5t-108.5 -35.5q-68 0 -109.5 35.5z" />
    <glyph glyph-name="Ohungarumlaut" unicode="&#x150;" 
d="M100 71q-70 86 -70 248q0 164 70 250t200 86t200 -86t70 -250q0 -162 -70 -248t-200 -86t-200 86zM203 160q32 -51 97 -51t97 51t32 159q0 110 -32 161t-97 51t-97 -51t-32 -161q0 -108 32 -159zM412 668l-54 57l158 139l67 -87zM319 864l68 -87l-171 -109l-54 57z" />
    <glyph glyph-name="ohungarumlaut" unicode="&#x151;" 
d="M116 55q-68 70 -68 191t68 191t185 70t184.5 -70t67.5 -191t-67.5 -191t-184.5 -70t-185 70zM210.5 138q33.5 -40 89.5 -40q57 0 91 40.5t34 110.5q0 67 -34 106t-91 39q-56 0 -89.5 -40t-33.5 -108t33.5 -108zM212 562l-54 35l100 164l102 -56zM446 761l100 -58
l-150 -140l-53 36z" />
    <glyph glyph-name="OE" unicode="&#x152;" 
d="M91 79.5q-69 79.5 -69 238.5q0 162 69 242t198 80h278l8 -123l-160 7v-144l115 8v-122l-115 6v-156l170 7l-8 -123h-288q-129 0 -198 79.5zM185.5 165.5q30.5 -45.5 103.5 -49.5v408q-49 -3 -78 -23t-42.5 -64t-13.5 -119q0 -107 30.5 -152.5z" />
    <glyph glyph-name="oe" unicode="&#x153;" 
d="M63.5 47q-46.5 62 -46.5 199q0 92 22.5 150.5t59 84.5t78.5 26q88 0 127 -75q22 38 55.5 56.5t75.5 18.5q66 0 107 -51.5t41 -164.5q0 -43 -8 -80q-115 -17 -220 -16q4 -53 23 -77.5t61 -24.5q51 0 107 22l18 -102q-76 -28 -133 -28q-45 0 -76.5 16.5t-52.5 53.5
q-40 -70 -125 -70q-67 0 -113.5 62zM156 130q16 -33 46 -33q29 0 44 37.5t15 111.5t-15 112.5t-42 38.5q-31 0 -47.5 -34.5t-16.5 -116.5q0 -83 16 -116zM469 289q-4 106 -52 106q-24 0 -41 -26t-21 -86q54 0 114 6z" />
    <glyph glyph-name="Racute" unicode="&#x154;" 
d="M329 213l-87 -8v-205h-138v458l8 63l-64 -11q-1 30 -1 92v38h195v-3l1 3h101q103 0 163 -52t60 -143q0 -68 -30 -118.5t-83 -79.5q72 -111 128 -247h-164q-35 109 -89 213zM327 329q47 4 75.5 31.5t28.5 70.5t-25.5 68t-68.5 25h-95v-203zM225 674l-39 68l185 100
l45 -101z" />
    <glyph glyph-name="racute" unicode="&#x155;" 
d="M71 123l133 -13v275l-126 -16q-2 42 -2 61q0 20 2 60q78 5 137 5q50 0 98 -3l19 -104q47 43 95 71.5t113 45.5q8 -69 8 -124l-1 -40q-58 -2 -104 -9t-105 -21v-203l182 15l-2 -123h-445zM280 545l-62 55l125 151q52 -21 97 -84z" />
    <glyph glyph-name="uni0156" unicode="&#x156;" 
d="M329 213l-87 -8v-205h-138v458l8 63l-64 -11q-1 30 -1 92v38h195v-3l1 3h101q103 0 163 -52t60 -143q0 -68 -30 -118.5t-83 -79.5q72 -111 128 -247h-164q-35 109 -89 213zM327 329q47 4 75.5 31.5t28.5 70.5t-25.5 68t-68.5 25h-95v-203zM208 -193l33 155h125l-67 -158z
" />
    <glyph glyph-name="uni0157" unicode="&#x157;" 
d="M71 123l133 -13v275l-126 -16q-2 42 -2 61q0 20 2 60q78 5 137 5q50 0 98 -3l19 -104q47 43 95 71.5t113 45.5q8 -69 8 -124l-1 -40q-58 -2 -104 -9t-105 -21v-203l182 15l-2 -123h-445zM209 -193l33 155h125l-67 -158z" />
    <glyph glyph-name="Rcaron" unicode="&#x158;" 
d="M329 213l-87 -8v-205h-138v458l8 63l-64 -11q-1 30 -1 92v38h195v-3l1 3h101q103 0 163 -52t60 -143q0 -68 -30 -118.5t-83 -79.5q72 -111 128 -247h-164q-35 109 -89 213zM327 329q47 4 75.5 31.5t28.5 70.5t-25.5 68t-68.5 25h-95v-203zM300 764l128 72l38 -58
l-143 -108h-45l-144 108l39 58z" />
    <glyph glyph-name="rcaron" unicode="&#x159;" 
d="M71 123l133 -13v275l-126 -16q-2 42 -2 61q0 20 2 60q78 5 137 5q50 0 98 -3l19 -104q47 43 95 71.5t113 45.5q8 -69 8 -124l-1 -40q-58 -2 -104 -9t-105 -21v-203l182 15l-2 -123h-445zM301 641l128 72l38 -58l-143 -108h-45l-144 108l39 58z" />
    <glyph glyph-name="Sacute" unicode="&#x15a;" 
d="M55 23l25 118q123 -33 233 -33q56 0 81 16.5t25 49.5q0 22 -11 37t-38.5 27.5t-78.5 25.5q-119 30 -173 77t-54 129q0 90 62 137.5t183 47.5q122 0 212 -27q-7 -63 -18 -119q-97 23 -196 23q-108 0 -108 -62q0 -30 27.5 -47.5t100.5 -37.5q82 -22 131 -48t73 -65t24 -98
q0 -91 -61.5 -140t-179.5 -49q-142 0 -259 38zM233 674l-39 68l185 100l45 -101z" />
    <glyph glyph-name="sacute" unicode="&#x15b;" 
d="M142 467.5q56 39.5 165 39.5q122 0 211 -31q-8 -60 -24 -106q-114 28 -194 28q-40 0 -58.5 -10.5t-18.5 -31.5t24 -34t85 -23q82 -15 126 -35.5t61 -50t17 -74.5q0 -154 -230 -154q-115 0 -229 35l22 106q125 -30 214 -30q84 0 84 45q0 20 -18.5 31.5t-65.5 19.5
q-89 16 -138 36.5t-69 49.5t-20 73q0 77 56 116.5zM280 545l-62 55l125 151q52 -21 97 -84z" />
    <glyph glyph-name="Scircumflex" unicode="&#x15c;" 
d="M55 23l25 118q123 -33 233 -33q56 0 81 16.5t25 49.5q0 22 -11 37t-38.5 27.5t-78.5 25.5q-119 30 -173 77t-54 129q0 90 62 137.5t183 47.5q122 0 212 -27q-7 -63 -18 -119q-97 23 -196 23q-108 0 -108 -62q0 -30 27.5 -47.5t100.5 -37.5q82 -22 131 -48t73 -65t24 -98
q0 -91 -61.5 -140t-179.5 -49q-142 0 -259 38zM139 739l147 107h44l148 -107l-43 -61l-127 70l-127 -70z" />
    <glyph glyph-name="scircumflex" unicode="&#x15d;" 
d="M142 467.5q56 39.5 165 39.5q122 0 211 -31q-8 -60 -24 -106q-114 28 -194 28q-40 0 -58.5 -10.5t-18.5 -31.5t24 -34t85 -23q82 -15 126 -35.5t61 -50t17 -74.5q0 -154 -230 -154q-115 0 -229 35l22 106q125 -30 214 -30q84 0 84 45q0 20 -18.5 31.5t-65.5 19.5
q-89 16 -138 36.5t-69 49.5t-20 73q0 77 56 116.5zM134 597l144 108h45l143 -108l-38 -58l-128 72l-127 -72z" />
    <glyph glyph-name="Scedilla" unicode="&#x15e;" 
d="M191 -168l59 155q-107 8 -195 36l25 118q123 -33 233 -33q56 0 81 16.5t25 49.5q0 22 -11 37t-38.5 27.5t-78.5 25.5q-119 30 -173 77t-54 129q0 90 62 137.5t183 47.5q122 0 212 -27q-7 -63 -18 -119q-97 23 -196 23q-108 0 -108 -62q0 -30 27.5 -47.5t100.5 -37.5
q82 -22 131 -48t73 -65t24 -98q0 -84 -53 -132.5t-155 -55.5l-32 -174z" />
    <glyph glyph-name="scedilla" unicode="&#x15f;" 
d="M142 467.5q56 39.5 165 39.5q122 0 211 -31q-8 -60 -24 -106q-114 28 -194 28q-40 0 -58.5 -10.5t-18.5 -31.5t24 -34t85 -23q82 -15 126 -35.5t61 -50t17 -74.5q0 -139 -188 -153l-32 -173l-124 20l59 154q-88 6 -174 33l22 106q125 -30 214 -30q84 0 84 45
q0 20 -18.5 31.5t-65.5 19.5q-89 16 -138 36.5t-69 49.5t-20 73q0 77 56 116.5z" />
    <glyph glyph-name="Scaron" unicode="&#x160;" 
d="M55 23l25 118q123 -33 233 -33q56 0 81 16.5t25 49.5q0 22 -11 37t-38.5 27.5t-78.5 25.5q-119 30 -173 77t-54 129q0 90 62 137.5t183 47.5q122 0 212 -27q-7 -63 -18 -119q-97 23 -196 23q-108 0 -108 -62q0 -30 27.5 -47.5t100.5 -37.5q82 -22 131 -48t73 -65t24 -98
q0 -91 -61.5 -140t-179.5 -49q-142 0 -259 38zM308 764l128 72l38 -58l-143 -108h-45l-144 108l39 58z" />
    <glyph glyph-name="scaron" unicode="&#x161;" 
d="M142 467.5q56 39.5 165 39.5q122 0 211 -31q-8 -60 -24 -106q-114 28 -194 28q-40 0 -58.5 -10.5t-18.5 -31.5t24 -34t85 -23q82 -15 126 -35.5t61 -50t17 -74.5q0 -154 -230 -154q-115 0 -229 35l22 106q125 -30 214 -30q84 0 84 45q0 20 -18.5 31.5t-65.5 19.5
q-89 16 -138 36.5t-69 49.5t-20 73q0 77 56 116.5zM300 641l128 72l38 -58l-143 -108h-45l-144 108l39 58z" />
    <glyph glyph-name="uni0162" unicode="&#x162;" 
d="M231 524h-197l-5 116h537l5 -116h-202v-524h-20l-34 -187l-124 20l64 167h-24v524z" />
    <glyph glyph-name="uni0163" unicode="&#x163;" 
d="M42 492h117l-13 151h144l-14 -151h232q4 -27 4 -61q0 -33 -4 -60l-222 12v-158q0 -63 25 -91.5t79 -28.5q52 0 133 24q12 -38 16 -99q-89 -38 -168 -43l-32 -175l-124 20l62 162q-62 17 -95.5 71t-33.5 140v175l-106 -9v121z" />
    <glyph glyph-name="Tcaron" unicode="&#x164;" 
d="M231 524h-197l-5 116h537l5 -116h-202v-524h-138v524zM300 764l128 72l38 -58l-143 -108h-45l-144 108l39 58z" />
    <glyph glyph-name="tcaron" unicode="&#x165;" 
d="M198 42.5q-50 56.5 -50 162.5v175l-106 -9v121h117l-13 151h144l-14 -151h232q4 -27 4 -61q0 -33 -4 -60l-222 12v-158q0 -63 25 -91.5t79 -28.5q52 0 133 24q12 -38 16 -99q-103 -44 -200 -44q-91 0 -141 56.5zM386 817h111l3 -47l-37 -219h-74z" />
    <glyph glyph-name="Tbar" unicode="&#x166;" 
d="M231 273q-23 -1 -74 -5q-2 36 -2 52q0 18 2 52q51 -4 74 -5v157h-197l-5 116h537l5 -116h-202v-157q23 1 74 5q2 -34 2 -52q0 -16 -2 -52q-51 4 -74 5v-273h-138v273z" />
    <glyph glyph-name="tbar" unicode="&#x167;" 
d="M198 42.5q-50 56.5 -50 162.5v13h-71v83h71v79l-106 -9v121h117l-13 151h144l-14 -151h232q4 -27 4 -61q0 -33 -4 -60l-222 12v-82h133v-83h-133q1 -59 26 -86t78 -27q52 0 133 24q12 -38 16 -99q-103 -44 -200 -44q-91 0 -141 56.5z" />
    <glyph glyph-name="Utilde" unicode="&#x168;" 
d="M111.5 50.5q-63.5 65.5 -63.5 206.5v383h137v-383q0 -75 28 -111.5t87 -36.5t87 36.5t28 111.5v383h137v-383q0 -141 -63 -206.5t-188 -65.5q-126 0 -189.5 65.5zM329 689q-17 8 -40 23q-39 26 -58 26q-14 0 -27 -16t-28 -46l-53 22q27 66 55 98t60 32q17 0 33.5 -8
t39.5 -23q20 -12 33.5 -18.5t24.5 -6.5q13 0 26 16t28 46l53 -22q-26 -66 -53.5 -98.5t-59.5 -32.5q-17 0 -34 8z" />
    <glyph glyph-name="utilde" unicode="&#x169;" 
d="M206.5 132.5q13.5 -19.5 52.5 -19.5q51 0 106 25v354h133v-385l72 9q2 -19 2 -57q0 -37 -2 -56q-43 -8 -100 -8q-49 0 -84 5l-10 57q-42 -29 -95 -50.5t-95 -21.5q-126 0 -126 144v363h133v-293q0 -47 13.5 -66.5zM326 577q-17 8 -40 23q-20 12 -33.5 18.5t-24.5 6.5
q-14 0 -27 -16t-28 -46l-53 22q27 66 54.5 98.5t60.5 32.5q17 0 33.5 -8t39.5 -23q20 -12 33.5 -18.5t24.5 -6.5q13 0 26 15.5t28 45.5l53 -21q-26 -66 -53.5 -98.5t-59.5 -32.5q-17 0 -34 8z" />
    <glyph glyph-name="Umacron" unicode="&#x16a;" 
d="M111.5 50.5q-63.5 65.5 -63.5 206.5v383h137v-383q0 -75 28 -111.5t87 -36.5t87 36.5t28 111.5v383h137v-383q0 -141 -63 -206.5t-188 -65.5q-126 0 -189.5 65.5zM136 780h327v-101l-163 9l-164 -9v101z" />
    <glyph glyph-name="umacron" unicode="&#x16b;" 
d="M206.5 132.5q13.5 -19.5 52.5 -19.5q51 0 106 25v354h133v-385l72 9q2 -19 2 -57q0 -37 -2 -56q-43 -8 -100 -8q-49 0 -84 5l-10 57q-42 -29 -95 -50.5t-95 -21.5q-126 0 -126 144v363h133v-293q0 -47 13.5 -66.5zM134 668h327v-101l-163 9l-164 -9v101z" />
    <glyph glyph-name="Ubreve" unicode="&#x16c;" 
d="M111.5 50.5q-63.5 65.5 -63.5 206.5v383h137v-383q0 -75 28 -111.5t87 -36.5t87 36.5t28 111.5v383h137v-383q0 -141 -63 -206.5t-188 -65.5q-126 0 -189.5 65.5zM191 711.5q-42 35.5 -48 98.5l89 17q6 -38 22.5 -55.5t45.5 -17.5t45 17.5t22 55.5l89 -17
q-7 -63 -48.5 -98.5t-107.5 -35.5q-67 0 -109 35.5z" />
    <glyph glyph-name="ubreve" unicode="&#x16d;" 
d="M206.5 132.5q13.5 -19.5 52.5 -19.5q51 0 106 25v354h133v-385l72 9q2 -19 2 -57q0 -37 -2 -56q-43 -8 -100 -8q-49 0 -84 5l-10 57q-42 -29 -95 -50.5t-95 -21.5q-126 0 -126 144v363h133v-293q0 -47 13.5 -66.5zM187.5 585.5q-41.5 35.5 -47.5 98.5l92 15q6 -35 22 -52
t43 -17t43 17t22 52l91 -15q-6 -63 -47.5 -98.5t-108.5 -35.5q-68 0 -109.5 35.5z" />
    <glyph glyph-name="Uring" unicode="&#x16e;" 
d="M111.5 50.5q-63.5 65.5 -63.5 206.5v383h137v-383q0 -75 28 -111.5t87 -36.5t87 36.5t28 111.5v383h137v-383q0 -141 -63 -206.5t-188 -65.5q-126 0 -189.5 65.5zM221 697q-30 27 -30 73q0 44 30 71.5t79 27.5t78.5 -27.5t29.5 -71.5q0 -46 -29.5 -73t-78.5 -27t-79 27z
M263 735.5q14 -12.5 38 -12.5q22 0 35.5 12.5t13.5 34.5q0 21 -13.5 33.5t-35.5 12.5q-24 0 -38 -12.5t-14 -33.5q0 -22 14 -34.5z" />
    <glyph glyph-name="uring" unicode="&#x16f;" 
d="M206.5 132.5q13.5 -19.5 52.5 -19.5q51 0 106 25v354h133v-385l72 9q2 -19 2 -57q0 -37 -2 -56q-43 -8 -100 -8q-49 0 -84 5l-10 57q-42 -29 -95 -50.5t-95 -21.5q-126 0 -126 144v363h133v-293q0 -47 13.5 -66.5zM219 582.5q-30 27.5 -30 72.5t30 72.5t79 27.5
t78.5 -27.5t29.5 -72.5t-29.5 -72.5t-78.5 -27.5t-79 27.5zM259.5 620q14.5 -13 39.5 -13q23 0 37 13t14 35t-14 35t-37 13q-25 0 -39.5 -13t-14.5 -35t14.5 -35z" />
    <glyph glyph-name="Uhungarumlaut" unicode="&#x170;" 
d="M111.5 50.5q-63.5 65.5 -63.5 206.5v383h137v-383q0 -75 28 -111.5t87 -36.5t87 36.5t28 111.5v383h137v-383q0 -141 -63 -206.5t-188 -65.5q-126 0 -189.5 65.5zM412 668l-54 57l158 139l67 -87zM319 864l68 -87l-171 -109l-54 57z" />
    <glyph glyph-name="uhungarumlaut" unicode="&#x171;" 
d="M206.5 132.5q13.5 -19.5 52.5 -19.5q51 0 106 25v354h133v-385l72 9q2 -19 2 -57q0 -37 -2 -56q-43 -8 -100 -8q-49 0 -84 5l-10 57q-42 -29 -95 -50.5t-95 -21.5q-126 0 -126 144v363h133v-293q0 -47 13.5 -66.5zM209 562l-54 35l100 164l102 -56zM443 761l100 -58
l-150 -140l-53 36z" />
    <glyph glyph-name="Uogonek" unicode="&#x172;" 
d="M111.5 50.5q-63.5 65.5 -63.5 206.5v383h137v-383q0 -75 28 -111.5t87 -36.5t87 36.5t28 111.5v383h137v-383q0 -144 -67 -211q-20 -21 -30 -36.5t-10 -28.5q0 -18 19.5 -27t63.5 -13l-11 -82q-92 -1 -136 26t-44 69q0 15 8 33q-28 -2 -44 -2q-126 0 -189.5 65.5z" />
    <glyph glyph-name="uogonek" unicode="&#x173;" 
d="M206.5 132.5q13.5 -19.5 52.5 -19.5q51 0 106 25v354h133v-385l72 9q2 -19 2 -57q0 -37 -2 -56l-29 -4q-20 -22 -29.5 -36.5t-9.5 -27.5q0 -18 19.5 -27t63.5 -13l-11 -82q-92 -1 -136 26t-44 69q0 21 13.5 45t35.5 42q-19 1 -57 5l-10 57q-42 -29 -95 -50.5t-95 -21.5
q-126 0 -126 144v363h133v-293q0 -47 13.5 -66.5z" />
    <glyph glyph-name="Wcircumflex" unicode="&#x174;" 
d="M41 305.5q-28 169.5 -28 334.5h132q0 -132 14 -267.5t37 -249.5h47l-9 365q44 2 67 2q22 0 66 -2l-9 -365h46q24 112 37.5 247.5t14.5 269.5h131q0 -165 -28 -334t-78 -306h-361q-51 136 -79 305.5zM131 739l147 107h44l148 -107l-43 -61l-127 70l-127 -70z" />
    <glyph glyph-name="wcircumflex" unicode="&#x175;" 
d="M110 0q-43 101 -67.5 232.5t-24.5 259.5h136q0 -107 11 -206t32 -175h58q-16 131 -16 271q20 2 62 2t62 -2q0 -140 -16 -271h56q22 77 33 175.5t11 205.5h135q0 -129 -24 -260t-67 -232h-381zM134 597l144 108h45l143 -108l-38 -58l-128 72l-127 -72z" />
    <glyph glyph-name="Ycircumflex" unicode="&#x176;" 
d="M241 207h-75q-56 96 -89.5 210.5t-34.5 222.5h138q2 -77 20.5 -159t52.5 -155h95q33 73 51.5 155t20.5 159h138q-1 -108 -34.5 -222.5t-89.5 -210.5h-75l12 -207h-141zM131 739l147 107h44l148 -107l-43 -61l-127 70l-127 -70z" />
    <glyph glyph-name="ycircumflex" unicode="&#x177;" 
d="M48 492q23 1 68 1t67 -1q25 -215 84 -333h70q58 116 82 333q23 1 68 1t67 -1q-16 -134 -51 -247.5t-96 -212.5h-53q14 -95 19 -216h-142q5 122 18 216h-54q-115 190 -147 460zM135 597l144 108h45l143 -108l-38 -58l-128 72l-127 -72z" />
    <glyph glyph-name="Ydieresis" unicode="&#x178;" 
d="M241 207h-75q-56 96 -89.5 210.5t-34.5 222.5h138q2 -77 20.5 -159t52.5 -155h95q33 73 51.5 155t20.5 159h138q-1 -108 -34.5 -222.5t-89.5 -210.5h-75l12 -207h-141zM127.5 699.5q-22.5 19.5 -22.5 52.5q0 31 22.5 50.5t59.5 19.5q36 0 57.5 -19t21.5 -51
q0 -33 -21.5 -52.5t-57.5 -19.5q-37 0 -59.5 19.5zM353.5 802.5q22.5 19.5 58.5 19.5t59 -19.5t23 -50.5q0 -33 -23 -52.5t-59 -19.5t-58.5 19.5t-22.5 52.5q0 31 22.5 50.5z" />
    <glyph glyph-name="Zacute" unicode="&#x179;" 
d="M38 113l344 413l-326 -10v124h495v-112l-340 -415l347 12v-125h-520v113zM225 674l-39 68l185 100l45 -101z" />
    <glyph glyph-name="zacute" unicode="&#x17a;" 
d="M68 106l275 282l-267 -20q-2 40 -2 62t2 62h432v-106l-276 -286l277 12q6 -37 6 -78q0 -23 -1 -34h-446v106zM280 545l-62 55l125 151q52 -21 97 -84z" />
    <glyph glyph-name="Zdotaccent" unicode="&#x17b;" 
d="M38 113l344 413l-326 -10v124h495v-112l-340 -415l347 12v-125h-520v113zM241.5 700.5q-22.5 19.5 -22.5 50.5t22.5 50t58.5 19q35 0 57.5 -19t22.5 -50t-22.5 -50.5t-57.5 -19.5q-36 0 -58.5 19.5z" />
    <glyph glyph-name="zdotaccent" unicode="&#x17c;" 
d="M68 106l275 282l-267 -20q-2 40 -2 62t2 62h432v-106l-276 -286l277 12q6 -37 6 -78q0 -23 -1 -34h-446v106zM237 583q-24 21 -24 56t24 56t65 21q40 0 63.5 -21t23.5 -56t-23.5 -56t-63.5 -21q-41 0 -65 21z" />
    <glyph glyph-name="Zcaron" unicode="&#x17d;" 
d="M38 113l344 413l-326 -10v124h495v-112l-340 -415l347 12v-125h-520v113zM300 764l128 72l38 -58l-143 -108h-45l-144 108l39 58z" />
    <glyph glyph-name="zcaron" unicode="&#x17e;" 
d="M68 106l275 282l-267 -20q-2 40 -2 62t2 62h432v-106l-276 -286l277 12q6 -37 6 -78q0 -23 -1 -34h-446v106zM301 641l128 72l38 -58l-143 -108h-45l-144 108l39 58z" />
    <glyph glyph-name="uni018F" unicode="&#x18f;" 
d="M98.5 65.5q-70.5 80.5 -70.5 227.5q0 30 9 61q146 24 353 24h41q-11 71 -55.5 110t-115.5 39q-84 0 -181 -29q-19 51 -22 104q43 26 101 40t121 14q140 0 216.5 -88t76.5 -249q0 -160 -71 -247t-202 -87q-130 0 -200.5 80.5zM214 149q34 -40 90 -40q54 0 87.5 42.5
t41.5 121.5q-135 0 -261 -11q8 -73 42 -113z" />
    <glyph glyph-name="florin" unicode="&#x192;" 
d="M18 -171l23 112q43 -12 80 -12q26 0 42 17t24 58l46 237l-142 -3v129l165 -5l32 167q16 83 59.5 118.5t109.5 35.5t130 -22l-23 -112q-41 12 -79 12q-27 0 -43 -15.5t-24 -55.5l-24 -127l163 4l-17 -129l-169 4l-54 -282q-15 -81 -59 -117.5t-110 -36.5q-61 0 -130 23z
" />
    <glyph glyph-name="uni019D" unicode="&#x19d;" 
d="M176 640l245 -421l-8 421h137v-640h-125l-245 420l8 -417q3 -105 -38.5 -153t-109.5 -48q-37 0 -78 12l19 122q23 -6 43 -6q15 0 20.5 11t5.5 38v661h126z" />
    <glyph glyph-name="Ohorn" unicode="&#x1a0;" 
d="M100 71q-70 86 -70 248q0 164 70 250t200 86q56 0 102 -17q36 2 50 13.5t14 33.5q0 12 -8 48l100 12q14 -44 14 -77q0 -78 -65 -108q63 -88 63 -241q0 -162 -70 -248t-200 -86t-200 86zM203 160q32 -51 97 -51t97 51t32 159q0 110 -32 161t-97 51t-97 -51t-32 -161
q0 -108 32 -159z" />
    <glyph glyph-name="ohorn" unicode="&#x1a1;" 
d="M116 55q-68 70 -68 191t68 191t185 70q50 0 95 -14q35 2 49 13.5t14 33.5q0 11 -8 47l100 12q13 -40 13 -77q0 -78 -60 -107q49 -66 49 -169q0 -121 -67.5 -191t-184.5 -70t-185 70zM210.5 138q33.5 -40 89.5 -40q57 0 91 40.5t34 110.5q0 67 -34 106t-91 39
q-56 0 -89.5 -40t-33.5 -108t33.5 -108z" />
    <glyph glyph-name="Uhorn" unicode="&#x1af;" 
d="M111.5 50.5q-63.5 65.5 -63.5 206.5v383h137v-383q0 -75 28 -111.5t87 -36.5t87 36.5t28 111.5v383h64q44 1 61 12.5t17 34.5q0 12 -8 48l100 12q14 -44 14 -77q0 -50 -27.5 -82t-83.5 -39v-292q0 -141 -63 -206.5t-188 -65.5q-126 0 -189.5 65.5z" />
    <glyph glyph-name="uhorn" unicode="&#x1b0;" 
d="M206.5 132.5q13.5 -19.5 52.5 -19.5q51 0 106 25v354h49q44 1 61 12.5t17 34.5q0 12 -8 48l100 12q13 -40 13 -77q0 -48 -24.5 -78.5t-74.5 -40.5v-296l72 9q2 -19 2 -57q0 -37 -2 -56q-43 -8 -100 -8q-49 0 -84 5l-10 57q-42 -29 -95 -50.5t-95 -21.5q-126 0 -126 144
v363h133v-293q0 -47 13.5 -66.5z" />
    <glyph glyph-name="uni01CD" unicode="&#x1cd;" 
d="M87 358.5q44 177.5 108 281.5h211q64 -105 108 -282.5t55 -357.5h-137q-6 85 -11 124h-242q-5 -39 -11 -124h-136q11 181 55 358.5zM404 240q-31 169 -84 281h-40q-53 -112 -84 -281h208zM300 764l128 72l38 -58l-143 -108h-45l-144 108l39 58z" />
    <glyph glyph-name="uni01CE" unicode="&#x1ce;" 
d="M293 7.5q-45 -21.5 -89 -21.5q-64 0 -101.5 38.5t-37.5 108.5q0 39 12 77t30 63q59 8 150 8q60 0 109 -3v10q0 47 -15 73t-61 26q-31 0 -80 -8.5t-95 -26.5q-18 51 -24 105q125 47 216 47q63 0 104.5 -15.5t64 -55.5t22.5 -112v-213l72 8q2 -36 2 -56q0 -19 -2 -57
q-33 -8 -94 -8q-52 0 -88 5l-15 61q-35 -32 -80 -53.5zM207 104q12 -14 43 -14q24 0 57.5 10t58.5 25v75q-40 2 -99 2q-42 0 -60 -1q-12 -21 -12 -51q0 -32 12 -46zM301 641l128 72l38 -58l-143 -108h-45l-144 108l39 58z" />
    <glyph glyph-name="uni01CF" unicode="&#x1cf;" 
d="M78 120l152 -6v412l-152 -6l4 120h435l4 -120l-153 6v-412l153 6l-4 -120h-435zM300 764l128 72l38 -58l-143 -108h-45l-144 108l39 58z" />
    <glyph glyph-name="uni01D0" unicode="&#x1d0;" 
d="M72 130l184 -20v270l-154 -23q-2 44 -2 65t2 65q73 6 183 6q67 0 103 -1v-383l172 21l-2 -130h-483zM291 641l128 72l38 -58l-143 -108h-45l-144 108l39 58z" />
    <glyph glyph-name="uni01D1" unicode="&#x1d1;" 
d="M100 71q-70 86 -70 248q0 164 70 250t200 86t200 -86t70 -250q0 -162 -70 -248t-200 -86t-200 86zM203 160q32 -51 97 -51t97 51t32 159q0 110 -32 161t-97 51t-97 -51t-32 -161q0 -108 32 -159zM300 764l128 72l38 -58l-143 -108h-45l-144 108l39 58z" />
    <glyph glyph-name="uni01D2" unicode="&#x1d2;" 
d="M116 55q-68 70 -68 191t68 191t185 70t184.5 -70t67.5 -191t-67.5 -191t-184.5 -70t-185 70zM210.5 138q33.5 -40 89.5 -40q57 0 91 40.5t34 110.5q0 67 -34 106t-91 39q-56 0 -89.5 -40t-33.5 -108t33.5 -108zM300 641l128 72l38 -58l-143 -108h-45l-144 108l39 58z" />
    <glyph glyph-name="uni01D3" unicode="&#x1d3;" 
d="M111.5 50.5q-63.5 65.5 -63.5 206.5v383h137v-383q0 -75 28 -111.5t87 -36.5t87 36.5t28 111.5v383h137v-383q0 -141 -63 -206.5t-188 -65.5q-126 0 -189.5 65.5zM300 764l128 72l38 -58l-143 -108h-45l-144 108l39 58z" />
    <glyph glyph-name="uni01D4" unicode="&#x1d4;" 
d="M206.5 132.5q13.5 -19.5 52.5 -19.5q51 0 106 25v354h133v-385l72 9q2 -19 2 -57q0 -37 -2 -56q-43 -8 -100 -8q-49 0 -84 5l-10 57q-42 -29 -95 -50.5t-95 -21.5q-126 0 -126 144v363h133v-293q0 -47 13.5 -66.5zM297 641l128 72l38 -58l-143 -108h-45l-144 108l39 58z
" />
    <glyph glyph-name="uni01D5" unicode="&#x1d5;" 
d="M111.5 50.5q-63.5 65.5 -63.5 206.5v383h137v-383q0 -75 28 -111.5t87 -36.5t87 36.5t28 111.5v383h137v-383q0 -141 -63 -206.5t-188 -65.5q-126 0 -189.5 65.5zM126.5 699.5q-22.5 19.5 -22.5 52.5q0 31 22.5 50.5t59.5 19.5q36 0 57.5 -19t21.5 -51q0 -33 -21.5 -52.5
t-57.5 -19.5q-37 0 -59.5 19.5zM352.5 802.5q22.5 19.5 58.5 19.5t59 -19.5t23 -50.5q0 -33 -23 -52.5t-59 -19.5t-58.5 19.5t-22.5 52.5q0 31 22.5 50.5zM136 928h327v-101l-163 9l-164 -9v101z" />
    <glyph glyph-name="uni01D6" unicode="&#x1d6;" 
d="M206.5 132.5q13.5 -19.5 52.5 -19.5q51 0 106 25v354h133v-385l72 9q2 -19 2 -57q0 -37 -2 -56q-43 -8 -100 -8q-49 0 -84 5l-10 57q-42 -29 -95 -50.5t-95 -21.5q-126 0 -126 144v363h133v-293q0 -47 13.5 -66.5zM356 584.5q-22 19.5 -22 53.5t22 53.5t58 19.5
q37 0 59.5 -19.5t22.5 -53.5t-22.5 -53.5t-59.5 -19.5q-36 0 -58 19.5zM126.5 691.5q22.5 19.5 59.5 19.5q36 0 57.5 -19.5t21.5 -53.5t-21.5 -53.5t-57.5 -19.5q-37 0 -59.5 19.5t-22.5 53.5t22.5 53.5zM134 831h327v-101l-163 9l-164 -9v101z" />
    <glyph glyph-name="uni01D7" unicode="&#x1d7;" 
d="M111.5 50.5q-63.5 65.5 -63.5 206.5v383h137v-383q0 -75 28 -111.5t87 -36.5t87 36.5t28 111.5v383h137v-383q0 -141 -63 -206.5t-188 -65.5q-126 0 -189.5 65.5zM126.5 699.5q-22.5 19.5 -22.5 52.5q0 31 22.5 50.5t59.5 19.5q36 0 57.5 -19t21.5 -51q0 -33 -21.5 -52.5
t-57.5 -19.5q-37 0 -59.5 19.5zM352.5 802.5q22.5 19.5 58.5 19.5t59 -19.5t23 -50.5q0 -33 -23 -52.5t-59 -19.5t-58.5 19.5t-22.5 52.5q0 31 22.5 50.5zM225 822l-39 68l185 100l45 -101z" />
    <glyph glyph-name="uni01D8" unicode="&#x1d8;" 
d="M206.5 132.5q13.5 -19.5 52.5 -19.5q51 0 106 25v354h133v-385l72 9q2 -19 2 -57q0 -37 -2 -56q-43 -8 -100 -8q-49 0 -84 5l-10 57q-42 -29 -95 -50.5t-95 -21.5q-126 0 -126 144v363h133v-293q0 -47 13.5 -66.5zM356 584.5q-22 19.5 -22 53.5t22 53.5t58 19.5
q37 0 59.5 -19.5t22.5 -53.5t-22.5 -53.5t-59.5 -19.5q-36 0 -58 19.5zM126.5 691.5q22.5 19.5 59.5 19.5q36 0 57.5 -19.5t21.5 -53.5t-21.5 -53.5t-57.5 -19.5q-37 0 -59.5 19.5t-22.5 53.5t22.5 53.5zM277 708l-62 55l125 151q52 -21 97 -84z" />
    <glyph glyph-name="uni01D9" unicode="&#x1d9;" 
d="M111.5 50.5q-63.5 65.5 -63.5 206.5v383h137v-383q0 -75 28 -111.5t87 -36.5t87 36.5t28 111.5v383h137v-383q0 -141 -63 -206.5t-188 -65.5q-126 0 -189.5 65.5zM126.5 699.5q-22.5 19.5 -22.5 52.5q0 31 22.5 50.5t59.5 19.5q36 0 57.5 -19t21.5 -51q0 -33 -21.5 -52.5
t-57.5 -19.5q-37 0 -59.5 19.5zM352.5 802.5q22.5 19.5 58.5 19.5t59 -19.5t23 -50.5q0 -33 -23 -52.5t-59 -19.5t-58.5 19.5t-22.5 52.5q0 31 22.5 50.5zM300 912l128 72l38 -58l-143 -108h-45l-144 108l39 58z" />
    <glyph glyph-name="uni01DA" unicode="&#x1da;" 
d="M206.5 132.5q13.5 -19.5 52.5 -19.5q51 0 106 25v354h133v-385l72 9q2 -19 2 -57q0 -37 -2 -56q-43 -8 -100 -8q-49 0 -84 5l-10 57q-42 -29 -95 -50.5t-95 -21.5q-126 0 -126 144v363h133v-293q0 -47 13.5 -66.5zM356 584.5q-22 19.5 -22 53.5t22 53.5t58 19.5
q37 0 59.5 -19.5t22.5 -53.5t-22.5 -53.5t-59.5 -19.5q-36 0 -58 19.5zM126.5 691.5q22.5 19.5 59.5 19.5q36 0 57.5 -19.5t21.5 -53.5t-21.5 -53.5t-57.5 -19.5q-37 0 -59.5 19.5t-22.5 53.5t22.5 53.5zM297 804l128 72l38 -58l-143 -108h-45l-144 108l39 58z" />
    <glyph glyph-name="uni01DB" unicode="&#x1db;" 
d="M111.5 50.5q-63.5 65.5 -63.5 206.5v383h137v-383q0 -75 28 -111.5t87 -36.5t87 36.5t28 111.5v383h137v-383q0 -141 -63 -206.5t-188 -65.5q-126 0 -189.5 65.5zM126.5 699.5q-22.5 19.5 -22.5 52.5q0 31 22.5 50.5t59.5 19.5q36 0 57.5 -19t21.5 -51q0 -33 -21.5 -52.5
t-57.5 -19.5q-37 0 -59.5 19.5zM352.5 802.5q22.5 19.5 58.5 19.5t59 -19.5t23 -50.5q0 -33 -23 -52.5t-59 -19.5t-58.5 19.5t-22.5 52.5q0 31 22.5 50.5zM229 990l185 -100l-39 -68l-191 67z" />
    <glyph glyph-name="uni01DC" unicode="&#x1dc;" 
d="M206.5 132.5q13.5 -19.5 52.5 -19.5q51 0 106 25v354h133v-385l72 9q2 -19 2 -57q0 -37 -2 -56q-43 -8 -100 -8q-49 0 -84 5l-10 57q-42 -29 -95 -50.5t-95 -21.5q-126 0 -126 144v363h133v-293q0 -47 13.5 -66.5zM356 584.5q-22 19.5 -22 53.5t22 53.5t58 19.5
q37 0 59.5 -19.5t22.5 -53.5t-22.5 -53.5t-59.5 -19.5q-36 0 -58 19.5zM126.5 691.5q22.5 19.5 59.5 19.5q36 0 57.5 -19.5t21.5 -53.5t-21.5 -53.5t-57.5 -19.5q-37 0 -59.5 19.5t-22.5 53.5t22.5 53.5zM255 914l125 -151l-62 -55l-160 122q45 63 97 84z" />
    <glyph glyph-name="Gcaron" unicode="&#x1e6;" 
d="M113 71q-83 86 -83 247q0 165 76.5 251t219.5 86q64 0 124 -12t95 -31l-19 -108q-44 12 -91.5 19t-84.5 7q-93 0 -136 -52.5t-43 -159.5q0 -106 39 -157.5t123 -51.5q56 0 98 12l-22 200l133 7l15 -312q-50 -14 -107 -22.5t-108 -8.5q-146 0 -229 86zM336 764l128 72
l38 -58l-143 -108h-45l-144 108l39 58z" />
    <glyph glyph-name="gcaron" unicode="&#x1e7;" 
d="M95 -167l17 98q34 -7 73 -12t68 -5q131 0 131 138v10q-72 -45 -141 -45q-88 0 -137.5 61.5t-49.5 177.5q0 117 64.5 184t176.5 67q61 0 119.5 -18.5t100.5 -46.5v-391q0 -119 -64.5 -184t-180.5 -65q-89 0 -177 31zM207 163.5q23 -32.5 71 -32.5q27 0 55 8t51 22v219
q-50 13 -86 13q-55 0 -84.5 -35.5t-29.5 -101.5q0 -60 23 -92.5zM300 641l128 72l38 -58l-143 -108h-45l-144 108l39 58z" />
    <glyph glyph-name="uni01E8" unicode="&#x1e8;" 
d="M95 458l9 63l-65 -11q-2 43 -2 130q36 5 106 5q38 0 90 -2v-299q48 15 84.5 63.5t59 111t29.5 119.5q68 5 113 5q31 0 45 -1q-8 -84 -50.5 -173t-105.5 -153q102 -139 174 -316h-164q-18 58 -47 128t-55 120q-42 -22 -83 -26v-224l-138 2v458zM309 764l128 72l38 -58
l-143 -108h-45l-144 108l39 58z" />
    <glyph glyph-name="uni01E9" unicode="&#x1e9;" 
d="M331 189q-51 -30 -108 -36v-153h-133v564l-68 -22q-6 67 -5 127q69 6 146 6q41 0 60 -1v-414q45 15 82 53t60 86t27 93q46 2 69 2q25 0 69 -2q-7 -63 -36.5 -124t-75.5 -110q90 -138 146 -258h-155q-35 96 -78 189zM138 794l128 72l38 -58l-143 -108h-45l-144 108l39 58z
" />
    <glyph glyph-name="uni01EA" unicode="&#x1ea;" 
d="M100 71q-70 86 -70 248q0 164 70 250t200 86t200 -86t70 -250q0 -99 -26.5 -170t-77.5 -112q-20 -21 -30 -36.5t-10 -28.5q0 -18 19.5 -27t63.5 -13l-11 -82q-92 -1 -136 26t-44 69q0 19 11 41q-9 -1 -29 -1q-130 0 -200 86zM203 160q32 -51 97 -51t97 51t32 159
q0 110 -32 161t-97 51t-97 -51t-32 -161q0 -108 32 -159z" />
    <glyph glyph-name="uni01EB" unicode="&#x1eb;" 
d="M116 55q-68 70 -68 191t68 191t185 70t184.5 -70t67.5 -191q0 -78 -29 -135.5t-82 -90.5q-35 -37 -35 -59q0 -18 19.5 -27t63.5 -13l-11 -82q-92 -1 -136 26t-44 69q0 25 17 51h-15q-117 0 -185 70zM210.5 138q33.5 -40 89.5 -40q57 0 91 40.5t34 110.5q0 67 -34 106
t-91 39q-56 0 -89.5 -40t-33.5 -108t33.5 -108z" />
    <glyph glyph-name="Aringacute" unicode="&#x1fa;" 
d="M87 358.5q44 177.5 108 281.5h5q-9 20 -9 44q0 49 37 78l-34 30l102 124q43 -16 80 -69l-84 -64h8q49 0 78.5 -27.5t29.5 -71.5q0 -24 -9 -44h7q64 -105 108 -282.5t55 -357.5h-137q-6 85 -11 124h-242q-5 -39 -11 -124h-136q11 181 55 358.5zM404 240q-31 169 -84 281
h-40q-53 -112 -84 -281h208zM257.5 656.5q8.5 -11.5 22.5 -16.5h40q14 5 22 16.5t8 27.5q0 21 -13.5 33.5t-35.5 12.5q-24 0 -38 -12.5t-14 -33.5q0 -16 8.5 -27.5z" />
    <glyph glyph-name="aringacute" unicode="&#x1fb;" 
d="M293 7.5q-45 -21.5 -89 -21.5q-64 0 -101.5 38.5t-37.5 108.5q0 39 12 77t30 63q59 8 150 8q60 0 109 -3v10q0 47 -15 73t-61 26q-31 0 -80 -8.5t-95 -26.5q-18 51 -24 105q125 47 216 47q63 0 104.5 -15.5t64 -55.5t22.5 -112v-213l72 8q2 -36 2 -56q0 -19 -2 -57
q-33 -8 -94 -8q-52 0 -88 5l-15 61q-35 -32 -80 -53.5zM207 104q12 -14 43 -14q24 0 57.5 10t58.5 25v75q-40 2 -99 2q-42 0 -60 -1q-12 -21 -12 -51q0 -32 12 -46zM222 582.5q-30 27.5 -30 72.5t30 72.5t79 27.5t78.5 -27.5t29.5 -72.5t-29.5 -72.5t-78.5 -27.5t-79 27.5z
M262.5 620q14.5 -13 39.5 -13q23 0 37 13t14 35t-14 35t-37 13q-25 0 -39.5 -13t-14.5 -35t14.5 -35zM351 941q44 -17 79 -69l-131 -100l-50 45z" />
    <glyph glyph-name="AEacute" unicode="&#x1fc;" 
d="M72 356q45 168 117 284h378l8 -123l-166 7v-144l118 8v-122l-118 6v-156l176 7l-8 -123h-306v121h-120q-6 -42 -14 -121h-126q16 188 61 356zM271 241v297h-11q-54 -124 -88 -297h99zM225 674l-39 68l185 100l45 -101z" />
    <glyph glyph-name="aeacute" unicode="&#x1fd;" 
d="M190 386q-25 0 -62 -9.5t-71 -24.5l-25 107q34 19 84.5 33.5t90.5 14.5q79 0 107 -55q45 55 118 55q74 0 113 -55t39 -154q0 -40 -12 -86q-85 -13 -218 -15q4 -50 24.5 -73.5t67.5 -23.5q28 0 46 2t53 9l15 -101q-70 -24 -121 -24q-41 0 -79 15.5t-62 44.5
q-85 -60 -146 -60q-62 0 -99.5 38t-37.5 108q0 42 12.5 79t30.5 65l186 1l1 39q1 70 -55 70zM158 110q13 -13 40 -13q26 0 62 15q-11 38 -14 84l-91 -1q-4 -7 -7 -20t-3 -26q0 -26 13 -39zM469 285q-2 61 -14.5 85.5t-40.5 24.5t-42.5 -26t-17.5 -90q77 2 115 6zM340 545
l-62 55l125 151q52 -21 97 -84z" />
    <glyph glyph-name="Oslashacute" unicode="&#x1fe;" 
d="M151 25l-41 -55l-84 70l50 68q-46 81 -46 211q0 164 70 250t200 86q88 0 149 -40l40 55l84 -69l-49 -67q46 -83 46 -215q0 -162 -70 -248t-200 -86q-87 0 -149 40zM176 244l195 265q-28 22 -71 22q-65 0 -97 -51t-32 -161q0 -38 5 -75zM300 109q65 0 97 51t32 159
q0 41 -5 79l-196 -267q28 -22 72 -22zM225 674l-39 68l185 100l45 -101z" />
    <glyph glyph-name="oslashacute" unicode="&#x1ff;" 
d="M171 14l-22 -30l-79 60l28 32q-50 67 -50 170q0 121 68 191t185 70q73 0 129 -29l22 30l78 -60l-28 -31q51 -66 51 -171q0 -121 -67.5 -191t-184.5 -70q-74 0 -130 29zM188 177l83 92l85 113q-24 12 -56 12q-56 0 -89.5 -40t-33.5 -108q0 -39 11 -69zM300 98
q57 0 91 40.5t34 110.5q0 41 -12 71l-88 -96l-82 -112q25 -14 57 -14zM280 545l-62 55l125 151q52 -21 97 -84z" />
    <glyph glyph-name="uni0218" unicode="&#x218;" 
d="M55 23l25 118q123 -33 233 -33q56 0 81 16.5t25 49.5q0 22 -11 37t-38.5 27.5t-78.5 25.5q-119 30 -173 77t-54 129q0 90 62 137.5t183 47.5q122 0 212 -27q-7 -63 -18 -119q-97 23 -196 23q-108 0 -108 -62q0 -30 27.5 -47.5t100.5 -37.5q82 -22 131 -48t73 -65t24 -98
q0 -91 -61.5 -140t-179.5 -49q-142 0 -259 38zM207 -194l33 155h125l-67 -158z" />
    <glyph glyph-name="uni0219" unicode="&#x219;" 
d="M142 467.5q56 39.5 165 39.5q122 0 211 -31q-8 -60 -24 -106q-114 28 -194 28q-40 0 -58.5 -10.5t-18.5 -31.5t24 -34t85 -23q82 -15 126 -35.5t61 -50t17 -74.5q0 -154 -230 -154q-115 0 -229 35l22 106q125 -30 214 -30q84 0 84 45q0 20 -18.5 31.5t-65.5 19.5
q-89 16 -138 36.5t-69 49.5t-20 73q0 77 56 116.5zM209 -193l33 155h125l-67 -158z" />
    <glyph glyph-name="uni021A" unicode="&#x21a;" 
d="M231 524h-197l-5 116h537l5 -116h-202v-524h-138v524zM208 -193l33 155h125l-67 -158z" />
    <glyph glyph-name="uni021B" unicode="&#x21b;" 
d="M198 42.5q-50 56.5 -50 162.5v175l-106 -9v121h117l-13 151h144l-14 -151h232q4 -27 4 -61q0 -33 -4 -60l-222 12v-158q0 -63 25 -91.5t79 -28.5q52 0 133 24q12 -38 16 -99q-103 -44 -200 -44q-91 0 -141 56.5zM232 -194l33 155h125l-67 -158z" />
    <glyph glyph-name="uni0232" unicode="&#x232;" 
d="M241 207h-75q-56 96 -89.5 210.5t-34.5 222.5h138q2 -77 20.5 -159t52.5 -155h95q33 73 51.5 155t20.5 159h138q-1 -108 -34.5 -222.5t-89.5 -210.5h-75l12 -207h-141zM136 780h327v-101l-163 9l-164 -9v101z" />
    <glyph glyph-name="uni0233" unicode="&#x233;" 
d="M48 492q23 1 68 1t67 -1q25 -215 84 -333h70q58 116 82 333q23 1 68 1t67 -1q-16 -134 -51 -247.5t-96 -212.5h-53q14 -95 19 -216h-142q5 122 18 216h-54q-115 190 -147 460zM137 668h327v-101l-163 9l-164 -9v101z" />
    <glyph glyph-name="uni0237" unicode="&#x237;" 
d="M156.5 -58q-53.5 12 -95.5 30q6 54 20 95q104 -25 170 -25t100.5 36t34.5 107v204l-243 -27q-2 44 -2 65q0 23 2 65q60 2 187 2t189 -2v-299q0 -129 -67 -196t-189 -67q-53 0 -106.5 12z" />
    <glyph glyph-name="uni0259" unicode="&#x259;" 
d="M472 437.5q70 -68.5 70 -193.5q0 -78 -30 -136.5t-85 -90.5t-128 -32q-69 0 -122 28.5t-82.5 82.5t-29.5 127q0 26 7 54q75 12 155 15.5t189 3.5q-9 48 -44.5 72t-107.5 24q-81 0 -156 -20q-15 40 -20 93q32 19 80.5 30t101.5 11q132 0 202 -68.5zM307 93q46 0 74.5 28
t35.5 85q-113 0 -223 -9q12 -104 113 -104z" />
    <glyph glyph-name="circumflex" unicode="&#x2c6;" 
d="M141 597l144 108h45l143 -108l-38 -58l-128 72l-127 -72z" />
    <glyph glyph-name="caron" unicode="&#x2c7;" 
d="M307 689l128 72l38 -58l-143 -108h-45l-144 108l39 58z" />
    <glyph glyph-name="breve" unicode="&#x2d8;" 
d="M196.5 599q-41.5 35 -47.5 99l89 16q6 -39 21.5 -56t45.5 -17t45 17t23 56l89 -16q-7 -64 -48.5 -99t-108.5 -35t-108.5 35z" />
    <glyph glyph-name="dotaccent" unicode="&#x2d9;" 
d="M246 589.5q-24 21.5 -24 55.5q0 35 24 56.5t65 21.5q40 0 63.5 -21t23.5 -57q0 -34 -23.5 -55.5t-63.5 -21.5q-41 0 -65 21.5z" />
    <glyph glyph-name="ring" unicode="&#x2da;" 
d="M226 582.5q-30 27.5 -30 72.5t30 72.5t79 27.5t78.5 -27.5t29.5 -72.5t-29.5 -72.5t-78.5 -27.5t-79 27.5zM258 612q18 -16 48 -16q29 0 46 16t17 43q0 26 -17.5 42.5t-45.5 16.5q-30 0 -48 -16.5t-18 -42.5q0 -27 18 -43z" />
    <glyph glyph-name="ogonek" unicode="&#x2db;" 
d="M329 -42.5q-10 -15.5 -10 -28.5q0 -18 20 -27.5t67 -18.5l-15 -76q-87 4 -131 30t-44 65q0 26 19.5 56t47.5 47l76 -11q-20 -21 -30 -36.5z" />
    <glyph glyph-name="tilde" unicode="&#x2dc;" 
d="M333 577q-17 8 -40 23q-20 12 -33.5 18.5t-24.5 6.5q-14 0 -27 -16t-28 -46l-53 22q27 66 54.5 98.5t60.5 32.5q17 0 33.5 -8t39.5 -23q20 -12 33.5 -18.5t24.5 -6.5q13 0 26 15.5t28 45.5l53 -21q-26 -66 -53.5 -98.5t-59.5 -32.5q-17 0 -34 8z" />
    <glyph glyph-name="hungarumlaut" unicode="&#x2dd;" 
d="M214 562l-54 35l100 164l102 -56zM448 761l100 -58l-150 -140l-53 36z" />
    <glyph glyph-name="gravecomb" unicode="&#x300;" horiz-adv-x="0" 
d="M242 751l125 -151l-62 -55l-160 122q45 63 97 84z" />
    <glyph glyph-name="acutecomb" unicode="&#x301;" horiz-adv-x="0" 
d="M204 545l-62 55l125 151q52 -21 97 -84z" />
    <glyph glyph-name="uni0302" unicode="&#x302;" horiz-adv-x="0" 
d="M141 597l144 108h45l143 -108l-38 -58l-128 72l-127 -72z" />
    <glyph glyph-name="tildecomb" unicode="&#x303;" horiz-adv-x="0" 
d="M333 577q-17 8 -40 23q-20 12 -33.5 18.5t-24.5 6.5q-14 0 -27 -16t-28 -46l-53 22q27 66 54.5 98.5t60.5 32.5q17 0 33.5 -8t39.5 -23q20 -12 33.5 -18.5t24.5 -6.5q13 0 26 15.5t28 45.5l53 -21q-26 -66 -53.5 -98.5t-59.5 -32.5q-17 0 -34 8z" />
    <glyph glyph-name="uni0304" unicode="&#x304;" horiz-adv-x="0" 
d="M132 668h327v-101l-163 9l-164 -9v101z" />
    <glyph glyph-name="uni0306" unicode="&#x306;" horiz-adv-x="0" 
d="M201.5 585.5q-41.5 35.5 -47.5 98.5l92 15q6 -35 22 -52t43 -17t43 17t22 52l91 -15q-6 -63 -47.5 -98.5t-108.5 -35.5q-68 0 -109.5 35.5z" />
    <glyph glyph-name="uni0307" unicode="&#x307;" horiz-adv-x="0" 
d="M246 583q-24 21 -24 56t24 56t65 21q40 0 63.5 -21t23.5 -56t-23.5 -56t-63.5 -21q-41 0 -65 21z" />
    <glyph glyph-name="uni0308" unicode="&#x308;" horiz-adv-x="0" 
d="M383 584.5q-22 19.5 -22 53.5t22 53.5t58 19.5q37 0 59.5 -19.5t22.5 -53.5t-22.5 -53.5t-59.5 -19.5q-36 0 -58 19.5zM153.5 691.5q22.5 19.5 59.5 19.5q36 0 57.5 -19.5t21.5 -53.5t-21.5 -53.5t-57.5 -19.5q-37 0 -59.5 19.5t-22.5 53.5t22.5 53.5z" />
    <glyph glyph-name="hookabovecomb" unicode="&#x309;" horiz-adv-x="0" 
d="M298.5 620.5q13.5 9.5 13.5 22.5t-22 21t-75 14l10 84q79 -6 123.5 -32t44.5 -68q0 -32 -14.5 -53t-40.5 -35t-71 -30l-18 50q36 17 49.5 26.5z" />
    <glyph glyph-name="uni030A" unicode="&#x30a;" horiz-adv-x="0" 
d="M226 582.5q-30 27.5 -30 72.5t30 72.5t79 27.5t78.5 -27.5t29.5 -72.5t-29.5 -72.5t-78.5 -27.5t-79 27.5zM266.5 620q14.5 -13 39.5 -13q23 0 37 13t14 35t-14 35t-37 13q-25 0 -39.5 -13t-14.5 -35t14.5 -35z" />
    <glyph glyph-name="uni030B" unicode="&#x30b;" horiz-adv-x="0" 
d="M214 562l-54 35l100 164l102 -56zM448 761l100 -58l-150 -140l-53 36z" />
    <glyph glyph-name="uni030C" unicode="&#x30c;" horiz-adv-x="0" 
d="M307 641l128 72l38 -58l-143 -108h-45l-144 108l39 58z" />
    <glyph glyph-name="uni0312" unicode="&#x312;" horiz-adv-x="0" 
d="M311 657l63 -20q0 -33 -17.5 -51.5t-50.5 -18.5q-76 0 -76 67q0 37 24.5 75.5t68.5 69.5l43 -28q-42 -44 -55 -94z" />
    <glyph glyph-name="uni031B" unicode="&#x31b;" horiz-adv-x="0" 
d="M457 526q0 -62 -42 -94.5t-126 -26.5l-16 92q44 1 61 12.5t17 34.5q0 12 -8 48l100 12q14 -44 14 -78z" />
    <glyph glyph-name="dotbelowcomb" unicode="&#x323;" horiz-adv-x="0" 
d="M250 -169q-24 21 -24 56t24 56t65 21q40 0 63.5 -21t23.5 -56t-23.5 -56t-63.5 -21q-41 0 -65 21z" />
    <glyph glyph-name="uni0326" unicode="&#x326;" horiz-adv-x="0" 
d="M182 -193l33 155h125l-67 -158z" />
    <glyph glyph-name="uni0327" unicode="&#x327;" horiz-adv-x="0" 
d="M160 -167l70 184l91 -3l-37 -201z" />
    <glyph glyph-name="uni0328" unicode="&#x328;" horiz-adv-x="0" 
d="M335 -42.5q-10 -15.5 -10 -28.5q0 -18 19.5 -27t63.5 -13l-11 -82q-92 -1 -136 26t-44 69q0 27 20.5 56.5t51.5 46.5l76 -11q-20 -21 -30 -36.5z" />
    <glyph glyph-name="uni032D" unicode="&#x32d;" horiz-adv-x="0" 
d="M167 -161l132 99h41l132 -99l-35 -53l-118 66l-116 -66z" />
    <glyph glyph-name="uni0335" unicode="&#x335;" horiz-adv-x="0" 
d="M507 302h-342v83h342v-83z" />
    <glyph glyph-name="uni0337" unicode="&#x337;" horiz-adv-x="0" 
d="M127 295l288 160l43 -74l-293 -157z" />
    <glyph glyph-name="uni0338" unicode="&#x338;" horiz-adv-x="0" 
d="M70 44l201 225l181 239l78 -60l-205 -224l-176 -240z" />
    <glyph glyph-name="uni0400" unicode="&#x400;" 
d="M96 457l9 65l-90 -12v130h510l9 -123l-301 7v-144l248 8v-122l-248 7v-157l311 7l-9 -123h-439v457zM231 842l185 -100l-39 -68l-191 67z" />
    <glyph glyph-name="uni0401" unicode="&#x401;" 
d="M96 457l9 65l-90 -12v130h510l9 -123l-301 7v-144l248 8v-122l-248 7v-157l311 7l-9 -123h-439v457zM128.5 699.5q-22.5 19.5 -22.5 52.5q0 31 22.5 50.5t59.5 19.5q36 0 57.5 -19t21.5 -51q0 -33 -21.5 -52.5t-57.5 -19.5q-37 0 -59.5 19.5zM354.5 802.5
q22.5 19.5 58.5 19.5t59 -19.5t23 -50.5q0 -33 -23 -52.5t-59 -19.5t-58.5 19.5t-22.5 52.5q0 31 22.5 50.5z" />
    <glyph glyph-name="uni0402" unicode="&#x402;" 
d="M284 2l9 117q20 -5 35.5 -8t30.5 -3q70 0 70 92q0 48 -18.5 72t-63.5 24q-37 0 -90 -8v-288h-137v524h-93l-5 116h444l5 -116h-214v-143q86 42 153 42q79 0 117 -49.5t38 -158.5q0 -120 -46 -175t-133 -55q-52 0 -102 17z" />
    <glyph glyph-name="uni0403" unicode="&#x403;" 
d="M131 456l7 66l-85 -12v130h503l9 -123l-297 8v-525h-137v456zM225 674l-39 68l185 100l45 -101z" />
    <glyph glyph-name="uni0404" unicode="&#x404;" 
d="M116.5 71q-77.5 86 -77.5 251q0 107 37.5 181.5t105.5 113t161 38.5q49 0 101.5 -9.5t91.5 -29.5l-21 -109q-37 11 -81.5 17.5t-83.5 6.5q-78 0 -118 -37t-50 -115l255 10v-122l-256 7q9 -83 53.5 -123.5t131.5 -40.5q71 0 168 23l19 -104q-35 -19 -94 -31.5t-117 -12.5
q-148 0 -225.5 86z" />
    <glyph glyph-name="uni0405" unicode="&#x405;" 
d="M55 23l25 118q123 -33 233 -33q56 0 81 16.5t25 49.5q0 22 -11 37t-38.5 27.5t-78.5 25.5q-119 30 -173 77t-54 129q0 90 62 137.5t183 47.5q122 0 212 -27q-7 -63 -18 -119q-97 23 -196 23q-108 0 -108 -62q0 -30 27.5 -47.5t100.5 -37.5q82 -22 131 -48t73 -65t24 -98
q0 -91 -61.5 -140t-179.5 -49q-142 0 -259 38z" />
    <glyph glyph-name="uni0406" unicode="&#x406;" 
d="M78 120l152 -6v412l-152 -6l4 120h435l4 -120l-153 6v-412l153 6l-4 -120h-435z" />
    <glyph glyph-name="uni0407" unicode="&#x407;" 
d="M78 120l152 -6v412l-152 -6l4 120h435l4 -120l-153 6v-412l153 6l-4 -120h-435zM126.5 699.5q-22.5 19.5 -22.5 52.5q0 31 22.5 50.5t59.5 19.5q36 0 57.5 -19t21.5 -51q0 -33 -21.5 -52.5t-57.5 -19.5q-37 0 -59.5 19.5zM352.5 802.5q22.5 19.5 58.5 19.5t59 -19.5
t23 -50.5q0 -33 -23 -52.5t-59 -19.5t-58.5 19.5t-22.5 52.5q0 31 22.5 50.5z" />
    <glyph glyph-name="uni0408" unicode="&#x408;" 
d="M155.5 -3q-60.5 12 -104.5 32l22 108q49 -14 91 -20.5t89 -6.5q75 0 108.5 35.5t33.5 107.5v265l-277 -8l9 130h401v-405q0 -118 -67 -184t-188 -66q-57 0 -117.5 12z" />
    <glyph glyph-name="uni0409" unicode="&#x409;" 
d="M271 518h-76q2 -82 2 -113q0 -177 -20 -265t-58.5 -116.5t-106.5 -29.5l-8 123q30 5 44.5 25t23 94t8.5 236q0 36 -2 142v26h314v-235h13q88 0 139 -48.5t51 -151.5q0 -102 -49 -153.5t-134 -51.5h-141v518zM412 113q71 0 71 90q0 89 -72 89h-19v-179h20z" />
    <glyph glyph-name="uni040A" unicode="&#x40a;" 
d="M271 268h-102v-268h-120v640h120v-260h102v260h120v-258h15q86 0 136 -46.5t50 -144.5q0 -94 -48.5 -142.5t-130.5 -48.5h-142v268zM414 114q33 0 50 21.5t17 55.5q0 78 -71 78h-19v-155h23z" />
    <glyph glyph-name="uni040B" unicode="&#x40b;" 
d="M130 524h-103l-5 116h444l5 -116h-204v-147q84 46 157 46q70 0 100.5 -39t30.5 -127v-257h-136v187q0 61 -14 85t-50 24q-22 0 -88 -6v-290h-137v524z" />
    <glyph glyph-name="uni040C" unicode="&#x40c;" 
d="M57 640h138v-241h94q37 54 69.5 122.5t45.5 118.5h136q-17 -75 -53.5 -153.5t-84.5 -151.5l184 -335h-156l-149 282h-86v-282h-138v640zM225 674l-39 68l185 100l45 -101z" />
    <glyph glyph-name="uni040D" unicode="&#x40d;" 
d="M412 0l8 420l-245 -420h-125v640h137l-8 -421l245 421h126v-640h-138zM229 842l185 -100l-39 -68l-191 67z" />
    <glyph glyph-name="uni040E" unicode="&#x40e;" 
d="M57 1l7 119q20 -3 43 -3q37 0 67 23.5t61 67.5h-1q-61 85 -112 203t-82 229h138q17 -64 50.5 -149.5t69.5 -155.5h11q38 72 68 157t42 148h138q-22 -87 -62.5 -197.5t-94.5 -207.5q-60 -111 -130 -175.5t-154 -64.5q-36 0 -59 6zM195.5 733.5q-41.5 35.5 -47.5 98.5
l92 15q6 -35 22 -52t43 -17t43 17t22 52l91 -15q-6 -63 -47.5 -98.5t-108.5 -35.5q-68 0 -109.5 35.5z" />
    <glyph glyph-name="uni040F" unicode="&#x40f;" 
d="M544 640v-640h-191l4 -122h-121l5 122h-184v640h137v-516h212v516h138z" />
    <glyph glyph-name="uni0410" unicode="&#x410;" 
d="M87 358.5q44 177.5 108 281.5h211q64 -105 108 -282.5t55 -357.5h-137q-6 85 -11 124h-242q-5 -39 -11 -124h-136q11 181 55 358.5zM404 240q-31 169 -84 281h-40q-53 -112 -84 -281h208z" />
    <glyph glyph-name="uni0411" unicode="&#x411;" 
d="M91 456l7 64l-65 -10v130h475l9 -123l-289 8v-149h100q112 0 171.5 -48.5t59.5 -131.5q0 -91 -56.5 -143.5t-168.5 -52.5h-243v456zM319 112q53 0 80 20.5t27 58.5q0 40 -29.5 61.5t-95.5 21.5h-73v-162h91z" />
    <glyph glyph-name="uni0412" unicode="&#x412;" 
d="M95 458l9 63l-65 -11q-2 86 -2 130h196h74q100 0 158 -48t58 -131q0 -35 -14 -64.5t-41 -50.5q45 -24 70.5 -65t25.5 -93q0 -87 -60 -137.5t-164 -50.5h-245v458zM340 112q42 0 66.5 22t24.5 61q0 37 -26.5 58.5t-72.5 22.5l-99 1v-165h107zM312 381q11 0 45 -4
q18 12 28 31t10 42q0 36 -25 57t-69 21h-68v-146z" />
    <glyph glyph-name="uni0413" unicode="&#x413;" 
d="M131 456l7 66l-85 -12v130h503l9 -123l-297 8v-525h-137v456z" />
    <glyph glyph-name="uni0414" unicode="&#x414;" 
d="M139 -122h-122v246q52 8 70 36.5t22.5 121t5.5 358.5h416v-516h50v-246h-121l9 122h-340zM394 124v396h-148q-1 -182 -13 -269.5t-46 -126.5h207z" />
    <glyph glyph-name="uni0415" unicode="&#x415;" 
d="M96 457l9 65l-90 -12v130h510l9 -123l-301 7v-144l248 8v-122l-248 7v-157l311 7l-9 -123h-439v457z" />
    <glyph glyph-name="uni0416" unicode="&#x416;" 
d="M235 276h-33l-76 -276h-126l103 333q-29 71 -51 151t-32 156h122q18 -139 62 -248h31v248h122v-248h31q44 109 62 248h122q-22 -160 -83 -308l102 -332h-124l-77 276h-33v-276h-122v276z" />
    <glyph glyph-name="uni0417" unicode="&#x417;" 
d="M156.5 -7q-54.5 8 -111.5 29l22 111q92 -23 184 -23q76 0 114.5 23.5t38.5 62.5q0 42 -31.5 66.5t-85.5 29.5l-124 -10v110l124 -9q43 5 69.5 24t26.5 52q0 32 -32 51.5t-98 19.5q-33 0 -78 -6t-86 -17l-21 110q103 38 212 38q115 0 177.5 -46.5t62.5 -133.5
q0 -86 -72 -134q92 -52 92 -153q0 -94 -69.5 -148.5t-200.5 -54.5q-59 0 -113.5 8z" />
    <glyph glyph-name="uni0418" unicode="&#x418;" 
d="M412 0l8 420l-245 -420h-125v640h137l-8 -421l245 421h126v-640h-138z" />
    <glyph glyph-name="uni0419" unicode="&#x419;" 
d="M412 0l8 420l-245 -420h-125v640h137l-8 -421l245 421h126v-640h-138zM189.5 733.5q-41.5 35.5 -47.5 98.5l92 15q6 -35 22 -52t43 -17t43 17t22 52l91 -15q-6 -63 -47.5 -98.5t-108.5 -35.5q-68 0 -109.5 35.5z" />
    <glyph glyph-name="uni041A" unicode="&#x41a;" 
d="M57 640h138v-241h94q37 54 69.5 122.5t45.5 118.5h136q-17 -75 -53.5 -153.5t-84.5 -151.5l184 -335h-156l-149 282h-86v-282h-138v640z" />
    <glyph glyph-name="uni041B" unicode="&#x41b;" 
d="M404 520h-140q-1 -216 -21.5 -326.5t-70 -154.5t-145.5 -45l-8 122q54 9 75 36t30 129.5t10 358.5h407v-640h-137v520z" />
    <glyph glyph-name="uni041C" unicode="&#x41c;" 
d="M274 159l-99 237l8 -396h-134v640h123l128 -296l128 296h123v-640h-134l8 393l-99 -234h-52z" />
    <glyph glyph-name="uni041D" unicode="&#x41d;" 
d="M406 256h-212v-256h-137v640h137v-260h212v260h138v-640h-138v256z" />
    <glyph glyph-name="uni041E" unicode="&#x41e;" 
d="M100 71q-70 86 -70 248q0 164 70 250t200 86t200 -86t70 -250q0 -162 -70 -248t-200 -86t-200 86zM203 160q32 -51 97 -51t97 51t32 159q0 110 -32 161t-97 51t-97 -51t-32 -161q0 -108 32 -159z" />
    <glyph glyph-name="uni041F" unicode="&#x41f;" 
d="M406 516h-212v-516h-137v640h487v-640h-138v516z" />
    <glyph glyph-name="uni0420" unicode="&#x420;" 
d="M92 458l8 63l-64 -11q-2 62 -2 96v34h158h38h95q109 0 171 -57.5t62 -157.5q0 -96 -62.5 -155.5t-170.5 -67.5l-95 -8v-194h-138v458zM316 318q50 4 77.5 32.5t27.5 74.5t-27.5 72.5t-76.5 26.5h-87v-213z" />
    <glyph glyph-name="uni0421" unicode="&#x421;" 
d="M116.5 71q-77.5 86 -77.5 251q0 163 77.5 248t223.5 85q58 0 115 -12.5t94 -33.5l-15 -254l-133 10l20 156q-43 10 -88 10q-79 0 -116.5 -51.5t-37.5 -157.5q0 -108 44.5 -160t141.5 -52q72 0 169 23l20 -107q-34 -17 -93 -29t-119 -12q-148 0 -225.5 86z" />
    <glyph glyph-name="uni0422" unicode="&#x422;" 
d="M231 524h-197l-5 116h537l5 -116h-202v-524h-138v524z" />
    <glyph glyph-name="uni0423" unicode="&#x423;" 
d="M57 1l7 119q20 -3 43 -3q37 0 67 23.5t61 67.5h-1q-61 85 -112 203t-82 229h138q17 -64 50.5 -149.5t69.5 -155.5h11q38 72 68 157t42 148h138q-22 -87 -62.5 -197.5t-94.5 -207.5q-60 -111 -130 -175.5t-154 -64.5q-36 0 -59 6z" />
    <glyph glyph-name="uni0424" unicode="&#x424;" 
d="M240 54q-105 20 -161 88t-56 176q0 111 56 180t161 89v63h121v-63q105 -20 160.5 -89t55.5 -180q0 -108 -55.5 -176t-160.5 -88v-64h-121v64zM240 169v304q-95 -35 -95 -155q0 -114 95 -149zM455 318q0 118 -94 155v-304q94 35 94 149z" />
    <glyph glyph-name="uni0425" unicode="&#x425;" 
d="M97.5 171.5q45.5 89.5 94.5 160.5q-109 168 -154 308h141q18 -59 51 -126t71 -125q38 61 70.5 126.5t49.5 124.5h142q-23 -72 -64.5 -153.5t-89.5 -154.5q50 -73 95.5 -162.5t71.5 -169.5h-143q-21 69 -56.5 141t-76.5 128q-42 -59 -77.5 -129.5t-55.5 -139.5h-142
q27 82 72.5 171.5z" />
    <glyph glyph-name="uni0426" unicode="&#x426;" 
d="M57 640h137v-516h196v516h137v-516h50v-246h-125l9 122h-404v640z" />
    <glyph glyph-name="uni0427" unicode="&#x427;" 
d="M89.5 268q-32.5 38 -32.5 122v250h137v-179q0 -40 6.5 -62t25 -32t54.5 -10q40 0 104 11v272h137v-640h-137v276q-42 -19 -93 -32.5t-93 -13.5q-76 0 -108.5 38z" />
    <glyph glyph-name="uni0428" unicode="&#x428;" 
d="M38 640h122v-516h82v516h116v-516h82v516h122v-640h-524v640z" />
    <glyph glyph-name="uni0429" unicode="&#x429;" 
d="M39 640h121v-516h70v516h104v-516h70v516h121v-516h50v-246h-125l9 122h-420v640z" />
    <glyph glyph-name="uni042A" unicode="&#x42a;" 
d="M141 457l9 67l-127 -14v130h255v-227h64q114 0 172 -53.5t58 -154.5q0 -98 -56 -151.5t-168 -53.5h-207v457zM333 120q107 0 107 88q0 41 -27 63.5t-82 22.5h-53v-174h55z" />
    <glyph glyph-name="uni042B" unicode="&#x42b;" 
d="M44 640h119v-227h25q101 0 154 -49.5t53 -158.5q0 -106 -50.5 -155.5t-149.5 -49.5h-151v640zM188 122q46 0 66 20.5t20 65.5q0 42 -19.5 63.5t-68.5 21.5h-23v-171h25zM438 639h119v-640h-119v640z" />
    <glyph glyph-name="uni042C" unicode="&#x42c;" 
d="M89 640h137v-227h114q74 0 126 -27t78.5 -74t26.5 -107q0 -98 -56.5 -151.5t-168.5 -53.5h-257v640zM331 120q107 0 107 88q0 41 -27 63.5t-82 22.5h-103v-174h105z" />
    <glyph glyph-name="uni042D" unicode="&#x42d;" 
d="M141 -2.5q-59 12.5 -94 31.5l19 104q97 -23 168 -23q87 0 131.5 40.5t53.5 123.5l-256 -7v122l255 -10q-10 78 -50 115t-118 37q-39 0 -83.5 -6.5t-81.5 -17.5l-21 109q39 20 91.5 29.5t101.5 9.5q93 0 161 -38.5t105.5 -113t37.5 -181.5q0 -165 -77.5 -251t-225.5 -86
q-58 0 -117 12.5z" />
    <glyph glyph-name="uni042E" unicode="&#x42e;" 
d="M37 640h120v-260h46q8 143 55 209t131 66q197 0 197 -337q0 -332 -197 -332q-84 0 -131 65t-55 205h-46v-256h-120v640zM336 157q17 -47 53 -47q37 0 54 46.5t17 161.5q0 118 -17 165.5t-54 47.5q-36 0 -53 -48t-17 -165q0 -114 17 -161z" />
    <glyph glyph-name="uni042F" unicode="&#x42f;" 
d="M146 247q-53 29 -83 79.5t-30 118.5q0 91 60 143t163 52h102h196q0 -87 -2 -130l-64 11l8 -63v-458h-138v205l-96 8q-57 -115 -88 -213h-156q53 129 128 247zM198 360.5q28 -27.5 75 -31.5l85 -7v202h-95q-43 0 -68 -25t-25 -68t28 -70.5z" />
    <glyph glyph-name="uni0430" unicode="&#x430;" 
d="M293 7.5q-45 -21.5 -89 -21.5q-64 0 -101.5 38.5t-37.5 108.5q0 39 12 77t30 63q59 8 150 8q60 0 109 -3v10q0 47 -15 73t-61 26q-31 0 -80 -8.5t-95 -26.5q-18 51 -24 105q125 47 216 47q63 0 104.5 -15.5t64 -55.5t22.5 -112v-213l72 8q2 -36 2 -56q0 -19 -2 -57
q-33 -8 -94 -8q-52 0 -88 5l-15 61q-35 -32 -80 -53.5zM207 104q12 -14 43 -14q24 0 57.5 10t58.5 25v75q-40 2 -99 2q-42 0 -60 -1q-12 -21 -12 -51q0 -32 12 -46z" />
    <glyph glyph-name="uni0431" unicode="&#x431;" 
d="M115 64q-60 79 -60 239q0 104 17 171.5t68 113t150 65.5q59 12 153 21l25 3l11 -124q-108 -8 -163 -21q-46 -9 -71.5 -23t-39 -42t-18.5 -80q40 22 82.5 33t97.5 11q89 0 139 -53.5t50 -141.5q0 -116 -62.5 -183.5t-188.5 -67.5q-130 0 -190 79zM213 143.5
q29 -46.5 96 -46.5q55 0 84.5 33.5t29.5 90.5q0 101 -117 101q-56 0 -122 -26v-1q0 -105 29 -151.5z" />
    <glyph glyph-name="uni0432" unicode="&#x432;" 
d="M97 492h255q82 0 121.5 -30.5t39.5 -84.5q0 -56 -47 -99q43 -18 66 -52.5t23 -82.5q0 -63 -47 -103t-146 -40h-265v492zM360 100q62 0 62 54q0 26 -15 38.5t-47 12.5h-139v-105h139zM362 296h8q22 24 22 53q0 43 -55 43h-116v-96h141z" />
    <glyph glyph-name="uni0433" unicode="&#x433;" 
d="M129 492h378v-130l-246 12v-374h-132v492z" />
    <glyph glyph-name="uni0434" unicode="&#x434;" 
d="M100 142.5q18 19.5 25 95t8 254.5h380v-370h48v-244h-122l9 122h-296l9 -122h-122v244h1q42 1 60 20.5zM380 122v248h-119q-1 -91 -7.5 -150.5t-21.5 -97.5h148z" />
    <glyph glyph-name="uni0435" unicode="&#x435;" 
d="M128 54.5q-70 68.5 -70 193.5q0 78 30 136.5t85 90.5t128 32q69 0 122 -28.5t82.5 -82.5t29.5 -127q0 -26 -7 -54q-75 -12 -155 -15.5t-189 -3.5q9 -48 44.5 -72t107.5 -24q81 0 156 20q15 -40 20 -93q-32 -19 -80.5 -30t-101.5 -11q-132 0 -202 68.5zM406 295
q-12 104 -113 104q-46 0 -74.5 -28t-35.5 -85q114 0 223 9z" />
    <glyph glyph-name="uni0436" unicode="&#x436;" 
d="M112 256q-62 113 -79 236h131q5 -44 19 -95.5t30 -89.5h29v185h116v-185h29q17 37 30.5 88.5t18.5 96.5h130q-18 -126 -78 -236l88 -256h-133l-55 196h-30v-196h-116v196h-31l-54 -196h-134z" />
    <glyph glyph-name="uni0437" unicode="&#x437;" 
d="M103 14l17 104q66 -17 144 -17q121 0 121 56q0 24 -17.5 38t-60.5 16l-123 -6v103l123 -7q58 5 58 46q0 46 -94 46q-71 0 -135 -18l-16 102q46 17 88 23.5t93 6.5q93 0 142.5 -35t49.5 -98q0 -33 -14 -62t-41 -49q71 -39 71 -119q0 -74 -55 -116.5t-161 -42.5
q-112 0 -190 29z" />
    <glyph glyph-name="uni0438" unicode="&#x438;" 
d="M401 0v295l-203 -295h-118v492h130v-296l203 296h118v-492h-130z" />
    <glyph glyph-name="uni0439" unicode="&#x439;" 
d="M401 0v295l-203 -295h-118v492h130v-296l203 296h118v-492h-130zM194.5 585.5q-41.5 35.5 -47.5 98.5l92 15q6 -35 22 -52t43 -17t43 17t22 52l91 -15q-6 -63 -47.5 -98.5t-108.5 -35.5q-68 0 -109.5 35.5z" />
    <glyph glyph-name="uni043A" unicode="&#x43a;" 
d="M308 196h-84v-196h-133v492h133v-176h96q53 74 75 176h135q-5 -60 -31.5 -122.5t-71.5 -122.5l144 -247h-156z" />
    <glyph glyph-name="uni043B" unicode="&#x43b;" 
d="M390 370h-129q-2 -146 -21 -225.5t-65.5 -114.5t-135.5 -36l-8 122q51 4 70 25t25 92.5t7 258.5h390v-492h-133v370z" />
    <glyph glyph-name="uni043C" unicode="&#x43c;" 
d="M275 114l-92 167v-281h-122v492h114l125 -219l125 219h114v-492h-122v281l-92 -167h-50z" />
    <glyph glyph-name="uni043D" unicode="&#x43d;" 
d="M391 196h-181v-196h-132v492h132v-174h181v174h133v-492h-133v196z" />
    <glyph glyph-name="uni043E" unicode="&#x43e;" 
d="M116 55q-68 70 -68 191t68 191t185 70t184.5 -70t67.5 -191t-67.5 -191t-184.5 -70t-185 70zM210.5 138q33.5 -40 89.5 -40q57 0 91 40.5t34 110.5q0 67 -34 106t-91 39q-56 0 -89.5 -40t-33.5 -108t33.5 -108z" />
    <glyph glyph-name="uni043F" unicode="&#x43f;" 
d="M391 370h-181v-370h-133v492h448v-492h-134v370z" />
    <glyph glyph-name="uni0440" unicode="&#x440;" 
d="M468.5 478.5q41.5 -28.5 64.5 -83t23 -129.5q0 -74 -29.5 -132.5t-81.5 -91t-116 -32.5q-46 0 -109 15v-108l114 13q2 -38 2 -57t-2 -57h-334q-2 38 -2 57t2 57l87 -12v634q35 3 69 3q36 0 72 -3l-13 -103q80 58 158 58q54 0 95.5 -28.5zM299 122q62 0 95.5 38t33.5 105
q0 63 -22.5 95.5t-71.5 32.5q-59 0 -114 -28v-231q50 -12 79 -12z" />
    <glyph glyph-name="uni0441" unicode="&#x441;" 
d="M127.5 55q-73.5 69 -73.5 194q0 124 71 191t202 67q102 0 191 -41q2 -56 2 -90q0 -60 -4 -105l-42 -1q-48 0 -83 4l16 108q-39 11 -76 11q-71 0 -106 -35t-35 -109q0 -73 40.5 -110t131.5 -37q30 0 69 5.5t74 14.5q13 -42 19 -95q-75 -41 -182 -41q-141 0 -214.5 69z" />
    <glyph glyph-name="uni0442" unicode="&#x442;" 
d="M232 376h-162l-5 116h468l4 -116h-167v-376h-138v376z" />
    <glyph glyph-name="uni0443" unicode="&#x443;" 
d="M48 492q23 1 68 1t67 -1q25 -215 84 -333h70q58 116 82 333q23 1 68 1t67 -1q-16 -134 -51 -247.5t-96 -212.5h-53q14 -95 19 -216h-142q5 122 18 216h-54q-115 190 -147 460z" />
    <glyph glyph-name="uni0444" unicode="&#x444;" 
d="M247 -13q-61 8 -107.5 42t-73 90t-26.5 127t26.5 127t73 90t107.5 42v165h108v-165q61 -8 107.5 -42t73 -90t26.5 -127t-26.5 -127t-73 -90t-107.5 -42v-171h-108v171zM183 142.5q22 -34.5 64 -42.5v294q-42 -9 -64 -44t-22 -104t22 -103.5zM418.5 142.5
q21.5 34.5 21.5 103.5t-21.5 104t-63.5 44v-294q42 8 63.5 42.5z" />
    <glyph glyph-name="uni0445" unicode="&#x445;" 
d="M108 122q38 69 83 133q-41 58 -75.5 121t-54.5 116h140q30 -78 99 -183q68 104 99 183h140q-21 -55 -55.5 -118.5t-74.5 -118.5q45 -65 83 -133t58 -122h-140q-43 106 -110 196q-32 -43 -60.5 -94.5t-48.5 -101.5h-141q20 53 58 122z" />
    <glyph glyph-name="uni0446" unicode="&#x446;" 
d="M78 492h132v-370h173v370h132v-370h48v-244h-121l9 122h-373v492z" />
    <glyph glyph-name="uni0447" unicode="&#x447;" 
d="M120 207q-32 36 -32 108v177h132v-106q0 -46 14.5 -66t52.5 -20q52 0 92 5v187h133v-492h-133v216q-40 -19 -83 -32t-76 -13q-68 0 -100 36z" />
    <glyph glyph-name="uni0448" unicode="&#x448;" 
d="M56 492h119v-370h78v370h94v-370h78v370h119v-492h-488v492z" />
    <glyph glyph-name="uni0449" unicode="&#x449;" 
d="M63 492h118v-370h74v370h87v-370h74v370h118v-370h50v-244h-122l9 122h-408v492z" />
    <glyph glyph-name="uni044A" unicode="&#x44a;" 
d="M147 378l-129 -7v121h261v-130h83q195 0 195 -183q0 -89 -49 -134t-145 -45h-216v378zM345 108q78 0 78 74q0 72 -80 72h-64v-146h66z" />
    <glyph glyph-name="uni044B" unicode="&#x44b;" 
d="M72 492h109v-130h25q87 0 135.5 -41.5t48.5 -138.5q0 -98 -48 -140t-134 -42h-136v492zM198 100q42 0 63 19.5t21 62.5q0 41 -21.5 60.5t-64.5 19.5h-15v-162h17zM433 492h108v-492h-108v492z" />
    <glyph glyph-name="uni044C" unicode="&#x44c;" 
d="M90 492h133v-130h139q195 0 195 -183q0 -89 -49 -134t-145 -45h-273v492zM345 108q38 0 58.5 18.5t20.5 55.5q0 36 -21 54t-60 18h-120v-146h122z" />
    <glyph glyph-name="uni044D" unicode="&#x44d;" 
d="M159 -2.5q-47 11.5 -81 30.5l16 91q37 -8 76 -12.5t66 -4.5q132 0 152 104l-182 -5v105l180 -7q-23 92 -140 92q-24 0 -66 -4.5t-76 -12.5l-17 92q77 41 190 41q117 0 184.5 -67.5t67.5 -190.5q0 -124 -70 -193.5t-199 -69.5q-54 0 -101 11.5z" />
    <glyph glyph-name="uni044E" unicode="&#x44e;" 
d="M63 492h114v-178h34q22 193 174 193q176 0 176 -261t-176 -261q-160 0 -175 213h-33v-198h-114v492zM340 123q14 -33 45 -33q28 0 43 34t15 122t-15 122.5t-43 34.5q-30 0 -44.5 -33.5t-14.5 -123.5t14 -123z" />
    <glyph glyph-name="uni044F" unicode="&#x44f;" 
d="M158 176q-39 19 -60 56t-21 91q0 76 48.5 122.5t157.5 46.5h271v-123l-60 10l4 -60v-319h-134v154h-76l-89 -154h-148zM210.5 276.5q15.5 -14.5 50.5 -14.5h103v120h-102q-35 0 -51 -15t-16 -46q0 -30 15.5 -44.5z" />
    <glyph glyph-name="uni0450" unicode="&#x450;" 
d="M128 54.5q-70 68.5 -70 193.5q0 78 30 136.5t85 90.5t128 32q69 0 122 -28.5t82.5 -82.5t29.5 -127q0 -26 -7 -54q-75 -12 -155 -15.5t-189 -3.5q9 -48 44.5 -72t107.5 -24q81 0 156 20q15 -40 20 -93q-32 -19 -80.5 -30t-101.5 -11q-132 0 -202 68.5zM406 295
q-12 104 -113 104q-46 0 -74.5 -28t-35.5 -85q114 0 223 9zM259 751l125 -151l-62 -55l-160 122q45 63 97 84z" />
    <glyph glyph-name="uni0451" unicode="&#x451;" 
d="M128 54.5q-70 68.5 -70 193.5q0 78 30 136.5t85 90.5t128 32q69 0 122 -28.5t82.5 -82.5t29.5 -127q0 -26 -7 -54q-75 -12 -155 -15.5t-189 -3.5q9 -48 44.5 -72t107.5 -24q81 0 156 20q15 -40 20 -93q-32 -19 -80.5 -30t-101.5 -11q-132 0 -202 68.5zM406 295
q-12 104 -113 104q-46 0 -74.5 -28t-35.5 -85q114 0 223 9zM359 584.5q-22 19.5 -22 53.5t22 53.5t58 19.5q37 0 59.5 -19.5t22.5 -53.5t-22.5 -53.5t-59.5 -19.5q-36 0 -58 19.5zM129.5 691.5q22.5 19.5 59.5 19.5q36 0 57.5 -19.5t21.5 -53.5t-21.5 -53.5t-57.5 -19.5
q-37 0 -59.5 19.5t-22.5 53.5t22.5 53.5z" />
    <glyph glyph-name="uni0452" unicode="&#x452;" 
d="M286.5 -191.5q-27.5 4.5 -57.5 15.5l19 105q44 -13 77 -13t49.5 16.5t16.5 60.5v299q0 46 -13 66.5t-47 20.5q-48 0 -107 -26v-353h-134v542h-60v79h60v49q12 5 47 5t87 -5v-49h141v-79h-141v-104q42 30 90.5 49.5t83.5 19.5q67 0 96.5 -35.5t29.5 -108.5v-370
q0 -101 -51 -145t-122 -44q-37 0 -64.5 4.5z" />
    <glyph glyph-name="uni0453" unicode="&#x453;" 
d="M129 492h378v-130l-246 12v-374h-132v492zM297 545l-62 55l125 151q52 -21 97 -84z" />
    <glyph glyph-name="uni0454" unicode="&#x454;" 
d="M141 55.5q-70 69.5 -70 193.5q0 123 67.5 190.5t184.5 67.5q113 0 190 -41l-17 -92q-34 8 -76 12.5t-66 4.5q-117 0 -140 -92l180 7v-105l-182 5q20 -104 152 -104q27 0 66 4.5t76 12.5l16 -91q-34 -19 -81 -30.5t-101 -11.5q-129 0 -199 69.5z" />
    <glyph glyph-name="uni0455" unicode="&#x455;" 
d="M142 467.5q56 39.5 165 39.5q122 0 211 -31q-8 -60 -24 -106q-114 28 -194 28q-40 0 -58.5 -10.5t-18.5 -31.5t24 -34t85 -23q82 -15 126 -35.5t61 -50t17 -74.5q0 -154 -230 -154q-115 0 -229 35l22 106q125 -30 214 -30q84 0 84 45q0 20 -18.5 31.5t-65.5 19.5
q-89 16 -138 36.5t-69 49.5t-20 73q0 77 56 116.5z" />
    <glyph glyph-name="uni0456" unicode="&#x456;" 
d="M72 130l184 -20v270l-154 -23q-2 44 -2 65t2 65q73 6 183 6q67 0 103 -1v-383l172 21l-2 -130h-483zM222.5 576.5q-25.5 22.5 -25.5 59.5q0 38 25.5 60.5t69.5 22.5q43 0 68 -22.5t25 -60.5q0 -37 -25 -59.5t-68 -22.5q-44 0 -69.5 22.5z" />
    <glyph glyph-name="uni0457" unicode="&#x457;" 
d="M72 130l184 -20v270l-154 -23q-2 44 -2 65t2 65q73 6 183 6q67 0 103 -1v-383l172 21l-2 -130h-483zM349 584.5q-22 19.5 -22 53.5t22 53.5t58 19.5q37 0 59.5 -19.5t22.5 -53.5t-22.5 -53.5t-59.5 -19.5q-36 0 -58 19.5zM119.5 691.5q22.5 19.5 59.5 19.5
q36 0 57.5 -19.5t21.5 -53.5t-21.5 -53.5t-57.5 -19.5q-37 0 -59.5 19.5t-22.5 53.5t22.5 53.5z" />
    <glyph glyph-name="uni0458" unicode="&#x458;" 
d="M156.5 -58q-53.5 12 -95.5 30q6 54 20 95q104 -25 170 -25t100.5 36t34.5 107v204l-243 -27q-2 44 -2 65q0 23 2 65q60 2 187 2t189 -2v-299q0 -129 -67 -196t-189 -67q-53 0 -106.5 12zM336.5 576.5q-25.5 22.5 -25.5 59.5q0 38 25.5 60.5t69.5 22.5q43 0 68 -22.5
t25 -60.5q0 -37 -25 -59.5t-68 -22.5q-44 0 -69.5 22.5z" />
    <glyph glyph-name="uni0459" unicode="&#x459;" 
d="M278 370h-82q1 -158 -14.5 -237.5t-50.5 -108.5t-102 -30l-8 122q33 4 46 25t17.5 94.5t5.5 256.5h300v-130h9q85 0 132 -41.5t47 -138.5q0 -99 -47 -140.5t-132 -41.5h-121v370zM410 108q68 0 68 74q0 72 -68 72h-20v-146h20z" />
    <glyph glyph-name="uni045A" unicode="&#x45a;" 
d="M281 205h-103v-205h-109v492h109v-165h103v165h108v-170h11q84 0 131.5 -38.5t47.5 -121.5q0 -162 -179 -162h-119v205zM413 108q66 0 66 50q0 22 -17 34.5t-49 12.5h-24v-97h24z" />
    <glyph glyph-name="uni045B" unicode="&#x45b;" 
d="M378 358.5q-13 20.5 -47 20.5q-47 0 -107 -26v-353h-134v542h-60v79h60v49q12 5 47 5t87 -5v-49h141v-79h-141v-104q44 30 92.5 49.5t83.5 19.5q64 0 94 -36t30 -108v-244l47 4v-123q-29 -2 -88 -2q-60 0 -92 2v292q0 46 -13 66.5z" />
    <glyph glyph-name="uni045C" unicode="&#x45c;" 
d="M308 196h-84v-196h-133v492h133v-176h96q53 74 75 176h135q-5 -60 -31.5 -122.5t-71.5 -122.5l144 -247h-156zM280 545l-62 55l125 151q52 -21 97 -84z" />
    <glyph glyph-name="uni045D" unicode="&#x45d;" 
d="M401 0v295l-203 -295h-118v492h130v-296l203 296h118v-492h-130zM263 751l125 -151l-62 -55l-160 122q45 63 97 84z" />
    <glyph glyph-name="uni045E" unicode="&#x45e;" 
d="M48 492q23 1 68 1t67 -1q25 -215 84 -333h70q58 116 82 333q23 1 68 1t67 -1q-16 -134 -51 -247.5t-96 -212.5h-53q14 -95 19 -216h-142q5 122 18 216h-54q-115 190 -147 460zM190.5 585.5q-41.5 35.5 -47.5 98.5l92 15q6 -35 22 -52t43 -17t43 17t22 52l91 -15
q-6 -63 -47.5 -98.5t-108.5 -35.5q-68 0 -109.5 35.5z" />
    <glyph glyph-name="uni045F" unicode="&#x45f;" 
d="M525 492v-492h-169l5 -122h-121l5 122h-168v492h133v-370h181v370h134z" />
    <glyph glyph-name="uni0490" unicode="&#x490;" 
d="M131 456l7 66l-85 -12v130h398l-8 91l122 -2v-212l-297 8v-525h-137v456z" />
    <glyph glyph-name="uni0491" unicode="&#x491;" 
d="M129 492h264l-8 91l122 -2v-219l-246 12v-374h-132v492z" />
    <glyph glyph-name="uni04BB" unicode="&#x4bb;" 
d="M393.5 358.5q-14.5 20.5 -51.5 20.5q-52 0 -114 -26v-353h-133v559l-71 -19q-4 36 -4 86q0 28 1 42q82 7 144 7q23 0 63 -2v-235q44 29 95.5 49t91.5 20q126 0 126 -144v-363h-133v292q0 46 -14.5 66.5z" />
    <glyph glyph-name="uni04C0" unicode="&#x4c0;" 
d="M78 120l152 -6v412l-152 -6l4 120h435l4 -120l-153 6v-412l153 6l-4 -120h-435z" />
    <glyph glyph-name="uni04C0" unicode="&#x4cf;" 
d="M78 120l152 -6v412l-152 -6l4 120h435l4 -120l-153 6v-412l153 6l-4 -120h-435z" />
    <glyph glyph-name="uni04E2" unicode="&#x4e2;" 
d="M412 0l8 420l-245 -420h-125v640h137l-8 -421l245 421h126v-640h-138zM136 780h327v-101l-163 9l-164 -9v101z" />
    <glyph glyph-name="uni04E3" unicode="&#x4e3;" 
d="M401 0v295l-203 -295h-118v492h130v-296l203 296h118v-492h-130zM141 668h327v-101l-163 9l-164 -9v101z" />
    <glyph glyph-name="uni04EE" unicode="&#x4ee;" 
d="M57 1l7 119q20 -3 43 -3q37 0 67 23.5t61 67.5h-1q-61 85 -112 203t-82 229h138q17 -64 50.5 -149.5t69.5 -155.5h11q38 72 68 157t42 148h138q-22 -87 -62.5 -197.5t-94.5 -207.5q-60 -111 -130 -175.5t-154 -64.5q-36 0 -59 6zM142 780h327v-101l-163 9l-164 -9v101z
" />
    <glyph glyph-name="uni04EF" unicode="&#x4ef;" 
d="M48 492q23 1 68 1t67 -1q25 -215 84 -333h70q58 116 82 333q23 1 68 1t67 -1q-16 -134 -51 -247.5t-96 -212.5h-53q14 -95 19 -216h-142q5 122 18 216h-54q-115 190 -147 460zM137 668h327v-101l-163 9l-164 -9v101z" />
    <glyph glyph-name="uni1E20" unicode="&#x1e20;" 
d="M113 71q-83 86 -83 247q0 165 76.5 251t219.5 86q64 0 124 -12t95 -31l-19 -108q-44 12 -91.5 19t-84.5 7q-93 0 -136 -52.5t-43 -159.5q0 -106 39 -157.5t123 -51.5q56 0 98 12l-22 200l133 7l15 -312q-50 -14 -107 -22.5t-108 -8.5q-146 0 -229 86zM172 780h327v-101
l-163 9l-164 -9v101z" />
    <glyph glyph-name="uni1E21" unicode="&#x1e21;" 
d="M95 -167l17 98q34 -7 73 -12t68 -5q131 0 131 138v10q-72 -45 -141 -45q-88 0 -137.5 61.5t-49.5 177.5q0 117 64.5 184t176.5 67q61 0 119.5 -18.5t100.5 -46.5v-391q0 -119 -64.5 -184t-180.5 -65q-89 0 -177 31zM207 163.5q23 -32.5 71 -32.5q27 0 55 8t51 22v219
q-50 13 -86 13q-55 0 -84.5 -35.5t-29.5 -101.5q0 -60 23 -92.5zM136 668h327v-101l-163 9l-164 -9v101z" />
    <glyph glyph-name="Wgrave" unicode="&#x1e80;" 
d="M41 305.5q-28 169.5 -28 334.5h132q0 -132 14 -267.5t37 -249.5h47l-9 365q44 2 67 2q22 0 66 -2l-9 -365h46q24 112 37.5 247.5t14.5 269.5h131q0 -165 -28 -334t-78 -306h-361q-51 136 -79 305.5zM229 842l185 -100l-39 -68l-191 67z" />
    <glyph glyph-name="wgrave" unicode="&#x1e81;" 
d="M110 0q-43 101 -67.5 232.5t-24.5 259.5h136q0 -107 11 -206t32 -175h58q-16 131 -16 271q20 2 62 2t62 -2q0 -140 -16 -271h56q22 77 33 175.5t11 205.5h135q0 -129 -24 -260t-67 -232h-381zM258 751l125 -151l-62 -55l-160 122q45 63 97 84z" />
    <glyph glyph-name="Wacute" unicode="&#x1e82;" 
d="M41 305.5q-28 169.5 -28 334.5h132q0 -132 14 -267.5t37 -249.5h47l-9 365q44 2 67 2q22 0 66 -2l-9 -365h46q24 112 37.5 247.5t14.5 269.5h131q0 -165 -28 -334t-78 -306h-361q-51 136 -79 305.5zM225 674l-39 68l185 100l45 -101z" />
    <glyph glyph-name="wacute" unicode="&#x1e83;" 
d="M110 0q-43 101 -67.5 232.5t-24.5 259.5h136q0 -107 11 -206t32 -175h58q-16 131 -16 271q20 2 62 2t62 -2q0 -140 -16 -271h56q22 77 33 175.5t11 205.5h135q0 -129 -24 -260t-67 -232h-381zM279 545l-62 55l125 151q52 -21 97 -84z" />
    <glyph glyph-name="Wdieresis" unicode="&#x1e84;" 
d="M41 305.5q-28 169.5 -28 334.5h132q0 -132 14 -267.5t37 -249.5h47l-9 365q44 2 67 2q22 0 66 -2l-9 -365h46q24 112 37.5 247.5t14.5 269.5h131q0 -165 -28 -334t-78 -306h-361q-51 136 -79 305.5zM126.5 699.5q-22.5 19.5 -22.5 52.5q0 31 22.5 50.5t59.5 19.5
q36 0 57.5 -19t21.5 -51q0 -33 -21.5 -52.5t-57.5 -19.5q-37 0 -59.5 19.5zM352.5 802.5q22.5 19.5 58.5 19.5t59 -19.5t23 -50.5q0 -33 -23 -52.5t-59 -19.5t-58.5 19.5t-22.5 52.5q0 31 22.5 50.5z" />
    <glyph glyph-name="wdieresis" unicode="&#x1e85;" 
d="M110 0q-43 101 -67.5 232.5t-24.5 259.5h136q0 -107 11 -206t32 -175h58q-16 131 -16 271q20 2 62 2t62 -2q0 -140 -16 -271h56q22 77 33 175.5t11 205.5h135q0 -129 -24 -260t-67 -232h-381zM358 584.5q-22 19.5 -22 53.5t22 53.5t58 19.5q37 0 59.5 -19.5t22.5 -53.5
t-22.5 -53.5t-59.5 -19.5q-36 0 -58 19.5zM128.5 691.5q22.5 19.5 59.5 19.5q36 0 57.5 -19.5t21.5 -53.5t-21.5 -53.5t-57.5 -19.5q-37 0 -59.5 19.5t-22.5 53.5t22.5 53.5z" />
    <glyph glyph-name="uni1E9E" unicode="&#x1e9e;" 
d="M266 -2l5 120q34 -9 70 -9q47 0 71.5 23t24.5 64q0 89 -132 89v95q71 51 80 137h-152v-517h-137v457l9 66l-90 -13v130h508q-1 -102 -22 -165.5t-68 -110.5q68 -19 102.5 -64t34.5 -113q0 -91 -57.5 -146.5t-156.5 -55.5q-53 0 -90 13z" />
    <glyph glyph-name="uni1EA0" unicode="&#x1ea0;" 
d="M87 358.5q44 177.5 108 281.5h211q64 -105 108 -282.5t55 -357.5h-137q-6 85 -11 124h-242q-5 -39 -11 -124h-136q11 181 55 358.5zM404 240q-31 169 -84 281h-40q-53 -112 -84 -281h208zM235 -169q-24 21 -24 56t24 56t65 21q40 0 63.5 -21t23.5 -56t-23.5 -56
t-63.5 -21q-41 0 -65 21z" />
    <glyph glyph-name="uni1EA1" unicode="&#x1ea1;" 
d="M293 7.5q-45 -21.5 -89 -21.5q-64 0 -101.5 38.5t-37.5 108.5q0 39 12 77t30 63q59 8 150 8q60 0 109 -3v10q0 47 -15 73t-61 26q-31 0 -80 -8.5t-95 -26.5q-18 51 -24 105q125 47 216 47q63 0 104.5 -15.5t64 -55.5t22.5 -112v-213l72 8q2 -36 2 -56q0 -19 -2 -57
q-33 -8 -94 -8q-52 0 -88 5l-15 61q-35 -32 -80 -53.5zM207 104q12 -14 43 -14q24 0 57.5 10t58.5 25v75q-40 2 -99 2q-42 0 -60 -1q-12 -21 -12 -51q0 -32 12 -46zM236 -169q-24 21 -24 56t24 56t65 21q40 0 63.5 -21t23.5 -56t-23.5 -56t-63.5 -21q-41 0 -65 21z" />
    <glyph glyph-name="uni1EA2" unicode="&#x1ea2;" 
d="M87 358.5q44 177.5 108 281.5h211q64 -105 108 -282.5t55 -357.5h-137q-6 85 -11 124h-242q-5 -39 -11 -124h-136q11 181 55 358.5zM404 240q-31 169 -84 281h-40q-53 -112 -84 -281h208zM296.5 751q11.5 8 11.5 20q0 13 -22 21t-75 14l10 84q79 -6 123.5 -32t44.5 -68
q0 -32 -14.5 -53t-40.5 -35t-71 -30l-18 50q40 21 51.5 29z" />
    <glyph glyph-name="uni1EA3" unicode="&#x1ea3;" 
d="M293 7.5q-45 -21.5 -89 -21.5q-64 0 -101.5 38.5t-37.5 108.5q0 39 12 77t30 63q59 8 150 8q60 0 109 -3v10q0 47 -15 73t-61 26q-31 0 -80 -8.5t-95 -26.5q-18 51 -24 105q125 47 216 47q63 0 104.5 -15.5t64 -55.5t22.5 -112v-213l72 8q2 -36 2 -56q0 -19 -2 -57
q-33 -8 -94 -8q-52 0 -88 5l-15 61q-35 -32 -80 -53.5zM207 104q12 -14 43 -14q24 0 57.5 10t58.5 25v75q-40 2 -99 2q-42 0 -60 -1q-12 -21 -12 -51q0 -32 12 -46zM295.5 620.5q13.5 9.5 13.5 22.5t-22 21t-75 14l10 84q79 -6 123.5 -32t44.5 -68q0 -32 -14.5 -53
t-40.5 -35t-71 -30l-18 50q36 17 49.5 26.5z" />
    <glyph glyph-name="uni1EA4" unicode="&#x1ea4;" 
d="M87 358.5q44 177.5 108 281.5h211q64 -105 108 -282.5t55 -357.5h-137q-6 85 -11 124h-242q-5 -39 -11 -124h-136q11 181 55 358.5zM404 240q-31 169 -84 281h-40q-53 -112 -84 -281h208zM131 738l147 107h44l148 -107l-43 -61l-127 70l-127 -70zM470 941q46 -9 90 -50
l-105 -122l-58 33z" />
    <glyph glyph-name="uni1EA5" unicode="&#x1ea5;" 
d="M293 7.5q-45 -21.5 -89 -21.5q-64 0 -101.5 38.5t-37.5 108.5q0 39 12 77t30 63q59 8 150 8q60 0 109 -3v10q0 47 -15 73t-61 26q-31 0 -80 -8.5t-95 -26.5q-18 51 -24 105q125 47 216 47q63 0 104.5 -15.5t64 -55.5t22.5 -112v-213l72 8q2 -36 2 -56q0 -19 -2 -57
q-33 -8 -94 -8q-52 0 -88 5l-15 61q-35 -32 -80 -53.5zM207 104q12 -14 43 -14q24 0 57.5 10t58.5 25v75q-40 2 -99 2q-42 0 -60 -1q-12 -21 -12 -51q0 -32 12 -46zM135 597l144 108h45l143 -108l-38 -58l-128 72l-127 -72zM432 863q45 -7 90 -49l-105 -122l-57 33z" />
    <glyph glyph-name="uni1EA6" unicode="&#x1ea6;" 
d="M87 358.5q44 177.5 108 281.5h211q64 -105 108 -282.5t55 -357.5h-137q-6 85 -11 124h-242q-5 -39 -11 -124h-136q11 181 55 358.5zM404 240q-31 169 -84 281h-40q-53 -112 -84 -281h208zM301 747l-127 -70l-43 61l148 107h44l147 -107l-42 -61zM130 941l73 -139l-58 -33
l-104 122q43 41 89 50z" />
    <glyph glyph-name="uni1EA7" unicode="&#x1ea7;" 
d="M293 7.5q-45 -21.5 -89 -21.5q-64 0 -101.5 38.5t-37.5 108.5q0 39 12 77t30 63q59 8 150 8q60 0 109 -3v10q0 47 -15 73t-61 26q-31 0 -80 -8.5t-95 -26.5q-18 51 -24 105q125 47 216 47q63 0 104.5 -15.5t64 -55.5t22.5 -112v-213l72 8q2 -36 2 -56q0 -19 -2 -57
q-33 -8 -94 -8q-52 0 -88 5l-15 61q-35 -32 -80 -53.5zM207 104q12 -14 43 -14q24 0 57.5 10t58.5 25v75q-40 2 -99 2q-42 0 -60 -1q-12 -21 -12 -51q0 -32 12 -46zM302 611l-128 -72l-38 58l143 108h45l144 -108l-39 -58zM170 863l73 -138l-58 -33l-105 122q47 42 90 49z
" />
    <glyph glyph-name="uni1EA8" unicode="&#x1ea8;" 
d="M87 358.5q44 177.5 108 281.5h211q64 -105 108 -282.5t55 -357.5h-137q-6 85 -11 124h-242q-5 -39 -11 -124h-136q11 181 55 358.5zM404 240q-31 169 -84 281h-40q-53 -112 -84 -281h208zM131 738l147 107h44l59 -43l-11 32q29 13 41 21.5t12 19.5t-18 17.5t-63 11.5
l8 70q66 -5 103.5 -26.5t37.5 -56.5q0 -38 -23.5 -58.5t-75.5 -38.5l78 -56l-43 -61l-127 70l-127 -70z" />
    <glyph glyph-name="uni1EA9" unicode="&#x1ea9;" 
d="M293 7.5q-45 -21.5 -89 -21.5q-64 0 -101.5 38.5t-37.5 108.5q0 39 12 77t30 63q59 8 150 8q60 0 109 -3v10q0 47 -15 73t-61 26q-31 0 -80 -8.5t-95 -26.5q-18 51 -24 105q125 47 216 47q63 0 104.5 -15.5t64 -55.5t22.5 -112v-213l72 8q2 -36 2 -56q0 -19 -2 -57
q-33 -8 -94 -8q-52 0 -88 5l-15 61q-35 -32 -80 -53.5zM207 104q12 -14 43 -14q24 0 57.5 10t58.5 25v75q-40 2 -99 2q-42 0 -60 -1q-12 -21 -12 -51q0 -32 12 -46zM135 597l144 108h45l143 -108l-38 -58l-128 72l-127 -72zM295.5 813.5q13.5 9.5 13.5 22.5t-22 21t-75 14
l10 84q79 -6 123.5 -32t44.5 -68q0 -32 -14.5 -53t-40.5 -35t-71 -30l-18 50q36 17 49.5 26.5z" />
    <glyph glyph-name="uni1EAA" unicode="&#x1eaa;" 
d="M87 358.5q44 177.5 108 281.5h211q64 -105 108 -282.5t55 -357.5h-137q-6 85 -11 124h-242q-5 -39 -11 -124h-136q11 181 55 358.5zM404 240q-31 169 -84 281h-40q-53 -112 -84 -281h208zM131 738l147 107h44l148 -107l-43 -61l-127 70l-127 -70zM203.5 966.5
q22.5 26.5 48.5 26.5q13 0 26.5 -6.5t31.5 -18.5q17 -11 27 -16t19 -5q11 0 21 12.5t23 37.5l42 -17q-41 -107 -90 -107q-14 0 -27 6t-33 19q-16 10 -26.5 15t-19.5 5q-21 0 -44 -50l-42 18q21 54 43.5 80.5z" />
    <glyph glyph-name="uni1EAB" unicode="&#x1eab;" 
d="M293 7.5q-45 -21.5 -89 -21.5q-64 0 -101.5 38.5t-37.5 108.5q0 39 12 77t30 63q59 8 150 8q60 0 109 -3v10q0 47 -15 73t-61 26q-31 0 -80 -8.5t-95 -26.5q-18 51 -24 105q125 47 216 47q63 0 104.5 -15.5t64 -55.5t22.5 -112v-213l72 8q2 -36 2 -56q0 -19 -2 -57
q-33 -8 -94 -8q-52 0 -88 5l-15 61q-35 -32 -80 -53.5zM207 104q12 -14 43 -14q24 0 57.5 10t58.5 25v75q-40 2 -99 2q-42 0 -60 -1q-12 -21 -12 -51q0 -32 12 -46zM135 597l144 108h45l143 -108l-38 -58l-128 72l-127 -72zM203.5 858.5q22.5 26.5 48.5 26.5q13 0 26.5 -6.5
t31.5 -18.5q17 -11 27 -16t19 -5q11 0 21 12.5t23 37.5l42 -17q-41 -107 -90 -107q-14 0 -27 6t-33 19q-16 10 -26.5 15t-19.5 5q-21 0 -44 -50l-42 18q21 54 43.5 80.5z" />
    <glyph glyph-name="uni1EAC" unicode="&#x1eac;" 
d="M87 358.5q44 177.5 108 281.5h211q64 -105 108 -282.5t55 -357.5h-137q-6 85 -11 124h-242q-5 -39 -11 -124h-136q11 181 55 358.5zM404 240q-31 169 -84 281h-40q-53 -112 -84 -281h208zM235 -169q-24 21 -24 56t24 56t65 21q40 0 63.5 -21t23.5 -56t-23.5 -56
t-63.5 -21q-41 0 -65 21zM131 739l147 107h44l148 -107l-43 -61l-127 70l-127 -70z" />
    <glyph glyph-name="uni1EAD" unicode="&#x1ead;" 
d="M293 7.5q-45 -21.5 -89 -21.5q-64 0 -101.5 38.5t-37.5 108.5q0 39 12 77t30 63q59 8 150 8q60 0 109 -3v10q0 47 -15 73t-61 26q-31 0 -80 -8.5t-95 -26.5q-18 51 -24 105q125 47 216 47q63 0 104.5 -15.5t64 -55.5t22.5 -112v-213l72 8q2 -36 2 -56q0 -19 -2 -57
q-33 -8 -94 -8q-52 0 -88 5l-15 61q-35 -32 -80 -53.5zM207 104q12 -14 43 -14q24 0 57.5 10t58.5 25v75q-40 2 -99 2q-42 0 -60 -1q-12 -21 -12 -51q0 -32 12 -46zM236 -169q-24 21 -24 56t24 56t65 21q40 0 63.5 -21t23.5 -56t-23.5 -56t-63.5 -21q-41 0 -65 21zM135 597
l144 108h45l143 -108l-38 -58l-128 72l-127 -72z" />
    <glyph glyph-name="uni1EAE" unicode="&#x1eae;" 
d="M87 358.5q44 177.5 108 281.5h211q64 -105 108 -282.5t55 -357.5h-137q-6 85 -11 124h-242q-5 -39 -11 -124h-136q11 181 55 358.5zM404 240q-31 169 -84 281h-40q-53 -112 -84 -281h208zM191 712.5q-42 35.5 -48 98.5l89 17q6 -38 22.5 -55.5t45.5 -17.5t45 17.5
t22 55.5l89 -17q-7 -63 -48.5 -98.5t-107.5 -35.5q-67 0 -109 35.5zM332 989q43 -16 80 -69l-131 -100l-51 45z" />
    <glyph glyph-name="uni1EAF" unicode="&#x1eaf;" 
d="M293 7.5q-45 -21.5 -89 -21.5q-64 0 -101.5 38.5t-37.5 108.5q0 39 12 77t30 63q59 8 150 8q60 0 109 -3v10q0 47 -15 73t-61 26q-31 0 -80 -8.5t-95 -26.5q-18 51 -24 105q125 47 216 47q63 0 104.5 -15.5t64 -55.5t22.5 -112v-213l72 8q2 -36 2 -56q0 -19 -2 -57
q-33 -8 -94 -8q-52 0 -88 5l-15 61q-35 -32 -80 -53.5zM207 104q12 -14 43 -14q24 0 57.5 10t58.5 25v75q-40 2 -99 2q-42 0 -60 -1q-12 -21 -12 -51q0 -32 12 -46zM190.5 585.5q-41.5 35.5 -47.5 98.5l92 15q6 -35 22 -52t43 -17t43 17t22 52l91 -15q-6 -63 -47.5 -98.5
t-108.5 -35.5q-68 0 -109.5 35.5zM341 873q42 -17 80 -69l-131 -100l-51 45z" />
    <glyph glyph-name="uni1EB0" unicode="&#x1eb0;" 
d="M87 358.5q44 177.5 108 281.5h211q64 -105 108 -282.5t55 -357.5h-137q-6 85 -11 124h-242q-5 -39 -11 -124h-136q11 181 55 358.5zM404 240q-31 169 -84 281h-40q-53 -112 -84 -281h208zM192.5 712.5q-41.5 35.5 -48.5 98.5l89 17q6 -38 22 -55.5t45 -17.5t45.5 17.5
t22.5 55.5l89 -17q-6 -63 -48 -98.5t-109 -35.5q-66 0 -107.5 35.5zM268 989l102 -124l-51 -45l-131 100q37 53 80 69z" />
    <glyph glyph-name="uni1EB1" unicode="&#x1eb1;" 
d="M293 7.5q-45 -21.5 -89 -21.5q-64 0 -101.5 38.5t-37.5 108.5q0 39 12 77t30 63q59 8 150 8q60 0 109 -3v10q0 47 -15 73t-61 26q-31 0 -80 -8.5t-95 -26.5q-18 51 -24 105q125 47 216 47q63 0 104.5 -15.5t64 -55.5t22.5 -112v-213l72 8q2 -36 2 -56q0 -19 -2 -57
q-33 -8 -94 -8q-52 0 -88 5l-15 61q-35 -32 -80 -53.5zM207 104q12 -14 43 -14q24 0 57.5 10t58.5 25v75q-40 2 -99 2q-42 0 -60 -1q-12 -21 -12 -51q0 -32 12 -46zM193.5 585.5q-41.5 35.5 -47.5 98.5l91 15q6 -35 22 -52t43 -17t43 17t22 52l92 -15q-6 -63 -47.5 -98.5
t-109.5 -35.5q-67 0 -108.5 35.5zM261 873l102 -124l-51 -45l-131 100q38 52 80 69z" />
    <glyph glyph-name="uni1EB2" unicode="&#x1eb2;" 
d="M87 358.5q44 177.5 108 281.5h211q64 -105 108 -282.5t55 -357.5h-137q-6 85 -11 124h-242q-5 -39 -11 -124h-136q11 181 55 358.5zM404 240q-31 169 -84 281h-40q-53 -112 -84 -281h208zM191 711.5q-42 35.5 -48 98.5l89 17q6 -38 22.5 -55.5t45.5 -17.5t45 17.5
t22 55.5l89 -17q-7 -63 -48.5 -98.5t-107.5 -35.5q-67 0 -109 35.5zM247 993q66 -5 103 -27t37 -57q0 -39 -24.5 -58.5t-80.5 -40.5l-15 42q30 14 41.5 22.5t11.5 18.5q0 11 -19 17.5t-63 11.5z" />
    <glyph glyph-name="uni1EB3" unicode="&#x1eb3;" 
d="M293 7.5q-45 -21.5 -89 -21.5q-64 0 -101.5 38.5t-37.5 108.5q0 39 12 77t30 63q59 8 150 8q60 0 109 -3v10q0 47 -15 73t-61 26q-31 0 -80 -8.5t-95 -26.5q-18 51 -24 105q125 47 216 47q63 0 104.5 -15.5t64 -55.5t22.5 -112v-213l72 8q2 -36 2 -56q0 -19 -2 -57
q-33 -8 -94 -8q-52 0 -88 5l-15 61q-35 -32 -80 -53.5zM207 104q12 -14 43 -14q24 0 57.5 10t58.5 25v75q-40 2 -99 2q-42 0 -60 -1q-12 -21 -12 -51q0 -32 12 -46zM190.5 585.5q-41.5 35.5 -47.5 98.5l92 15q6 -35 22 -52t43 -17t43 17t22 52l91 -15q-6 -63 -47.5 -98.5
t-108.5 -35.5q-68 0 -109.5 35.5zM296.5 788.5q13.5 9.5 13.5 22.5t-22 21t-75 14l10 84q79 -6 123.5 -32t44.5 -68q0 -32 -14.5 -53t-40.5 -35t-71 -30l-18 50q36 17 49.5 26.5z" />
    <glyph glyph-name="uni1EB4" unicode="&#x1eb4;" 
d="M87 358.5q44 177.5 108 281.5h211q64 -105 108 -282.5t55 -357.5h-137q-6 85 -11 124h-242q-5 -39 -11 -124h-136q11 181 55 358.5zM404 240q-31 169 -84 281h-40q-53 -112 -84 -281h208zM191 712.5q-42 35.5 -48 98.5l89 17q6 -38 22.5 -55.5t45.5 -17.5t45 17.5
t22 55.5l89 -17q-7 -63 -48.5 -98.5t-107.5 -35.5q-67 0 -109 35.5zM200.5 931.5q22.5 26.5 48.5 26.5q22 0 59 -25q17 -11 27 -16t19 -5q19 0 43 50l43 -17q-21 -54 -43 -80.5t-48 -26.5q-21 0 -59 25q-17 11 -27 16t-19 5q-20 0 -44 -51l-43 18q21 54 43.5 80.5z" />
    <glyph glyph-name="uni1EB5" unicode="&#x1eb5;" 
d="M293 7.5q-45 -21.5 -89 -21.5q-64 0 -101.5 38.5t-37.5 108.5q0 39 12 77t30 63q59 8 150 8q60 0 109 -3v10q0 47 -15 73t-61 26q-31 0 -80 -8.5t-95 -26.5q-18 51 -24 105q125 47 216 47q63 0 104.5 -15.5t64 -55.5t22.5 -112v-213l72 8q2 -36 2 -56q0 -19 -2 -57
q-33 -8 -94 -8q-52 0 -88 5l-15 61q-35 -32 -80 -53.5zM207 104q12 -14 43 -14q24 0 57.5 10t58.5 25v75q-40 2 -99 2q-42 0 -60 -1q-12 -21 -12 -51q0 -32 12 -46zM190.5 585.5q-41.5 35.5 -47.5 98.5l92 15q6 -35 22 -52t43 -17t43 17t22 52l91 -15q-6 -63 -47.5 -98.5
t-108.5 -35.5q-68 0 -109.5 35.5zM195.5 838.5q22.5 26.5 48.5 26.5q22 0 59 -25q17 -11 27 -16t19 -5q20 0 43 50l43 -17q-20 -55 -42.5 -81.5t-48.5 -26.5q-21 0 -59 25q-17 11 -27 16t-19 5q-21 0 -44 -51l-43 18q21 55 43.5 81.5z" />
    <glyph glyph-name="uni1EB6" unicode="&#x1eb6;" 
d="M87 358.5q44 177.5 108 281.5h211q64 -105 108 -282.5t55 -357.5h-137q-6 85 -11 124h-242q-5 -39 -11 -124h-136q11 181 55 358.5zM404 240q-31 169 -84 281h-40q-53 -112 -84 -281h208zM235 -169q-24 21 -24 56t24 56t65 21q40 0 63.5 -21t23.5 -56t-23.5 -56
t-63.5 -21q-41 0 -65 21zM191 711.5q-42 35.5 -48 98.5l89 17q6 -38 22.5 -55.5t45.5 -17.5t45 17.5t22 55.5l89 -17q-7 -63 -48.5 -98.5t-107.5 -35.5q-67 0 -109 35.5z" />
    <glyph glyph-name="uni1EB7" unicode="&#x1eb7;" 
d="M293 7.5q-45 -21.5 -89 -21.5q-64 0 -101.5 38.5t-37.5 108.5q0 39 12 77t30 63q59 8 150 8q60 0 109 -3v10q0 47 -15 73t-61 26q-31 0 -80 -8.5t-95 -26.5q-18 51 -24 105q125 47 216 47q63 0 104.5 -15.5t64 -55.5t22.5 -112v-213l72 8q2 -36 2 -56q0 -19 -2 -57
q-33 -8 -94 -8q-52 0 -88 5l-15 61q-35 -32 -80 -53.5zM207 104q12 -14 43 -14q24 0 57.5 10t58.5 25v75q-40 2 -99 2q-42 0 -60 -1q-12 -21 -12 -51q0 -32 12 -46zM236 -169q-24 21 -24 56t24 56t65 21q40 0 63.5 -21t23.5 -56t-23.5 -56t-63.5 -21q-41 0 -65 21z
M190.5 585.5q-41.5 35.5 -47.5 98.5l92 15q6 -35 22 -52t43 -17t43 17t22 52l91 -15q-6 -63 -47.5 -98.5t-108.5 -35.5q-68 0 -109.5 35.5z" />
    <glyph glyph-name="uni1EB8" unicode="&#x1eb8;" 
d="M96 457l9 65l-90 -12v130h510l9 -123l-301 7v-144l248 8v-122l-248 7v-157l311 7l-9 -123h-439v457zM235 -169q-24 21 -24 56t24 56t65 21q40 0 63.5 -21t23.5 -56t-23.5 -56t-63.5 -21q-41 0 -65 21z" />
    <glyph glyph-name="uni1EB9" unicode="&#x1eb9;" 
d="M128 54.5q-70 68.5 -70 193.5q0 78 30 136.5t85 90.5t128 32q69 0 122 -28.5t82.5 -82.5t29.5 -127q0 -26 -7 -54q-75 -12 -155 -15.5t-189 -3.5q9 -48 44.5 -72t107.5 -24q81 0 156 20q15 -40 20 -93q-32 -19 -80.5 -30t-101.5 -11q-132 0 -202 68.5zM406 295
q-12 104 -113 104q-46 0 -74.5 -28t-35.5 -85q114 0 223 9zM236 -169q-24 21 -24 56t24 56t65 21q40 0 63.5 -21t23.5 -56t-23.5 -56t-63.5 -21q-41 0 -65 21z" />
    <glyph glyph-name="uni1EBA" unicode="&#x1eba;" 
d="M96 457l9 65l-90 -12v130h510l9 -123l-301 7v-144l248 8v-122l-248 7v-157l311 7l-9 -123h-439v457zM298.5 751q11.5 8 11.5 20q0 13 -22 21t-75 14l10 84q79 -6 123.5 -32t44.5 -68q0 -32 -14.5 -53t-40.5 -35t-71 -30l-18 50q40 21 51.5 29z" />
    <glyph glyph-name="uni1EBB" unicode="&#x1ebb;" 
d="M128 54.5q-70 68.5 -70 193.5q0 78 30 136.5t85 90.5t128 32q69 0 122 -28.5t82.5 -82.5t29.5 -127q0 -26 -7 -54q-75 -12 -155 -15.5t-189 -3.5q9 -48 44.5 -72t107.5 -24q81 0 156 20q15 -40 20 -93q-32 -19 -80.5 -30t-101.5 -11q-132 0 -202 68.5zM406 295
q-12 104 -113 104q-46 0 -74.5 -28t-35.5 -85q114 0 223 9zM295.5 620.5q13.5 9.5 13.5 22.5t-22 21t-75 14l10 84q79 -6 123.5 -32t44.5 -68q0 -32 -14.5 -53t-40.5 -35t-71 -30l-18 50q36 17 49.5 26.5z" />
    <glyph glyph-name="uni1EBC" unicode="&#x1ebc;" 
d="M96 457l9 65l-90 -12v130h510l9 -123l-301 7v-144l248 8v-122l-248 7v-157l311 7l-9 -123h-439v457zM331 689q-17 8 -40 23q-39 26 -58 26q-14 0 -27 -16t-28 -46l-53 22q27 66 55 98t60 32q17 0 33.5 -8t39.5 -23q20 -12 33.5 -18.5t24.5 -6.5q13 0 26 16t28 46l53 -22
q-26 -66 -53.5 -98.5t-59.5 -32.5q-17 0 -34 8z" />
    <glyph glyph-name="uni1EBD" unicode="&#x1ebd;" 
d="M128 54.5q-70 68.5 -70 193.5q0 78 30 136.5t85 90.5t128 32q69 0 122 -28.5t82.5 -82.5t29.5 -127q0 -26 -7 -54q-75 -12 -155 -15.5t-189 -3.5q9 -48 44.5 -72t107.5 -24q81 0 156 20q15 -40 20 -93q-32 -19 -80.5 -30t-101.5 -11q-132 0 -202 68.5zM406 295
q-12 104 -113 104q-46 0 -74.5 -28t-35.5 -85q114 0 223 9zM330 577q-17 8 -40 23q-20 12 -33.5 18.5t-24.5 6.5q-14 0 -27 -16t-28 -46l-53 22q27 66 54.5 98.5t60.5 32.5q17 0 33.5 -8t39.5 -23q20 -12 33.5 -18.5t24.5 -6.5q13 0 26 15.5t28 45.5l53 -21
q-26 -66 -53.5 -98.5t-59.5 -32.5q-17 0 -34 8z" />
    <glyph glyph-name="uni1EBE" unicode="&#x1ebe;" 
d="M96 457l9 65l-90 -12v130h510l9 -123l-301 7v-144l248 8v-122l-248 7v-157l311 7l-9 -123h-439v457zM133 738l147 107h44l148 -107l-43 -61l-127 70l-127 -70zM472 941q46 -9 90 -50l-105 -122l-58 33z" />
    <glyph glyph-name="uni1EBF" unicode="&#x1ebf;" 
d="M128 54.5q-70 68.5 -70 193.5q0 78 30 136.5t85 90.5t128 32q69 0 122 -28.5t82.5 -82.5t29.5 -127q0 -26 -7 -54q-75 -12 -155 -15.5t-189 -3.5q9 -48 44.5 -72t107.5 -24q81 0 156 20q15 -40 20 -93q-32 -19 -80.5 -30t-101.5 -11q-132 0 -202 68.5zM406 295
q-12 104 -113 104q-46 0 -74.5 -28t-35.5 -85q114 0 223 9zM135 597l144 108h45l143 -108l-38 -58l-128 72l-127 -72zM432 863q45 -7 90 -49l-105 -122l-57 33z" />
    <glyph glyph-name="uni1EC0" unicode="&#x1ec0;" 
d="M96 457l9 65l-90 -12v130h510l9 -123l-301 7v-144l248 8v-122l-248 7v-157l311 7l-9 -123h-439v457zM302 747l-127 -70l-43 61l148 107h44l147 -107l-42 -61zM131 941l73 -139l-58 -33l-104 122q43 41 89 50z" />
    <glyph glyph-name="uni1EC1" unicode="&#x1ec1;" 
d="M128 54.5q-70 68.5 -70 193.5q0 78 30 136.5t85 90.5t128 32q69 0 122 -28.5t82.5 -82.5t29.5 -127q0 -26 -7 -54q-75 -12 -155 -15.5t-189 -3.5q9 -48 44.5 -72t107.5 -24q81 0 156 20q15 -40 20 -93q-32 -19 -80.5 -30t-101.5 -11q-132 0 -202 68.5zM406 295
q-12 104 -113 104q-46 0 -74.5 -28t-35.5 -85q114 0 223 9zM302 611l-128 -72l-38 58l143 108h45l144 -108l-39 -58zM170 863l73 -138l-58 -33l-105 122q47 42 90 49z" />
    <glyph glyph-name="uni1EC2" unicode="&#x1ec2;" 
d="M96 457l9 65l-90 -12v130h510l9 -123l-301 7v-144l248 8v-122l-248 7v-157l311 7l-9 -123h-439v457zM133 738l147 107h44l59 -43l-11 32q29 13 41 21.5t12 19.5t-18 17.5t-63 11.5l8 70q66 -5 103.5 -26.5t37.5 -56.5q0 -38 -23.5 -58.5t-75.5 -38.5l78 -56l-43 -61
l-127 70l-127 -70z" />
    <glyph glyph-name="uni1EC3" unicode="&#x1ec3;" 
d="M128 54.5q-70 68.5 -70 193.5q0 78 30 136.5t85 90.5t128 32q69 0 122 -28.5t82.5 -82.5t29.5 -127q0 -26 -7 -54q-75 -12 -155 -15.5t-189 -3.5q9 -48 44.5 -72t107.5 -24q81 0 156 20q15 -40 20 -93q-32 -19 -80.5 -30t-101.5 -11q-132 0 -202 68.5zM406 295
q-12 104 -113 104q-46 0 -74.5 -28t-35.5 -85q114 0 223 9zM135 597l144 108h45l143 -108l-38 -58l-128 72l-127 -72zM295.5 813.5q13.5 9.5 13.5 22.5t-22 21t-75 14l10 84q79 -6 123.5 -32t44.5 -68q0 -32 -14.5 -53t-40.5 -35t-71 -30l-18 50q36 17 49.5 26.5z" />
    <glyph glyph-name="uni1EC4" unicode="&#x1ec4;" 
d="M96 457l9 65l-90 -12v130h510l9 -123l-301 7v-144l248 8v-122l-248 7v-157l311 7l-9 -123h-439v457zM133 738l147 107h44l148 -107l-43 -61l-127 70l-127 -70zM205.5 966.5q22.5 26.5 48.5 26.5q13 0 26.5 -6.5t31.5 -18.5q17 -11 27 -16t19 -5q11 0 21 12.5t23 37.5
l42 -17q-41 -107 -90 -107q-14 0 -27 6t-33 19q-16 10 -26.5 15t-19.5 5q-21 0 -44 -50l-42 18q21 54 43.5 80.5z" />
    <glyph glyph-name="uni1EC5" unicode="&#x1ec5;" 
d="M128 54.5q-70 68.5 -70 193.5q0 78 30 136.5t85 90.5t128 32q69 0 122 -28.5t82.5 -82.5t29.5 -127q0 -26 -7 -54q-75 -12 -155 -15.5t-189 -3.5q9 -48 44.5 -72t107.5 -24q81 0 156 20q15 -40 20 -93q-32 -19 -80.5 -30t-101.5 -11q-132 0 -202 68.5zM406 295
q-12 104 -113 104q-46 0 -74.5 -28t-35.5 -85q114 0 223 9zM135 597l144 108h45l143 -108l-38 -58l-128 72l-127 -72zM203.5 858.5q22.5 26.5 48.5 26.5q13 0 26.5 -6.5t31.5 -18.5q17 -11 27 -16t19 -5q11 0 21 12.5t23 37.5l42 -17q-41 -107 -90 -107q-14 0 -27 6t-33 19
q-16 10 -26.5 15t-19.5 5q-21 0 -44 -50l-42 18q21 54 43.5 80.5z" />
    <glyph glyph-name="uni1EC6" unicode="&#x1ec6;" 
d="M96 457l9 65l-90 -12v130h510l9 -123l-301 7v-144l248 8v-122l-248 7v-157l311 7l-9 -123h-439v457zM235 -169q-24 21 -24 56t24 56t65 21q40 0 63.5 -21t23.5 -56t-23.5 -56t-63.5 -21q-41 0 -65 21zM133 739l147 107h44l148 -107l-43 -61l-127 70l-127 -70z" />
    <glyph glyph-name="uni1EC7" unicode="&#x1ec7;" 
d="M128 54.5q-70 68.5 -70 193.5q0 78 30 136.5t85 90.5t128 32q69 0 122 -28.5t82.5 -82.5t29.5 -127q0 -26 -7 -54q-75 -12 -155 -15.5t-189 -3.5q9 -48 44.5 -72t107.5 -24q81 0 156 20q15 -40 20 -93q-32 -19 -80.5 -30t-101.5 -11q-132 0 -202 68.5zM406 295
q-12 104 -113 104q-46 0 -74.5 -28t-35.5 -85q114 0 223 9zM236 -169q-24 21 -24 56t24 56t65 21q40 0 63.5 -21t23.5 -56t-23.5 -56t-63.5 -21q-41 0 -65 21zM135 597l144 108h45l143 -108l-38 -58l-128 72l-127 -72z" />
    <glyph glyph-name="uni1EC8" unicode="&#x1ec8;" 
d="M78 120l152 -6v412l-152 -6l4 120h435l4 -120l-153 6v-412l153 6l-4 -120h-435zM296.5 751q11.5 8 11.5 20q0 13 -22 21t-75 14l10 84q79 -6 123.5 -32t44.5 -68q0 -32 -14.5 -53t-40.5 -35t-71 -30l-18 50q40 21 51.5 29z" />
    <glyph glyph-name="uni1EC9" unicode="&#x1ec9;" 
d="M72 130l184 -20v270l-154 -23q-2 44 -2 65t2 65q73 6 183 6q67 0 103 -1v-383l172 21l-2 -130h-483zM285.5 620.5q13.5 9.5 13.5 22.5t-22 21t-75 14l10 84q79 -6 123.5 -32t44.5 -68q0 -32 -14.5 -53t-40.5 -35t-71 -30l-18 50q36 17 49.5 26.5z" />
    <glyph glyph-name="uni1ECA" unicode="&#x1eca;" 
d="M78 120l152 -6v412l-152 -6l4 120h435l4 -120l-153 6v-412l153 6l-4 -120h-435zM235 -169q-24 21 -24 56t24 56t65 21q40 0 63.5 -21t23.5 -56t-23.5 -56t-63.5 -21q-41 0 -65 21z" />
    <glyph glyph-name="uni1ECB" unicode="&#x1ecb;" 
d="M72 130l184 -20v270l-154 -23q-2 44 -2 65t2 65q73 6 183 6q67 0 103 -1v-383l172 21l-2 -130h-483zM222.5 576.5q-25.5 22.5 -25.5 59.5q0 38 25.5 60.5t69.5 22.5q43 0 68 -22.5t25 -60.5q0 -37 -25 -59.5t-68 -22.5q-44 0 -69.5 22.5zM235 -169q-24 21 -24 56t24 56
t65 21q40 0 63.5 -21t23.5 -56t-23.5 -56t-63.5 -21q-41 0 -65 21z" />
    <glyph glyph-name="uni1ECC" unicode="&#x1ecc;" 
d="M100 71q-70 86 -70 248q0 164 70 250t200 86t200 -86t70 -250q0 -162 -70 -248t-200 -86t-200 86zM203 160q32 -51 97 -51t97 51t32 159q0 110 -32 161t-97 51t-97 -51t-32 -161q0 -108 32 -159zM235 -169q-24 21 -24 56t24 56t65 21q40 0 63.5 -21t23.5 -56t-23.5 -56
t-63.5 -21q-41 0 -65 21z" />
    <glyph glyph-name="uni1ECD" unicode="&#x1ecd;" 
d="M116 55q-68 70 -68 191t68 191t185 70t184.5 -70t67.5 -191t-67.5 -191t-184.5 -70t-185 70zM210.5 138q33.5 -40 89.5 -40q57 0 91 40.5t34 110.5q0 67 -34 106t-91 39q-56 0 -89.5 -40t-33.5 -108t33.5 -108zM236 -169q-24 21 -24 56t24 56t65 21q40 0 63.5 -21
t23.5 -56t-23.5 -56t-63.5 -21q-41 0 -65 21z" />
    <glyph glyph-name="uni1ECE" unicode="&#x1ece;" 
d="M100 71q-70 86 -70 248q0 164 70 250t200 86t200 -86t70 -250q0 -162 -70 -248t-200 -86t-200 86zM203 160q32 -51 97 -51t97 51t32 159q0 110 -32 161t-97 51t-97 -51t-32 -161q0 -108 32 -159zM296.5 751q11.5 8 11.5 20q0 13 -22 21t-75 14l10 84q79 -6 123.5 -32
t44.5 -68q0 -32 -14.5 -53t-40.5 -35t-71 -30l-18 50q40 21 51.5 29z" />
    <glyph glyph-name="uni1ECF" unicode="&#x1ecf;" 
d="M116 55q-68 70 -68 191t68 191t185 70t184.5 -70t67.5 -191t-67.5 -191t-184.5 -70t-185 70zM210.5 138q33.5 -40 89.5 -40q57 0 91 40.5t34 110.5q0 67 -34 106t-91 39q-56 0 -89.5 -40t-33.5 -108t33.5 -108zM295.5 620.5q13.5 9.5 13.5 22.5t-22 21t-75 14l10 84
q79 -6 123.5 -32t44.5 -68q0 -32 -14.5 -53t-40.5 -35t-71 -30l-18 50q36 17 49.5 26.5z" />
    <glyph glyph-name="uni1ED0" unicode="&#x1ed0;" 
d="M100 71q-70 86 -70 248q0 164 70 250t200 86t200 -86t70 -250q0 -162 -70 -248t-200 -86t-200 86zM203 160q32 -51 97 -51t97 51t32 159q0 110 -32 161t-97 51t-97 -51t-32 -161q0 -108 32 -159zM131 738l147 107h44l148 -107l-43 -61l-127 70l-127 -70zM470 941
q46 -9 90 -50l-105 -122l-58 33z" />
    <glyph glyph-name="uni1ED1" unicode="&#x1ed1;" 
d="M116 55q-68 70 -68 191t68 191t185 70t184.5 -70t67.5 -191t-67.5 -191t-184.5 -70t-185 70zM210.5 138q33.5 -40 89.5 -40q57 0 91 40.5t34 110.5q0 67 -34 106t-91 39q-56 0 -89.5 -40t-33.5 -108t33.5 -108zM134 597l144 108h45l143 -108l-38 -58l-128 72l-127 -72z
M431 863q45 -7 90 -49l-105 -122l-57 33z" />
    <glyph glyph-name="uni1ED2" unicode="&#x1ed2;" 
d="M100 71q-70 86 -70 248q0 164 70 250t200 86t200 -86t70 -250q0 -162 -70 -248t-200 -86t-200 86zM203 160q32 -51 97 -51t97 51t32 159q0 110 -32 161t-97 51t-97 -51t-32 -161q0 -108 32 -159zM301 747l-127 -70l-43 61l148 107h44l147 -107l-42 -61zM130 941l73 -139
l-58 -33l-104 122q43 41 89 50z" />
    <glyph glyph-name="uni1ED3" unicode="&#x1ed3;" 
d="M116 55q-68 70 -68 191t68 191t185 70t184.5 -70t67.5 -191t-67.5 -191t-184.5 -70t-185 70zM210.5 138q33.5 -40 89.5 -40q57 0 91 40.5t34 110.5q0 67 -34 106t-91 39q-56 0 -89.5 -40t-33.5 -108t33.5 -108zM301 611l-128 -72l-38 58l143 108h45l144 -108l-39 -58z
M169 863l73 -138l-58 -33l-105 122q47 42 90 49z" />
    <glyph glyph-name="uni1ED4" unicode="&#x1ed4;" 
d="M100 71q-70 86 -70 248q0 164 70 250t200 86t200 -86t70 -250q0 -162 -70 -248t-200 -86t-200 86zM203 160q32 -51 97 -51t97 51t32 159q0 110 -32 161t-97 51t-97 -51t-32 -161q0 -108 32 -159zM131 738l147 107h44l59 -43l-11 32q29 13 41 21.5t12 19.5t-18 17.5
t-63 11.5l8 70q66 -5 103.5 -26.5t37.5 -56.5q0 -38 -23.5 -58.5t-75.5 -38.5l78 -56l-43 -61l-127 70l-127 -70z" />
    <glyph glyph-name="uni1ED5" unicode="&#x1ed5;" 
d="M116 55q-68 70 -68 191t68 191t185 70t184.5 -70t67.5 -191t-67.5 -191t-184.5 -70t-185 70zM210.5 138q33.5 -40 89.5 -40q57 0 91 40.5t34 110.5q0 67 -34 106t-91 39q-56 0 -89.5 -40t-33.5 -108t33.5 -108zM134 597l144 108h45l143 -108l-38 -58l-128 72l-127 -72z
M295.5 813.5q13.5 9.5 13.5 22.5t-22 21t-75 14l10 84q79 -6 123.5 -32t44.5 -68q0 -32 -14.5 -53t-40.5 -35t-71 -30l-18 50q36 17 49.5 26.5z" />
    <glyph glyph-name="uni1ED6" unicode="&#x1ed6;" 
d="M100 71q-70 86 -70 248q0 164 70 250t200 86t200 -86t70 -250q0 -162 -70 -248t-200 -86t-200 86zM203 160q32 -51 97 -51t97 51t32 159q0 110 -32 161t-97 51t-97 -51t-32 -161q0 -108 32 -159zM131 738l147 107h44l148 -107l-43 -61l-127 70l-127 -70zM203.5 966.5
q22.5 26.5 48.5 26.5q13 0 26.5 -6.5t31.5 -18.5q17 -11 27 -16t19 -5q11 0 21 12.5t23 37.5l42 -17q-41 -107 -90 -107q-14 0 -27 6t-33 19q-16 10 -26.5 15t-19.5 5q-21 0 -44 -50l-42 18q21 54 43.5 80.5z" />
    <glyph glyph-name="uni1ED7" unicode="&#x1ed7;" 
d="M116 55q-68 70 -68 191t68 191t185 70t184.5 -70t67.5 -191t-67.5 -191t-184.5 -70t-185 70zM210.5 138q33.5 -40 89.5 -40q57 0 91 40.5t34 110.5q0 67 -34 106t-91 39q-56 0 -89.5 -40t-33.5 -108t33.5 -108zM134 597l144 108h45l143 -108l-38 -58l-128 72l-127 -72z
M202.5 858.5q22.5 26.5 48.5 26.5q13 0 26.5 -6.5t31.5 -18.5q17 -11 27 -16t19 -5q11 0 21 12.5t23 37.5l42 -17q-41 -107 -90 -107q-14 0 -27 6t-33 19q-16 10 -26.5 15t-19.5 5q-21 0 -44 -50l-42 18q21 54 43.5 80.5z" />
    <glyph glyph-name="uni1ED8" unicode="&#x1ed8;" 
d="M100 71q-70 86 -70 248q0 164 70 250t200 86t200 -86t70 -250q0 -162 -70 -248t-200 -86t-200 86zM203 160q32 -51 97 -51t97 51t32 159q0 110 -32 161t-97 51t-97 -51t-32 -161q0 -108 32 -159zM235 -169q-24 21 -24 56t24 56t65 21q40 0 63.5 -21t23.5 -56t-23.5 -56
t-63.5 -21q-41 0 -65 21zM131 739l147 107h44l148 -107l-43 -61l-127 70l-127 -70z" />
    <glyph glyph-name="uni1ED9" unicode="&#x1ed9;" 
d="M116 55q-68 70 -68 191t68 191t185 70t184.5 -70t67.5 -191t-67.5 -191t-184.5 -70t-185 70zM210.5 138q33.5 -40 89.5 -40q57 0 91 40.5t34 110.5q0 67 -34 106t-91 39q-56 0 -89.5 -40t-33.5 -108t33.5 -108zM236 -169q-24 21 -24 56t24 56t65 21q40 0 63.5 -21
t23.5 -56t-23.5 -56t-63.5 -21q-41 0 -65 21zM134 597l144 108h45l143 -108l-38 -58l-128 72l-127 -72z" />
    <glyph glyph-name="uni1EDA" unicode="&#x1eda;" 
d="M100 71q-70 86 -70 248q0 164 70 250t200 86q56 0 102 -17q36 2 50 13.5t14 33.5q0 12 -8 48l100 12q14 -44 14 -77q0 -78 -65 -108q63 -88 63 -241q0 -162 -70 -248t-200 -86t-200 86zM203 160q32 -51 97 -51t97 51t32 159q0 110 -32 161t-97 51t-97 -51t-32 -161
q0 -108 32 -159zM225 674l-39 68l185 100l45 -101z" />
    <glyph glyph-name="uni1EDB" unicode="&#x1edb;" 
d="M116 55q-68 70 -68 191t68 191t185 70q50 0 95 -14q35 2 49 13.5t14 33.5q0 11 -8 47l100 12q13 -40 13 -77q0 -78 -60 -107q49 -66 49 -169q0 -121 -67.5 -191t-184.5 -70t-185 70zM210.5 138q33.5 -40 89.5 -40q57 0 91 40.5t34 110.5q0 67 -34 106t-91 39
q-56 0 -89.5 -40t-33.5 -108t33.5 -108zM280 545l-62 55l125 151q52 -21 97 -84z" />
    <glyph glyph-name="uni1EDC" unicode="&#x1edc;" 
d="M100 71q-70 86 -70 248q0 164 70 250t200 86q56 0 102 -17q36 2 50 13.5t14 33.5q0 12 -8 48l100 12q14 -44 14 -77q0 -78 -65 -108q63 -88 63 -241q0 -162 -70 -248t-200 -86t-200 86zM203 160q32 -51 97 -51t97 51t32 159q0 110 -32 161t-97 51t-97 -51t-32 -161
q0 -108 32 -159zM229 842l185 -100l-39 -68l-191 67z" />
    <glyph glyph-name="uni1EDD" unicode="&#x1edd;" 
d="M116 55q-68 70 -68 191t68 191t185 70q50 0 95 -14q35 2 49 13.5t14 33.5q0 11 -8 47l100 12q13 -40 13 -77q0 -78 -60 -107q49 -66 49 -169q0 -121 -67.5 -191t-184.5 -70t-185 70zM210.5 138q33.5 -40 89.5 -40q57 0 91 40.5t34 110.5q0 67 -34 106t-91 39
q-56 0 -89.5 -40t-33.5 -108t33.5 -108zM258 751l125 -151l-62 -55l-160 122q45 63 97 84z" />
    </font>
</defs>
</svg>
